<svg xmlns="http://www.w3.org/2000/svg" version="1.1" width="3300" height="2000"><g id="Notes"><style>
    text {
      font-family: monospace;
      text-anchor: middle;
    }
    text.emphasis {
      font-weight:bold;
    }
    text.lanchor {
      text-anchor: start;
    }
  </style><rect height="2200" id="artboard" fill="white" width="3300" x="0" y="0"/><line id="" style="fill:none;stroke:black;stroke-width:0.5;" x1="263" x2="3036" y1="292" y2="292"/><text class="lanchor emphasis" transform="matrix(1 0 0 1 263 322)">Weight/Scale Variations</text><text transform="matrix(1 0 0 1 559.711 322)">Ultralight</text><text transform="matrix(1 0 0 1 856.422 322)">Thin</text><text transform="matrix(1 0 0 1 1153.13 322)">Light</text><text transform="matrix(1 0 0 1 1449.84 322)">Regular</text><text transform="matrix(1 0 0 1 1746.56 322)">Medium</text><text transform="matrix(1 0 0 1 2043.27 322)">Semibold</text><text transform="matrix(1 0 0 1 2339.98 322)">Bold</text><text transform="matrix(1 0 0 1 2636.69 322)">Heavy</text><text transform="matrix(1 0 0 1 2933.4 322)">Black</text><text id="template-version" style="text-anchor: end;" transform="matrix(1 0 0 1 3036 1933)">Template v.1.0</text><text class="lanchor" transform="matrix(1 0 0 1 263 726)">Small</text><text class="lanchor" transform="matrix(1 0 0 1 263 1156)">Medium</text><text class="lanchor" transform="matrix(1 0 0 1 263 1586)">Large</text></g><g id="Guides"><g id="H-reference" style="fill:#27AAE1;stroke:none;" transform="matrix(1 0 0 1 339 696)"><path d="M 54.9316 0 L 57.666 0 L 30.5664 -70.459 L 28.0762 -70.459 L 0.976562 0 L 3.66211 0 L 12.9395 -24.4629 L 45.7031 -24.4629 Z M 29.1992 -67.0898 L 29.4434 -67.0898 L 44.8242 -26.709 L 13.8184 -26.709 Z"/></g><line id="Baseline-S" style="fill:none;stroke:#27AAE1;opacity:1;stroke-width:0.577;" x1="263" x2="3036" y1="696" y2="696"/><line id="Capline-S" style="fill:none;stroke:#27AAE1;opacity:1;stroke-width:0.577;" x1="263" x2="3036" y1="625.541" y2="625.541"/><g id="H-reference" style="fill:#27AAE1;stroke:none;" transform="matrix(1 0 0 1 339 1126)"><path d="M 54.9316 0 L 57.666 0 L 30.5664 -70.459 L 28.0762 -70.459 L 0.976562 0 L 3.66211 0 L 12.9395 -24.4629 L 45.7031 -24.4629 Z M 29.1992 -67.0898 L 29.4434 -67.0898 L 44.8242 -26.709 L 13.8184 -26.709 Z"/></g><line id="Baseline-M" style="fill:none;stroke:#27AAE1;opacity:1;stroke-width:0.577;" x1="263" x2="3036" y1="1126" y2="1126"/><line id="Capline-M" style="fill:none;stroke:#27AAE1;opacity:1;stroke-width:0.577;" x1="263" x2="3036" y1="1055.54" y2="1055.54"/><g id="H-reference" style="fill:#27AAE1;stroke:none;" transform="matrix(1 0 0 1 339 1556)"><path d="M 54.9316 0 L 57.666 0 L 30.5664 -70.459 L 28.0762 -70.459 L 0.976562 0 L 3.66211 0 L 12.9395 -24.4629 L 45.7031 -24.4629 Z M 29.1992 -67.0898 L 29.4434 -67.0898 L 44.8242 -26.709 L 13.8184 -26.709 Z"/></g><line id="Baseline-L" style="fill:none;stroke:#27AAE1;opacity:1;stroke-width:0.577;" x1="263" x2="3036" y1="1556" y2="1556"/><line id="Capline-L" style="fill:none;stroke:#27AAE1;opacity:1;stroke-width:0.577;" x1="263" x2="3036" y1="1485.54" y2="1485.54"/><rect height="119.336" id="left-margin" style="fill:darkred;stroke:none;opacity:0.4;" width="12.4512" x="1394.06" y="1030.79"/><rect height="119.336" id="right-margin" style="fill:darkgreen;stroke:none;opacity:0.4;" width="12.4512" x="1502.5112" y="1030.79"/><rect x="1406.5112" y="1045" width="96" height="96" fill="none" stroke="blue" stroke-dasharray="5"/><rect x="1394.06" y="1030.79" width="120.9024" height="119.336" fill="none" stroke="blue"/></g><g id="Symbols"><g id="Bold-L" transform="matrix(1 0 0 1 2266 1556)"><path d="M95.944 -35.23  69.015 -71.189 Q66.112 -74.897 68.289 -79.009 Q70.466 -83.121 75.142 -83.121 Q76.916 -83.121 78.529 -82.315 Q80.141 -81.509 81.27 -80.057 L114.649 -35.23 L81.27 9.598 Q80.141 11.049 78.529 11.855 Q76.916 12.661 75.142 12.661 Q70.466 12.661 68.37 8.63 Q66.274 4.599 69.176 0.568 L95.944 -35.23 Z"/></g><g id="Semibold-L" transform="matrix(1 0 0 1 1970.27 1556)"><path d="M94.752 -35.23  67.262 -71.89 Q64.85 -74.967 66.641 -78.448 Q68.433 -81.93 72.408 -81.93 Q73.902 -81.93 75.234 -81.228 Q76.566 -80.527 77.555 -79.356 L110.513 -35.23 L77.555 8.896 Q76.566 10.067 75.234 10.768 Q73.902 11.47 72.408 11.47 Q68.504 11.47 66.758 8.069 Q65.011 4.668 67.423 1.338 L94.752 -35.23 Z"/></g><g id="Medium-L" transform="matrix(1 0 0 1 1674.31 1556)"><path d="M93.859 -35.23  65.948 -72.416 Q63.903 -75.02 65.406 -78.027 Q66.907 -81.036 70.358 -81.036 Q71.64 -81.036 72.762 -80.414 Q73.885 -79.791 74.767 -78.83 L107.41 -35.23 L74.767 8.37 Q73.885 9.331 72.762 9.954 Q71.64 10.576 70.358 10.576 Q67.032 10.576 65.548 7.648 Q64.065 4.721 66.109 1.917 L93.859 -35.23 Z"/></g><g id="Regular-L" transform="matrix(1 0 0 1 1378.56 1556)"><path d="M93.203 -35.23  64.984 -72.801 Q63.21 -75.059 64.5 -77.719 Q65.79 -80.38 68.854 -80.38 Q69.983 -80.38 70.95 -79.816 Q71.918 -79.251 72.724 -78.445 L105.135 -35.23 L72.724 7.985 Q71.918 8.791 70.95 9.356 Q69.983 9.92 68.854 9.92 Q65.951 9.92 64.661 7.34 Q63.371 4.76 65.145 2.341 L93.203 -35.23 Z"/></g><g id="Light-L" transform="matrix(1 0 0 1 1082.77 1556)"><path d="M95.373 -35.23  67.341 -73.05 Q66.001 -74.749 66.982 -76.758 Q67.96 -78.767 70.292 -78.767 Q71.127 -78.767 71.843 -78.353 Q72.561 -77.937 73.158 -77.329 L104.39 -35.23 L73.158 6.806 Q72.558 7.477 71.838 7.893 Q71.119 8.308 70.281 8.308 Q68.06 8.308 67.08 6.348 Q66.1 4.388 67.44 2.59 L95.373 -35.23 Z"/></g><g id="Thin-L" transform="matrix(1 0 0 1 787.282 1556)"><path d="M97.543 -35.23  69.697 -73.298 Q68.792 -74.438 69.462 -75.797 Q70.131 -77.155 71.73 -77.155 Q72.272 -77.155 72.738 -76.891 Q73.203 -76.624 73.591 -76.212 L103.647 -35.23 L73.591 5.628 Q73.199 6.164 72.729 6.431 Q72.256 6.695 71.706 6.695 Q70.168 6.695 69.499 5.355 Q68.83 4.015 69.734 2.838 L97.543 -35.23 Z"/></g><g id="Ultralight-L" transform="matrix(1 0 0 1 491.205 1556)"><path d="M98.846 -35.23  71.111 -73.446 Q70.466 -74.252 70.95 -75.22 Q71.434 -76.187 72.593 -76.187 Q72.961 -76.187 73.274 -76.012 Q73.588 -75.836 73.853 -75.542 L103.2 -35.23 L73.853 4.921 Q73.583 5.376 73.261 5.552 Q72.938 5.728 72.562 5.728 Q71.434 5.728 70.95 4.76 Q70.466 3.793 71.111 2.986 L98.846 -35.23 Z"/></g><g id="Bold-M" transform="matrix(1 0 0 1 2281.8 1126)"><path d="M66.625 -35.23  48.625 -60.605 Q45.75 -64.605 48 -68.855 Q50.25 -73.105 55 -73.105 Q56.875 -73.105 58.625 -72.23 Q60.375 -71.355 61.5 -69.73 L86 -35.23 L61.5 -0.73 Q60.375 0.895 58.688 1.77 Q57 2.645 55 2.645 Q50.25 2.645 48 -1.605 Q45.75 -5.855 48.625 -9.855 L66.625 -35.23 Z"/></g><g id="Semibold-M" transform="matrix(1 0 0 1 1985.97 1126)"><path d="M65.43 -35.23  46.831 -61.366 Q44.446 -64.714 46.289 -68.285 Q48.13 -71.855 52.174 -71.855 Q53.778 -71.855 55.256 -71.116 Q56.734 -70.376 57.641 -69.024 L81.706 -35.23 L57.641 -1.436 Q56.734 -0.084 55.291 0.656 Q53.847 1.395 52.174 1.395 Q48.185 1.395 46.315 -2.175 Q44.446 -5.746 46.831 -9.094 L65.43 -35.23 Z"/></g><g id="Medium-M" transform="matrix(1 0 0 1 1689.91 1126)"><path d="M64.532 -35.23  45.486 -61.936 Q43.468 -64.795 45.004 -67.856 Q46.541 -70.917 50.055 -70.917 Q51.454 -70.917 52.729 -70.28 Q54.002 -69.642 54.748 -68.494 L78.486 -35.23 L54.748 -1.966 Q54.002 -0.817 52.744 -0.18 Q51.484 0.458 50.055 0.458 Q46.636 0.458 45.051 -2.604 Q43.468 -5.665 45.486 -8.524 L64.532 -35.23 Z"/></g><g id="Regular-M" transform="matrix(1 0 0 1 1394.06 1126)"><path d="M63.875 -35.23  44.5 -62.355 Q42.75 -64.855 44.062 -67.542 Q45.375 -70.23 48.5 -70.23 Q49.75 -70.23 50.875 -69.667 Q52 -69.105 52.625 -68.105 L76.125 -35.23 L52.625 -2.355 Q52 -1.355 50.875 -0.792 Q49.75 -0.23 48.5 -0.23 Q45.5 -0.23 44.125 -2.917 Q42.75 -5.605 44.5 -8.105 L63.875 -35.23 Z"/></g><g id="Light-M" transform="matrix(1 0 0 1 1098.18 1126)"><path d="M67.817 -35.23  47.914 -63.076 Q46.596 -64.951 47.596 -66.965 Q48.596 -68.98 50.914 -68.98 Q51.84 -68.98 52.674 -68.557 Q53.508 -68.135 53.971 -67.384 L76.99 -35.23 L53.971 -3.076 Q53.506 -2.325 52.67 -1.902 Q51.834 -1.48 50.904 -1.48 Q48.674 -1.48 47.635 -3.495 Q46.596 -5.509 47.914 -7.384 L67.817 -35.23 Z"/></g><g id="Thin-M" transform="matrix(1 0 0 1 802.565 1126)"><path d="M71.76 -35.23  51.328 -63.797 Q50.443 -65.047 51.13 -66.389 Q51.818 -67.73 53.326 -67.73 Q53.929 -67.73 54.472 -67.447 Q55.015 -67.165 55.318 -66.662 L77.856 -35.23 L55.318 -3.797 Q55.013 -3.295 54.465 -3.012 Q53.916 -2.73 53.307 -2.73 Q51.846 -2.73 51.144 -4.071 Q50.443 -5.412 51.328 -6.662 L71.76 -35.23 Z"/></g><g id="Ultralight-M" transform="matrix(1 0 0 1 506.415 1126)"><path d="M74.125 -35.23  53.375 -64.23 Q52.75 -65.105 53.25 -66.042 Q53.75 -66.98 54.774 -66.98 Q55.184 -66.98 55.551 -66.781 Q55.92 -66.582 56.125 -66.23 L78.375 -35.23 L56.125 -4.23 Q55.916 -3.877 55.541 -3.679 Q55.166 -3.48 54.75 -3.48 Q53.75 -3.48 53.25 -4.417 Q52.75 -5.355 53.375 -6.23 L74.125 -35.23 Z"/></g><g id="Bold-S" transform="matrix(1 0 0 1 2294.23 696)"><path d="M53.258 -35.23  41.718 -51.404 Q39.45 -54.529 41.275 -57.849 Q43.099 -61.168 46.754 -61.168 Q48.196 -61.168 49.543 -60.527 Q50.891 -59.886 51.778 -58.604 L68.347 -35.23 L51.778 -11.856 Q50.905 -10.62 49.6 -9.956 Q48.297 -9.292 46.748 -9.292 Q43.001 -9.292 41.225 -12.611 Q39.45 -15.931 41.718 -19.055 L53.258 -35.23 Z"/></g><g id="Semibold-S" transform="matrix(1 0 0 1 1998.1 696)"><path d="M52.315 -35.23  40.303 -52.005 Q38.421 -54.615 39.924 -57.399 Q41.426 -60.182 44.524 -60.182 Q45.752 -60.182 46.884 -59.649 Q48.018 -59.114 48.734 -58.047 L64.959 -35.23 L48.734 -12.413 Q48.032 -11.392 46.921 -10.835 Q45.809 -10.278 44.518 -10.278 Q41.371 -10.278 39.896 -13.061 Q38.421 -15.845 40.303 -18.455 L52.315 -35.23 Z"/></g><g id="Medium-S" transform="matrix(1 0 0 1 1701.85 696)"><path d="M51.607 -35.23  39.242 -52.455 Q37.649 -54.679 38.911 -57.061 Q40.173 -59.442 42.852 -59.442 Q43.919 -59.442 44.891 -58.989 Q45.863 -58.535 46.45 -57.629 L62.419 -35.23 L46.45 -12.831 Q45.877 -11.971 44.911 -11.494 Q43.944 -11.018 42.847 -11.018 Q40.149 -11.018 38.899 -13.399 Q37.649 -15.781 39.242 -18.005 L51.607 -35.23 Z"/></g><g id="Regular-S" transform="matrix(1 0 0 1 1405.73 696)"><path d="M51.088 -35.23  38.464 -52.785 Q37.083 -54.726 38.168 -56.813 Q39.253 -58.9 41.626 -58.9 Q42.574 -58.9 43.429 -58.505 Q44.283 -58.111 44.776 -57.322 L60.556 -35.23 L44.776 -13.138 Q44.297 -12.395 43.436 -11.978 Q42.576 -11.56 41.62 -11.56 Q39.253 -11.56 38.168 -13.647 Q37.083 -15.734 38.464 -17.675 L51.088 -35.23 Z"/></g><g id="Light-S" transform="matrix(1 0 0 1 1109.75 696)"><path d="M54.198 -35.23  41.157 -53.354 Q40.118 -54.802 40.956 -56.358 Q41.794 -57.914 43.529 -57.914 Q44.223 -57.914 44.848 -57.63 Q45.472 -57.346 45.838 -56.753 L61.238 -35.23 L45.838 -13.707 Q45.486 -13.161 44.853 -12.854 Q44.22 -12.546 43.516 -12.546 Q41.757 -12.546 40.937 -14.102 Q40.118 -15.658 41.157 -17.106 L54.198 -35.23 Z"/></g><g id="Thin-S" transform="matrix(1 0 0 1 814.015 696)"><path d="M57.309 -35.23  43.851 -53.923 Q43.152 -54.878 43.744 -55.903 Q44.336 -56.927 45.433 -56.927 Q45.871 -56.927 46.267 -56.754 Q46.661 -56.58 46.9 -56.184 L61.922 -35.23 L46.9 -14.276 Q46.674 -13.926 46.269 -13.73 Q45.864 -13.532 45.413 -13.532 Q44.26 -13.532 43.706 -14.557 Q43.152 -15.582 43.851 -16.537 L57.309 -35.23 Z"/></g><g id="Ultralight-S" transform="matrix(1 0 0 1 517.792 696)"><path d="M59.175 -35.23  45.466 -54.265 Q44.973 -54.923 45.417 -55.63 Q45.861 -56.336 46.576 -56.336 Q46.861 -56.336 47.118 -56.228 Q47.376 -56.121 47.537 -55.843 L62.331 -35.23 L47.537 -14.617 Q47.387 -14.386 47.119 -14.254 Q46.85 -14.124 46.551 -14.124 Q45.762 -14.124 45.367 -14.83 Q44.973 -15.537 45.466 -16.195 L59.175 -35.23 Z"/></g></g></svg>