<svg xmlns="http://www.w3.org/2000/svg" version="1.1" width="3300" height="2000"><g id="Notes"><style>
    text {
      font-family: monospace;
      text-anchor: middle;
    }
    text.emphasis {
      font-weight:bold;
    }
    text.lanchor {
      text-anchor: start;
    }
  </style><rect height="2200" id="artboard" fill="white" width="3300" x="0" y="0"/><line id="" style="fill:none;stroke:black;stroke-width:0.5;" x1="263" x2="3036" y1="292" y2="292"/><text class="lanchor emphasis" transform="matrix(1 0 0 1 263 322)">Weight/Scale Variations</text><text transform="matrix(1 0 0 1 559.711 322)">Ultralight</text><text transform="matrix(1 0 0 1 856.422 322)">Thin</text><text transform="matrix(1 0 0 1 1153.13 322)">Light</text><text transform="matrix(1 0 0 1 1449.84 322)">Regular</text><text transform="matrix(1 0 0 1 1746.56 322)">Medium</text><text transform="matrix(1 0 0 1 2043.27 322)">Semibold</text><text transform="matrix(1 0 0 1 2339.98 322)">Bold</text><text transform="matrix(1 0 0 1 2636.69 322)">Heavy</text><text transform="matrix(1 0 0 1 2933.4 322)">Black</text><text id="template-version" style="text-anchor: end;" transform="matrix(1 0 0 1 3036 1933)">Template v.1.0</text><text class="lanchor" transform="matrix(1 0 0 1 263 726)">Small</text><text class="lanchor" transform="matrix(1 0 0 1 263 1156)">Medium</text><text class="lanchor" transform="matrix(1 0 0 1 263 1586)">Large</text></g><g id="Guides"><g id="H-reference" style="fill:#27AAE1;stroke:none;" transform="matrix(1 0 0 1 339 696)"><path d="M 54.9316 0 L 57.666 0 L 30.5664 -70.459 L 28.0762 -70.459 L 0.976562 0 L 3.66211 0 L 12.9395 -24.4629 L 45.7031 -24.4629 Z M 29.1992 -67.0898 L 29.4434 -67.0898 L 44.8242 -26.709 L 13.8184 -26.709 Z"/></g><line id="Baseline-S" style="fill:none;stroke:#27AAE1;opacity:1;stroke-width:0.577;" x1="263" x2="3036" y1="696" y2="696"/><line id="Capline-S" style="fill:none;stroke:#27AAE1;opacity:1;stroke-width:0.577;" x1="263" x2="3036" y1="625.541" y2="625.541"/><g id="H-reference" style="fill:#27AAE1;stroke:none;" transform="matrix(1 0 0 1 339 1126)"><path d="M 54.9316 0 L 57.666 0 L 30.5664 -70.459 L 28.0762 -70.459 L 0.976562 0 L 3.66211 0 L 12.9395 -24.4629 L 45.7031 -24.4629 Z M 29.1992 -67.0898 L 29.4434 -67.0898 L 44.8242 -26.709 L 13.8184 -26.709 Z"/></g><line id="Baseline-M" style="fill:none;stroke:#27AAE1;opacity:1;stroke-width:0.577;" x1="263" x2="3036" y1="1126" y2="1126"/><line id="Capline-M" style="fill:none;stroke:#27AAE1;opacity:1;stroke-width:0.577;" x1="263" x2="3036" y1="1055.54" y2="1055.54"/><g id="H-reference" style="fill:#27AAE1;stroke:none;" transform="matrix(1 0 0 1 339 1556)"><path d="M 54.9316 0 L 57.666 0 L 30.5664 -70.459 L 28.0762 -70.459 L 0.976562 0 L 3.66211 0 L 12.9395 -24.4629 L 45.7031 -24.4629 Z M 29.1992 -67.0898 L 29.4434 -67.0898 L 44.8242 -26.709 L 13.8184 -26.709 Z"/></g><line id="Baseline-L" style="fill:none;stroke:#27AAE1;opacity:1;stroke-width:0.577;" x1="263" x2="3036" y1="1556" y2="1556"/><line id="Capline-L" style="fill:none;stroke:#27AAE1;opacity:1;stroke-width:0.577;" x1="263" x2="3036" y1="1485.54" y2="1485.54"/><rect height="119.336" id="left-margin" style="fill:darkred;stroke:none;opacity:0.4;" width="12.4512" x="1394.06" y="1030.79"/><rect height="119.336" id="right-margin" style="fill:darkgreen;stroke:none;opacity:0.4;" width="12.4512" x="1502.5112" y="1030.79"/><rect x="1406.5112" y="1045" width="96" height="96" fill="none" stroke="blue" stroke-dasharray="5"/><rect x="1394.06" y="1030.79" width="120.9024" height="119.336" fill="none" stroke="blue"/></g><g id="Symbols"><g id="Bold-L" transform="matrix(1 0 0 1 2266 1556)"><path d="M95.299 -35.23  68.37 -71.189 Q65.468 -75.059 67.483 -78.929 Q69.499 -82.799 74.175 -82.799 Q75.788 -82.799 77.481 -81.992 Q79.174 -81.186 80.141 -79.896 L113.359 -35.23 L80.141 9.275 Q79.174 10.726 77.481 11.533 Q75.788 12.339 74.175 12.339 Q69.499 12.339 67.564 8.469 Q65.629 4.599 68.531 0.568 L95.299 -35.23 Z"/></g><g id="Semibold-L" transform="matrix(1 0 0 1 1970.27 1556)"><path d="M95.72 -35.299  68.37 -71.819 Q65.748 -75.268 67.588 -78.824 Q69.429 -82.378 73.685 -82.378 Q75.157 -82.378 76.639 -81.643 Q78.122 -80.906 79.09 -79.756 L112.236 -35.299 L79.09 9.065 Q78.122 10.376 76.639 11.112 Q75.157 11.849 73.685 11.849 Q69.499 11.849 67.704 8.293 Q65.909 4.739 68.531 1.129 L95.72 -35.299 Z"/></g><g id="Medium-L" transform="matrix(1 0 0 1 1674.31 1556)"><path d="M96.036 -35.353  68.37 -72.293 Q65.958 -75.426 67.667 -78.745 Q69.376 -82.062 73.316 -82.062 Q74.683 -82.062 76.008 -81.38 Q77.334 -80.696 78.301 -79.651 L111.396 -35.353 L78.301 8.907 Q77.334 10.114 76.008 10.796 Q74.683 11.479 73.316 11.479 Q69.499 11.479 67.809 8.162 Q66.119 4.844 68.531 1.55 L96.036 -35.353 Z"/></g><g id="Regular-L" transform="matrix(1 0 0 1 1378.56 1556)"><path d="M96.266 -35.391  68.37 -72.64 Q66.112 -75.542 67.725 -78.687 Q69.338 -81.831 73.046 -81.831 Q74.336 -81.831 75.546 -81.186 Q76.755 -80.541 77.722 -79.574 L110.779 -35.391 L77.722 8.791 Q76.755 9.92 75.546 10.565 Q74.336 11.21 73.046 11.21 Q69.499 11.21 67.886 8.066 Q66.274 4.921 68.531 1.858 L96.266 -35.391 Z"/></g><g id="Light-L" transform="matrix(1 0 0 1 1082.77 1556)"><path d="M98.437 -35.391  70.727 -72.888 Q68.904 -75.233 70.207 -77.726 Q71.508 -80.219 74.485 -80.219 Q75.481 -80.219 76.439 -79.724 Q77.398 -79.227 78.156 -78.458 L110.034 -35.391 L78.156 7.613 Q77.395 8.606 76.434 9.102 Q75.473 9.598 74.473 9.598 Q71.608 9.598 70.305 7.074 Q69.002 4.549 70.826 2.106 L98.437 -35.391 Z"/></g><g id="Thin-L" transform="matrix(1 0 0 1 787.282 1556)"><path d="M100.607 -35.391  73.083 -73.137 Q71.695 -74.922 72.687 -76.765 Q73.678 -78.606 75.923 -78.606 Q76.626 -78.606 77.334 -78.261 Q78.04 -77.914 78.59 -77.34 L109.29 -35.391 L78.59 6.434 Q78.037 7.293 77.324 7.64 Q76.61 7.985 75.899 7.985 Q73.715 7.985 72.724 6.081 Q71.732 4.176 73.12 2.354 L100.607 -35.391 Z"/></g><g id="Ultralight-L" transform="matrix(1 0 0 1 491.205 1556)"><path d="M101.91 -35.391  74.498 -73.285 Q73.369 -74.736 74.175 -76.187 Q74.981 -77.639 76.786 -77.639 Q77.315 -77.639 77.869 -77.382 Q78.426 -77.126 78.851 -76.671 L108.844 -35.391 L78.851 5.728 Q78.421 6.505 77.856 6.761 Q77.292 7.018 76.755 7.018 Q74.981 7.018 74.175 5.486 Q73.369 3.954 74.498 2.503 L101.91 -35.391 Z"/></g><g id="Bold-M" transform="matrix(1 0 0 1 2281.8 1126)"><path d="M68.5 -35.23  50.625 -60.48 Q47.5 -64.855 49.938 -69.417 Q52.375 -73.98 57.5 -73.98 Q59.5 -73.98 61.375 -73.042 Q63.25 -72.105 64.5 -70.355 L89.375 -35.23 L64.5 -0.23 Q63.25 1.52 61.438 2.458 Q59.625 3.395 57.5 3.395 Q52.25 3.395 49.875 -1.23 Q47.5 -5.855 50.625 -10.105 L68.5 -35.23 Z"/></g><g id="Semibold-M" transform="matrix(1 0 0 1 1985.97 1126)"><path d="M68.554 -35.284  50.19 -61.186 Q47.391 -65.072 49.584 -69.2 Q51.778 -73.327 56.413 -73.327 Q58.25 -73.327 59.907 -72.499 Q61.565 -71.67 62.706 -70.084 L87.419 -35.284 L62.706 -0.556 Q61.565 1.031 59.943 1.86 Q58.321 2.689 56.413 2.689 Q51.706 2.689 49.549 -1.501 Q47.391 -5.692 50.19 -9.507 L68.554 -35.284 Z"/></g><g id="Medium-M" transform="matrix(1 0 0 1 1689.91 1126)"><path d="M68.595 -35.325  49.864 -61.716 Q47.31 -65.235 49.319 -69.037 Q51.329 -72.839 55.597 -72.839 Q57.312 -72.839 58.807 -72.091 Q60.301 -71.344 61.361 -69.88 L85.951 -35.325 L61.361 -0.801 Q60.301 0.664 58.822 1.411 Q57.343 2.159 55.597 2.159 Q51.299 2.159 49.304 -1.705 Q47.31 -5.57 49.864 -9.059 L68.595 -35.325 Z"/></g><g id="Regular-M" transform="matrix(1 0 0 1 1394.06 1126)"><path d="M68.625 -35.355  49.625 -62.105 Q47.25 -65.355 49.125 -68.917 Q51 -72.48 55 -72.48 Q56.625 -72.48 58 -71.792 Q59.375 -71.105 60.375 -69.73 L84.875 -35.355 L60.375 -0.98 Q59.375 0.395 58 1.083 Q56.625 1.77 55 1.77 Q51 1.77 49.125 -1.855 Q47.25 -5.48 49.625 -8.73 L68.625 -35.355 Z"/></g><g id="Light-M" transform="matrix(1 0 0 1 1098.18 1126)"><path d="M72.567 -35.355  53.039 -62.826 Q51.096 -65.451 52.659 -68.34 Q54.221 -71.23 57.414 -71.23 Q58.715 -71.23 59.799 -70.682 Q60.883 -70.135 61.721 -69.009 L85.74 -35.355 L61.721 -1.701 Q60.881 -0.575 59.795 -0.027 Q58.709 0.52 57.404 0.52 Q54.174 0.52 52.635 -2.432 Q51.096 -5.384 53.039 -8.009 L72.567 -35.355 Z"/></g><g id="Thin-M" transform="matrix(1 0 0 1 802.565 1126)"><path d="M76.51 -35.355  56.453 -63.547 Q54.943 -65.547 56.193 -67.764 Q57.443 -69.98 59.826 -69.98 Q60.804 -69.98 61.597 -69.572 Q62.39 -69.165 63.068 -68.287 L86.606 -35.355 L63.068 -2.422 Q62.388 -1.545 61.59 -1.137 Q60.791 -0.73 59.807 -0.73 Q57.346 -0.73 56.144 -3.009 Q54.943 -5.287 56.453 -7.287 L76.51 -35.355 Z"/></g><g id="Ultralight-M" transform="matrix(1 0 0 1 506.415 1126)"><path d="M78.875 -35.355  58.5 -63.98 Q57.25 -65.605 58.312 -67.417 Q59.375 -69.23 61.274 -69.23 Q62.059 -69.23 62.676 -68.906 Q63.295 -68.582 63.875 -67.855 L87.125 -35.355 L63.875 -2.855 Q63.291 -2.127 62.666 -1.804 Q62.041 -1.48 61.25 -1.48 Q59.25 -1.48 58.25 -3.355 Q57.25 -5.23 58.5 -6.855 L78.875 -35.355 Z"/></g><g id="Bold-S" transform="matrix(1 0 0 1 2294.23 696)"><path d="M54.737 -35.23  43.296 -51.306 Q40.831 -54.726 42.803 -58.292 Q44.776 -61.859 48.727 -61.859 Q50.267 -61.859 51.713 -61.168 Q53.159 -60.478 54.145 -59.097 L71.01 -35.23 L54.145 -11.461 Q53.174 -10.127 51.77 -9.414 Q50.368 -8.7 48.721 -8.7 Q44.579 -8.7 42.705 -12.315 Q40.831 -15.931 43.296 -19.253 L54.737 -35.23 Z"/></g><g id="Semibold-S" transform="matrix(1 0 0 1 1998.1 696)"><path d="M54.779 -35.272  42.953 -51.863 Q40.745 -54.898 42.524 -58.121 Q44.304 -61.344 47.869 -61.344 Q49.281 -61.344 50.555 -60.739 Q51.829 -60.135 52.73 -58.883 L69.467 -35.272 L52.73 -11.719 Q51.844 -10.513 50.592 -9.885 Q49.338 -9.257 47.863 -9.257 Q44.149 -9.257 42.447 -12.529 Q40.745 -15.802 42.953 -18.781 L54.779 -35.272 Z"/></g><g id="Medium-S" transform="matrix(1 0 0 1 1701.85 696)"><path d="M54.812 -35.305  42.696 -52.281 Q40.681 -55.027 42.315 -57.993 Q43.95 -60.958 47.226 -60.958 Q48.541 -60.958 49.687 -60.418 Q50.832 -59.877 51.669 -58.722 L68.309 -35.305 L51.669 -11.912 Q50.847 -10.803 49.707 -10.238 Q48.567 -9.675 47.22 -9.675 Q43.828 -9.675 42.254 -12.69 Q40.681 -15.705 42.696 -18.427 L54.812 -35.305 Z"/></g><g id="Regular-S" transform="matrix(1 0 0 1 1405.73 696)"><path d="M54.836 -35.329  42.507 -52.588 Q40.634 -55.121 42.162 -57.898 Q43.691 -60.675 46.754 -60.675 Q47.999 -60.675 49.05 -60.182 Q50.102 -59.689 50.891 -58.604 L67.46 -35.329 L50.891 -12.053 Q50.116 -11.015 49.058 -10.499 Q48.001 -9.982 46.748 -9.982 Q43.592 -9.982 42.113 -12.809 Q40.634 -15.635 42.507 -18.168 L54.836 -35.329 Z"/></g><g id="Light-S" transform="matrix(1 0 0 1 1109.75 696)"><path d="M57.946 -35.329  45.201 -53.157 Q43.668 -55.197 44.95 -57.443 Q46.232 -59.689 48.658 -59.689 Q49.648 -59.689 50.469 -59.306 Q51.291 -58.924 51.953 -58.035 L68.142 -35.329 L51.953 -12.622 Q51.305 -11.78 50.474 -11.375 Q49.644 -10.968 48.645 -10.968 Q46.096 -10.968 44.882 -13.263 Q43.668 -15.559 45.201 -17.599 L57.946 -35.329 Z"/></g><g id="Thin-S" transform="matrix(1 0 0 1 814.015 696)"><path d="M61.057 -35.329  47.894 -53.726 Q46.703 -55.273 47.738 -56.988 Q48.774 -58.703 50.561 -58.703 Q51.296 -58.703 51.889 -58.431 Q52.48 -58.158 53.015 -57.466 L68.825 -35.329 L53.015 -13.191 Q52.493 -12.545 51.891 -12.25 Q51.288 -11.954 50.541 -11.954 Q48.599 -11.954 47.651 -13.719 Q46.703 -15.483 47.894 -17.03 L61.057 -35.329 Z"/></g><g id="Ultralight-S" transform="matrix(1 0 0 1 517.792 696)"><path d="M62.923 -35.329  49.51 -54.067 Q48.524 -55.318 49.411 -56.714 Q50.299 -58.111 51.704 -58.111 Q52.285 -58.111 52.74 -57.905 Q53.194 -57.699 53.652 -57.125 L69.235 -35.329 L53.652 -13.532 Q53.206 -13.005 52.741 -12.775 Q52.274 -12.546 51.68 -12.546 Q50.102 -12.546 49.312 -13.992 Q48.524 -15.438 49.51 -16.688 L62.923 -35.329 Z"/></g></g></svg>