<svg xmlns="http://www.w3.org/2000/svg" version="1.1" width="3300" height="2000"><g id="Notes"><style>
    text {
      font-family: monospace;
      text-anchor: middle;
    }
    text.emphasis {
      font-weight:bold;
    }
    text.lanchor {
      text-anchor: start;
    }
  </style><rect height="2200" id="artboard" fill="white" width="3300" x="0" y="0"/><line id="" style="fill:none;stroke:black;stroke-width:0.5;" x1="263" x2="3036" y1="292" y2="292"/><text class="lanchor emphasis" transform="matrix(1 0 0 1 263 322)">Weight/Scale Variations</text><text transform="matrix(1 0 0 1 559.711 322)">Ultralight</text><text transform="matrix(1 0 0 1 856.422 322)">Thin</text><text transform="matrix(1 0 0 1 1153.13 322)">Light</text><text transform="matrix(1 0 0 1 1449.84 322)">Regular</text><text transform="matrix(1 0 0 1 1746.56 322)">Medium</text><text transform="matrix(1 0 0 1 2043.27 322)">Semibold</text><text transform="matrix(1 0 0 1 2339.98 322)">Bold</text><text transform="matrix(1 0 0 1 2636.69 322)">Heavy</text><text transform="matrix(1 0 0 1 2933.4 322)">Black</text><text id="template-version" style="text-anchor: end;" transform="matrix(1 0 0 1 3036 1933)">Template v.1.0</text><text class="lanchor" transform="matrix(1 0 0 1 263 726)">Small</text><text class="lanchor" transform="matrix(1 0 0 1 263 1156)">Medium</text><text class="lanchor" transform="matrix(1 0 0 1 263 1586)">Large</text></g><g id="Guides"><g id="H-reference" style="fill:#27AAE1;stroke:none;" transform="matrix(1 0 0 1 339 696)"><path d="M 54.9316 0 L 57.666 0 L 30.5664 -70.459 L 28.0762 -70.459 L 0.976562 0 L 3.66211 0 L 12.9395 -24.4629 L 45.7031 -24.4629 Z M 29.1992 -67.0898 L 29.4434 -67.0898 L 44.8242 -26.709 L 13.8184 -26.709 Z"/></g><line id="Baseline-S" style="fill:none;stroke:#27AAE1;opacity:1;stroke-width:0.577;" x1="263" x2="3036" y1="696" y2="696"/><line id="Capline-S" style="fill:none;stroke:#27AAE1;opacity:1;stroke-width:0.577;" x1="263" x2="3036" y1="625.541" y2="625.541"/><g id="H-reference" style="fill:#27AAE1;stroke:none;" transform="matrix(1 0 0 1 339 1126)"><path d="M 54.9316 0 L 57.666 0 L 30.5664 -70.459 L 28.0762 -70.459 L 0.976562 0 L 3.66211 0 L 12.9395 -24.4629 L 45.7031 -24.4629 Z M 29.1992 -67.0898 L 29.4434 -67.0898 L 44.8242 -26.709 L 13.8184 -26.709 Z"/></g><line id="Baseline-M" style="fill:none;stroke:#27AAE1;opacity:1;stroke-width:0.577;" x1="263" x2="3036" y1="1126" y2="1126"/><line id="Capline-M" style="fill:none;stroke:#27AAE1;opacity:1;stroke-width:0.577;" x1="263" x2="3036" y1="1055.54" y2="1055.54"/><g id="H-reference" style="fill:#27AAE1;stroke:none;" transform="matrix(1 0 0 1 339 1556)"><path d="M 54.9316 0 L 57.666 0 L 30.5664 -70.459 L 28.0762 -70.459 L 0.976562 0 L 3.66211 0 L 12.9395 -24.4629 L 45.7031 -24.4629 Z M 29.1992 -67.0898 L 29.4434 -67.0898 L 44.8242 -26.709 L 13.8184 -26.709 Z"/></g><line id="Baseline-L" style="fill:none;stroke:#27AAE1;opacity:1;stroke-width:0.577;" x1="263" x2="3036" y1="1556" y2="1556"/><line id="Capline-L" style="fill:none;stroke:#27AAE1;opacity:1;stroke-width:0.577;" x1="263" x2="3036" y1="1485.54" y2="1485.54"/><rect height="119.336" id="left-margin" style="fill:darkred;stroke:none;opacity:0.4;" width="12.4512" x="1394.06" y="1030.79"/><rect height="119.336" id="right-margin" style="fill:darkgreen;stroke:none;opacity:0.4;" width="12.4512" x="1502.5112" y="1030.79"/><rect x="1406.5112" y="1045" width="96" height="96" fill="none" stroke="blue" stroke-dasharray="5"/><rect x="1394.06" y="1030.79" width="120.9024" height="119.336" fill="none" stroke="blue"/></g><g id="Symbols"><g id="Bold-L" transform="matrix(1 0 0 1 2266 1556)"><path d="M98.121 -35.311  71.353 -71.027 Q68.451 -74.656 70.603 -78.647 Q72.758 -82.637 77.327 -82.637 Q78.995 -82.637 80.536 -81.872 Q82.076 -81.106 83.205 -79.654 L116.342 -35.311 L83.205 9.114 Q82.052 10.56 80.517 11.329 Q78.98 12.097 77.319 12.097 Q72.759 12.097 70.686 8.187 Q68.612 4.276 71.514 0.326 L98.121 -35.311 Z"/></g><g id="Semibold-L" transform="matrix(1 0 0 1 1970.27 1556)"><path d="M96.929 -35.311  69.6 -71.729 Q67.188 -74.725 68.957 -78.085 Q70.724 -81.446 74.594 -81.446 Q75.981 -81.446 77.24 -80.785 Q78.501 -80.124 79.49 -78.953 L112.206 -35.311 L79.49 8.412 Q78.477 9.578 77.221 10.243 Q75.966 10.905 74.585 10.905 Q70.795 10.905 69.073 7.625 Q67.349 4.346 69.762 1.096 L96.929 -35.311 Z"/></g><g id="Medium-L" transform="matrix(1 0 0 1 1674.31 1556)"><path d="M96.036 -35.311  68.286 -72.255 Q66.242 -74.778 67.72 -77.665 Q69.199 -80.553 72.543 -80.553 Q73.719 -80.553 74.77 -79.97 Q75.82 -79.388 76.702 -78.427 L109.103 -35.311 L76.702 7.887 Q75.794 8.843 74.751 9.427 Q73.706 10.012 72.535 10.012 Q69.323 10.012 67.864 7.205 Q66.403 4.399 68.447 1.675 L96.036 -35.311 Z"/></g><g id="Regular-L" transform="matrix(1 0 0 1 1378.56 1556)"><path d="M95.379 -35.311  67.322 -72.64 Q65.548 -74.817 66.814 -77.357 Q68.081 -79.896 71.039 -79.896 Q72.061 -79.896 72.958 -79.372 Q73.853 -78.848 74.659 -78.042 L106.828 -35.311 L74.659 7.501 Q73.828 8.303 72.938 8.83 Q72.047 9.356 71.031 9.356 Q68.244 9.356 66.977 6.897 Q65.709 4.438 67.483 2.099 L95.379 -35.311 Z"/></g><g id="Light-L" transform="matrix(1 0 0 1 1082.77 1556)"><path d="M96.713 -35.311  68.81 -72.95 Q67.44 -74.631 68.418 -76.55 Q69.397 -78.469 71.674 -78.469 Q72.424 -78.469 73.088 -78.095 Q73.751 -77.721 74.349 -77.081 L105.433 -35.311 L74.349 6.477 Q73.715 7.174 73.056 7.567 Q72.396 7.961 71.651 7.961 Q69.497 7.961 68.518 6.09 Q67.54 4.22 68.91 2.441 L96.713 -35.311 Z"/></g><g id="Thin-L" transform="matrix(1 0 0 1 787.282 1556)"><path d="M98.046 -35.311  70.299 -73.261 Q69.331 -74.444 70.021 -75.744 Q70.711 -77.044 72.309 -77.044 Q72.788 -77.044 73.219 -76.818 Q73.649 -76.594 74.038 -76.12 L104.037 -35.311 L74.038 5.455 Q73.603 6.045 73.174 6.305 Q72.746 6.564 72.271 6.564 Q70.752 6.564 70.06 5.284 Q69.368 4.004 70.336 2.781 L98.046 -35.311 Z"/></g><g id="Ultralight-L" transform="matrix(1 0 0 1 491.205 1556)"><path d="M98.846 -35.311  71.192 -73.446 Q70.466 -74.333 70.984 -75.26 Q71.501 -76.187 72.692 -76.187 Q73.006 -76.187 73.298 -76.052 Q73.588 -75.917 73.853 -75.542 L103.2 -35.311 L73.853 4.841 Q73.535 5.366 73.245 5.547 Q72.956 5.728 72.643 5.728 Q71.503 5.728 70.985 4.8 Q70.466 3.873 71.192 2.986 L98.846 -35.311 Z"/></g><g id="Bold-M" transform="matrix(1 0 0 1 2281.8 1126)"><path d="M70 -35.292  52.188 -60.355 Q49.375 -64.167 51.562 -68.261 Q53.75 -72.355 58.312 -72.355 Q60.062 -72.355 61.719 -71.511 Q63.375 -70.667 64.5 -69.105 L88.625 -35.292 L64.5 -1.417 Q63.375 0.145 61.781 0.958 Q60.188 1.77 58.312 1.77 Q53.75 1.77 51.562 -2.324 Q49.375 -6.417 52.188 -10.23 L70 -35.292 Z"/></g><g id="Semibold-M" transform="matrix(1 0 0 1 1985.97 1126)"><path d="M68.805 -35.292  50.394 -61.116 Q48.071 -64.276 49.851 -67.691 Q51.63 -71.105 55.486 -71.105 Q56.965 -71.105 58.35 -70.397 Q59.734 -69.689 60.641 -68.399 L84.331 -35.292 L60.641 -2.124 Q59.734 -0.834 58.385 -0.156 Q57.035 0.52 55.486 0.52 Q51.685 0.52 49.877 -2.894 Q48.071 -6.309 50.394 -9.469 L68.805 -35.292 Z"/></g><g id="Medium-M" transform="matrix(1 0 0 1 1689.91 1126)"><path d="M67.907 -35.292  49.049 -61.686 Q47.093 -64.357 48.566 -67.262 Q50.041 -70.167 53.367 -70.167 Q54.641 -70.167 55.822 -69.561 Q57.002 -68.955 57.748 -67.869 L81.111 -35.292 L57.748 -2.654 Q57.002 -1.567 55.837 -0.992 Q54.671 -0.417 53.367 -0.417 Q50.136 -0.417 48.614 -3.322 Q47.093 -6.227 49.049 -8.899 L67.907 -35.292 Z"/></g><g id="Regular-M" transform="matrix(1 0 0 1 1394.06 1126)"><path d="M67.25 -35.292  48.062 -62.105 Q46.375 -64.417 47.625 -66.949 Q48.875 -69.48 51.812 -69.48 Q52.938 -69.48 53.969 -68.949 Q55 -68.417 55.625 -67.48 L78.75 -35.292 L55.625 -3.042 Q55 -2.105 53.969 -1.605 Q52.938 -1.105 51.812 -1.105 Q49 -1.105 47.688 -3.636 Q46.375 -6.167 48.062 -8.48 L67.25 -35.292 Z"/></g><g id="Light-M" transform="matrix(1 0 0 1 1098.18 1126)"><path d="M70.544 -35.292  50.803 -62.874 Q49.524 -64.61 50.479 -66.492 Q51.434 -68.374 53.604 -68.374 Q54.421 -68.374 55.176 -67.982 Q55.931 -67.591 56.394 -66.879 L79.11 -35.292 L56.394 -3.644 Q55.922 -2.932 55.166 -2.56 Q54.41 -2.186 53.591 -2.186 Q51.511 -2.186 50.517 -4.069 Q49.524 -5.951 50.803 -7.686 L70.544 -35.292 Z"/></g><g id="Thin-M" transform="matrix(1 0 0 1 802.565 1126)"><path d="M73.836 -35.292  53.544 -63.644 Q52.672 -64.802 53.333 -66.035 Q53.991 -67.269 55.394 -67.269 Q55.905 -67.269 56.384 -67.017 Q56.861 -66.766 57.164 -66.277 L79.471 -35.292 L57.164 -4.245 Q56.845 -3.76 56.364 -3.514 Q55.884 -3.269 55.37 -3.269 Q54.021 -3.269 53.347 -4.501 Q52.672 -5.735 53.544 -6.894 L73.836 -35.292 Z"/></g><g id="Ultralight-M" transform="matrix(1 0 0 1 506.415 1126)"><path d="M75.812 -35.292  55.188 -64.105 Q54.562 -64.917 55.044 -65.761 Q55.526 -66.605 56.468 -66.605 Q56.795 -66.605 57.108 -66.437 Q57.42 -66.27 57.625 -65.917 L79.688 -35.292 L57.625 -4.605 Q57.398 -4.256 57.083 -4.086 Q56.767 -3.917 56.438 -3.917 Q55.528 -3.917 55.045 -4.761 Q54.562 -5.605 55.188 -6.417 L75.812 -35.292 Z"/></g><g id="Bold-S" transform="matrix(1 0 0 1 2294.23 696)"><path d="M55.92 -35.279  44.529 -51.207 Q42.31 -54.184 44.085 -57.38 Q45.861 -60.577 49.368 -60.577 Q50.711 -60.577 51.984 -59.96 Q53.258 -59.344 54.145 -58.111 L70.418 -35.279 L54.145 -12.398 Q53.272 -11.212 52.041 -10.597 Q50.812 -9.982 49.362 -9.982 Q45.762 -9.982 44.036 -13.178 Q42.31 -16.375 44.529 -19.351 L55.92 -35.279 Z"/></g><g id="Semibold-S" transform="matrix(1 0 0 1 1998.1 696)"><path d="M54.978 -35.279  43.114 -51.808 Q41.281 -54.27 42.735 -56.93 Q44.188 -59.59 47.138 -59.59 Q48.267 -59.59 49.325 -59.081 Q50.385 -58.572 51.101 -57.554 L67.03 -35.279 L51.101 -12.956 Q50.399 -11.984 49.362 -11.476 Q48.324 -10.968 47.132 -10.968 Q44.133 -10.968 42.707 -13.628 Q41.281 -16.289 43.114 -18.751 L54.978 -35.279 Z"/></g><g id="Medium-S" transform="matrix(1 0 0 1 1701.85 696)"><path d="M54.269 -35.279  42.053 -52.258 Q40.509 -54.334 41.721 -56.592 Q42.934 -58.851 45.465 -58.851 Q46.434 -58.851 47.332 -58.422 Q48.23 -57.993 48.817 -57.136 L64.49 -35.279 L48.817 -13.374 Q48.244 -12.563 47.352 -12.135 Q46.459 -11.708 45.46 -11.708 Q42.911 -11.708 41.709 -13.966 Q40.509 -16.225 42.053 -18.301 L54.269 -35.279 Z"/></g><g id="Regular-S" transform="matrix(1 0 0 1 1405.73 696)"><path d="M53.751 -35.279  41.275 -52.588 Q39.943 -54.381 40.979 -56.345 Q42.014 -58.308 44.239 -58.308 Q45.089 -58.308 45.87 -57.938 Q46.65 -57.569 47.143 -56.829 L62.627 -35.279 L47.143 -13.68 Q46.664 -12.987 45.877 -12.619 Q45.091 -12.25 44.233 -12.25 Q42.014 -12.25 40.979 -14.214 Q39.943 -16.178 41.275 -17.971 L53.751 -35.279 Z"/></g><g id="Light-S" transform="matrix(1 0 0 1 1109.75 696)"><path d="M56.349 -35.279  43.436 -53.195 Q42.427 -54.533 43.23 -55.985 Q44.033 -57.435 45.652 -57.435 Q46.26 -57.435 46.822 -57.176 Q47.384 -56.917 47.749 -56.354 L62.911 -35.279 L47.749 -14.155 Q47.392 -13.64 46.823 -13.372 Q46.253 -13.103 45.637 -13.103 Q43.996 -13.103 43.212 -14.555 Q42.427 -16.007 43.436 -17.344 L56.349 -35.279 Z"/></g><g id="Thin-S" transform="matrix(1 0 0 1 814.015 696)"><path d="M58.947 -35.279  45.599 -53.802 Q44.912 -54.685 45.482 -55.624 Q46.051 -56.564 47.065 -56.564 Q47.431 -56.564 47.774 -56.415 Q48.118 -56.266 48.357 -55.88 L63.196 -35.279 L48.357 -14.629 Q48.12 -14.293 47.767 -14.125 Q47.415 -13.958 47.04 -13.958 Q45.976 -13.958 45.444 -14.896 Q44.912 -15.836 45.599 -16.719 L58.947 -35.279 Z"/></g><g id="Ultralight-S" transform="matrix(1 0 0 1 517.792 696)"><path d="M60.506 -35.279  46.896 -54.166 Q46.403 -54.776 46.832 -55.408 Q47.262 -56.04 47.912 -56.04 Q48.133 -56.04 48.346 -55.957 Q48.559 -55.874 48.721 -55.596 L63.367 -35.279 L48.721 -14.913 Q48.556 -14.684 48.334 -14.577 Q48.112 -14.469 47.882 -14.469 Q47.164 -14.469 46.784 -15.102 Q46.403 -15.734 46.896 -16.343 L60.506 -35.279 Z"/></g></g></svg>