<svg xmlns="http://www.w3.org/2000/svg" version="1.1" width="3300" height="2000"><g id="Notes"><style>
    text {
      font-family: monospace;
      text-anchor: middle;
    }
    text.emphasis {
      font-weight:bold;
    }
    text.lanchor {
      text-anchor: start;
    }
  </style><rect height="2200" id="artboard" fill="white" width="3300" x="0" y="0"/><line id="" style="fill:none;stroke:black;stroke-width:0.5;" x1="263" x2="3036" y1="292" y2="292"/><text class="lanchor emphasis" transform="matrix(1 0 0 1 263 322)">Weight/Scale Variations</text><text transform="matrix(1 0 0 1 559.711 322)">Ultralight</text><text transform="matrix(1 0 0 1 856.422 322)">Thin</text><text transform="matrix(1 0 0 1 1153.13 322)">Light</text><text transform="matrix(1 0 0 1 1449.84 322)">Regular</text><text transform="matrix(1 0 0 1 1746.56 322)">Medium</text><text transform="matrix(1 0 0 1 2043.27 322)">Semibold</text><text transform="matrix(1 0 0 1 2339.98 322)">Bold</text><text transform="matrix(1 0 0 1 2636.69 322)">Heavy</text><text transform="matrix(1 0 0 1 2933.4 322)">Black</text><text id="template-version" style="text-anchor: end;" transform="matrix(1 0 0 1 3036 1933)">Template v.1.0</text><text class="lanchor" transform="matrix(1 0 0 1 263 726)">Small</text><text class="lanchor" transform="matrix(1 0 0 1 263 1156)">Medium</text><text class="lanchor" transform="matrix(1 0 0 1 263 1586)">Large</text></g><g id="Guides"><g id="H-reference" style="fill:#27AAE1;stroke:none;" transform="matrix(1 0 0 1 339 696)"><path d="M 54.9316 0 L 57.666 0 L 30.5664 -70.459 L 28.0762 -70.459 L 0.976562 0 L 3.66211 0 L 12.9395 -24.4629 L 45.7031 -24.4629 Z M 29.1992 -67.0898 L 29.4434 -67.0898 L 44.8242 -26.709 L 13.8184 -26.709 Z"/></g><line id="Baseline-S" style="fill:none;stroke:#27AAE1;opacity:1;stroke-width:0.577;" x1="263" x2="3036" y1="696" y2="696"/><line id="Capline-S" style="fill:none;stroke:#27AAE1;opacity:1;stroke-width:0.577;" x1="263" x2="3036" y1="625.541" y2="625.541"/><g id="H-reference" style="fill:#27AAE1;stroke:none;" transform="matrix(1 0 0 1 339 1126)"><path d="M 54.9316 0 L 57.666 0 L 30.5664 -70.459 L 28.0762 -70.459 L 0.976562 0 L 3.66211 0 L 12.9395 -24.4629 L 45.7031 -24.4629 Z M 29.1992 -67.0898 L 29.4434 -67.0898 L 44.8242 -26.709 L 13.8184 -26.709 Z"/></g><line id="Baseline-M" style="fill:none;stroke:#27AAE1;opacity:1;stroke-width:0.577;" x1="263" x2="3036" y1="1126" y2="1126"/><line id="Capline-M" style="fill:none;stroke:#27AAE1;opacity:1;stroke-width:0.577;" x1="263" x2="3036" y1="1055.54" y2="1055.54"/><g id="H-reference" style="fill:#27AAE1;stroke:none;" transform="matrix(1 0 0 1 339 1556)"><path d="M 54.9316 0 L 57.666 0 L 30.5664 -70.459 L 28.0762 -70.459 L 0.976562 0 L 3.66211 0 L 12.9395 -24.4629 L 45.7031 -24.4629 Z M 29.1992 -67.0898 L 29.4434 -67.0898 L 44.8242 -26.709 L 13.8184 -26.709 Z"/></g><line id="Baseline-L" style="fill:none;stroke:#27AAE1;opacity:1;stroke-width:0.577;" x1="263" x2="3036" y1="1556" y2="1556"/><line id="Capline-L" style="fill:none;stroke:#27AAE1;opacity:1;stroke-width:0.577;" x1="263" x2="3036" y1="1485.54" y2="1485.54"/><rect height="119.336" id="left-margin" style="fill:darkred;stroke:none;opacity:0.4;" width="12.4512" x="1394.06" y="1030.79"/><rect height="119.336" id="right-margin" style="fill:darkgreen;stroke:none;opacity:0.4;" width="12.4512" x="1502.5112" y="1030.79"/><rect x="1406.5112" y="1045" width="96" height="96" fill="none" stroke="blue" stroke-dasharray="5"/><rect x="1394.06" y="1030.79" width="120.9024" height="119.336" fill="none" stroke="blue"/></g><g id="Symbols"><g id="Bold-L" transform="matrix(1 0 0 1 2266 1556)"><path d="M50.633 -67.157 Q44.666 -67.157 40.393 -71.431 Q36.12 -75.704 36.12 -81.67 Q36.12 -87.797 40.393 -92.232 Q44.666 -96.666 50.633 -96.666 Q56.76 -96.666 61.194 -92.232 Q65.629 -87.797 65.629 -81.67 Q65.629 -75.704 61.194 -71.431 Q56.76 -67.157 50.633 -67.157 Z M125.614 40.074  106.264 6.211 H57.727 Q53.374 6.211 50.068 3.793 Q46.763 1.374 46.117 -2.657 L38.7 -41.357 Q37.087 -49.581 42.973 -55.547 Q48.859 -61.514 57.727 -61.514 Q61.275 -61.514 64.258 -59.821 Q67.241 -58.127 69.821 -56.031 L88.849 -38.455 L102.394 -49.097 L97.234 -51.677 Q95.782 -52.484 95.299 -54.177 Q94.815 -55.87 95.782 -57.16 L105.78 -73.285 Q106.586 -74.575 107.876 -74.897 Q109.166 -75.22 110.618 -74.575 L119.486 -69.899 Q120.776 -68.931 121.099 -67.319 Q121.421 -65.706 120.615 -64.416 L111.585 -48.775 L115.616 -44.421 L87.881 -22.007 L77.078 -29.264 L80.625 -11.849 H102.394 Q106.586 -11.849 109.086 -9.591 Q111.585 -7.334 113.843 -3.464 L135.934 34.43 L125.614 40.074 Z M88.688 26.851 H44.021 Q37.571 26.851 33.701 23.304 Q29.831 19.756 28.703 13.468 L13.706 -61.514 H27.574 L41.602 13.468 Q41.602 13.468 41.602 13.468 Q41.602 13.468 41.602 13.468 H88.688 V26.851 Z"/></g><g id="Semibold-L" transform="matrix(1 0 0 1 1970.27 1556)"><path d="M47.898 -67.298 Q42.283 -67.298 38.219 -71.361 Q34.158 -75.423 34.158 -81.04 Q34.158 -86.815 38.219 -91.005 Q42.283 -95.194 47.898 -95.194 Q53.675 -95.194 57.865 -91.005 Q62.054 -86.815 62.054 -81.04 Q62.054 -75.423 57.865 -71.361 Q53.675 -67.298 47.898 -67.298 Z M124.422 39.584  105.212 6.071 H55.765 Q51.481 6.071 48.175 3.652 Q44.869 1.233 44.155 -2.798 L36.597 -42.199 Q35.054 -50.071 40.59 -55.864 Q46.124 -61.654 54.503 -61.654 Q58.05 -61.654 61.104 -60.066 Q64.157 -58.477 66.527 -56.101 L84.432 -36.773 L99.659 -48.256 L94.43 -50.836 Q93.259 -51.502 92.845 -52.88 Q92.432 -54.257 93.119 -55.338 L102.065 -71.392 Q102.731 -72.542 103.845 -72.864 Q104.959 -73.187 106.201 -72.613 L114.929 -68.146 Q116.01 -67.39 116.332 -66.056 Q116.655 -64.724 116.058 -63.645 L108.079 -48.565 L111.83 -43.86 L83.044 -21.446 L73.993 -27.792 L77.331 -11.218 H101.202 Q104.974 -11.218 107.438 -9.101 Q109.903 -6.984 111.88 -3.604 L133.971 34.29 L124.422 39.584 Z M86.725 25.098 H41.778 Q36.309 25.098 32.826 21.901 Q29.341 18.705 28.353 13.327 L13.356 -61.654 H25.611 L39.64 13.327 Q39.64 13.327 39.64 13.327 Q39.64 13.327 39.64 13.327 H86.725 V25.098 Z"/></g><g id="Medium-L" transform="matrix(1 0 0 1 1674.31 1556)"><path d="M45.848 -67.403 Q40.495 -67.403 36.589 -71.308 Q32.685 -75.214 32.685 -80.565 Q32.685 -86.08 36.589 -90.084 Q40.495 -94.089 45.848 -94.089 Q51.361 -94.089 55.367 -90.084 Q59.372 -86.08 59.372 -80.565 Q59.372 -75.214 55.367 -71.308 Q51.361 -67.403 45.848 -67.403 Z M123.529 39.214  104.424 5.966 H54.293 Q50.062 5.966 46.756 3.547 Q43.45 1.129 42.683 -2.903 L35.019 -42.83 Q33.529 -50.441 38.802 -56.099 Q44.074 -61.759 52.084 -61.759 Q55.631 -61.759 58.737 -60.25 Q61.843 -58.74 64.055 -56.154 L81.12 -35.511 L97.609 -47.625 L92.327 -50.205 Q91.366 -50.766 91.005 -51.906 Q90.643 -53.048 91.121 -53.97 L99.277 -69.973 Q99.838 -71.016 100.822 -71.339 Q101.805 -71.661 102.889 -71.14 L111.511 -66.832 Q112.433 -66.232 112.756 -65.11 Q113.078 -63.989 112.64 -63.067 L105.451 -48.407 L108.99 -43.439 L79.416 -21.025 L71.679 -26.687 L74.859 -10.744 H100.309 Q103.764 -10.744 106.202 -8.732 Q108.641 -6.721 110.408 -3.709 L132.499 34.185 L123.529 39.214 Z M85.253 23.784 H40.095 Q35.362 23.784 32.168 20.85 Q28.972 17.916 28.09 13.222 L13.094 -61.759 H24.139 L38.168 13.222 Q38.168 13.222 38.168 13.222 Q38.168 13.222 38.168 13.222 H85.253 V23.784 Z"/></g><g id="Regular-L" transform="matrix(1 0 0 1 1378.56 1556)"><path d="M44.344 -67.48 Q39.184 -67.48 35.394 -71.269 Q31.605 -75.059 31.605 -80.219 Q31.605 -85.54 35.394 -89.41 Q39.184 -93.28 44.344 -93.28 Q49.665 -93.28 53.535 -89.41 Q57.405 -85.54 57.405 -80.219 Q57.405 -75.059 53.535 -71.269 Q49.665 -67.48 44.344 -67.48 Z M122.873 38.945  103.845 5.889 H53.212 Q49.02 5.889 45.714 3.47 Q42.409 1.051 41.602 -2.98 L33.863 -43.292 Q32.411 -50.71 37.491 -56.273 Q42.57 -61.836 50.31 -61.836 Q53.858 -61.836 57.002 -60.385 Q60.146 -58.934 62.242 -56.192 L78.69 -34.585 L96.105 -47.162 L90.784 -49.742 Q89.978 -50.226 89.655 -51.194 Q89.332 -52.161 89.655 -52.967 L97.234 -68.931 Q97.718 -69.899 98.604 -70.221 Q99.491 -70.544 100.459 -70.06 L109.005 -65.867 Q109.811 -65.384 110.134 -64.416 Q110.456 -63.449 110.134 -62.642 L103.523 -48.291 L106.909 -43.131 L76.755 -20.717 L69.983 -25.877 L73.046 -10.397 H99.653 Q102.877 -10.397 105.296 -8.462 Q107.715 -6.527 109.328 -3.786 L131.419 34.108 L122.873 38.945 Z M84.172 22.82 H38.861 Q34.669 22.82 31.686 20.079 Q28.703 17.338 27.896 13.145 L12.9 -61.836 H23.059 L37.087 13.145 Q37.087 13.145 37.087 13.145 Q37.087 13.145 37.087 13.145 H84.172 V22.82 Z"/></g><g id="Light-L" transform="matrix(1 0 0 1 1082.77 1556)"><path d="M44.592 -65.619 Q39.742 -65.619 36.264 -69.13 Q32.784 -72.64 32.784 -77.428 Q32.784 -82.315 36.264 -85.875 Q39.742 -89.434 44.592 -89.434 Q49.48 -89.434 53.038 -85.875 Q56.599 -82.315 56.599 -77.428 Q56.599 -72.64 53.038 -69.13 Q49.48 -65.619 44.592 -65.619 Z M120.454 36.092  102.605 5.207 H52.655 Q48.896 5.207 45.993 3.036 Q43.091 0.866 42.409 -2.67 L34.607 -42.301 Q33.218 -49.035 37.77 -54.133 Q42.322 -59.23 49.318 -59.23 Q52.617 -59.23 55.514 -57.842 Q58.41 -56.452 60.445 -53.898 L77.884 -32.6 L95.981 -46.232 L89.915 -49.246 Q89.108 -49.73 88.849 -50.636 Q88.588 -51.54 88.91 -52.347 L95.497 -66.388 Q95.92 -67.356 96.806 -67.648 Q97.693 -67.938 98.661 -67.454 L106.277 -63.634 Q107.083 -63.15 107.343 -62.246 Q107.604 -61.34 107.281 -60.533 L101.228 -47.175 L103.993 -43.193 L76.445 -21.275 L67.067 -28.606 L71.31 -8.661 H97.73 Q100.52 -8.661 102.723 -7.005 Q104.924 -5.349 106.351 -2.856 L126.891 32.432 L120.454 36.092 Z M83.987 19.595 H41.28 Q37.212 19.595 34.291 17.009 Q31.37 14.422 30.563 10.417 L16.125 -61.651 H23.741 L37.46 10.292 Q37.584 11.036 38.328 11.657 Q39.072 12.276 39.816 12.276 H83.987 V19.595 Z"/></g><g id="Thin-L" transform="matrix(1 0 0 1 787.282 1556)"><path d="M44.84 -63.758 Q40.3 -63.758 37.131 -66.99 Q33.962 -70.221 33.962 -74.636 Q33.962 -79.09 37.131 -82.339 Q40.3 -85.59 44.84 -85.59 Q49.293 -85.59 52.543 -82.339 Q55.793 -79.09 55.793 -74.636 Q55.793 -70.221 52.543 -66.99 Q49.293 -63.758 44.84 -63.758 Z M118.035 33.24  101.365 4.525 H52.097 Q48.772 4.525 46.272 2.602 Q43.773 0.679 43.215 -2.359 L35.351 -41.308 Q34.024 -47.361 38.049 -51.994 Q42.073 -56.626 48.325 -56.626 Q51.377 -56.626 54.025 -55.299 Q56.673 -53.972 58.645 -51.603 L77.078 -30.615 L95.857 -45.302 L89.047 -48.751 Q88.241 -49.235 88.043 -50.078 Q87.844 -50.921 88.167 -51.727 L93.76 -63.845 Q94.12 -64.813 95.007 -65.074 Q95.894 -65.334 96.861 -64.85 L103.547 -61.402 Q104.353 -60.919 104.551 -60.075 Q104.751 -59.232 104.429 -58.426 L98.933 -46.058 L101.08 -43.255 L76.134 -21.833 L64.153 -31.336 L69.573 -6.924 H95.807 Q98.164 -6.924 100.149 -5.547 Q102.133 -4.17 103.374 -1.925 L122.365 30.758 L118.035 33.24 Z M83.8 16.37 H43.699 Q39.755 16.37 36.896 13.938 Q34.037 11.508 33.23 7.687 L19.35 -61.464 H24.423 L37.832 7.44 Q38.079 8.928 39.568 10.168 Q41.057 11.408 42.546 11.408 H83.8 V16.37 Z"/></g><g id="Ultralight-L" transform="matrix(1 0 0 1 491.205 1556)"><path d="M44.989 -62.642 Q40.635 -62.642 37.652 -65.706 Q34.669 -68.77 34.669 -72.962 Q34.669 -77.155 37.652 -80.219 Q40.635 -83.282 44.989 -83.282 Q49.181 -83.282 52.245 -80.219 Q55.309 -77.155 55.309 -72.962 Q55.309 -68.77 52.245 -65.706 Q49.181 -62.642 44.989 -62.642 Z M116.584 31.528  100.62 4.115 H51.761 Q48.697 4.115 46.44 2.341 Q44.183 0.568 43.699 -2.174 L35.797 -40.712 Q34.508 -46.356 38.216 -50.71 Q41.925 -55.064 47.73 -55.064 Q50.633 -55.064 53.132 -53.774 Q55.631 -52.484 57.566 -50.226 L76.594 -29.425 L95.782 -44.744 L88.526 -48.452 Q87.72 -48.936 87.559 -49.742 Q87.398 -50.549 87.72 -51.355 L92.719 -62.32 Q93.041 -63.287 93.928 -63.529 Q94.815 -63.771 95.782 -63.287 L101.91 -60.062 Q102.716 -59.579 102.877 -58.772 Q103.039 -57.966 102.716 -57.16 L97.556 -45.389 L99.33 -43.292 L75.949 -22.169 L62.404 -32.972 L68.531 -5.882 H94.654 Q96.75 -5.882 98.604 -4.673 Q100.459 -3.464 101.588 -1.367 L119.648 29.754 L116.584 31.528 Z M83.689 14.435 H45.15 Q41.28 14.435 38.458 12.097 Q35.636 9.759 34.83 6.05 L21.285 -61.352 H24.832 L38.055 5.728 Q38.377 7.663 40.312 9.275 Q42.248 10.888 44.183 10.888 H83.689 V14.435 Z"/></g><g id="Bold-M" transform="matrix(1 0 0 1 2281.8 1126)"><path d="M44 -59.855 Q39.125 -59.855 35.625 -63.355 Q32.125 -66.855 32.125 -71.73 Q32.125 -76.605 35.625 -80.167 Q39.125 -83.73 44 -83.73 Q48.875 -83.73 52.438 -80.167 Q56 -76.605 56 -71.73 Q56 -66.855 52.438 -63.355 Q48.875 -59.855 44 -59.855 Z M95.375 20.895  80.5 -4.855 H47.875 Q44.25 -4.855 41.562 -7.042 Q38.875 -9.23 38.125 -12.855 L33.125 -38.105 Q31.75 -44.855 36.438 -49.855 Q41.125 -54.855 48.25 -54.855 Q51.25 -54.855 53.875 -53.417 Q56.5 -51.98 59 -50.23 L73.125 -40.355 L80.375 -45.855 L79.125 -46.48 Q77.625 -47.355 77.125 -49.042 Q76.625 -50.73 77.625 -52.105 L86.375 -65.855 Q87.25 -67.23 88.688 -67.605 Q90.125 -67.98 91.5 -67.23 L98.5 -63.605 Q100 -62.73 100.438 -61.042 Q100.875 -59.355 99.875 -57.98 L92.75 -46.73 L96.875 -42.48 L74.125 -25.605 L65.375 -30.98 L67.5 -21.73 H78 Q81.75 -21.73 84.062 -19.98 Q86.375 -18.23 88.375 -14.855 L105.875 15.145 L95.375 20.895 Z M69.625 14.02 H38 Q31.5 14.02 27.188 10.27 Q22.875 6.52 21.625 0.145 L10.75 -54.855 H24.875 L35.875 0.145 Q35.875 0.145 35.875 0.145 Q35.875 0.145 35.875 0.145 H69.625 V14.02 Z"/></g><g id="Semibold-M" transform="matrix(1 0 0 1 1985.97 1126)"><path d="M41.174 -60.017 Q36.625 -60.017 33.37 -63.274 Q30.114 -66.529 30.114 -71.077 Q30.114 -75.626 33.37 -78.917 Q36.625 -82.209 41.174 -82.209 Q45.722 -82.209 49.014 -78.917 Q52.305 -75.626 52.305 -71.077 Q52.305 -66.529 49.014 -63.274 Q45.722 -60.017 41.174 -60.017 Z M94.125 20.406  79.412 -5.017 H45.864 Q42.239 -5.017 39.551 -7.205 Q36.864 -9.392 36.114 -13.017 L30.951 -38.975 Q29.685 -45.399 33.992 -50.209 Q38.299 -55.017 44.935 -55.017 Q47.935 -55.017 50.641 -53.689 Q53.347 -52.36 55.576 -50.339 L68.56 -38.616 L77.549 -44.985 L76.245 -45.61 Q74.963 -46.322 74.544 -47.656 Q74.125 -48.991 74.907 -50.202 L82.571 -63.899 Q83.282 -65.11 84.502 -65.485 Q85.722 -65.86 86.935 -65.219 L93.826 -61.811 Q95.109 -61.1 95.519 -59.739 Q95.93 -58.376 95.147 -57.165 L89.109 -46.512 L92.963 -41.882 L69.125 -25.061 L62.169 -29.459 L64.131 -21.077 H76.805 Q80.065 -21.077 82.351 -19.491 Q84.636 -17.904 86.364 -15.017 L103.864 14.983 L94.125 20.406 Z M67.614 12.173 H35.718 Q30.25 12.173 26.317 8.775 Q22.386 5.379 21.299 -0.017 L10.424 -55.017 H22.864 L33.864 -0.017 Q33.864 -0.017 33.864 -0.017 Q33.864 -0.017 33.864 -0.017 H67.614 V12.173 Z"/></g><g id="Medium-M" transform="matrix(1 0 0 1 1689.91 1126)"><path d="M39.055 -60.14 Q34.75 -60.14 31.677 -63.212 Q28.606 -66.284 28.606 -70.589 Q28.606 -74.892 31.677 -77.98 Q34.75 -81.067 39.055 -81.067 Q43.359 -81.067 46.446 -77.98 Q49.532 -74.892 49.532 -70.589 Q49.532 -66.284 46.446 -63.212 Q43.359 -60.14 39.055 -60.14 Z M93.188 20.039  78.597 -5.14 H44.356 Q40.731 -5.14 38.044 -7.327 Q35.356 -9.515 34.606 -13.14 L29.321 -39.626 Q28.136 -45.806 32.157 -50.474 Q36.18 -55.14 42.449 -55.14 Q45.449 -55.14 48.216 -53.892 Q50.984 -52.646 53.009 -50.42 L65.136 -37.311 L75.43 -44.334 L74.084 -44.959 Q72.965 -45.547 72.608 -46.617 Q72.25 -47.686 72.87 -48.776 L79.718 -62.431 Q80.308 -63.521 81.364 -63.896 Q82.421 -64.271 83.511 -63.711 L90.321 -60.466 Q91.44 -59.876 91.83 -58.76 Q92.22 -57.642 91.6 -56.554 L86.377 -46.35 L90.028 -41.434 L65.375 -24.654 L59.764 -28.317 L61.604 -20.589 H75.907 Q78.801 -20.589 81.066 -19.124 Q83.331 -17.659 84.856 -15.14 L102.356 14.86 L93.188 20.039 Z M66.106 10.786 H34.005 Q29.312 10.786 25.666 7.655 Q22.019 4.523 21.054 -0.14 L10.179 -55.14 H21.356 L32.356 -0.14 Q32.356 -0.14 32.356 -0.14 Q32.356 -0.14 32.356 -0.14 H66.106 V10.786 Z"/></g><g id="Regular-M" transform="matrix(1 0 0 1 1394.06 1126)"><path d="M37.5 -60.23 Q33.375 -60.23 30.438 -63.167 Q27.5 -66.105 27.5 -70.23 Q27.5 -74.355 30.438 -77.292 Q33.375 -80.23 37.5 -80.23 Q41.625 -80.23 44.562 -77.292 Q47.5 -74.355 47.5 -70.23 Q47.5 -66.105 44.562 -63.167 Q41.625 -60.23 37.5 -60.23 Z M92.5 19.77  78 -5.23 H43.25 Q39.625 -5.23 36.938 -7.417 Q34.25 -9.605 33.5 -13.23 L28.125 -40.105 Q27 -46.105 30.812 -50.667 Q34.625 -55.23 40.625 -55.23 Q43.625 -55.23 46.438 -54.042 Q49.25 -52.855 51.125 -50.48 L62.625 -36.355 L73.875 -43.855 L72.5 -44.48 Q71.5 -44.98 71.188 -45.855 Q70.875 -46.73 71.375 -47.73 L77.625 -61.355 Q78.125 -62.355 79.062 -62.73 Q80 -63.105 81 -62.605 L87.75 -59.48 Q88.75 -58.98 89.125 -58.042 Q89.5 -57.105 89 -56.105 L84.375 -46.23 L87.875 -41.105 L62.625 -24.355 L58 -27.48 L59.75 -20.23 H75.25 Q77.875 -20.23 80.125 -18.855 Q82.375 -17.48 83.75 -15.23 L101.25 14.77 L92.5 19.77 Z M65 9.77 H32.75 Q28.625 9.77 25.188 6.833 Q21.75 3.895 20.875 -0.23 L10 -55.23 H20.25 L31.25 -0.23 Q31.25 -0.23 31.25 -0.23 Q31.25 -0.23 31.25 -0.23 H65 V9.77 Z"/></g><g id="Light-M" transform="matrix(1 0 0 1 1098.18 1126)"><path d="M36.826 -58.787 Q33.039 -58.787 30.317 -61.509 Q27.596 -64.23 27.596 -68.019 Q27.596 -71.806 30.317 -74.527 Q33.039 -77.249 36.826 -77.249 Q40.615 -77.249 43.336 -74.527 Q46.057 -71.806 46.057 -68.019 Q46.057 -64.23 43.336 -61.509 Q40.615 -58.787 36.826 -58.787 Z M91.346 18.231  77.711 -5.23 H42.289 Q39.096 -5.23 36.769 -7.152 Q34.443 -9.076 33.789 -12.172 L28.172 -39.72 Q27.096 -45.095 30.547 -49.225 Q34 -53.355 39.422 -53.355 Q42.182 -53.355 44.682 -52.24 Q47.182 -51.124 48.961 -48.99 L61.568 -34.384 L73.922 -43.277 L71.25 -44.624 Q70.394 -45.076 70.13 -45.902 Q69.865 -46.73 70.269 -47.586 L75.654 -59.384 Q76.105 -60.287 76.971 -60.615 Q77.836 -60.941 78.74 -60.49 L84.769 -57.605 Q85.625 -57.152 85.927 -56.287 Q86.23 -55.422 85.826 -54.566 L81.49 -45.124 L84.269 -41.201 L61.519 -24.691 L54.73 -29.74 L57.539 -17.73 H74.289 Q76.576 -17.73 78.539 -16.547 Q80.5 -15.365 81.73 -13.306 L97.884 14.481 L91.346 18.231 Z M64.904 7.27 H33.904 Q30.115 7.27 27.015 4.693 Q23.914 2.116 23.135 -1.672 L12.5 -55.23 H20.154 L30.865 -1.769 Q30.961 -1.191 31.539 -0.711 Q32.115 -0.23 32.693 -0.23 H64.904 V7.27 Z"/></g><g id="Thin-M" transform="matrix(1 0 0 1 802.565 1126)"><path d="M36.154 -57.345 Q32.703 -57.345 30.198 -59.85 Q27.692 -62.355 27.692 -65.807 Q27.692 -69.259 30.198 -71.764 Q32.703 -74.269 36.154 -74.269 Q39.606 -74.269 42.11 -71.764 Q44.615 -69.259 44.615 -65.807 Q44.615 -62.355 42.11 -59.85 Q39.606 -57.345 36.154 -57.345 Z M90.192 16.693  77.422 -5.23 H41.328 Q38.568 -5.23 36.601 -6.889 Q34.635 -8.547 34.078 -11.115 L28.221 -39.336 Q27.192 -44.086 30.284 -47.782 Q33.375 -51.48 38.221 -51.48 Q40.74 -51.48 42.928 -50.436 Q45.115 -49.394 46.797 -47.499 L60.51 -32.412 L73.971 -42.701 L70 -44.769 Q69.289 -45.172 69.073 -45.951 Q68.856 -46.73 69.164 -47.441 L73.683 -57.412 Q74.086 -58.22 74.88 -58.499 Q75.672 -58.777 76.481 -58.374 L81.789 -55.73 Q82.5 -55.326 82.731 -54.532 Q82.961 -53.74 82.654 -53.027 L78.606 -44.019 L80.664 -41.297 L60.414 -25.027 L51.461 -31.999 L55.328 -15.23 H73.328 Q75.279 -15.23 76.953 -14.24 Q78.625 -13.249 79.711 -11.384 L94.519 14.193 L90.192 16.693 Z M64.808 4.77 H35.057 Q31.606 4.77 28.841 2.554 Q26.078 0.338 25.394 -3.115 L15 -55.23 H20.058 L30.481 -3.307 Q30.672 -2.152 31.828 -1.191 Q32.981 -0.23 34.135 -0.23 H64.808 V4.77 Z"/></g><g id="Ultralight-M" transform="matrix(1 0 0 1 506.415 1126)"><path d="M35.75 -56.48 Q32.5 -56.48 30.125 -58.855 Q27.75 -61.23 27.75 -64.48 Q27.75 -67.73 30.125 -70.105 Q32.5 -72.48 35.75 -72.48 Q39 -72.48 41.375 -70.105 Q43.75 -67.73 43.75 -64.48 Q43.75 -61.23 41.375 -58.855 Q39 -56.48 35.75 -56.48 Z M89.5 15.77  77.25 -5.23 H40.75 Q38.25 -5.23 36.5 -6.73 Q34.75 -8.23 34.25 -10.48 L28.25 -39.105 Q27.25 -43.48 30.125 -46.917 Q33 -50.355 37.5 -50.355 Q39.875 -50.355 41.875 -49.355 Q43.875 -48.355 45.5 -46.605 L59.875 -31.23 L74 -42.355 L69.25 -44.855 Q68.625 -45.23 68.438 -45.98 Q68.25 -46.73 68.5 -47.355 L72.5 -56.23 Q72.875 -56.98 73.625 -57.23 Q74.375 -57.48 75.125 -57.105 L80 -54.605 Q80.625 -54.23 80.812 -53.48 Q81 -52.73 80.75 -52.105 L76.875 -43.355 L78.5 -41.355 L59.75 -25.23 L49.5 -33.355 L54 -13.73 H72.75 Q74.5 -13.73 76 -12.855 Q77.5 -11.98 78.5 -10.23 L92.5 14.02 L89.5 15.77 Z M64.75 3.27 H35.75 Q32.5 3.27 29.938 1.27 Q27.375 -0.73 26.75 -3.98 L16.5 -55.23 H20 L30.25 -4.23 Q30.5 -2.73 32 -1.48 Q33.5 -0.23 35 -0.23 H64.75 V3.27 Z"/></g><g id="Bold-S" transform="matrix(1 0 0 1 2294.23 696)"><path d="M35.801 -51.503 Q31.757 -51.503 28.897 -54.363 Q26.037 -57.223 26.037 -61.267 Q26.037 -65.311 28.897 -68.22 Q31.757 -71.129 35.801 -71.129 Q39.845 -71.129 42.754 -68.22 Q45.663 -65.311 45.663 -61.267 Q45.663 -57.223 42.754 -54.363 Q39.845 -51.503 35.801 -51.503 Z M72.095 3.53  62.331 -13.631 H40.535 Q37.182 -13.631 34.617 -15.702 Q32.053 -17.773 31.264 -21.028 L27.516 -37.893 Q26.629 -41.838 29.242 -45.043 Q31.856 -48.248 36.097 -48.939 Q38.365 -49.432 40.387 -48.298 Q42.409 -47.164 44.48 -45.881 L55.625 -39.175 L62.035 -44.008 L60.556 -44.797 Q59.471 -45.388 59.076 -46.72 Q58.682 -48.051 59.372 -49.037 L66.177 -59.492 Q66.769 -60.478 67.854 -60.675 Q68.939 -60.872 69.925 -60.379 L75.35 -57.519 Q76.434 -56.927 76.73 -55.645 Q77.026 -54.363 76.336 -53.377 L70.517 -43.909 L73.278 -41.147 L54.145 -26.945 L48.425 -33.06 L50.693 -24.578 H63.81 Q66.572 -24.578 68.249 -23.346 Q69.925 -22.113 71.404 -19.549 L81.76 -1.796 L72.095 3.53 Z M55.723 1.261 H28.897 Q24.459 1.261 21.796 -0.958 Q19.133 -3.177 18.344 -7.516 L10.06 -49.136 H20.317 L28.601 -8.897 Q28.601 -8.897 28.601 -8.897 Q28.601 -8.897 28.601 -8.897 H55.723 V1.261 Z"/></g><g id="Semibold-S" transform="matrix(1 0 0 1 1998.1 696)"><path d="M33.571 -51.631 Q29.785 -51.631 27.118 -54.299 Q24.45 -56.966 24.45 -60.752 Q24.45 -64.538 27.118 -67.234 Q29.785 -69.929 33.571 -69.929 Q37.357 -69.929 40.053 -67.234 Q42.748 -64.538 42.748 -60.752 Q42.748 -56.966 40.053 -54.299 Q37.357 -51.631 33.571 -51.631 Z M71.109 3.144  61.473 -13.759 H38.948 Q35.595 -13.759 33.03 -15.83 Q30.466 -17.902 29.677 -21.156 L25.801 -38.579 Q24.999 -42.267 27.313 -45.322 Q29.626 -48.377 33.481 -49.067 Q35.75 -49.56 37.836 -48.512 Q39.921 -47.463 41.779 -45.967 L52.023 -37.803 L59.805 -43.321 L58.283 -44.11 Q57.37 -44.574 57.04 -45.626 Q56.709 -46.679 57.228 -47.536 L63.176 -57.948 Q63.639 -58.805 64.552 -59.003 Q65.465 -59.2 66.323 -58.792 L71.662 -56.104 Q72.575 -55.641 72.849 -54.617 Q73.125 -53.591 72.606 -52.734 L67.644 -43.737 L70.191 -40.676 L50.2 -26.516 L45.895 -31.86 L48.035 -24.064 H62.868 Q65.242 -24.064 66.898 -22.96 Q68.553 -21.855 69.818 -19.677 L80.173 -1.924 L71.109 3.144 Z M54.136 -0.196 H27.096 Q23.473 -0.196 21.11 -2.137 Q18.748 -4.077 18.087 -7.645 L9.802 -49.264 H18.73 L27.014 -9.025 Q27.014 -9.025 27.014 -9.025 Q27.014 -9.025 27.014 -9.025 H54.136 V-0.196 Z"/></g><g id="Medium-S" transform="matrix(1 0 0 1 1701.85 696)"><path d="M31.899 -51.728 Q28.305 -51.728 25.783 -54.251 Q23.261 -56.773 23.261 -60.367 Q23.261 -63.959 25.783 -66.494 Q28.305 -69.029 31.899 -69.029 Q35.492 -69.029 38.027 -66.494 Q40.561 -63.959 40.561 -60.367 Q40.561 -56.773 38.027 -54.251 Q35.492 -51.728 31.899 -51.728 Z M70.369 2.854  60.83 -13.856 H37.759 Q34.405 -13.856 31.841 -15.927 Q29.277 -17.998 28.488 -21.253 L24.515 -39.093 Q23.778 -42.588 25.865 -45.531 Q27.954 -48.473 31.52 -49.164 Q33.788 -49.657 35.922 -48.673 Q38.056 -47.689 39.753 -46.031 L49.321 -36.773 L58.134 -42.807 L56.578 -43.596 Q55.794 -43.962 55.512 -44.806 Q55.23 -45.65 55.621 -46.411 L60.925 -56.79 Q61.291 -57.552 62.076 -57.749 Q62.861 -57.946 63.622 -57.603 L68.896 -55.043 Q69.681 -54.676 69.939 -53.844 Q70.197 -53.012 69.807 -52.252 L65.489 -43.609 L67.876 -40.322 L47.241 -26.195 L43.998 -30.96 L46.041 -23.678 H62.159 Q64.245 -23.678 65.884 -22.67 Q67.524 -21.662 68.628 -19.773 L78.984 -2.021 L70.369 2.854 Z M52.947 -1.29 H25.745 Q22.733 -1.29 20.596 -3.021 Q18.458 -4.753 17.894 -7.741 L9.609 -49.361 H17.54 L25.825 -9.122 Q25.825 -9.122 25.825 -9.122 Q25.825 -9.122 25.825 -9.122 H52.947 V-1.29 Z"/></g><g id="Regular-S" transform="matrix(1 0 0 1 1405.73 696)"><path d="M30.672 -51.799 Q27.221 -51.799 24.804 -54.215 Q22.388 -56.632 22.388 -60.083 Q22.388 -63.535 24.804 -65.952 Q27.221 -68.368 30.672 -68.368 Q34.124 -68.368 36.541 -65.952 Q38.957 -63.535 38.957 -60.083 Q38.957 -56.632 36.541 -54.215 Q34.124 -51.799 30.672 -51.799 Z M69.827 2.642  60.358 -13.927 H36.886 Q33.532 -13.927 30.968 -15.998 Q28.404 -18.069 27.615 -21.324 L23.571 -39.471 Q22.881 -42.824 24.804 -45.684 Q26.727 -48.544 30.081 -49.235 Q32.349 -49.728 34.519 -48.791 Q36.689 -47.854 38.267 -46.079 L47.34 -36.019 L56.907 -42.43 L55.329 -43.219 Q54.638 -43.514 54.392 -44.205 Q54.145 -44.895 54.441 -45.586 L59.274 -55.941 Q59.57 -56.632 60.26 -56.829 Q60.95 -57.026 61.641 -56.73 L66.868 -54.265 Q67.558 -53.969 67.805 -53.278 Q68.051 -52.588 67.755 -51.898 L63.909 -43.514 L66.177 -40.063 L45.072 -25.959 L42.606 -30.299 L44.579 -23.395 H61.641 Q63.515 -23.395 65.142 -22.458 Q66.769 -21.521 67.755 -19.844 L78.111 -2.092 L69.827 2.642 Z M52.074 -2.092 H24.755 Q22.191 -2.092 20.218 -3.67 Q18.246 -5.248 17.753 -7.812 L9.468 -49.432 H16.668 L24.952 -9.193 Q24.952 -9.193 24.952 -9.193 Q24.952 -9.193 24.952 -9.193 H52.074 V-2.092 Z"/></g><g id="Light-S" transform="matrix(1 0 0 1 1109.75 696)"><path d="M30.141 -50.661 Q26.955 -50.661 24.71 -52.907 Q22.464 -55.152 22.464 -58.339 Q22.464 -61.524 24.71 -63.77 Q26.955 -66.016 30.141 -66.016 Q33.327 -66.016 35.573 -63.77 Q37.819 -61.524 37.819 -58.339 Q37.819 -55.152 35.573 -52.907 Q33.327 -50.661 30.141 -50.661 Z M68.916 1.428  60.131 -13.927 H36.127 Q33.115 -13.927 30.835 -15.789 Q28.556 -17.652 27.843 -20.49 L23.609 -39.167 Q22.957 -42.027 24.595 -44.546 Q26.234 -47.065 29.132 -47.755 Q31.211 -48.248 33.134 -47.369 Q35.057 -46.488 36.559 -44.903 L46.506 -34.464 L56.944 -41.974 L54.342 -43.332 Q53.765 -43.59 53.557 -44.242 Q53.348 -44.895 53.568 -45.472 L57.718 -54.386 Q57.976 -55 58.61 -55.16 Q59.243 -55.319 59.857 -55.062 L64.516 -52.785 Q65.093 -52.527 65.282 -51.894 Q65.471 -51.261 65.251 -50.684 L61.633 -42.642 L63.332 -40.139 L44.199 -26.225 L40.026 -32.082 L42.834 -21.422 H60.882 Q62.49 -21.422 63.89 -20.637 Q65.29 -19.852 66.162 -18.327 L75.455 -2.32 L68.916 1.428 Z M51.998 -4.064 H25.665 Q23.366 -4.064 21.66 -5.358 Q19.953 -6.651 19.536 -8.95 L11.441 -49.432 H16.592 L24.648 -10.407 Q24.724 -9.951 25.18 -9.573 Q25.635 -9.193 26.09 -9.193 H51.998 V-4.064 Z"/></g><g id="Thin-S" transform="matrix(1 0 0 1 814.015 696)"><path d="M29.61 -49.523 Q26.69 -49.523 24.615 -51.598 Q22.54 -53.673 22.54 -56.594 Q22.54 -59.514 24.615 -61.59 Q26.69 -63.665 29.61 -63.665 Q32.531 -63.665 34.606 -61.59 Q36.681 -59.514 36.681 -56.594 Q36.681 -53.673 34.606 -51.598 Q32.531 -49.523 29.61 -49.523 Z M68.006 0.214  59.903 -13.927 H35.369 Q32.698 -13.927 30.703 -15.581 Q28.708 -17.235 28.071 -19.655 L23.647 -38.864 Q23.033 -41.231 24.387 -43.408 Q25.741 -45.586 28.184 -46.276 Q30.073 -46.769 31.749 -45.946 Q33.426 -45.123 34.852 -43.727 L45.671 -32.908 L56.983 -41.519 L53.356 -43.446 Q52.894 -43.666 52.723 -44.281 Q52.552 -44.895 52.696 -45.358 L56.163 -52.831 Q56.383 -53.369 56.96 -53.49 Q57.536 -53.612 58.075 -53.392 L62.164 -51.306 Q62.627 -51.086 62.76 -50.509 Q62.892 -49.933 62.748 -49.469 L59.357 -41.77 L60.488 -40.215 L43.327 -26.49 L37.447 -33.864 L41.089 -19.45 H60.124 Q61.466 -19.45 62.639 -18.817 Q63.81 -18.183 64.569 -16.81 L72.8 -2.548 L68.006 0.214 Z M51.922 -6.037 H26.575 Q24.543 -6.037 23.101 -7.046 Q21.66 -8.055 21.318 -10.089 L13.413 -49.432 H16.516 L24.346 -11.621 Q24.496 -10.71 25.408 -9.951 Q26.318 -9.193 27.228 -9.193 H51.922 V-6.037 Z"/></g><g id="Ultralight-S" transform="matrix(1 0 0 1 517.792 696)"><path d="M29.292 -48.84 Q26.53 -48.84 24.558 -50.813 Q22.585 -52.785 22.585 -55.547 Q22.585 -58.308 24.558 -60.281 Q26.53 -62.253 29.292 -62.253 Q32.053 -62.253 34.026 -60.281 Q35.998 -58.308 35.998 -55.547 Q35.998 -52.785 34.026 -50.813 Q32.053 -48.84 29.292 -48.84 Z M67.46 -0.514  59.767 -13.927 H34.913 Q32.448 -13.927 30.623 -15.456 Q28.799 -16.984 28.207 -19.154 L23.67 -38.682 Q23.078 -40.753 24.262 -42.725 Q25.445 -44.698 27.615 -45.388 Q29.39 -45.881 30.919 -45.092 Q32.448 -44.303 33.828 -43.021 L45.17 -31.975 L57.005 -41.246 L52.764 -43.514 Q52.37 -43.712 52.222 -44.303 Q52.074 -44.895 52.173 -45.29 L55.23 -51.898 Q55.427 -52.391 55.97 -52.489 Q56.512 -52.588 57.005 -52.391 L60.753 -50.418 Q61.148 -50.221 61.246 -49.679 Q61.345 -49.136 61.246 -48.742 L57.992 -41.246 L58.781 -40.26 L42.803 -26.65 L35.9 -34.934 L40.042 -18.266 H59.668 Q60.852 -18.266 61.887 -17.724 Q62.923 -17.182 63.613 -15.899 L71.207 -2.684 L67.46 -0.514 Z M51.877 -7.22 H27.122 Q25.248 -7.22 23.966 -8.059 Q22.684 -8.897 22.388 -10.771 L14.597 -49.432 H16.47 L24.163 -12.349 Q24.36 -11.165 25.544 -10.179 Q26.727 -9.193 27.911 -9.193 H51.877 V-7.22 Z"/></g></g></svg>