<svg xmlns="http://www.w3.org/2000/svg" version="1.1" width="3300" height="2000"><g id="Notes"><style>
    text {
      font-family: monospace;
      text-anchor: middle;
    }
    text.emphasis {
      font-weight:bold;
    }
    text.lanchor {
      text-anchor: start;
    }
  </style><rect height="2200" id="artboard" fill="white" width="3300" x="0" y="0"/><line id="" style="fill:none;stroke:black;stroke-width:0.5;" x1="263" x2="3036" y1="292" y2="292"/><text class="lanchor emphasis" transform="matrix(1 0 0 1 263 322)">Weight/Scale Variations</text><text transform="matrix(1 0 0 1 559.711 322)">Ultralight</text><text transform="matrix(1 0 0 1 856.422 322)">Thin</text><text transform="matrix(1 0 0 1 1153.13 322)">Light</text><text transform="matrix(1 0 0 1 1449.84 322)">Regular</text><text transform="matrix(1 0 0 1 1746.56 322)">Medium</text><text transform="matrix(1 0 0 1 2043.27 322)">Semibold</text><text transform="matrix(1 0 0 1 2339.98 322)">Bold</text><text transform="matrix(1 0 0 1 2636.69 322)">Heavy</text><text transform="matrix(1 0 0 1 2933.4 322)">Black</text><text id="template-version" style="text-anchor: end;" transform="matrix(1 0 0 1 3036 1933)">Template v.1.0</text><text class="lanchor" transform="matrix(1 0 0 1 263 726)">Small</text><text class="lanchor" transform="matrix(1 0 0 1 263 1156)">Medium</text><text class="lanchor" transform="matrix(1 0 0 1 263 1586)">Large</text></g><g id="Guides"><g id="H-reference" style="fill:#27AAE1;stroke:none;" transform="matrix(1 0 0 1 339 696)"><path d="M 54.9316 0 L 57.666 0 L 30.5664 -70.459 L 28.0762 -70.459 L 0.976562 0 L 3.66211 0 L 12.9395 -24.4629 L 45.7031 -24.4629 Z M 29.1992 -67.0898 L 29.4434 -67.0898 L 44.8242 -26.709 L 13.8184 -26.709 Z"/></g><line id="Baseline-S" style="fill:none;stroke:#27AAE1;opacity:1;stroke-width:0.577;" x1="263" x2="3036" y1="696" y2="696"/><line id="Capline-S" style="fill:none;stroke:#27AAE1;opacity:1;stroke-width:0.577;" x1="263" x2="3036" y1="625.541" y2="625.541"/><g id="H-reference" style="fill:#27AAE1;stroke:none;" transform="matrix(1 0 0 1 339 1126)"><path d="M 54.9316 0 L 57.666 0 L 30.5664 -70.459 L 28.0762 -70.459 L 0.976562 0 L 3.66211 0 L 12.9395 -24.4629 L 45.7031 -24.4629 Z M 29.1992 -67.0898 L 29.4434 -67.0898 L 44.8242 -26.709 L 13.8184 -26.709 Z"/></g><line id="Baseline-M" style="fill:none;stroke:#27AAE1;opacity:1;stroke-width:0.577;" x1="263" x2="3036" y1="1126" y2="1126"/><line id="Capline-M" style="fill:none;stroke:#27AAE1;opacity:1;stroke-width:0.577;" x1="263" x2="3036" y1="1055.54" y2="1055.54"/><g id="H-reference" style="fill:#27AAE1;stroke:none;" transform="matrix(1 0 0 1 339 1556)"><path d="M 54.9316 0 L 57.666 0 L 30.5664 -70.459 L 28.0762 -70.459 L 0.976562 0 L 3.66211 0 L 12.9395 -24.4629 L 45.7031 -24.4629 Z M 29.1992 -67.0898 L 29.4434 -67.0898 L 44.8242 -26.709 L 13.8184 -26.709 Z"/></g><line id="Baseline-L" style="fill:none;stroke:#27AAE1;opacity:1;stroke-width:0.577;" x1="263" x2="3036" y1="1556" y2="1556"/><line id="Capline-L" style="fill:none;stroke:#27AAE1;opacity:1;stroke-width:0.577;" x1="263" x2="3036" y1="1485.54" y2="1485.54"/><rect height="119.336" id="left-margin" style="fill:darkred;stroke:none;opacity:0.4;" width="12.4512" x="1394.06" y="1030.79"/><rect height="119.336" id="right-margin" style="fill:darkgreen;stroke:none;opacity:0.4;" width="12.4512" x="1502.5112" y="1030.79"/><rect x="1406.5112" y="1045" width="96" height="96" fill="none" stroke="blue" stroke-dasharray="5"/><rect x="1394.06" y="1030.79" width="120.9024" height="119.336" fill="none" stroke="blue"/></g><g id="Symbols"><g id="Bold-L" transform="matrix(1 0 0 1 2266 1556)"><path d="M50.471 -66.512 Q44.505 -66.512 40.312 -70.705 Q36.12 -74.897 36.12 -80.864 Q36.12 -86.83 40.312 -91.264 Q44.505 -95.699 50.471 -95.699 Q56.438 -95.699 60.791 -91.264 Q65.145 -86.83 65.145 -80.864 Q65.145 -74.897 60.791 -70.705 Q56.438 -66.512 50.471 -66.512 Z M125.291 39.59  106.103 6.05 H57.566 Q53.212 6.05 49.988 3.631 Q46.763 1.213 46.279 -2.657 L38.861 -41.357 Q37.249 -49.42 43.054 -55.225 Q48.859 -61.03 57.566 -61.03 Q60.953 -61.03 64.016 -59.337 Q67.08 -57.644 69.499 -55.709 L88.849 -37.649 L102.233 -48.13 L97.395 -50.549 Q95.782 -51.194 95.46 -52.887 Q95.138 -54.58 96.105 -55.87 L105.941 -71.834 Q106.586 -72.962 107.796 -73.285 Q109.005 -73.607 110.456 -72.962 L119.325 -68.447 Q120.454 -67.641 120.776 -66.029 Q121.099 -64.416 120.293 -63.126 L111.585 -47.969 L115.294 -43.937 L87.881 -21.846 L76.755 -29.264 L80.303 -11.526 H102.233 Q106.264 -11.526 108.683 -9.269 Q111.101 -7.011 113.359 -3.302 L135.127 34.108 L125.291 39.59 Z M88.688 26.206 H44.021 Q37.894 26.206 34.104 22.578 Q30.315 18.95 29.186 13.306 L14.351 -61.514 H27.574 L41.602 13.306 Q41.602 13.306 41.602 13.306 Q41.602 13.306 41.602 13.306 H88.688 V26.206 Z"/></g><g id="Semibold-L" transform="matrix(1 0 0 1 1970.27 1556)"><path d="M48.228 -68.054 Q42.402 -68.054 38.315 -72.142 Q34.227 -76.229 34.227 -82.055 Q34.227 -87.881 38.315 -92.175 Q42.402 -96.47 48.228 -96.47 Q54.054 -96.47 58.303 -92.175 Q62.55 -87.881 62.55 -82.055 Q62.55 -76.229 58.303 -72.142 Q54.054 -68.054 48.228 -68.054 Z M124.801 40.08  105.332 6.119 H55.954 Q51.46 6.119 48.059 3.596 Q44.66 1.072 44.036 -3.078 L36.478 -42.48 Q34.865 -50.471 40.459 -56.417 Q46.055 -62.362 54.622 -62.362 Q58.218 -62.362 61.422 -60.669 Q64.626 -58.976 67.045 -56.62 L84.572 -37.929 L99.99 -49.602 L94.381 -52.302 Q92.978 -52.876 92.62 -54.395 Q92.264 -55.912 93.02 -57.062 L102.086 -73.446 Q102.66 -74.575 103.835 -74.897 Q105.009 -75.22 106.32 -74.644 L115.47 -70.06 Q116.527 -69.394 116.885 -67.957 Q117.243 -66.519 116.577 -65.369 L108.36 -49.581 L112.28 -44.499 L83.255 -21.987 L74.581 -28.001 L77.848 -11.876 H101.531 Q105.353 -11.876 107.876 -9.69 Q110.4 -7.501 112.448 -4.144 L134.918 34.457 L124.801 40.08 Z M86.794 25.785 H41.919 Q35.931 25.785 32.316 22.438 Q28.703 19.09 27.574 13.376 L12.598 -61.794 H25.471 L39.5 13.376 Q39.5 13.376 39.5 13.376 Q39.5 13.376 39.5 13.376 H86.794 V25.785 Z"/></g><g id="Medium-L" transform="matrix(1 0 0 1 1674.31 1556)"><path d="M46.545 -69.212 Q40.824 -69.212 36.817 -73.22 Q32.808 -77.229 32.808 -82.949 Q32.808 -88.67 36.817 -92.859 Q40.824 -97.048 46.545 -97.048 Q52.266 -97.048 56.436 -92.859 Q60.606 -88.67 60.606 -82.949 Q60.606 -77.229 56.436 -73.22 Q52.266 -69.212 46.545 -69.212 Z M124.432 40.449  104.753 6.173 H54.744 Q50.146 6.173 46.614 3.57 Q43.081 0.967 42.352 -3.394 L34.69 -43.32 Q33.077 -51.26 38.515 -57.31 Q43.952 -63.362 52.413 -63.362 Q56.168 -63.362 59.477 -61.669 Q62.786 -59.975 65.205 -57.304 L81.365 -38.139 L98.306 -50.707 L92.119 -53.616 Q90.876 -54.138 90.49 -55.525 Q90.106 -56.912 90.706 -57.955 L99.193 -74.656 Q99.715 -75.784 100.863 -76.107 Q102.012 -76.429 103.218 -75.907 L112.577 -71.269 Q113.583 -70.708 113.967 -69.402 Q114.35 -68.098 113.789 -67.053 L105.941 -50.791 L110.018 -44.92 L79.783 -22.091 L72.951 -27.055 L76.008 -12.139 H101.005 Q104.669 -12.139 107.272 -10.006 Q109.874 -7.871 111.764 -4.775 L134.76 34.72 L124.432 40.449 Z M85.375 25.469 H40.34 Q34.459 25.469 30.976 22.333 Q27.493 19.195 26.364 13.429 L11.284 -62.004 H23.892 L37.921 13.429 Q37.921 13.429 37.921 13.429 Q37.921 13.429 37.921 13.429 H85.375 V25.469 Z"/></g><g id="Regular-L" transform="matrix(1 0 0 1 1378.56 1556)"><path d="M45.311 -70.06 Q39.668 -70.06 35.717 -74.011 Q31.766 -77.961 31.766 -83.605 Q31.766 -89.249 35.717 -93.361 Q39.668 -97.472 45.311 -97.472 Q50.955 -97.472 55.067 -93.361 Q59.179 -89.249 59.179 -83.605 Q59.179 -77.961 55.067 -74.011 Q50.955 -70.06 45.311 -70.06 Z M124.163 40.719  104.329 6.211 H53.858 Q49.181 6.211 45.553 3.551 Q41.925 0.89 41.119 -3.625 L33.379 -43.937 Q31.766 -51.839 37.087 -57.966 Q42.409 -64.094 50.794 -64.094 Q54.664 -64.094 58.05 -62.401 Q61.436 -60.707 63.855 -57.805 L79.013 -38.294 L97.073 -51.516 L90.461 -54.58 Q89.332 -55.064 88.929 -56.354 Q88.526 -57.644 89.01 -58.611 L97.073 -75.542 Q97.556 -76.671 98.685 -76.994 Q99.814 -77.316 100.943 -76.832 L110.456 -72.156 Q111.424 -71.672 111.827 -70.463 Q112.23 -69.254 111.746 -68.286 L104.168 -51.677 L108.36 -45.227 L77.239 -22.169 L71.756 -26.361 L74.659 -12.332 H100.62 Q104.168 -12.332 106.828 -10.236 Q109.489 -8.14 111.263 -5.237 L134.644 34.914 L124.163 40.719 Z M84.334 25.239 H39.184 Q33.379 25.239 29.992 22.256 Q26.606 19.273 25.477 13.468 L10.32 -62.159 H22.736 L36.765 13.468 Q36.765 13.468 36.765 13.468 Q36.765 13.468 36.765 13.468 H84.334 V25.239 Z"/></g><g id="Light-L" transform="matrix(1 0 0 1 1082.77 1556)"><path d="M45.56 -68.199 Q40.225 -68.199 36.586 -71.871 Q32.945 -75.542 32.945 -80.814 Q32.945 -86.024 36.586 -89.826 Q40.225 -93.627 45.56 -93.627 Q50.77 -93.627 54.57 -89.826 Q58.373 -86.024 58.373 -80.814 Q58.373 -75.542 54.57 -71.871 Q50.77 -68.199 45.56 -68.199 Z M121.744 37.866  103.089 5.529 H53.3 Q49.057 5.529 45.832 3.117 Q42.607 0.705 41.925 -3.315 L34.124 -42.946 Q32.572 -50.163 37.366 -55.826 Q42.16 -61.488 49.802 -61.488 Q53.424 -61.488 56.562 -59.858 Q59.7 -58.226 62.057 -55.51 L78.206 -36.309 L96.948 -50.586 L89.592 -54.083 Q88.463 -54.567 88.123 -55.796 Q87.781 -57.023 88.265 -57.99 L95.336 -73 Q95.758 -74.128 96.887 -74.42 Q98.016 -74.71 99.145 -74.227 L107.728 -69.923 Q108.695 -69.439 109.036 -68.293 Q109.377 -67.145 108.894 -66.177 L101.873 -50.562 L105.445 -45.289 L76.929 -22.727 L68.841 -29.09 L72.922 -10.596 H98.698 Q101.81 -10.596 104.255 -8.779 Q106.698 -6.961 108.286 -4.307 L130.116 33.238 L121.744 37.866 Z M84.148 22.014 H41.602 Q35.922 22.014 32.598 19.185 Q29.273 16.357 28.145 10.739 L13.545 -61.973 H23.418 L37.137 10.615 Q37.262 11.358 38.005 11.979 Q38.75 12.598 39.493 12.598 H84.148 V22.014 Z"/></g><g id="Thin-L" transform="matrix(1 0 0 1 787.282 1556)"><path d="M45.808 -66.338 Q40.783 -66.338 37.454 -69.731 Q34.124 -73.124 34.124 -78.023 Q34.124 -82.799 37.454 -86.29 Q40.783 -89.782 45.808 -89.782 Q50.583 -89.782 54.075 -86.29 Q57.566 -82.799 57.566 -78.023 Q57.566 -73.124 54.075 -69.731 Q50.583 -66.338 45.808 -66.338 Z M119.325 35.014  101.849 4.847 H52.742 Q48.933 4.847 46.111 2.683 Q43.289 0.518 42.731 -3.004 L34.867 -41.953 Q33.379 -48.49 37.645 -53.687 Q41.912 -58.884 48.809 -58.884 Q52.184 -58.884 55.073 -57.315 Q57.963 -55.746 60.258 -53.216 L77.4 -34.324 L96.824 -49.655 L88.725 -53.588 Q87.596 -54.072 87.317 -55.238 Q87.038 -56.404 87.522 -57.371 L93.599 -70.457 Q93.959 -71.585 95.088 -71.847 Q96.216 -72.106 97.345 -71.623 L104.998 -67.691 Q105.965 -67.207 106.244 -66.122 Q106.525 -65.037 106.041 -64.07 L99.578 -49.444 L102.531 -45.352 L76.618 -23.285 L65.927 -31.82 L71.185 -8.859 H96.774 Q99.454 -8.859 101.681 -7.321 Q103.906 -5.783 105.309 -3.377 L125.59 31.565 L119.325 35.014 Z M83.961 18.789 H44.021 Q38.465 18.789 35.202 16.115 Q31.94 13.443 30.812 8.009 L16.77 -61.786 H24.1 L37.51 7.762 Q37.757 9.251 39.245 10.491 Q40.735 11.731 42.223 11.731 H83.961 V18.789 Z"/></g><g id="Ultralight-L" transform="matrix(1 0 0 1 491.205 1556)"><path d="M45.956 -65.222 Q41.119 -65.222 37.974 -68.447 Q34.83 -71.672 34.83 -76.349 Q34.83 -80.864 37.974 -84.169 Q41.119 -87.475 45.956 -87.475 Q50.471 -87.475 53.777 -84.169 Q57.083 -80.864 57.083 -76.349 Q57.083 -71.672 53.777 -68.447 Q50.471 -65.222 45.956 -65.222 Z M117.874 33.301  101.104 4.438 H52.406 Q48.859 4.438 46.279 2.422 Q43.699 0.406 43.215 -2.819 L35.314 -41.357 Q33.863 -47.485 37.813 -52.403 Q41.764 -57.321 48.214 -57.321 Q51.439 -57.321 54.18 -55.789 Q56.921 -54.257 59.179 -51.839 L76.916 -33.134 L96.75 -49.097 L88.204 -53.29 Q87.075 -53.774 86.833 -54.902 Q86.591 -56.031 87.075 -56.999 L92.558 -68.931 Q92.88 -70.06 94.009 -70.302 Q95.138 -70.544 96.266 -70.06 L103.361 -66.351 Q104.329 -65.867 104.571 -64.819 Q104.812 -63.771 104.329 -62.804 L98.201 -48.775 L100.781 -45.389 L76.433 -23.62 L64.177 -33.456 L70.144 -7.817 H95.621 Q98.04 -7.817 100.136 -6.447 Q102.233 -5.076 103.523 -2.819 L122.873 30.56 L117.874 33.301 Z M83.85 16.854 H45.473 Q39.99 16.854 36.765 14.274 Q33.54 11.694 32.411 6.373 L18.705 -61.675 H24.51 L37.733 6.05 Q38.055 7.985 39.99 9.598 Q41.925 11.21 43.86 11.21 H83.85 V16.854 Z"/></g><g id="Bold-M" transform="matrix(1 0 0 1 2281.8 1126)"><path d="M44.625 -61.355 Q39.5 -61.355 35.875 -64.98 Q32.25 -68.605 32.25 -73.73 Q32.25 -78.855 35.875 -82.542 Q39.5 -86.23 44.625 -86.23 Q49.75 -86.23 53.375 -82.542 Q57 -78.855 57 -73.73 Q57 -68.605 53.375 -64.98 Q49.75 -61.355 44.625 -61.355 Z M96.125 22.02  80.75 -4.605 H48.25 Q44.5 -4.605 41.562 -6.98 Q38.625 -9.355 37.875 -13.23 L32.875 -38.48 Q31.375 -45.48 36.25 -50.792 Q41.125 -56.105 48.5 -56.105 Q51.75 -56.105 54.562 -54.542 Q57.375 -52.98 60 -51.23 L73.25 -42.605 L81 -48.355 L78.875 -49.355 Q77.25 -50.23 76.75 -52.105 Q76.25 -53.98 77.25 -55.48 L86.25 -69.73 Q87.125 -71.105 88.688 -71.605 Q90.25 -72.105 91.75 -71.23 L99.375 -67.355 Q100.875 -66.48 101.375 -64.667 Q101.875 -62.855 100.875 -61.355 L93.125 -48.73 L97.75 -43.73 L74.375 -26.48 L66.375 -31.23 L68.5 -22.855 H78.625 Q82.625 -22.855 85.062 -21.042 Q87.5 -19.23 89.5 -15.73 L107.75 15.645 L96.125 22.02 Z M69.75 15.52 H38.25 Q30.625 15.52 26.125 11.583 Q21.625 7.645 20.125 0.395 L9.25 -54.98 H24.625 L35.625 0.395 Q35.625 0.395 35.625 0.395 Q35.625 0.395 35.625 0.395 H69.75 V15.52 Z"/></g><g id="Semibold-M" transform="matrix(1 0 0 1 1985.97 1126)"><path d="M42.18 -62.605 Q37.218 -62.605 33.755 -66.067 Q30.294 -69.529 30.294 -74.491 Q30.294 -79.452 33.755 -82.95 Q37.218 -86.447 42.18 -86.447 Q47.141 -86.447 50.604 -82.95 Q54.065 -79.452 54.065 -74.491 Q54.065 -69.529 50.604 -66.067 Q47.141 -62.605 42.18 -62.605 Z M95.419 22.291  79.88 -4.605 H46.511 Q42.597 -4.605 39.525 -7.061 Q36.451 -9.517 35.648 -13.61 L30.484 -39.567 Q29.039 -46.459 33.641 -51.825 Q38.245 -57.192 45.403 -57.192 Q48.815 -57.192 51.764 -55.656 Q54.712 -54.121 57.229 -51.991 L68.794 -42.387 L78.555 -49.279 L75.831 -50.496 Q74.37 -51.262 73.87 -52.892 Q73.37 -54.524 74.206 -55.915 L82.338 -70.491 Q83.104 -71.811 84.558 -72.311 Q86.011 -72.811 87.403 -72.045 L95.245 -68.17 Q96.636 -67.404 97.136 -65.836 Q97.636 -64.267 96.799 -62.876 L89.701 -49.925 L94.435 -44.001 L69.539 -26.48 L63.875 -29.871 L65.782 -22.964 H77.81 Q81.484 -22.964 84.002 -21.26 Q86.521 -19.556 88.305 -16.436 L107.097 15.863 L95.419 22.291 Z M67.794 14.705 H36.076 Q28.831 14.705 24.549 11.066 Q20.266 7.428 18.821 0.395 L7.838 -55.251 H22.505 L33.505 0.395 Q33.505 0.395 33.505 0.395 Q33.505 0.395 33.505 0.395 H67.794 V14.705 Z"/></g><g id="Medium-M" transform="matrix(1 0 0 1 1689.91 1126)"><path d="M40.345 -63.542 Q35.505 -63.542 32.166 -66.882 Q28.826 -70.221 28.826 -75.061 Q28.826 -79.901 32.166 -83.256 Q35.505 -86.61 40.345 -86.61 Q45.185 -86.61 48.525 -83.256 Q51.864 -79.901 51.864 -75.061 Q51.864 -70.221 48.525 -66.882 Q45.185 -63.542 40.345 -63.542 Z M94.889 22.495  79.229 -4.605 H45.206 Q41.171 -4.605 37.996 -7.122 Q34.821 -9.64 33.975 -13.896 L28.69 -40.382 Q27.285 -47.192 31.685 -52.6 Q36.084 -58.007 43.079 -58.007 Q46.614 -58.007 49.665 -56.492 Q52.715 -54.977 55.15 -52.561 L65.451 -42.225 L76.72 -49.971 L73.549 -51.352 Q72.209 -52.037 71.709 -53.484 Q71.209 -54.931 71.924 -56.241 L79.403 -71.061 Q80.088 -72.341 81.459 -72.841 Q82.831 -73.341 84.141 -72.656 L92.146 -68.781 Q93.456 -68.096 93.956 -66.712 Q94.456 -65.327 93.743 -64.017 L87.134 -50.822 L91.949 -44.205 L65.91 -26.48 L62 -28.852 L63.745 -23.045 H77.199 Q80.627 -23.045 83.207 -21.422 Q85.787 -19.801 87.407 -16.966 L106.609 16.025 L94.889 22.495 Z M66.326 14.094 H34.446 Q27.486 14.094 23.366 10.679 Q19.247 7.265 17.843 0.395 L6.777 -55.455 H20.916 L31.916 0.395 Q31.916 0.395 31.916 0.395 Q31.916 0.395 31.916 0.395 H66.326 V14.094 Z"/></g><g id="Regular-M" transform="matrix(1 0 0 1 1394.06 1126)"><path d="M39 -64.23 Q34.25 -64.23 31 -67.48 Q27.75 -70.73 27.75 -75.48 Q27.75 -80.23 31 -83.48 Q34.25 -86.73 39 -86.73 Q43.75 -86.73 47 -83.48 Q50.25 -80.23 50.25 -75.48 Q50.25 -70.73 47 -67.48 Q43.75 -64.23 39 -64.23 Z M94.5 22.645  78.75 -4.605 H44.25 Q40.125 -4.605 36.875 -7.167 Q33.625 -9.73 32.75 -14.105 L27.375 -40.98 Q26 -47.73 30.25 -53.167 Q34.5 -58.605 41.375 -58.605 Q45 -58.605 48.125 -57.105 Q51.25 -55.605 53.625 -52.98 L63 -42.105 L75.375 -50.48 L71.875 -51.98 Q70.625 -52.605 70.125 -53.917 Q69.625 -55.23 70.25 -56.48 L77.25 -71.48 Q77.875 -72.73 79.188 -73.23 Q80.5 -73.73 81.75 -73.105 L89.875 -69.23 Q91.125 -68.605 91.625 -67.355 Q92.125 -66.105 91.5 -64.855 L85.25 -51.48 L90.125 -44.355 L63.25 -26.48 L60.625 -28.105 L62.25 -23.105 H76.75 Q80 -23.105 82.625 -21.542 Q85.25 -19.98 86.75 -17.355 L106.25 16.145 L94.5 22.645 Z M65.25 13.645 H33.25 Q26.5 13.645 22.5 10.395 Q18.5 7.145 17.125 0.395 L6 -55.605 H19.75 L30.75 0.395 Q30.75 0.395 30.75 0.395 Q30.75 0.395 30.75 0.395 H65.25 V13.645 Z"/></g><g id="Light-M" transform="matrix(1 0 0 1 1098.18 1126)"><path d="M38.326 -62.787 Q33.914 -62.787 30.88 -65.821 Q27.846 -68.855 27.846 -73.269 Q27.846 -77.681 30.88 -80.715 Q33.914 -83.749 38.326 -83.749 Q42.74 -83.749 45.774 -80.715 Q48.807 -77.681 48.807 -73.269 Q48.807 -68.855 45.774 -65.821 Q42.74 -62.787 38.326 -62.787 Z M93.346 21.106  78.461 -4.605 H43.289 Q39.596 -4.605 36.706 -6.902 Q33.818 -9.201 33.039 -13.047 L27.422 -40.595 Q26.096 -46.72 29.985 -51.725 Q33.875 -56.73 40.172 -56.73 Q43.557 -56.73 46.37 -55.302 Q49.182 -53.874 51.461 -51.49 L61.943 -40.134 L75.422 -49.902 L70.625 -52.124 Q69.519 -52.701 69.067 -53.965 Q68.615 -55.23 69.144 -56.336 L75.279 -69.509 Q75.855 -70.662 77.096 -71.115 Q78.336 -71.566 79.49 -70.99 L86.894 -67.355 Q88 -66.777 88.427 -65.6 Q88.855 -64.422 88.326 -63.316 L82.365 -50.374 L86.519 -44.451 L62.144 -26.816 L57.355 -30.365 L60.039 -20.605 H75.789 Q78.701 -20.605 81.039 -19.235 Q83.375 -17.865 84.73 -15.431 L102.884 15.856 L93.346 21.106 Z M65.154 11.145 H34.404 Q27.99 11.145 24.328 8.255 Q20.664 5.366 19.385 -1.047 L8.5 -55.605 H19.654 L30.365 -1.144 Q30.461 -0.566 31.039 -0.086 Q31.615 0.395 32.193 0.395 H65.154 V11.145 Z"/></g><g id="Thin-M" transform="matrix(1 0 0 1 802.565 1126)"><path d="M37.654 -61.345 Q33.578 -61.345 30.76 -64.162 Q27.942 -66.98 27.942 -71.057 Q27.942 -75.134 30.76 -77.951 Q33.578 -80.769 37.654 -80.769 Q41.731 -80.769 44.547 -77.951 Q47.365 -75.134 47.365 -71.057 Q47.365 -66.98 44.547 -64.162 Q41.731 -61.345 37.654 -61.345 Z M92.192 19.568  78.172 -4.605 H42.328 Q39.068 -4.605 36.539 -6.639 Q34.01 -8.672 33.328 -11.99 L27.471 -40.211 Q26.192 -45.711 29.721 -50.282 Q33.25 -54.855 38.971 -54.855 Q42.115 -54.855 44.615 -53.499 Q47.115 -52.144 49.297 -49.999 L60.885 -38.162 L75.471 -49.326 L69.375 -52.269 Q68.414 -52.797 68.01 -54.014 Q67.606 -55.23 68.039 -56.191 L73.308 -67.537 Q73.836 -68.595 75.005 -68.999 Q76.172 -69.402 77.231 -68.874 L83.914 -65.48 Q84.875 -64.951 85.231 -63.845 Q85.586 -62.74 85.154 -61.777 L79.481 -49.269 L82.914 -44.547 L61.039 -27.152 L54.086 -32.624 L57.828 -18.105 H74.828 Q77.404 -18.105 79.453 -16.927 Q81.5 -15.749 82.711 -13.509 L99.519 15.568 L92.192 19.568 Z M65.058 8.645 H35.557 Q29.481 8.645 26.154 6.116 Q22.828 3.588 21.644 -2.49 L11 -55.605 H19.558 L29.981 -2.682 Q30.172 -1.527 31.328 -0.566 Q32.481 0.395 33.635 0.395 H65.058 V8.645 Z"/></g><g id="Ultralight-M" transform="matrix(1 0 0 1 506.415 1126)"><path d="M37.25 -60.48 Q33.375 -60.48 30.688 -63.167 Q28 -65.855 28 -69.73 Q28 -73.605 30.688 -76.292 Q33.375 -78.98 37.25 -78.98 Q41.125 -78.98 43.812 -76.292 Q46.5 -73.605 46.5 -69.73 Q46.5 -65.855 43.812 -63.167 Q41.125 -60.48 37.25 -60.48 Z M91.5 18.645  78 -4.605 H41.75 Q38.75 -4.605 36.438 -6.48 Q34.125 -8.355 33.5 -11.355 L27.5 -39.98 Q26.25 -45.105 29.562 -49.417 Q32.875 -53.73 38.25 -53.73 Q41.25 -53.73 43.562 -52.417 Q45.875 -51.105 48 -49.105 L60.25 -36.98 L75.5 -48.98 L68.625 -52.355 Q67.75 -52.855 67.375 -54.042 Q67 -55.23 67.375 -56.105 L72.125 -66.355 Q72.625 -67.355 73.75 -67.73 Q74.875 -68.105 75.875 -67.605 L82.125 -64.355 Q83 -63.855 83.312 -62.792 Q83.625 -61.73 83.25 -60.855 L77.75 -48.605 L80.75 -44.605 L60.375 -27.355 L52.125 -33.98 L56.5 -16.605 H74.25 Q76.625 -16.605 78.5 -15.542 Q80.375 -14.48 81.5 -12.355 L97.5 15.395 L91.5 18.645 Z M65 7.145 H36.25 Q30.375 7.145 27.25 4.833 Q24.125 2.52 23 -3.355 L12.5 -55.605 H19.5 L29.75 -3.605 Q30 -2.105 31.5 -0.855 Q33 0.395 34.5 0.395 H65 V7.145 Z"/></g><g id="Bold-S" transform="matrix(1 0 0 1 2294.23 696)"><path d="M36.294 -52.687 Q32.053 -52.687 29.094 -55.645 Q26.136 -58.604 26.136 -62.845 Q26.136 -67.086 29.094 -70.094 Q32.053 -73.102 36.294 -73.102 Q40.535 -73.102 43.494 -70.094 Q46.452 -67.086 46.452 -62.845 Q46.452 -58.604 43.494 -55.645 Q40.535 -52.687 36.294 -52.687 Z M72.687 4.417  62.528 -13.434 H40.831 Q37.379 -13.434 34.617 -15.653 Q31.856 -17.872 31.067 -21.324 L27.319 -38.189 Q26.333 -42.331 29.094 -45.783 Q31.856 -49.235 36.294 -49.925 Q38.76 -50.418 40.929 -49.185 Q43.099 -47.953 45.269 -46.67 L55.723 -40.95 L62.528 -45.98 L60.358 -47.065 Q59.175 -47.657 58.781 -49.136 Q58.386 -50.615 59.076 -51.7 L66.079 -62.549 Q66.671 -63.535 67.854 -63.831 Q69.038 -64.127 70.122 -63.535 L76.04 -60.478 Q77.125 -59.886 77.47 -58.505 Q77.815 -57.125 77.125 -56.04 L70.813 -45.487 L73.969 -42.134 L54.342 -27.636 L49.214 -33.257 L51.482 -25.466 H64.303 Q67.262 -25.466 69.038 -24.184 Q70.813 -22.902 72.292 -20.239 L83.24 -1.402 L72.687 4.417 Z M55.822 2.445 H29.094 Q23.769 2.445 20.958 0.078 Q18.147 -2.289 17.161 -7.319 L8.876 -49.235 H20.12 L28.404 -8.7 Q28.404 -8.7 28.404 -8.7 Q28.404 -8.7 28.404 -8.7 H55.822 V2.445 Z"/></g><g id="Semibold-S" transform="matrix(1 0 0 1 1998.1 696)"><path d="M34.365 -53.673 Q30.252 -53.673 27.422 -56.503 Q24.592 -59.333 24.592 -63.446 Q24.592 -67.557 27.422 -70.415 Q30.252 -73.274 34.365 -73.274 Q38.477 -73.274 41.307 -70.415 Q44.137 -67.557 44.137 -63.446 Q44.137 -59.333 41.307 -56.503 Q38.477 -53.673 34.365 -53.673 Z M72.129 4.631  61.842 -13.434 H39.459 Q35.878 -13.434 33.01 -15.717 Q30.141 -18 29.309 -21.624 L25.432 -39.047 Q24.49 -43.103 27.036 -46.598 Q29.584 -50.093 33.85 -50.783 Q36.444 -51.276 38.721 -50.064 Q40.998 -48.853 43.082 -47.271 L52.207 -40.779 L60.599 -46.709 L57.957 -47.965 Q56.903 -48.471 56.508 -49.757 Q56.114 -51.045 56.675 -52.044 L62.992 -63.15 Q63.498 -64.093 64.595 -64.388 Q65.693 -64.684 66.692 -64.178 L72.781 -61.121 Q73.78 -60.615 74.126 -59.428 Q74.471 -58.239 73.909 -57.24 L68.111 -46.43 L71.353 -42.348 L50.527 -27.636 L47.241 -32.185 L49.338 -25.552 H63.66 Q66.362 -25.552 68.201 -24.356 Q70.041 -23.159 71.349 -20.796 L82.725 -1.23 L72.129 4.631 Z M54.278 1.802 H27.379 Q22.353 1.802 19.714 -0.33 Q17.075 -2.461 16.132 -7.319 L7.762 -49.449 H18.447 L26.731 -8.7 Q26.731 -8.7 26.731 -8.7 Q26.731 -8.7 26.731 -8.7 H54.278 V1.802 Z"/></g><g id="Medium-S" transform="matrix(1 0 0 1 1701.85 696)"><path d="M32.917 -54.413 Q28.901 -54.413 26.168 -57.146 Q23.434 -59.879 23.434 -63.895 Q23.434 -67.911 26.168 -70.657 Q28.901 -73.402 32.917 -73.402 Q36.933 -73.402 39.667 -70.657 Q42.4 -67.911 42.4 -63.895 Q42.4 -59.879 39.667 -57.146 Q36.933 -54.413 32.917 -54.413 Z M71.711 4.792  61.328 -13.434 H38.429 Q34.752 -13.434 31.804 -15.765 Q28.855 -18.097 27.99 -21.85 L24.017 -39.69 Q23.106 -43.682 25.493 -47.209 Q27.878 -50.736 32.017 -51.426 Q34.707 -51.919 37.065 -50.724 Q39.422 -49.529 41.442 -47.721 L49.57 -40.65 L59.151 -47.255 L56.156 -48.641 Q55.197 -49.083 54.803 -50.224 Q54.408 -51.366 54.874 -52.301 L60.676 -63.599 Q61.118 -64.511 62.151 -64.807 Q63.184 -65.103 64.119 -64.661 L70.336 -61.603 Q71.271 -61.161 71.617 -60.119 Q71.962 -59.076 71.497 -58.141 L66.086 -47.138 L69.392 -42.509 L47.663 -27.636 L45.762 -31.382 L47.731 -25.616 H63.178 Q65.686 -25.616 67.574 -24.484 Q69.462 -23.353 70.641 -21.214 L82.339 -1.102 L71.711 4.792 Z M53.12 1.319 H26.093 Q21.292 1.319 18.781 -0.635 Q16.271 -2.589 15.36 -7.319 L6.925 -49.61 H17.193 L25.478 -8.7 Q25.478 -8.7 25.478 -8.7 Q25.478 -8.7 25.478 -8.7 H53.12 V1.319 Z"/></g><g id="Regular-S" transform="matrix(1 0 0 1 1405.73 696)"><path d="M31.856 -54.955 Q27.911 -54.955 25.248 -57.618 Q22.585 -60.281 22.585 -64.226 Q22.585 -68.171 25.248 -70.834 Q27.911 -73.496 31.856 -73.496 Q35.801 -73.496 38.464 -70.834 Q41.127 -68.171 41.127 -64.226 Q41.127 -60.281 38.464 -57.618 Q35.801 -54.955 31.856 -54.955 Z M71.404 4.91  60.95 -13.434 H37.675 Q33.927 -13.434 30.919 -15.801 Q27.911 -18.168 27.023 -22.014 L22.98 -40.161 Q22.092 -44.106 24.36 -47.657 Q26.629 -51.207 30.672 -51.898 Q33.434 -52.391 35.85 -51.207 Q38.267 -50.024 40.239 -48.051 L47.636 -40.556 L58.09 -47.657 L54.836 -49.136 Q53.948 -49.531 53.553 -50.566 Q53.159 -51.602 53.553 -52.489 L58.978 -63.93 Q59.372 -64.817 60.358 -65.113 Q61.345 -65.409 62.232 -65.015 L68.544 -61.957 Q69.432 -61.563 69.777 -60.626 Q70.122 -59.689 69.728 -58.801 L64.599 -47.657 L67.953 -42.627 L45.565 -27.636 L44.677 -30.792 L46.551 -25.663 H62.824 Q65.191 -25.663 67.114 -24.578 Q69.038 -23.494 70.122 -21.521 L82.056 -1.007 L71.404 4.91 Z M52.271 0.965 H25.149 Q20.514 0.965 18.098 -0.859 Q15.681 -2.684 14.794 -7.319 L6.312 -49.728 H16.273 L24.558 -8.7 Q24.558 -8.7 24.558 -8.7 Q24.558 -8.7 24.558 -8.7 H52.271 V0.965 Z"/></g><g id="Light-S" transform="matrix(1 0 0 1 1109.75 696)"><path d="M31.324 -53.817 Q27.646 -53.817 25.153 -56.309 Q22.661 -58.801 22.661 -62.481 Q22.661 -66.16 25.153 -68.652 Q27.646 -71.144 31.324 -71.144 Q35.004 -71.144 37.496 -68.652 Q39.988 -66.16 39.988 -62.481 Q39.988 -58.801 37.496 -56.309 Q35.004 -53.817 31.324 -53.817 Z M70.494 3.696  60.722 -13.434 H36.916 Q33.51 -13.434 30.786 -15.592 Q28.063 -17.751 27.251 -21.18 L23.017 -39.857 Q22.168 -43.309 24.151 -46.519 Q26.136 -49.728 29.724 -50.418 Q32.296 -50.911 34.465 -49.785 Q36.635 -48.658 38.532 -46.876 L46.802 -39 L58.128 -47.201 L53.849 -49.25 Q53.075 -49.607 52.719 -50.604 Q52.362 -51.602 52.681 -52.376 L57.422 -62.375 Q57.778 -63.186 58.709 -63.445 Q59.638 -63.702 60.449 -63.346 L66.192 -60.478 Q66.966 -60.121 67.254 -59.241 Q67.542 -58.362 67.224 -57.587 L62.323 -46.784 L65.107 -42.703 L44.692 -27.901 L42.097 -32.575 L44.806 -23.691 H62.066 Q64.166 -23.691 65.863 -22.758 Q67.558 -21.825 68.529 -20.003 L79.4 -1.235 L70.494 3.696 Z M52.195 -1.007 H26.06 Q21.69 -1.007 19.54 -2.548 Q17.389 -4.087 16.577 -8.457 L8.284 -49.728 H16.197 L24.254 -9.914 Q24.33 -9.458 24.785 -9.08 Q25.24 -8.7 25.696 -8.7 H52.195 V-1.007 Z"/></g><g id="Thin-S" transform="matrix(1 0 0 1 814.015 696)"><path d="M30.794 -52.679 Q27.38 -52.679 25.059 -55 Q22.737 -57.322 22.737 -60.736 Q22.737 -64.15 25.059 -66.471 Q27.38 -68.793 30.794 -68.793 Q34.208 -68.793 36.529 -66.471 Q38.85 -64.15 38.85 -60.736 Q38.85 -57.322 36.529 -55 Q34.208 -52.679 30.794 -52.679 Z M69.584 2.482  60.495 -13.434 H36.158 Q33.093 -13.434 30.654 -15.384 Q28.215 -17.334 27.479 -20.346 L23.056 -39.555 Q22.244 -42.513 23.943 -45.38 Q25.643 -48.248 28.776 -48.939 Q31.158 -49.432 33.081 -48.362 Q35.004 -47.293 36.825 -45.699 L45.967 -37.445 L58.166 -46.746 L52.863 -49.364 Q52.203 -49.683 51.885 -50.642 Q51.566 -51.602 51.809 -52.262 L55.867 -60.819 Q56.186 -61.555 57.059 -61.775 Q57.93 -61.995 58.667 -61.676 L63.841 -58.999 Q64.501 -58.68 64.733 -57.857 Q64.963 -57.034 64.721 -56.373 L60.048 -45.912 L62.263 -42.779 L43.82 -28.166 L39.518 -34.357 L43.062 -21.718 H61.307 Q63.143 -21.718 64.611 -20.937 Q66.079 -20.155 66.936 -18.486 L76.745 -1.463 L69.584 2.482 Z M52.119 -2.98 H26.97 Q22.866 -2.98 20.98 -4.235 Q19.096 -5.491 18.359 -9.595 L10.257 -49.728 H16.121 L23.951 -11.128 Q24.102 -10.217 25.013 -9.458 Q25.924 -8.7 26.834 -8.7 H52.119 V-2.98 Z"/></g><g id="Ultralight-S" transform="matrix(1 0 0 1 517.792 696)"><path d="M30.475 -51.996 Q27.221 -51.996 25.001 -54.215 Q22.782 -56.434 22.782 -59.689 Q22.782 -62.944 25.001 -65.163 Q27.221 -67.382 30.475 -67.382 Q33.73 -67.382 35.949 -65.163 Q38.168 -62.944 38.168 -59.689 Q38.168 -56.434 35.949 -54.215 Q33.73 -51.996 30.475 -51.996 Z M69.038 1.754  60.358 -13.434 H35.702 Q32.842 -13.434 30.574 -15.258 Q28.305 -17.083 27.615 -19.844 L23.078 -39.372 Q22.289 -42.035 23.818 -44.698 Q25.347 -47.361 28.207 -48.051 Q30.475 -48.544 32.25 -47.509 Q34.026 -46.473 35.801 -44.994 L45.466 -36.512 L58.189 -46.473 L52.271 -49.432 Q51.68 -49.728 51.384 -50.665 Q51.088 -51.602 51.285 -52.193 L54.934 -59.886 Q55.23 -60.577 56.068 -60.774 Q56.907 -60.971 57.597 -60.675 L62.43 -58.111 Q63.021 -57.815 63.219 -57.026 Q63.416 -56.237 63.219 -55.645 L58.682 -45.388 L60.556 -42.824 L43.296 -28.326 L37.971 -35.427 L42.014 -20.535 H60.852 Q62.528 -20.535 63.86 -19.844 Q65.191 -19.154 65.98 -17.576 L75.152 -1.599 L69.038 1.754 Z M52.074 -4.163 H27.516 Q23.571 -4.163 21.845 -5.248 Q20.12 -6.333 19.429 -10.278 L11.441 -49.728 H16.076 L23.769 -11.856 Q23.966 -10.672 25.149 -9.686 Q26.333 -8.7 27.516 -8.7 H52.074 V-4.163 Z"/></g></g></svg>