<svg xmlns="http://www.w3.org/2000/svg" height="40" viewBox="0 -960 960 960" width="40"><path d="M327.67-679q-38.34 0-65.34-27t-27-65.33q0-38.34 27-66.5 27-28.17 65.34-28.17 38.33 0 66 28.17 27.66 28.16 27.66 66.5 0 38.33-27.66 65.33-27.67 27-66 27ZM774.33-18 654-227.67H366.67q-28 0-49.17-16.33t-25.17-42.67l-44-227.33q-10.66-52 26.34-90.17 37-38.16 92.66-38.16 22.67 0 42.84 11.16 20.16 11.17 37.16 23.84l115.34 97.66 76-58.66L613-581q-11-5-13.67-17-2.66-12 4-21.33l64.67-104q5-8.34 14.17-11 9.16-2.67 19.16 2.33l57 29q8.67 5.67 11.34 17.17 2.66 11.5-3.34 20.83l-56.66 96.33 27.66 30-175.66 137.34-67.34-43.34L514.67-349h117.66q27.34 0 43.84 14.17 16.5 14.16 31.16 38.83L846-57.67 774.33-18ZM552.67-90.67H284q-45.67 0-73.33-25.5-27.67-25.5-36.34-68.16L84-641.33h95.67l87.33 457h285.67v93.66Z"/></svg>