<svg xmlns="http://www.w3.org/2000/svg" height="24" viewBox="0 -960 960 960" width="24"><path d="M289.23-656.92q-27.61 0-47.65-20.04t-20.04-47.66q0-27.61 20.04-47.65t47.65-20.04q27.62 0 47.65 20.04 20.04 20.04 20.04 47.65 0 27.62-20.04 47.66-20.03 20.04-47.65 20.04Zm432.31 592.3L619.38-240H330.62q-22.08 0-37.81-13.27-15.73-13.27-20.19-33.81l-46.85-225.77q-8.23-38 16.5-67.57Q267-610 305.77-610q20.15 0 37.65 8.35 17.5 8.34 30.96 23.5l109.7 120.69 107.69-82.31L560-556.31q-5.69-3.23-7.42-9.46-1.73-6.23.73-11.92l36.15-79.77q3.23-6.46 9.58-8.69 6.34-2.23 12.81 1L654.31-644q5.69 3.23 7.54 9.58 1.84 6.34-.62 12.04l-32.38 72.07 16.46 21.77-162 130.16-71.62-55.77L442.62-320h144q15.61 0 29 7.92 13.38 7.93 22.07 22.85L756.15-84.62l-34.61 20ZM518.46-160h-238q-27.61 0-49.73-17.73-22.11-17.73-27.58-45.35L120-640h40.46l83.39 415.38q1.53 9.24 10.77 16.93 9.23 7.69 18.46 7.69h245.38v40Z"/></svg>