<svg xmlns="http://www.w3.org/2000/svg" height="20" viewBox="0 -960 960 960" width="20"><path d="M340.39-646.3q-38.39 0-65.43-27.05-27.05-27.04-27.05-65.43 0-38.39 27.05-65.72 27.04-27.33 65.43-27.33 38.39 0 65.72 27.33t27.33 65.72q0 38.39-27.33 65.43-27.33 27.05-65.72 27.05ZM721-90.91 623.3-262.3H394.91q-34 0-60-21t-34-54l-39.3-176.66q-8.13-37.39 15.33-68.37 23.45-30.97 62.54-37.97 23-5 44.15 5.63 21.15 10.63 39.98 25.8l103.87 82.78 78.91-55.95-15.43-8q-9.26-4.7-12.61-15.37-3.35-10.68 1.91-19.37l60.31-105.57q4.69-8.69 13.95-10.69 9.26-2 17.96 2.13l54.13 27.26q9.26 4.69 12.04 15.08 2.79 10.4-2.47 19.09l-50.31 91.22 25.83 31.04L509-391.65l-43.65-54.18 21.7 79.05h150.39q24.08 0 40.87 11.19 16.78 11.2 29.6 33.29l105 180L721-90.91Zm-172.09-33.87H274.74q-36.74 0-60.7-19.68-23.95-19.67-30.65-55.84l-84-422h90.52l84 408h275v89.52Z"/></svg>