<svg xmlns="http://www.w3.org/2000/svg" height="40" viewBox="0 -960 960 960" width="40"><path d="M326.67-677.67q-37.67 0-64.67-27t-27-64.66q0-38.34 27-66.17t64.67-27.83q38.33 0 66.16 27.83 27.84 27.83 27.84 66.17 0 37.66-27.84 64.66-27.83 27-66.16 27ZM773.67-19 654-227.67H366.33q-27.66 0-48.5-15.83-20.83-15.83-25.5-42.17l-44-227.33q-10.33-52 26.5-90 36.84-38 92.5-38 22.67 0 42 10.83Q428.67-619.33 446-606l116.33 99 75.34-58.67L613-578q-10-5.67-13.33-17.17-3.34-11.5 3.33-20.5L667.67-719q5.66-9 14.83-11.33 9.17-2.34 18.83 2.33l55.34 29q9.33 6.33 11.83 17.5t-3.5 20.17l-56.33 94.66 27.66 29.34L561-399.67 493-444l20.33 96.67h118q27.34 0 43.84 14 16.5 14 31.16 39l138 236.66L773.67-19ZM552.33-92h-269q-44 0-71.5-24.67-27.5-24.66-35.5-67.66L85.33-641h95l87.34 456.67h284.66V-92Z"/></svg>