<svg xmlns="http://www.w3.org/2000/svg" height="48" viewBox="0 -960 960 960" width="48"><path d="M279-650q-27.5 0-45.75-18.75T215-714q0-26 18.25-45T279-778q26 0 45 19t19 45q0 26.5-19 45.25T279-650ZM723-66l-99-170H321q-19.5 0-33.5-11T271-275l-48.5-239q-8.5-35.5 14.25-62.25T296.5-603q17.5 0 33.25 8t27.75 21.5l118 129.5 119-95-45.5-23q-5.5-3.5-6.25-8t1.75-10l31-68.5q1.5-5.5 7-7t12 1l37.5 20q5.5 3.5 6.5 8.5t-1.5 9.5L605-543l11 12.5-144.5 131-84-67L425-298h162q12.5 0 24.5 7.5T630-270L742-77l-19 11ZM519-172H280.5q-24 0-41.75-14.75T216-224l-84-418h22l82 416q2 12 14 22t24 10h245v22Z"/></svg>