<svg xmlns="http://www.w3.org/2000/svg" height="20" viewBox="0 -960 960 960" width="20"><path d="M340.39-640.3q-37.89 0-64.18-26.3-26.3-26.29-26.3-64.18 0-37.89 26.3-64.47 26.29-26.58 64.18-26.58 37.89 0 64.47 26.58t26.58 64.47q0 37.89-26.58 64.18-26.58 26.3-64.47 26.3ZM715-100.91 620.3-267.3H395.91q-33 0-58.25-20.25t-32.75-51.75l-38.8-176.66q-8.13-35.89 14.33-66.12 22.45-30.22 60.54-37.22 22.5-5 42.4 6.38 19.9 11.38 38.73 25.55l106.87 83.28 88.91-62.95-22.93-11q-8.76-4.2-11.86-14.87-3.1-10.68 1.66-18.87l59.31-103.07q4.19-8.19 12.95-9.69 8.76-1.5 16.96 2.13l57.63 28.26q8.76 4.19 11.04 14.08 2.29 9.9-2.47 18.09l-53.31 97.72 22.83 26.54-202.2 143.57-47.65-56.18 24.2 84.55h150.39q23.58 0 39.37 10.94 15.78 10.95 28.1 32.54l101 173L715-100.91Zm-167.09-33.87H278.24q-36.74 0-57.95-17.43-21.2-17.42-27.9-53.09l-83-416h85.52l82 402h271v84.52Z"/></svg>