<svg xmlns="http://www.w3.org/2000/svg" height="20" viewBox="0 -960 960 960" width="20"><path d="M309-650q-33 0-55.5-22.5T231-728q0-33 22.5-55.5T309-806q33 0 55.5 22.5T387-728q0 33-22.5 55.5T309-650Zm391 545-88-154H362q-29 0-52-18.5T280-324l-46-198q-8-27 7.5-54t44.5-34q23-5 41 5.5t36 25.5l98 86 129-101-60-30q-6-3-9-12.5t-1-15.5l37-78q3-7 11.5-9t15.5 1l49 26q6 3 8 11t0 14l-46 104 19 26-175 147-54-72 41 151h191q17 0 30.5 7t21.5 23l93 162-62 34Zm-172-60H279q-40 0-57.5-11T197-227l-81-400h47l78 384q2 12 14 22t24 10h249v46Z"/></svg>