<svg xmlns="http://www.w3.org/2000/svg" height="24" viewBox="0 -960 960 960" width="24"><path d="M306.61-700.46q-35.3 0-59.57-24.27-24.27-24.27-24.27-59.58 0-35.3 24.27-59.57 24.27-24.27 59.57-24.27 35.31 0 59.58 24.27 24.27 24.27 24.27 59.57 0 35.31-24.27 59.58-24.27 24.27-59.58 24.27ZM746.77-29.31 627.69-235H346.31q-29.54 0-52.66-18.38-23.11-18.39-29.34-49.16l-44.93-220.38q-10.61-49 20.5-89.04Q271-652 321.38-652q27.08 0 49.58 11.42 22.5 11.43 40.73 30.5l83.85 90.85 107.84-78.15L565-615.15q-8.85-4.62-12.46-14.73-3.62-10.12.61-18.97l49.08-105.38q4.61-9.23 14.54-12.85 9.92-3.61 19.15 1L695.15-737q8.85 4.62 12.27 14.04 3.42 9.42-.81 18.27l-47.69 103.54 33.23 47.38-195 141.08-38.31-28.39L480.31-363h126q23.3 0 42 10.96 18.69 10.96 29.53 30.43l145.23 250.3-76.3 42ZM521.23-109h-246q-51.31 0-80.61-23.12-29.31-23.11-39.54-74.42L68-643h89.23l85.69 435.69q.77 4.62 5.39 8.46 4.61 3.85 9.23 3.85h263.69v86Z"/></svg>