<svg xmlns="http://www.w3.org/2000/svg" height="48" viewBox="0 -960 960 960" width="48"><path d="M278.08-656.23q-28.54 0-47.89-19.73-19.34-19.73-19.34-47.5 0-27.5 19.34-47.6 19.35-20.09 47.89-20.09 27.5 0 47.59 20.09 20.1 20.1 20.1 47.6 0 27.77-20.1 47.5-20.09 19.73-47.59 19.73ZM731.31-56.54l-103.04-177.5H323.19q-21 0-36.38-11.86-15.39-11.87-18.35-30.48l-48.27-241.54q-8.73-37.81 15.93-66.23 24.65-28.43 64.19-28.43 18.42 0 34.92 8.29t28.73 22.48l114.66 130.66 117.61-91.89-43.54-21.73q-5.38-3.38-6.36-8.17-.98-4.79 1.4-10.18l34.58-75.3q1.73-5.5 7.17-7.06 5.44-1.56 11.83.94l41.42 21.5q5.39 3.39 6.56 8.56t-1.21 9.67l-34.43 77.89 12.97 16.42-154.2 132.85-74.77-59.16 33.47 152.46h162.69q14.11 0 26.75 8.48 12.63 8.49 19.82 22.41L757.69-71.58l-26.38 15.04ZM519.58-161.15H271.85q-24.47 0-42.1-15.04-17.63-15.04-22.63-38.23l-85.97-428.16h30.89l82.92 426.62q1.54 9.23 10.77 16.92 9.23 7.69 18.46 7.69h255.39v30.2Z"/></svg>