<svg xmlns="http://www.w3.org/2000/svg" height="40" viewBox="0 -960 960 960" width="40"><path d="M289.33-671.33q-30.33 0-50.5-20.5-20.16-20.5-20.16-50.17 0-29 20.16-49.83 20.17-20.84 50.5-20.84 29 0 49.84 20.84Q360-771 360-742q0 29.67-20.83 50.17-20.84 20.5-49.84 20.5ZM731.33-53 626-234.33H328q-22.67 0-39.5-13.34Q271.67-261 268-282.33L219.33-518q-9.33-39 15.84-70.83 25.16-31.84 66.16-31.84 21.34 0 38.84 9.84 17.5 9.83 32.5 25.16l106 109.67 122.66-98-53.66-26.33q-7-3.34-9-11.17t1-14.17L575-702.33q2.67-7.34 10.33-9.34 7.67-2 15 1.34l46 24q6.34 3.33 8.17 10.5 1.83 7.16-1.17 13.5l-40 90.66L632-547 477-411l-72.67-58.33L440.67-317h152.66q16.34 0 30 8.5 13.67 8.5 22 23.5L768-73l-36.67 20ZM520-151.67H284.67q-38.34 0-60-16.83Q203-185.33 195.33-223l-84.66-420.67h42.66l82 418.67q2 12 14 22t24 10H520v41.33Z"/></svg>