<svg xmlns="http://www.w3.org/2000/svg" height="24" viewBox="0 -960 960 960" width="24"><path d="M286-647q-26 0-44.5-18.5T223-710q0-26 18.5-44.5T286-773q26 0 44.5 18.5T349-710q0 26-18.5 44.5T286-647ZM713-77l-96.5-165.5h-290q-19.5 0-33.25-11.5T276-283l-47.5-229q-8-34.5 14.25-61.5t58.25-27q18.5 0 34 8.5t28.5 21.5L480-447l118-92.5-42-21.5q-5-3-6.25-8.75t.75-10.75l31.5-70q2.5-5.5 8.25-7.25T602-657l40.5 20.5q5 3 6.25 8.75T648-617.5L615.5-544l11.5 13.5-149.5 129-84-66 37 160h150q13.5 0 25.25 7T625-280L735-89.5 713-77ZM517.5-177H288q-26 0-45.25-15t-24.25-40.5l-81.5-407h25.5l81 405q2 12 14 22t24 10h236v25.5Z"/></svg>