<svg xmlns="http://www.w3.org/2000/svg" height="48" viewBox="0 -960 960 960" width="48"><path d="M284.08-672.92q-31.16 0-51.81-21.04-20.65-21.04-20.65-51.42 0-29.62 20.65-51.27 20.65-21.66 51.81-21.66 29.61 0 51.27 21.66Q357-775 357-745.38q0 30.38-21.65 51.42-21.66 21.04-51.27 21.04ZM740-44.38 631.62-231.46H327.08q-23.62 0-41.12-13.42-17.5-13.43-20.96-35.27l-48.77-241.54q-9.23-40.54 17.23-72.77t69.23-32.23q20.93 0 38.85 9.73t32.15 25.42L480-474.38l120.46-95.08-50.23-24.39q-7-3-8.73-10.23-1.73-7.23 1.27-13.23l37.69-81.15q2.23-7 9.23-8.62 7-1.61 14 1.39l47.46 24.38q6 3 7.73 9.73 1.74 6.73-1.26 12.73l-40.08 90.7 18.31 25.38-160.7 136.85-66.3-52.93 32.61 142.39h158.69q16.62 0 30.43 9.54 13.8 9.54 22.5 24.46L778.85-65.77 740-44.38ZM520.69-145H273q-34.46 0-54.69-16.58-20.23-16.57-27.23-50.27L104-644.69h45.46l83.16 431.31q1.53 9.23 10.76 16.92 9.24 7.69 18.47 7.69h258.84V-145Z"/></svg>