<svg xmlns="http://www.w3.org/2000/svg" height="20" viewBox="0 -960 960 960" width="20"><path d="M311-642q-34.5 0-58.25-23.75T229-724q0-34.5 23.75-58.25T311-806q34.5 0 58.25 23.75T393-724q0 34.5-23.75 58.25T311-642Zm391 536-93-163H375q-33 0-58.25-20.25T284-341l-40.5-184q-7-32.5 11.5-60.75T306.5-621q22.5-5 43.25 5.25t36.75 27.25l95 102.5 107-72-23.5-11q-6.5-2.5-8.75-9.5t.25-13.5l48-102.5q2.5-6.5 9-8t13 1l56.5 26q6.5 2.5 8.5 9t-.5 13L649-562l20 30.5-213.5 143-29-46L449-359h173q18.5 0 34 9.25T681-324l101 173-80 45Zm-175-48H254.5q-26 0-43.25-13.75T189-207l-83-416h68l82 402h271v67Z"/></svg>