<svg xmlns="http://www.w3.org/2000/svg" height="40" viewBox="0 -960 960 960" width="40"><path d="M293.7-675.44q-33.45 0-57.2-23.76-23.75-23.75-23.75-57.19 0-33.78 23.75-58.15 23.75-24.37 57.2-24.37 33.77 0 58.14 24.37 24.38 24.37 24.38 58.15 0 33.44-24.38 57.19-24.37 23.76-58.14 23.76ZM755.21-31.5 639.32-232.77H343.41q-26.82 0-47.07-15.42t-24.93-40.58l-45.27-235.71q-9.65-47.11 22.2-82.37 31.86-35.26 81.36-35.26 22.16 0 41.63 9.98 19.47 9.98 34.02 25.95l104.89 120.8 102.29-73.48-30.6-14.33q-6.79-3.72-8.98-11.13-2.2-7.4 1.26-13.95l51.32-101.07q3.39-6.73 9.94-8.73 6.55-2 13.77 1.16l55.98 27.13q6.63 3.88 8.67 11.16 2.04 7.29-1.26 13.5l-45.65 92.32 22.37 30.48-187.52 137.41-49.61-34.5 19.55 90.35h143.36q21.51 0 37.13 11.98 15.62 11.97 26.49 30.97l135.33 232-58.87 32.61Zm-227.13-88.47H258.95q-32.08 0-53.27-19.07-21.18-19.06-27.4-50.4L87.94-642.11h72.14l86 452.67h282v69.47Z"/></svg>