<svg xmlns="http://www.w3.org/2000/svg" height="40" viewBox="0 -960 960 960" width="40"><path d="M289.79-678.26q-31.64 0-52.92-21.53-21.28-21.54-21.28-52.67 0-30.62 21.28-52.57 21.28-21.94 52.92-21.94 30.62 0 52.57 21.94 21.95 21.95 21.95 52.57 0 31.13-21.95 52.67-21.95 21.53-52.57 21.53Zm449.39 634.8L629.54-232.64H330.92q-24.43 0-42.84-14.37-18.41-14.37-22.54-37.78l-48.13-236.29q-9.56-41.69 17.49-75.37 27.05-33.68 70.82-33.68 22.33 0 40.95 10.1 18.61 10.11 33.92 26.29l101.77 109.66 119.2-93.15-49.74-24.1q-7.23-3.41-9.46-11.48-2.23-8.06.92-14.63l39.18-84.35q2.9-7.49 10.68-9.65 7.78-2.15 15.27 1.26l49.46 25.31q6.57 3.41 8.67 10.84 2.1 7.44-1.05 14l-41.85 93.83L645-546.69 479.54-409.08l-62.75-49.87 31.72 133.64h151.13q17.95 0 32.62 9.5 14.66 9.5 23.69 25.43l128.67 222-45.44 24.92Zm-218.56-96.21h-243.8q-39.18 0-61.54-17.79-22.36-17.8-30.18-56.46L98.67-644.13h53.12l83.24 428.67q1.53 9.23 10.76 16.92 9.24 7.69 18.47 7.69h256.36v51.18Z"/></svg>