<svg xmlns="http://www.w3.org/2000/svg" height="40" viewBox="0 -960 960 960" width="40"><path d="M290.56-689.79q-33.82 0-56.96-23.27t-23.14-56.84q0-33.3 23.14-57.11 23.14-23.81 56.96-23.81 33.31 0 57.12 23.81 23.81 23.81 23.81 57.11 0 33.57-23.81 56.84-23.81 23.27-57.12 23.27Zm461.7 662.22L635.44-229.82H335.79q-27.38 0-48.42-16.1-21.04-16.11-25.93-42.98l-47.23-237.3q-9.95-46.18 20.24-82.94 30.19-36.76 78.57-36.76 24 0 44.48 10.56 20.47 10.55 36.29 28.14l94.72 109.66 113.44-85.07L558.74-603q-7.61-3.54-10.23-11.99-2.61-8.45.8-15.39l45.59-97.18q3.28-7.75 11.25-10.16 7.98-2.41 15.72 1.13l55.23 27.49q6.95 3.54 9.5 11.42 2.55 7.89-.86 14.84l-44.92 99.07 25.84 37.59-182.89 140.31-46.21-35.77 24.03 102.49h148.56q20.64 0 36.98 11.16 16.33 11.17 26.51 28.63L812.31-60.69l-60.05 33.12Zm-230.62-92.1h-257.9q-40.59 0-64.1-19.4-23.51-19.39-31.59-59.73L78.67-644.9h70.56l85.28 445.33q.77 4.62 5.39 8.47 4.61 3.84 9.23 3.84h272.51v67.59Z"/></svg>