<svg xmlns="http://www.w3.org/2000/svg" height="24" viewBox="0 -960 960 960" width="24"><path d="M298-682q-31 0-52.5-21.5T224-756q0-31 21.5-52.5T298-830q31 0 52.5 21.5T372-756q0 31-21.5 52.5T298-682ZM732-49 624-235H334q-24 0-42.5-15T268-289l-48-229q-10-41 16.5-75.5T306-628q24 0 42.5 10.5T384-591l98 97 122-96-55-27q-7-4-10-13.5t0-16.5l38-82q4-8 13-11t17 1l50 26q7 4 9.5 12.5T666-685l-44 98 24 32-163 138-66-53 35 139h142q19 0 34 8.5t24 25.5L780-75l-48 26Zm-212-92H290q-47 0-72-18.5T184-225l-84-418h56l82 416q2 12 14 22t24 10h244v54Z"/></svg>