<svg xmlns="http://www.w3.org/2000/svg" height="40" viewBox="0 -960 960 960" width="40"><path d="M326.67-673.67q-37.5 0-63.92-26.41-26.42-26.42-26.42-63.92 0-37.83 26.42-65.25t63.92-27.42q37.83 0 65.25 27.42 27.41 27.42 27.41 65.25 0 37.5-27.41 63.92-27.42 26.41-65.25 26.41Zm443 648L652-231H367q-27.33 0-47.58-15.42Q299.17-261.83 295-287l-43.5-227.33q-10.67-51.17 25.5-88.59 36.17-37.41 91.5-37.41 22.17 0 40.75 11.25t35.92 23.91l118.33 99.5 82-63.33-29.83-14.33q-9.84-5.5-12.92-16.84-3.08-11.33 3.42-20.16l64-101.84q5.16-8.5 14-10.5 8.83-2 18.33 2.17l57.5 29.67q9.17 6.16 11.33 17 2.17 10.83-3.66 19.33l-58.34 99.17L735-539.17 560.17-401.5l-70.67-45.67 21.83 100.5h118q26.84 0 42.84 13.75 16 13.75 30.16 38.59l135.34 232-68 36.66Zm-218-73H285.83q-44 0-69.75-23.25t-33.75-65.75L92-640.33h91.67l86 452.66h282v89Z"/></svg>