<svg xmlns="http://www.w3.org/2000/svg" height="20" viewBox="0 -960 960 960" width="20"><path d="M323.44-641.28q-35.94 0-60.77-24.83-24.82-24.82-24.82-60.76 0-35.93 24.82-60.88 24.83-24.95 60.77-24.95 35.93 0 60.88 24.95 24.94 24.95 24.94 60.88 0 35.94-24.94 60.76-24.95 24.83-60.88 24.83ZM707.5-103.85l-93.72-164.43H383.85q-33 0-58.25-20.25t-32.75-51.75l-39.78-180.89q-7.48-33.94 12.69-63.03 20.18-29.08 55.33-36.08 22.5-5 42.89 5.73 20.39 10.72 37.59 26.53l100.02 94.37 99.35-68.18-23.27-11q-7.45-3.21-10.06-11.77-2.61-8.55.85-15.77l52.78-102.74q3.22-7.22 10.67-8.72 7.46-1.5 14.68 1.48l56.98 26.96q7.45 3.22 9.57 11.15 2.12 7.94-1.34 15.15l-46.78 94.13 21.2 28.83L477.5-390.89l-36.89-50.31 23.22 79.33h163.43q20.65 0 36.27 9.97 15.62 9.97 26.32 28.62l101 173-83.35 46.43Zm-171.65-42.02H264.54q-30.54 0-49.46-15.3-18.93-15.31-24.65-45.11l-83-416h75.42l82 402h271v74.41Z"/></svg>