<svg xmlns="http://www.w3.org/2000/svg" height="48" viewBox="0 -960 960 960" width="48"><path d="M276.54-666.61q-30.27 0-51.44-21.37-21.18-21.37-21.18-51.25 0-30 21.18-51.92 21.17-21.93 51.44-21.93 30 0 51.92 21.93 21.92 21.92 21.92 51.92 0 29.88-21.92 51.25t-51.92 21.37ZM745.15-40.77l-109.77-190H326.85q-23.5 0-41.2-13.31-17.69-13.3-21.42-34.61l-47.88-245.77q-9.12-41.65 18.71-72.87 27.82-31.21 71.59-31.21 19.96 0 37.71 8.77t30.37 24.12l109.08 132.57 115.31-86.69-40.27-19.61q-5.2-3.2-6.56-8.47-1.37-5.26.82-10.46l40.54-86.65q2.12-5.5 7.46-7.15 5.35-1.66 11.54.84l47.96 24q5.2 3.19 6.66 8.66 1.46 5.46-.73 9.96l-38.46 85.19 16.23 22.96-170.35 135.92-59.38-46.08 26.73 125.74h163.84q16.81 0 30.5 10.11 13.69 10.12 22.04 25.58L783.84-62.54l-38.69 21.77ZM520.54-143.08H257.42q-25.23 0-42.67-15.52t-22.44-39.86l-89.23-445.08h45.69l84.46 444.31q.77 4.61 5.39 8.46 4.61 3.85 9.23 3.85h272.69v43.84Z"/></svg>