<svg xmlns="http://www.w3.org/2000/svg" height="24" viewBox="0 -960 960 960" width="24"><path d="M352-671q-38.5 0-65.75-27.25T259-764q0-38.5 27.25-66.25T352-858q38.5 0 66.25 27.75T446-764q0 38.5-27.75 65.75T352-671ZM757-41 641-242H384q-28 0-48.75-16.75T309-303l-39.5-202q-11-52.5 25.5-91.75T387.5-636q23.5 0 43.25 12.25t39.75 25.25l116 79.5 68-51-17.5-8q-11.5-6.5-15.25-20t3.75-24l69-107.5q6.5-10.5 17.5-13t21.5 3l59.5 30q11.5 6.5 14.5 19.5t-4.5 23.5L743-570l30 29.5-181.5 135-74-45L537-371h84q29.5 0 47 13.75T701-317L837-84l-80 43ZM556-96H307.5q-52 0-83.75-27.75T182-202L96-636h108l86 434h266v106Z"/></svg>