<svg xmlns="http://www.w3.org/2000/svg" height="40" viewBox="0 -960 960 960" width="40"><path d="M291.33-701.33q-36 0-61-25t-25-61q0-36 25-61.67t61-25.67q36 0 61.67 25.67t25.67 61.67q0 36-25.67 61t-61.67 25Zm474 689.66L641.33-227H340.67q-30.34 0-54-17.83Q263-262.67 257.33-293L211-531.33q-10.33-50.67 23-90.5 33.33-39.84 86.33-39.84 25.67 0 48 11 22.34 11 38.67 30L494.67-511l107.66-77-36.66-16.67q-8-3.66-11-12.5-3-8.83.66-16.16l52-110q3.67-8 11.84-10.67 8.16-2.67 16.16 1l61 29.67q7.34 3.66 10.34 12 3 8.33-.67 15.66l-48 104.34 30.33 45.66-200.33 143-29.67-21.66L474.67-353h146Q644-353 662-340.17q18 12.84 29.33 31.84L840-53l-74.67 41.33Zm-242.66-88h-272q-42 0-66.67-21t-33-63l-92.33-462h88l87.33 462h288.67v84Z"/></svg>