<svg xmlns="http://www.w3.org/2000/svg" height="20" viewBox="0 -960 960 960" width="20"><path d="M312.23-656.92q-34.61 0-58.15-23.54t-23.54-58.16q0-34.61 23.54-58.15t58.15-23.54q34.62 0 58.15 23.54 23.54 23.54 23.54 58.15 0 34.62-23.54 58.16-23.53 23.54-58.15 23.54Zm393.31 559.3L613.38-259H366.62q-31.08 0-55.81-19.77-24.73-19.77-32.19-50.31l-44.85-194.77q-8.23-30 9-59.07Q260-612 291.77-619q24.15-5 43.65 5.85 19.5 10.84 37.96 27l92.7 83.69 123.69-94.31L536-623.31q-6.69-3.23-9.92-12.96-3.23-9.73-.77-16.42l41.15-86.77q3.23-7.46 12.08-9.69 8.84-2.23 16.31 1L647.31-721q6.69 3.23 9.04 11.58 2.34 8.34-.12 15.04l-47.38 106.07 22.46 31.77-187 148.16-43.62-62.77L436.62-343h185q18.61 0 33.5 7.92 14.88 7.93 23.57 24.85l99.46 172.61-72.61 40ZM528.46-153h-255q-41.61 0-60.73-12.73-19.11-12.73-26.58-54.35L104-627h59.46l79.39 391.38q1.53 9.24 10.77 16.93 9.23 7.69 18.46 7.69h256.38v58Z"/></svg>