<svg xmlns="http://www.w3.org/2000/svg" height="24" viewBox="0 -960 960 960" width="24"><path d="M301.23-688.92q-32.61 0-55.15-22.54t-22.54-55.16q0-32.61 22.54-55.15t55.15-22.54q32.62 0 55.15 22.54 22.54 22.54 22.54 55.15 0 32.62-22.54 55.16-22.53 22.54-55.15 22.54Zm436.31 647.3L625.38-235H338.62q-26.08 0-46.31-16.27-20.23-16.27-25.69-42.81l-46.85-225.77q-10.23-44 18-80.57Q266-637 311.77-637q25.15 0 45.15 10.85 20 10.84 37.46 28l92.7 94.69 116.69-89.31L555-616.31q-7.69-4.23-10.92-13.96-3.23-9.73.23-17.42l42.15-90.77q4.23-8.46 13.58-11.69 9.34-3.23 17.81 1L671.31-722q7.69 4.23 10.54 13.08 2.84 8.84-.62 16.54l-45.38 100.07 27.46 37.77-175 139.16-55.62-43.77L462.62-343h136q20.61 0 37 9.42 16.38 9.43 26.07 27.35L796.15-73.62l-58.61 32ZM520.46-129h-236q-48.61 0-75.23-20.23-26.61-20.23-36.08-68.85L88-643h68.46l83.39 423.38q1.53 9.24 10.77 16.93 9.23 7.69 18.46 7.69h251.38v66Z"/></svg>