<svg xmlns="http://www.w3.org/2000/svg" height="20" viewBox="0 -960 960 960" width="20"><path d="M297-615q-28 0-47.5-19.5T230-682q0-28 19.5-47.5T297-749q28 0 47.5 19.5T364-682q0 28-19.5 47.5T297-615Zm384 482-76.5-133.5h-250q-24.5 0-42.75-15T288-318l-45.5-198q-6-20.5 5.25-40T281-582.5q17.5-5 32.5 3.5t29 20.5L459-446l125-97.5-47-24.5q-4-2-5.25-7.75t-.25-9.75l30.5-66q1.5-4.5 6.75-5.25T579-656l39.5 20.5q4 2 4.75 7.25t-.25 8.75L588.5-540l6.5 7.5-161.5 138-72-85 43 172h199q11.5 0 21.75 5.5T642-284l75 130.5-36 20.5Zm-155.5-68H277q-19 0-30.75-7.5t-14.75-26l-78.5-389h16.5l77 373q2 12 14 22t24 10h241v17.5Z"/></svg>