<svg xmlns="http://www.w3.org/2000/svg" height="48" viewBox="0 -960 960 960" width="48"><path d="M479.84-20.35q-21.9 0-36.41-14.71-14.52-14.72-14.52-35.85 0-23.17 14.69-37.89 14.7-14.72 35.79-14.72 22.69 0 37.69 14.71 15.01 14.72 15.01 37.68 0 21.96-14.9 36.37-14.9 14.41-37.35 14.41Zm-186.41-39q-21.69 0-37.04-15.53-15.35-15.53-15.35-38.52 0-23.29 15.43-38.49 15.42-15.2 36.92-15.2 24.69 0 39.47 15.32 14.79 15.31 14.79 38.34 0 23.02-14.68 38.55-14.68 15.53-39.54 15.53Zm370.79-.43q-21.43 0-36.37-15.33-14.94-15.33-14.94-37.86 0-22.52 15.14-37.82t36.36-15.3q23.85 0 39.76 15.42 15.92 15.41 15.92 37.67 0 22.56-15.91 37.89-15.9 15.33-39.96 15.33Zm-494.8-127.57q-21.87 0-37.17-15.09-15.29-15.09-15.29-36.75 0-20.94 15.26-36.42t36.82-15.48q20.7 0 35.89 15.48 15.2 15.48 15.2 36 0 22.28-15.2 37.27-15.19 14.99-35.51 14.99Zm311.47-.69q-97.15 0-165-63.5-67.85-63.49-67.85-159 0-109.98 77.03-201.6Q402.1-703.77 480-771.65q78.33 68.08 155.43 159.61 77.09 91.52 77.09 201.5 0 94.23-67.74 158.36-67.74 64.14-163.89 64.14Zm310.35 2.69q-22.42 0-38.39-15.63-15.98-15.64-15.98-38.56 0-21.13 16.1-36.84 16.1-15.71 38.47-15.71 23.34 0 37.97 15.71 14.63 15.71 14.63 36.84 0 22.92-14.84 38.56-14.84 15.63-37.96 15.63ZM480.15-332.13q34.61 0 59.45-24.72 24.83-24.72 24.83-59.14 0-34.44-24.81-60.23Q514.8-502 479.88-502q-34.31 0-59.81 25.49t-25.5 60.22q0 34.72 25.79 59.44t59.79 24.72Zm.22-512.04q-20.92 0-36.19-14.81-15.27-14.81-15.27-36.5 0-21.6 15.23-36.74 15.24-15.13 35.86-15.13 20.7 0 36.39 15.03 15.7 15.02 15.7 36.39 0 22.5-15.7 37.13-15.69 14.63-36.02 14.63Z"/></svg>