<svg xmlns="http://www.w3.org/2000/svg" height="20" viewBox="0 -960 960 960" width="20"><path d="M480-73q-15.77 0-26.69-10.92-10.92-10.93-10.92-26.7 0-16.15 10.92-26.88T480-148.23q16.15 0 26.88 10.73t10.73 26.88q0 15.77-10.73 26.7Q496.15-73 480-73Zm-162.61-40.46q-15.77 0-26.7-10.93-10.92-10.92-10.92-26.69 0-16.15 10.92-26.88 10.93-10.73 26.7-10.73 16.15 0 26.88 10.73T355-151.08q0 15.77-10.73 26.69-10.73 10.93-26.88 10.93Zm325.22 0q-15.76 0-26.69-10.93Q605-135.31 605-151.08q0-16.15 10.92-26.88 10.93-10.73 26.69-10.73 16.16 0 26.89 10.73t10.73 26.88q0 15.77-10.73 26.69-10.73 10.93-26.89 10.93ZM212.85-223.23q-15.77 0-26.69-10.93-10.93-10.92-10.93-26.69 0-16.15 10.93-26.88 10.92-10.73 26.69-10.73 16.15 0 26.88 10.73t10.73 26.88q0 15.77-10.73 26.69-10.73 10.93-26.88 10.93Zm267.15-12q-82.46 0-141.35-54.42-58.88-54.43-58.88-135.5 0-91.16 66.5-172.39 66.5-81.23 133.73-144.69 68.23 63.46 134.23 144.69 66 81.23 66 172.39 0 81.07-58.88 135.5-58.89 54.42-141.35 54.42Zm267.15 12q-15.77 0-26.69-10.93-10.92-10.92-10.92-26.69 0-16.15 10.92-26.88t26.69-10.73q16.16 0 26.89 10.73t10.73 26.88q0 15.77-10.73 26.69-10.73 10.93-26.89 10.93ZM480-365q28.23 0 49.15-20.42 20.93-20.43 20.93-49.27 0-28.62-20.93-49.35-20.92-20.73-49.15-20.73-28.46 0-48.88 20.73-20.43 20.73-20.43 49.35 0 28.84 20.43 49.27Q451.54-365 480-365Zm0-436q-15.77 0-26.69-10.92-10.92-10.92-10.92-26.69 0-16.16 10.92-26.89T480-876.23q16.15 0 26.88 10.73t10.73 26.89q0 15.77-10.73 26.69Q496.15-801 480-801Z"/></svg>