<svg xmlns="http://www.w3.org/2000/svg" height="20" viewBox="0 -960 960 960" width="20"><path d="M480.21-48q-21.4 0-36.55-14.95Q428.5-77.9 428.5-99q0-21.39 15.16-36.2 15.15-14.8 36.55-14.8 21.68 0 35.99 14.81 14.3 14.82 14.3 36.23 0 21.11-14.3 36.04Q501.89-48 480.21-48ZM312.39-89.98q-21.4 0-36.56-14.67-15.16-14.68-15.16-36.18 0-21.55 15.16-36.59 15.16-15.04 36.56-15.04 21.68 0 35.98 15.04 14.3 15.04 14.3 36.59 0 21.5-14.3 36.18-14.3 14.67-35.98 14.67Zm335.65 0q-21.4 0-36.56-14.67-15.15-14.68-15.15-36.18 0-21.55 15.15-36.59 15.16-15.04 36.56-15.04 21.68 0 35.98 15.04 14.31 15.04 14.31 36.59 0 21.5-14.31 36.18-14.3 14.67-35.98 14.67ZM198.55-203.15q-21.27 0-35.94-14.8-14.68-14.79-14.68-36.05 0-21.55 14.68-36.35 14.67-14.8 35.94-14.8 21.54 0 36.46 14.8 14.92 14.8 14.92 36.35 0 21.26-14.92 36.05-14.92 14.8-36.46 14.8Zm281.52-12.96q-89.18 0-152.84-58.28t-63.66-145.89q0-102.02 72.01-187.97T480-761.89q73.26 67.82 144.6 153.95 71.33 86.14 71.33 187.66 0 87.61-63.33 145.89-63.34 58.28-152.53 58.28Zm281.5 12.96q-21.32 0-36.41-14.8-15.09-14.79-15.09-36.05 0-21.55 15.05-36.35t36.3-14.8q21.54 0 36.09 14.8 14.56 14.8 14.56 36.35 0 21.26-14.66 36.05-14.65 14.8-35.84 14.8ZM480.23-361.83q28.75 0 49.62-20.99 20.87-20.98 20.87-49.72 0-28.24-20.87-49.48t-49.62-21.24q-29.49 0-50.22 21.15t-20.73 49.81q0 28.5 20.73 49.48 20.73 20.99 50.22 20.99Zm-.62-455.02q-21.26 0-35.94-14.67Q429-846.2 429-867.46q0-21.55 14.67-36.47 14.68-14.92 35.94-14.92 21.55 0 36.47 14.92Q531-889.01 531-867.46q0 21.26-14.92 35.94-14.92 14.67-36.47 14.67Z"/></svg>