<svg xmlns="http://www.w3.org/2000/svg" height="40" viewBox="0 -960 960 960" width="40"><path d="M480.03-17.67q-22.03 0-36.86-14.9-14.84-14.9-14.84-36.52 0-22.5 14.9-37.54t36.53-15.04q22.49 0 37.53 15.04 15.04 15.04 15.04 37.26 0 22.04-15.04 36.87-15.04 14.83-37.26 14.83ZM292.42-57.33q-21.75 0-37.92-15.68t-16.17-37.94q0-22.85 16.17-38.45 16.17-15.6 37.92-15.6 24.17 0 38.54 15.6 14.37 15.6 14.37 38.45 0 22.26-14.37 37.94-14.37 15.68-38.54 15.68Zm373.63-1.34q-21.68 0-36.7-15.1-15.02-15.1-15.02-36.9 0-22 15.02-37.66Q644.37-164 666.05-164 689-164 705-148.33q16 15.66 16 37.66 0 21.8-16 36.9-16 15.1-38.95 15.1Zm-496.11-127q-22.27 0-37.44-15.4-15.17-15.4-15.17-37.26 0-21.34 15.24-36.34 15.23-15 37.1-15 21.33 0 36.5 15 15.16 15 15.16 36.06 0 22.28-15.16 37.61-15.17 15.33-36.23 15.33Zm310.44.67q-96.71 0-165.21-63.91-68.5-63.91-68.5-159.42 0-109.34 76.83-203.67 76.83-94.33 156.5-163.67Q559.67-706.33 636.33-612 713-517.67 713-408.33q0 94.66-68.46 159Q576.08-185 480.38-185Zm310.24.67q-22.2 0-38.08-15.82-15.87-15.81-15.87-38.28 0-21.24 15.87-36.57 15.88-15.33 38.08-15.33 22.38 0 37.55 15.33 15.16 15.33 15.16 36.57 0 22.47-15.16 38.28-15.17 15.82-37.55 15.82ZM585-309q44-40 44-99.33 0-76.34-50.33-140.34-50.34-64-98.67-116.66-48.67 52.33-99 116.5-50.33 64.16-50.33 140.5 0 59.33 44.16 99.33Q419-269 480-269t105-40Zm-104.96-21.33q34.8 0 59.88-25 25.08-25 25.08-60t-25-60.34Q515-501 480-501t-60.33 25.14q-25.34 25.13-25.34 60.33t25.46 60.2q25.46 25 60.25 25Zm.24-516.34q-21.65 0-36.8-15.4-15.15-15.4-15.15-37.26 0-21.34 15.22-36.34 15.21-15 36.45-15 21.33 0 36.83 15t15.5 36.06q0 22.28-15.5 37.61-15.5 15.33-36.55 15.33ZM480-415.33Z"/></svg>