<svg xmlns="http://www.w3.org/2000/svg" height="24" viewBox="0 -960 960 960" width="24"><path d="M480-14q-26.09 0-44.54-18.46Q417-50.91 417-77q0-25.65 18.46-44.33Q453.91-140 480-140q25.65 0 44.33 18.67Q543-102.65 543-77q0 26.09-18.67 44.54Q505.65-14 480-14ZM300.96-55.13q-26.09 0-44.55-18.46-18.45-18.45-18.45-45.11 0-25.65 18.45-44.6 18.46-18.96 44.55-18.96 25.65 0 44.32 18.96 18.68 18.95 18.68 44.6 0 26.66-18.68 45.11-18.67 18.46-44.32 18.46Zm358.08 0q-26.08 0-44.54-18.46-18.46-18.45-18.46-45.11 0-25.65 18.46-44.6 18.46-18.96 44.54-18.96 25.66 0 44.33 18.96 18.67 18.95 18.67 44.6 0 26.66-18.67 45.11-18.67 18.46-44.33 18.46ZM177.39-179.09q-26.09 0-44.54-18.74-18.46-18.73-18.46-44.82 0-25.65 18.46-44.05 18.45-18.39 44.54-18.39 25.65 0 44.33 18.39 18.67 18.4 18.67 44.05 0 26.09-18.67 44.82-18.68 18.74-44.33 18.74ZM480-181.35q-98.35 0-167.37-69.3-69.02-69.31-69.02-167.65 0-102.87 77.93-200.2Q399.48-715.83 480-788.65q79.96 72.82 158.17 170.15 78.22 97.33 78.22 200.2 0 98.34-69.02 167.65-69.02 69.3-167.37 69.3Zm302.61 2.26q-26.09 0-44.54-18.74-18.46-18.73-18.46-44.82 0-25.65 18.46-44.05 18.45-18.39 44.54-18.39 25.65 0 44.33 18.39 18.67 18.4 18.67 44.05 0 26.09-18.67 44.82-18.68 18.74-44.33 18.74ZM480-336.04q34.13 0 57.91-23.57 23.79-23.56 23.79-57.56 0-34.13-23.79-58.2-23.78-24.06-57.91-24.06-34.57 0-58.13 24.06-23.57 24.07-23.57 58.2 0 34 23.57 57.56 23.56 23.57 58.13 23.57Zm0-491.87q-26.09 0-44.54-18.46Q417-864.83 417-890.91q0-25.66 18.46-44.33 18.45-18.67 44.54-18.67 25.65 0 44.33 18.67Q543-916.57 543-890.91q0 26.08-18.67 44.54-18.68 18.46-44.33 18.46Z"/></svg>