<svg xmlns="http://www.w3.org/2000/svg" height="40" viewBox="0 -960 960 960" width="40"><path d="M480.03-5.33q-26.03 0-44.2-18.33-18.16-18.32-18.16-43.72 0-26.29 18.32-44.45Q454.31-130 479.71-130q26.29 0 44.46 18.04 18.16 18.04 18.16 44.26 0 26.03-18.04 44.2T480.03-5.33ZM292.42-46q-25.75 0-44.59-18.51Q229-83.02 229-110.25q0-26.42 18.92-45.08Q266.85-174 292.38-174q26.95 0 45.45 18.8 18.5 18.8 18.5 44.91 0 27.27-18.37 45.78T292.42-46Zm374 0q-25.9 0-44.33-18.51-18.42-18.51-18.42-45.74 0-26.42 18.51-45.08Q640.7-174 666.38-174q26.95 0 45.79 18.8Q731-136.4 731-110.29q0 27.27-18.71 45.78Q693.59-46 666.42-46ZM160.89-173.67q-25.56 0-44.06-18.82-18.5-18.82-18.5-44.22 0-26.29 18.41-44.29t43.93-18q26 0 44.16 18Q223-263 223-236.99q0 25.81-18.17 44.57-18.16 18.75-43.94 18.75Zm319.32-2.66q-100.88 0-171.38-68.67t-70.5-167.67q0-113.66 80.17-208.5Q398.67-716 480-786.33q80.72 70.28 161.19 165.14 80.48 94.86 80.48 208.52 0 99-70.29 167.67-70.29 68.67-171.17 68.67Zm319.03 4q-26.67 0-45.45-19.15Q735-210.63 735-237.05q0-26.59 18.79-44.6 18.78-18.02 45.42-18.02 26.79 0 44.96 18.02 18.16 18.01 18.16 44.6 0 26.42-18.3 45.57t-44.79 19.15ZM576.33-319.94q40-38.28 40-93.73 0-72.66-44.33-130.83-44.33-58.17-92-103.5-47.67 45.33-92 103.5t-44.33 130.83q0 55.45 40.16 93.73 40.16 38.27 96.33 38.27t96.17-38.27Zm-96.41-11.73q34.92 0 59.33-24.54 24.42-24.54 24.42-58.67 0-35.12-24.42-60.29-24.41-25.16-59.33-25.16T420-475.28q-25 25.05-25 60.16 0 34.12 25 58.79 25 24.66 59.92 24.66Zm.31-509.66q-25.56 0-44.06-18.33-18.5-18.32-18.5-43.72 0-26.29 18.4-44.45Q454.48-966 480-966q26 0 44.17 18.04 18.16 18.04 18.16 44.26 0 26.03-18.16 44.2-18.17 18.17-43.94 18.17ZM480-415Z"/></svg>