<svg xmlns="http://www.w3.org/2000/svg" height="20" viewBox="0 -960 960 960" width="20"><path d="M480-59q-16.54 0-28.38-11.85-11.85-11.84-11.85-28.38 0-18.31 11.85-29.27 11.84-10.96 28.38-10.96 18.31 0 29.27 10.96t10.96 29.27q0 16.54-10.96 28.38Q498.31-59 480-59ZM302.77-98.92q-16.54 0-29.39-12.35-12.84-12.35-12.84-28.88 0-19.31 12.84-30.77 12.85-11.46 29.39-11.46 19.31 0 29.27 11.46t9.96 30.77q0 16.53-9.96 28.88-9.96 12.35-29.27 12.35Zm353.46-2q-16.54 0-27.88-11.35Q617-123.62 617-140.15q0-18.31 11.35-29.77 11.34-11.46 27.88-11.46 18.31 0 29.77 11.46t11.46 29.77q0 16.53-11.46 27.88-11.46 11.35-29.77 11.35ZM184.69-213.46q-16.54 0-28.38-12.35-11.85-12.34-11.85-28.88 0-18.31 11.85-28.77 11.84-10.46 28.38-10.46 18.31 0 29.27 10.46t10.96 28.77q0 16.54-10.96 28.88-10.96 12.35-29.27 12.35Zm295.31-12q-85.92 0-147.19-53.35-61.27-53.34-61.27-136.5 0-108.31 70-186.77 70-78.46 138.46-139.38 69.46 60.92 138.46 139.38 69 78.46 69 186.77 0 83.16-61.27 136.5-61.27 53.35-146.19 53.35Zm295.31 12q-16.54 0-28.39-12.35-11.84-12.34-11.84-28.88 0-18.31 11.84-28.77 11.85-10.46 28.39-10.46 18.31 0 29.27 10.46t10.96 28.77q0 16.54-10.96 28.88-10.96 12.35-29.27 12.35ZM480-359q29.46 0 51.31-21.85 21.84-21.84 21.84-50.53 0-30.24-21.84-51.7-21.85-21.46-51.31-21.46-27.92 0-49.77 21.46t-21.85 51.7q0 28.69 21.85 50.53Q452.08-359 480-359Zm0-453q-16.54 0-28.38-12.35-11.85-12.34-11.85-28.88 0-18.31 11.85-28.77 11.84-10.46 28.38-10.46 18.31 0 29.27 10.46t10.96 28.77q0 16.54-10.96 28.88Q498.31-812 480-812Z"/></svg>