<svg xmlns="http://www.w3.org/2000/svg" height="48" viewBox="0 -960 960 960" width="48"><path d="M480.19-107q-9.23 0-14.71-5.65-5.48-5.66-5.48-14.85 0-7 5.61-13.25t14.6-6.25q8.29 0 14.04 6.26t5.75 12.86q0 9.82-5.75 15.35-5.75 5.53-14.06 5.53Zm-158.44-35.5q-7.79 0-13.77-5.79-5.98-5.8-5.98-15.75 0-6.73 5.93-13.09 5.93-6.37 14.28-6.37 8.29 0 14.54 6.37 6.25 6.36 6.25 13.09 0 9.95-6.25 15.75-6.25 5.79-15 5.79Zm316.46 0q-9.41 0-15.31-5.79-5.9-5.8-5.9-15.75 0-6.73 5.9-13.09 5.9-6.37 15.31-6.37 8.29 0 14.04 6.37 5.75 6.36 5.75 13.09 0 9.95-5.75 15.75-5.75 5.79-14.04 5.79ZM220.58-252q-8.08 0-14.33-5.63T200-272.11q0-8.16 6.35-14.02 6.35-5.87 13.81-5.87 8.11 0 13.97 5.87 5.87 5.86 5.87 14.04 0 9.09-5.87 14.59-5.86 5.5-13.55 5.5Zm259.91 0q-73.49 0-125.74-48.75T302.5-421q0-83 58.5-154.75T480-698q60.58 50.62 119.29 122.06Q658-504.5 658-421q0 71.5-52.01 120.25T480.49-252Zm259.37 0q-9.26 0-15.06-5.67-5.8-5.67-5.8-14.59 0-8.51 5.76-14.12 5.75-5.62 14.95-5.62 9.29 0 14.79 5.42 5.5 5.41 5.5 14.32 0 8.92-5.4 14.59T739.86-252ZM480.29-352.5q29.97 0 52.84-21.49Q556-395.48 556-427.56q0-31.11-22.87-53.53-22.87-22.41-53.02-22.41-30.13 0-52.12 22.12T406-427.8q0 31.8 22.18 53.55 22.17 21.75 52.11 21.75Zm.79-433q-8.58 0-14.58-5.85t-6-14.31q0-7.61 6.1-13.72 6.1-6.12 14.06-6.12 7.61 0 13.72 6.12 6.12 6.11 6.12 13.3 0 9.08-6.12 14.83-6.11 5.75-13.3 5.75Z"/></svg>