<svg xmlns="http://www.w3.org/2000/svg" height="24" viewBox="0 -960 960 960" width="24"><path d="M480-1q-26 0-44.5-18.5T417-64q0-26 18.5-44.5T480-127q26 0 44.5 18.5T543-64q0 26-18.5 44.5T480-1ZM290-42q-26 0-45.5-19T225-106q0-27 19.5-46t45.5-19q27 0 44.5 19t17.5 46q0 26-17.5 45T290-42Zm379-2q-26 0-44-18t-18-44q0-26 18-45t44-19q26 0 45 19t19 45q0 26-19 44t-45 18ZM163-171q-26 0-44.5-19T100-235q0-26 18.5-44t44.5-18q26 0 44.5 18t18.5 44q0 26-18.5 45T163-171Zm317 0q-101 0-172.5-69T236-409q0-112 80.5-212T480-795q83 74 163 174t80 212q0 100-71.5 169T480-171Zm317 0q-26 0-44.5-19T734-235q0-26 18.5-44t44.5-18q26 0 44.5 18t18.5 44q0 26-18.5 45T797-171ZM577-315q40-38 40-94 0-67-46-130t-91-113q-46 49-92 112.5T342-409q0 56 40.5 94t97.5 38q57 0 97-38Zm-97-14q35 0 60-25t25-60q0-35-25-60t-60-25q-35 0-60 25t-25 60q0 35 25 60t60 25Zm0-517q-26 0-44.5-19T417-910q0-26 18.5-44t44.5-18q26 0 44.5 18t18.5 44q0 26-18.5 45T480-846Zm0 432Z"/></svg>