<svg xmlns="http://www.w3.org/2000/svg" height="24" viewBox="0 -960 960 960" width="24"><path d="M480-90q-12.54 0-20.88-8.35-8.35-8.34-8.35-20.88 0-12.31 8.35-20.77 8.34-8.46 20.88-8.46 12.31 0 20.77 8.46 8.46 8.46 8.46 20.77 0 12.54-8.46 20.88Q492.31-90 480-90Zm-159.23-36.92q-12.54 0-20.89-8.35-8.34-8.35-8.34-20.88 0-12.31 8.34-20.77 8.35-8.46 20.89-8.46 12.31 0 20.77 8.46 8.46 8.46 8.46 20.77 0 12.53-8.46 20.88t-20.77 8.35Zm318.46 0q-12.54 0-20.88-8.35-8.35-8.35-8.35-20.88 0-12.31 8.35-20.77 8.34-8.46 20.88-8.46 12.31 0 20.77 8.46 8.46 8.46 8.46 20.77 0 12.53-8.46 20.88t-20.77 8.35ZM217.69-238.46q-12.54 0-20.88-8.35-8.35-8.34-8.35-20.88 0-12.31 8.35-20.77 8.34-8.46 20.88-8.46 12.31 0 20.77 8.46 8.46 8.46 8.46 20.77 0 12.54-8.46 20.88-8.46 8.35-20.77 8.35Zm262.31 0q-77.92 0-133.19-53.35-55.27-53.34-55.27-130.5 0-83.31 62-161.27 62-77.96 126.46-134.88 64.46 56.92 126.46 134.88t62 161.27q0 77.16-55.27 130.5-55.27 53.35-133.19 53.35Zm262.31 0q-12.54 0-20.89-8.35-8.34-8.34-8.34-20.88 0-12.31 8.34-20.77 8.35-8.46 20.89-8.46 12.31 0 20.77 8.46 8.46 8.46 8.46 20.77 0 12.54-8.46 20.88-8.46 8.35-20.77 8.35Zm-157.54-81.66q43.69-41.65 43.69-101.96 0-65.84-50.46-129.19-50.46-63.35-98-113.65-47.77 50.3-98.12 113.65-50.34 63.35-50.34 129.19 0 60.31 43.69 101.96 43.69 41.66 104.77 41.66t104.77-41.66ZM480-350q31.46 0 53.81-21.85 22.34-21.84 22.34-53.53 0-32.24-22.34-54.2-22.35-21.96-53.81-21.96-30.92 0-52.77 21.96t-21.85 54.2q0 31.69 21.85 53.53Q449.08-350 480-350Zm0-440q-12.54 0-20.88-8.35-8.35-8.34-8.35-20.88 0-12.31 8.35-20.77 8.34-8.46 20.88-8.46 12.31 0 20.77 8.46 8.46 8.46 8.46 20.77 0 12.54-8.46 20.88Q492.31-790 480-790Zm0 364.62Z"/></svg>