<svg xmlns="http://www.w3.org/2000/svg" height="48" viewBox="0 -960 960 960" width="48"><path d="M480.1-93.96q-10.87 0-17.68-6.87-6.8-6.87-6.8-17.9 0-9.08 6.96-16.48 6.96-7.41 17.63-7.41 10.14 0 17.1 7.42 6.96 7.41 6.96 16.28 0 11.37-6.96 18.17-6.96 6.79-17.21 6.79Zm-162.12-36.31q-9.67 0-17.09-7.01-7.43-7-7.43-18.8 0-8.8 7.42-16.44 7.41-7.63 17.64-7.63 10.36 0 17.83 7.63 7.46 7.64 7.46 16.63 0 11.51-7.46 18.56-7.47 7.06-18.37 7.06Zm323.51 0q-10.97 0-18.19-7.01-7.22-7-7.22-18.8 0-8.8 7.25-16.44 7.25-7.63 18.35-7.63 10.36 0 17.55 7.63 7.19 7.64 7.19 16.63 0 11.51-7.19 18.56-7.19 7.06-17.74 7.06ZM214.15-242.54q-9.84 0-17.25-6.84-7.4-6.84-7.4-17.54 0-10 7.45-17.14 7.46-7.13 16.97-7.13 9.96 0 17.1 7.13 7.13 7.14 7.13 17.25 0 10.73-7.13 17.5-7.14 6.77-16.87 6.77Zm266.27.23q-76.77 0-131.38-50.82-54.62-50.83-54.62-125.68 0-86.69 61.04-161.9Q416.5-655.92 480-709.08q63.74 53.37 124.85 128.28 61.11 74.92 61.11 161.99 0 74.85-54.39 125.68-54.38 50.82-131.15 50.82Zm265.74.23q-11.27 0-18.52-7.01-7.26-7.02-7.26-17.97 0-10.36 7.26-17.36t18.36-7q10.96 0 17.85 6.84 6.88 6.85 6.88 17.7 0 10.67-6.77 17.74-6.77 7.06-17.8 7.06ZM589.9-314.81q45.87-42.3 45.87-104.5 0-76.61-53.4-138.15Q528.96-619 480-672q-48.46 53-101.92 114.73-53.46 61.73-53.46 137.96 0 62.2 45.75 104.5 45.75 42.31 109.7 42.31 63.96 0 109.83-42.31Zm-109.65-34.34q30.71 0 53.8-21.97 23.1-21.97 23.1-54.71 0-31.54-23.1-54.43-23.09-22.89-54.13-22.89-30.98 0-53.49 22.6-22.51 22.61-22.51 54.51 0 32.46 22.69 54.67 22.68 22.22 53.64 22.22Zm.51-447.31q-10.34 0-17.49-6.96-7.15-6.95-7.15-17.46 0-9.46 7.2-16.85 7.2-7.39 17.21-7.39 9.47 0 16.85 7.39 7.39 7.39 7.39 16.62 0 10.84-7.39 17.74-7.38 6.91-16.62 6.91ZM480-425.77Z"/></svg>