<svg xmlns="http://www.w3.org/2000/svg" height="48" viewBox="0 -960 960 960" width="48"><path d="M479.88-49.85q-16.8 0-27.49-10.8-10.7-10.81-10.7-27.14 0-17.28 10.81-28.48 10.8-11.19 27.13-11.19 17.67 0 28.68 11.19 11 11.2 11 28.07 0 16.94-11 27.65-11.01 10.7-28.43 10.7Zm-179.5-37.46q-15.99 0-27.99-11.72-12-11.72-12-29.02 0-17.3 11.98-28.9 11.98-11.59 28.19-11.59 19.28 0 29.78 11.59 10.51 11.6 10.51 28.9 0 17.3-10.51 29.02-10.5 11.72-29.96 11.72Zm357.65-1q-16.42 0-27.65-11.35-11.23-11.36-11.23-27.96 0-16.53 11.23-28.23 11.23-11.69 27.65-11.69 17.97 0 29.78 11.69 11.8 11.7 11.8 28.23 0 16.6-11.8 27.96Q676-88.31 658.03-88.31Zm-473.44-122q-16.97 0-28.36-11.3-11.38-11.31-11.38-28.01 0-15.92 11.48-27.11 11.49-11.19 27.84-11.19 15.91 0 27.1 11.19 11.19 11.19 11.19 26.87 0 17.17-11.19 28.36-11.19 11.19-26.68 11.19Zm296.04.62q-88.48 0-151.24-57.13-62.77-57.13-62.77-144.26 0-102.23 70.38-187 70.39-84.76 143-146.76 72.61 62 143 146.76 70.38 84.77 70.38 187 0 85.85-62.64 143.62-62.64 57.77-150.11 57.77Zm295.64.61q-16.87 0-28.92-11.7-12.04-11.7-12.04-28.98 0-15.78 12.04-27.28 12.05-11.5 28.92-11.5 17.5 0 28.5 11.42 11 11.43 11 27.36 0 17.28-10.93 28.98-10.92 11.7-28.57 11.7ZM480.13-337.15q33.48 0 58.02-24.21 24.54-24.2 24.54-57.72 0-34.3-24.42-58.8t-58.28-24.5q-33.07 0-57.61 24.19-24.53 24.2-24.53 58.77 0 33.8 24.79 58.03 24.8 24.24 57.49 24.24Zm.3-491q-16.03 0-27.38-11.49-11.36-11.48-11.36-27.84 0-15.9 11.46-27.09 11.45-11.2 26.87-11.2 15.9 0 27.59 11.2 11.7 11.19 11.7 26.68 0 16.97-11.7 28.35-11.69 11.39-27.18 11.39Z"/></svg>