<svg xmlns="http://www.w3.org/2000/svg" height="20" viewBox="0 -960 960 960" width="20"><path d="M480-37q-22.15 0-37.83-15.67Q426.5-68.35 426.5-90.5q0-22.39 15.67-37.95Q457.85-144 480-144q22.39 0 37.95 15.55 15.55 15.56 15.55 37.95 0 22.15-15.55 37.83Q502.39-37 480-37ZM308.17-79.48q-22.15 0-37.82-15.67-15.68-15.68-15.68-38.07t15.68-38.06q15.67-15.68 37.82-15.68 22.4 0 37.95 15.68 15.55 15.67 15.55 38.06t-15.55 38.07q-15.55 15.67-37.95 15.67Zm343.66 0q-22.16 0-37.83-15.67-15.67-15.68-15.67-38.07T614-171.28q15.67-15.68 37.83-15.68 22.39 0 37.94 15.68 15.56 15.67 15.56 38.06t-15.56 38.07q-15.55 15.67-37.94 15.67Zm-457.4-115.67q-22.15 0-37.82-15.8-15.68-15.79-15.68-37.94 0-22.39 15.68-37.83 15.67-15.43 37.82-15.43 22.4 0 37.95 15.43 15.55 15.44 15.55 37.83 0 22.15-15.55 37.94-15.55 15.8-37.95 15.8ZM480-208.11q-92.11 0-157.52-62.03-65.41-62.03-65.41-153.14 0-100.02 74.01-190.72T480-775.89Q555.67-704.7 629.3-614q73.63 90.7 73.63 190.72 0 91.11-65.41 153.14-65.41 62.03-157.52 62.03Zm285.57 12.96q-22.16 0-37.83-15.8-15.67-15.79-15.67-37.94 0-22.39 15.67-37.83 15.67-15.43 37.83-15.43 22.39 0 37.94 15.43 15.56 15.44 15.56 37.83 0 22.15-15.56 37.94-15.55 15.8-37.94 15.8ZM480-358.33q29.48 0 51.1-21.24 21.62-21.23 21.62-51.23 0-29.48-21.62-51.22T480-503.76q-30.24 0-51.48 21.74t-21.24 51.22q0 30 21.24 51.23 21.24 21.24 51.48 21.24Zm0-461.02q-22.15 0-37.83-15.67-15.67-15.68-15.67-37.83 0-22.39 15.67-37.94 15.68-15.56 37.83-15.56 22.39 0 37.95 15.56 15.55 15.55 15.55 37.94 0 22.15-15.55 37.83-15.56 15.67-37.95 15.67Z"/></svg>