<svg xmlns="http://www.w3.org/2000/svg" height="48" viewBox="0 -960 960 960" width="48"><path d="M479.68-16q-23.32 0-39-15.96Q425-47.91 425-70.35q0-25.03 15.92-40.84Q456.83-127 479.21-127q24.17 0 40.48 15.8Q536-95.41 536-70.43 536-47 519.88-31.5T479.68-16ZM293.27-55Q270-55 254-71.69q-16-16.7-16-41.69 0-25.22 16.14-41.42 16.13-16.2 39.07-16.2 26.17 0 42.48 16.4Q352-138.2 352-113.43q0 25.04-16.12 41.74Q319.76-55 293.27-55Zm370.68 0q-22.9 0-38.92-16.62Q609-88.24 609-112.95q0-24.45 16.38-40.75 16.39-16.3 38.91-16.3Q690-170 707-153.5t17 40.5q0 24.76-16.99 41.38Q690.03-55 663.95-55ZM166.34-183q-22.98 0-39.66-16.24Q110-215.47 110-238.57 110-261 126.54-278T166-295q22 0 38.5 17t16.5 39.01q0 23.72-16.5 39.85Q188-183 166.34-183Zm314.8-2Q382-185 313.5-250.14 245-315.27 245-412.5q0-111.5 78.59-203.22Q402.18-707.43 480-776q78.58 68.92 157.29 160.46T716-412.5q0 95.95-68.36 161.73Q579.27-185 481.14-185Zm313.03 4q-24.04 0-41.11-16.72Q736-214.44 736-239.07q0-22.89 17.29-39.91Q770.57-296 794.52-296q25.48 0 40.98 17.02 15.5 17.02 15.5 39.91 0 24.63-15.88 41.35Q819.25-181 794.17-181ZM480.22-333q34.54 0 59.16-24.5Q564-382 564-415.99 564-450 539.32-476q-24.67-26-59.53-26-33.79 0-59.29 25.71-25.5 25.7-25.5 60.01 0 34.28 25.87 58.78t59.35 24.5Zm.12-509q-22.04 0-38.69-15.74Q425-873.47 425-896.61q0-23.62 16.51-40Q458.02-953 480-953q22 0 39 16.2 17 16.19 17 39.71 0 24.09-17 39.59-17 15.5-38.66 15.5Z"/></svg>