<svg xmlns="http://www.w3.org/2000/svg" height="24" viewBox="0 -960 960 960" width="24"><path d="M480-26q-21.77 0-37.19-15.42-15.42-15.43-15.42-37.2 0-22.15 15.42-37.38 15.42-15.23 37.19-15.23 22.15 0 37.38 15.23 15.23 15.23 15.23 37.38 0 21.77-15.23 37.2Q502.15-26 480-26ZM295.39-65.46q-21.77 0-38.2-15.93-16.42-15.92-16.42-37.69 0-23.15 16.42-38.88 16.43-15.73 38.2-15.73 23.15 0 37.38 15.73Q347-142.23 347-119.08q0 21.77-14.23 37.69-14.23 15.93-37.38 15.93Zm368.22-2q-21.76 0-36.69-14.93Q612-97.31 612-119.08q0-22.15 14.92-37.88 14.93-15.73 36.69-15.73 22.16 0 37.89 15.73t15.73 37.88q0 21.77-15.73 36.69-15.73 14.93-37.89 14.93ZM171.85-190.23q-21.77 0-37.19-15.93-15.43-15.92-15.43-37.69 0-22.15 15.43-36.88 15.42-14.73 37.19-14.73 22.15 0 37.38 14.73 15.23 14.73 15.23 36.88 0 21.77-15.23 37.69-15.23 15.93-37.38 15.93Zm308.15 0q-94.46 0-161.35-63.42-66.88-63.43-66.88-156.5 0-108.16 75.5-199.89 75.5-91.73 152.73-159.19 77.23 67.46 152.23 159.19 75 91.73 75 199.89 0 93.07-66.88 156.5-66.89 63.42-160.35 63.42Zm308.15 0q-21.77 0-37.19-15.93-15.42-15.92-15.42-37.69 0-22.15 15.42-36.88 15.42-14.73 37.19-14.73 22.16 0 37.39 14.73t15.23 36.88q0 21.77-15.23 37.69-15.23 15.93-37.39 15.93ZM480-334q34.23 0 58.65-24.42 24.43-24.43 24.43-58.27 0-34.62-24.43-58.85-24.42-24.23-58.65-24.23-33.46 0-57.88 24.23-24.43 24.23-24.43 58.85 0 33.84 24.43 58.27Q446.54-334 480-334Zm0-497q-21.77 0-37.19-15.92-15.42-15.92-15.42-37.69 0-22.16 15.42-36.89T480-936.23q22.15 0 37.38 14.73 15.23 14.73 15.23 36.89 0 21.77-15.23 37.69Q502.15-831 480-831Z"/></svg>