<svg xmlns="http://www.w3.org/2000/svg" height="20" viewBox="0 -960 960 960" width="20"><path d="M480.21-13q-28.25 0-48.73-20.28Q411-53.55 411-81.5q0-29 20.48-48.75T480.21-150q29.29 0 48.54 19.76T548-81.46q0 27.96-19.25 48.21T480.21-13Zm-180-43.5q-28.25 0-48.73-20Q231-96.5 231-125.61q0-29.16 20.48-49.52 20.48-20.37 48.73-20.37 29.29 0 48.54 20.37Q368-154.77 368-125.61q0 29.11-19.25 49.11t-48.54 20Zm360 0q-28.25 0-48.73-20Q591-96.5 591-125.61q0-29.16 20.48-49.52 20.48-20.37 48.73-20.37 29.29 0 48.54 20.37Q728-154.77 728-125.61q0 29.11-19.25 49.11t-48.54 20ZM168.11-175Q140-175 120-195.5t-20-48.61q0-29.16 20-48.52Q140-312 168.11-312q29.16 0 49.02 19.37Q237-273.27 237-244.11q0 28.11-19.87 48.61-19.86 20.5-49.02 20.5Zm311.96-16q-99.07 0-168.82-64.75T241.5-418q0-118 80-207.75T480-787q78.58 71.62 158.29 161.56T718-418q0 97.5-69.43 162.25Q579.15-191 480.07-191ZM792-175q-28.16 0-48.58-20.5Q723-216 723-244.11q0-29.16 20.38-48.52Q763.76-312 791.86-312q29.14 0 48.64 19.37 19.5 19.36 19.5 48.52 0 28.11-19.6 48.61T792-175ZM568.12-337.25Q605-370.5 605-418.5q0-79.5-39.25-126.25T480-636q-45 44.5-85.25 91T354.5-418.5q0 48 37.25 81.25T480.12-304q51.12 0 88-33.25Zm-87.89-19.25q30.27 0 51.52-21.75Q553-400 553-428.73q0-29.77-21.25-51.77-21.25-22-51.52-22-30.25 0-51.74 21.91Q407-458.67 407-428.5q0 28.5 21.49 50.25t51.74 21.75Zm-.62-471q-28.11 0-48.11-20t-20-48.11q0-29.16 20-49.02 20-19.87 48.11-19.87 29.16 0 49.02 19.87 19.87 19.86 19.87 49.02 0 28.11-19.87 48.11-19.86 20-49.02 20Zm.39 399Z"/></svg>