<svg xmlns="http://www.w3.org/2000/svg" height="20" viewBox="0 -960 960 960" width="20"><path d="M480 13q-30.64 0-53.32-22.72T404-63.14q0-32.86 22.68-54.36T480-139q32 0 54 21.68 22 21.67 22 54.57Q556-32 534-9.5T480 13ZM288-31q-31 0-53.5-23.18T212-109q0-33.4 22.5-55.7Q257-187 288-187q33 0 54.5 22.3T364-109q0 31.64-21.5 54.82T288-31Zm382.75-1Q640-32 618-54.47T596-109q0-32.4 22.22-54.7 22.22-22.3 52.92-22.3Q704-186 726-163.7t22 54.7q0 32.06-22.18 54.53Q703.65-32 670.75-32ZM150-156q-30.64 0-53.32-23T74-233q0-32 22.68-53.5T150-308q32 0 54 21.5t22 53.5q0 31-22 54t-54 23Zm330.5-16Q374-172 300-241.77 226-311.55 226-417q0-124 85.59-220.72Q397.18-734.43 480-811q84 77 169 173.5T734-417q0 105.45-74 175.23Q586-172 480.5-172Zm329.25 16q-30.75 0-53.25-23T734-233q0-32 22.72-53.5t53.42-21.5q32.86 0 54.36 21.5T886-233q0 31-21.68 54-21.67 23-54.57 23ZM480.17-349q31.83 0 54.33-22.5T557-425q0-31-22.68-54.5-22.67-23.5-54.51-23.5Q449-503 426-479.5 403-456 403-425t23.19 53.5q23.18 22.5 53.98 22.5ZM480-840q-30.64 0-53.32-22.5T404-916.04q0-33.19 22.68-54.57Q449.36-992 480-992q32 0 54 21.39 22 21.38 22 54.57 0 31.04-22 53.54T480-840Z"/></svg>