<svg xmlns="http://www.w3.org/2000/svg" height="24" viewBox="0 -960 960 960" width="24"><path d="M480.21-40q-22.4 0-38.05-15.45Q426.5-70.9 426.5-93q0-21.39 15.66-37.2 15.65-15.8 38.05-15.8 21.68 0 36.99 15.81 15.3 15.82 15.3 37.23 0 22.11-15.3 37.54Q501.89-40 480.21-40ZM310.39-79.98q-22.4 0-38.06-15.17-15.66-15.18-15.66-37.68 0-21.55 15.66-37.59 15.66-16.04 38.06-16.04 21.68 0 36.98 16.04 15.3 16.04 15.3 37.59 0 22.5-15.3 37.68-15.3 15.17-36.98 15.17Zm339.65 0q-22.4 0-38.06-15.17-15.65-15.18-15.65-37.68 0-21.55 15.65-37.59 15.66-16.04 38.06-16.04 21.68 0 36.98 16.04 15.31 16.04 15.31 37.59 0 22.5-15.31 37.68-15.3 15.17-36.98 15.17ZM194.55-199.15q-22.27 0-37.44-15.3-15.18-15.29-15.18-37.55 0-21.55 15.18-37.35 15.17-15.8 37.44-15.8 21.54 0 37.46 15.8 15.92 15.8 15.92 37.35 0 22.26-15.92 37.55-15.92 15.3-37.46 15.3Zm285.52-.96q-91.18 0-155.84-62.78t-64.66-153.39q0-98.02 72.51-188.97T480-763.89q75.26 67.82 147.6 158.95 72.33 91.14 72.33 188.66 0 90.61-64.33 153.39-64.34 62.78-155.53 62.78Zm285.5.96q-22.32 0-37.91-15.3-15.59-15.29-15.59-37.55 0-21.55 15.55-37.35t37.8-15.8q21.54 0 37.09 15.8 15.56 15.8 15.56 37.35 0 22.26-15.66 37.55-15.65 15.3-36.84 15.3ZM574.75-323.9q39.18-37.8 39.18-92.12 0-60.41-44.33-122.8-44.34-62.38-89.6-106.96-45.52 44.58-89.98 106.71-44.45 62.14-44.45 123.05 0 54.32 39.55 92.12 39.55 37.79 95 37.79t94.63-37.79Zm-94.52-17.93q32.75 0 55.62-22.99 22.87-22.98 22.87-55.72 0-32.24-22.87-55.48-22.87-23.24-55.62-23.24-33.49 0-56.22 23.15-22.73 23.15-22.73 55.81 0 32.5 22.73 55.48 22.73 22.99 56.22 22.99Zm-.62-479.02q-22.26 0-37.44-15.17Q427-851.2 427-873.46q0-21.55 15.17-37.47 15.18-15.92 37.44-15.92 21.55 0 37.47 15.92Q533-895.01 533-873.46q0 22.26-15.92 37.44-15.92 15.17-37.47 15.17ZM480-420.3Z"/></svg>