<svg xmlns="http://www.w3.org/2000/svg" height="48" viewBox="0 -960 960 960" width="48"><path d="M479.95-107q-8.99 0-14.47-5.59T460-127.5q0-7 5.65-13.25t14.56-6.25q8.29 0 14.04 6.26t5.75 13.1q0 9.58-5.75 15.11-5.75 5.53-14.3 5.53Zm-158.44-35.5q-7.55 0-13.53-5.73-5.98-5.73-5.98-15.81 0-6.73 5.97-13.09 5.97-6.37 14.24-6.37 8.29 0 14.54 6.37 6.25 6.36 6.25 13.33 0 9.71-6.25 15.51-6.25 5.79-15.24 5.79Zm316.46 0q-9.17 0-15.07-5.73t-5.9-15.81q0-6.73 5.94-13.09 5.94-6.37 15.27-6.37 8.29 0 14.04 6.37 5.75 6.36 5.75 13.33 0 9.71-5.75 15.51-5.75 5.79-14.28 5.79ZM220.33-252q-7.83 0-14.08-5.57-6.25-5.56-6.25-14.54 0-8.16 6.29-14.02 6.28-5.87 13.87-5.87 8.11 0 13.97 5.87 5.87 5.86 5.87 14.29 0 8.84-5.87 14.34-5.86 5.5-13.8 5.5Zm260.12 0q-73.45 0-125.7-48.75T302.5-421q0-83 58.5-154.75T480-698q60.79 50.74 119.4 122.12Q658-504.5 658-421q0 71.5-52.05 120.25T480.45-252Zm259.5 0q-9.35 0-15.15-5.61-5.8-5.6-5.8-14.65 0-8.51 5.82-14.12 5.82-5.62 14.97-5.62 9.21 0 14.71 5.42 5.5 5.41 5.5 14.57 0 8.67-5.32 14.34-5.33 5.67-14.73 5.67Zm-149.89-64.62Q636-359.25 636-421.5q0-76.5-53.75-137T480-672q-48 53-101.75 113.75T324.5-421.5q0 62.25 45.75 104.88Q416-274 480.06-274t110-42.62ZM480.29-352.5q29.97 0 52.84-21.49Q556-395.48 556-427.56q0-31.11-22.87-53.53-22.87-22.41-53.27-22.41-29.88 0-51.87 22.12T406-427.8q0 31.8 22.21 53.55 22.22 21.75 52.08 21.75Zm.54-433q-8.33 0-14.33-5.79-6-5.78-6-14.37 0-7.61 6.04-13.72 6.03-6.12 14.12-6.12 7.61 0 13.72 6.12 6.12 6.11 6.12 13.55 0 8.83-6.12 14.58-6.11 5.75-13.55 5.75Zm-.83 358Z"/></svg>