<svg xmlns="http://www.w3.org/2000/svg" height="24" viewBox="0 -960 960 960" width="24"><path d="M480.21-96.77q-12.17 0-20.19-8-8.02-8.01-8.02-19.88 0-11.31 8.02-19.41 8.02-8.09 20.19-8.09 11.6 0 19.39 8.1 7.78 8.11 7.78 19.43 0 11.89-7.78 19.87-7.79 7.98-19.39 7.98Zm-156.76-36.81q-12.18 0-20.2-7.73t-8.02-19.76q0-11.47 8.02-19.68 8.02-8.21 20.2-8.21 11.59 0 19.38 8.21 7.79 8.21 7.79 19.68 0 12.03-7.79 19.76-7.79 7.73-19.38 7.73Zm313.53 0q-12.17 0-20.19-7.73-8.02-7.73-8.02-19.76 0-11.47 8.02-19.68 8.02-8.21 20.19-8.21 11.6 0 19.39 8.21 7.78 8.21 7.78 19.68 0 12.03-7.78 19.76-7.79 7.73-19.39 7.73Zm-416.71-109.8q-12.04 0-19.77-7.74-7.73-7.73-7.73-19.76 0-11.46 7.73-19.68 7.73-8.21 19.77-8.21 11.46 0 19.67 8.21 8.21 8.22 8.21 19.68 0 12.03-8.21 19.76-8.21 7.74-19.67 7.74Zm259.8 0q-76.15 0-130.24-51.14-54.1-51.13-54.1-125.94 0-84.54 60.77-159.67 60.77-75.14 123.5-129.72 62.81 54.7 123.48 129.83 60.67 75.14 60.67 159.56 0 74.81-53.96 125.94-53.97 51.14-130.12 51.14Zm259.78 0q-12.09 0-20.05-7.74-7.95-7.73-7.95-19.76 0-11.46 7.91-19.68 7.92-8.21 19.94-8.21 11.84 0 19.68 8.21 7.85 8.22 7.85 19.68 0 12.03-7.95 19.76-7.94 7.74-19.43 7.74ZM480.23-352.35q30.73 0 52.71-21.59 21.98-21.6 21.98-52.79 0-31-21.98-52.85-21.98-21.84-52.71-21.84-30.56 0-52.09 21.76-21.52 21.75-21.52 53.16 0 30.96 21.52 52.56 21.53 21.59 52.09 21.59Zm-.23-436.3q-12.04 0-19.77-7.73-7.73-7.74-7.73-19.77 0-11.46 7.73-19.68 7.73-8.21 19.77-8.21 11.46 0 19.67 8.21 8.21 8.22 8.21 19.68 0 12.03-8.21 19.77-8.21 7.73-19.67 7.73Z"/></svg>