<svg xmlns="http://www.w3.org/2000/svg" height="48" viewBox="0 -960 960 960" width="48"><path d="M479.96-23.61q-20.83 0-34.47-13.78-13.64-13.79-13.64-33.94 0-21.77 13.77-35.68 13.77-13.9 33.91-13.9 21.57 0 35.59 13.9 14.03 13.91 14.03 35.35 0 20.86-13.98 34.45-13.98 13.6-35.21 13.6Zm-186.41-39q-20.51 0-35.37-14.65-14.85-14.66-14.85-36.16 0-21.83 14.89-36.28 14.89-14.45 35.31-14.45 23.57 0 37.21 14.5 13.65 14.49 13.65 36.22 0 21.51-13.6 36.17-13.6 14.65-37.24 14.65Zm370.87-.76q-20.33 0-34.45-14.36-14.12-14.36-14.12-35.26 0-21.06 14.21-35.61t34.44-14.55q22.46 0 37.55 14.6 15.1 14.59 15.1 35.55 0 20.91-15.09 35.27-15.1 14.36-37.64 14.36Zm-492.7-127.24q-21.03 0-35.29-14.23-14.26-14.23-14.26-34.82 0-19.82 14.31-34.16 14.3-14.33 34.85-14.33 19.71 0 33.93 14.33 14.22 14.34 14.22 33.75 0 21.2-14.22 35.33-14.22 14.13-33.54 14.13Zm308.98.28q-95.66 0-163.02-62.26-67.35-62.26-67.35-156.49 0-108.83 75.85-200.38Q402.04-701.02 480-768.39q78.14 67.46 154.03 158.97 75.88 91.51 75.88 200.34 0 92.95-67.28 155.85-67.27 62.9-161.93 62.9Zm308.34 1.72q-21.19 0-36.36-14.82-15.16-14.82-15.16-36.46 0-19.82 15.22-34.54 15.21-14.72 36.39-14.72 21.74 0 35.72 14.72t13.98 34.54q0 21.64-14.07 36.46t-35.72 14.82ZM480.1-331.48q34.66 0 59.66-24.88t25-59.64q0-34.76-24.92-60.38Q514.92-502 479.95-502q-34.71 0-60.21 25.33-25.5 25.32-25.5 60.38 0 35.05 25.73 59.93 25.73 24.88 60.13 24.88Zm.3-514.32q-20.09 0-34.32-14.12-14.23-14.11-14.23-34.71 0-20.1 14.27-34.29 14.27-14.19 33.88-14.19 19.72 0 34.43 14.15 14.72 14.14 14.72 33.91 0 21.29-14.72 35.27-14.71 13.98-34.03 13.98Z"/></svg>