<svg xmlns="http://www.w3.org/2000/svg" height="24" viewBox="0 -960 960 960" width="24"><path d="M480-66q-15 0-25.5-10.5T444-102q0-16 10.5-26t25.5-10q16 0 26 10t10 26q0 15-10 25.5T480-66Zm-176-37q-15 0-26.5-11T266-140q0-17 11.5-27.5T304-178q17 0 26 10.5t9 27.5q0 15-9 26t-26 11Zm351-2q-15 0-25-10t-10-25q0-16 10-26.5t25-10.5q16 0 26.5 10.5T692-140q0 15-10.5 25T655-105ZM186-221q-15 0-25.5-11T150-258q0-16 10.5-25.5T186-293q16 0 26 9.5t10 25.5q0 15-10 26t-26 11Zm294 0q-84 0-143.5-54.5T277-412q0-102 67.5-180.5T480-728q68 57 135 135.5T682-412q0 82-59.5 136.5T480-221Zm294 0q-15 0-25.5-11T738-258q0-16 10.5-25.5T774-293q16 0 26 9.5t10 25.5q0 15-10 26t-26 11ZM480-342q33 0 56.5-23.5T560-421q0-34-23.5-57T480-501q-31 0-54.5 23T402-421q0 32 23.5 55.5T480-342Zm0-465q-15 0-25.5-11T444-844q0-16 10.5-25.5T480-879q16 0 26 9.5t10 25.5q0 15-10 26t-26 11Z"/></svg>