<svg xmlns="http://www.w3.org/2000/svg" height="24" viewBox="0 -960 960 960" width="24"><path d="M480.12-73.89Q464-73.89 453-84.75q-11-10.87-11-26.83 0-15.15 11.02-26.32 11.01-11.18 27.19-11.18 15.44 0 26.21 11.19 10.77 11.18 10.77 26.44 0 15.83-10.77 26.7-10.77 10.86-26.3 10.86Zm-161.38-38.15q-16.12 0-27.12-10.59t-11-26.71q0-15.31 11.01-26.6 11.02-11.29 27.2-11.29 15.44 0 26.21 11.29 10.77 11.29 10.77 26.69 0 15.98-10.77 26.59-10.77 10.62-26.3 10.62Zm322.76 0q-16.11 0-27.11-10.59t-11-26.71q0-15.31 11.01-26.6 11.02-11.29 27.2-11.29 15.44 0 26.21 11.29 10.77 11.29 10.77 26.69 0 15.98-10.77 26.59-10.77 10.62-26.31 10.62ZM212.1-225.69q-15.98 0-26.6-10.59-10.61-10.59-10.61-26.72 0-15.31 10.59-26.6 10.59-11.28 26.71-11.28 15.31 0 26.6 11.28 11.29 11.29 11.29 26.7 0 15.98-11.29 26.59-11.29 10.62-26.69 10.62Zm267.96 0q-82.1 0-140.52-55.95-58.42-55.94-58.42-137.09 0-88.77 65.38-171.21 65.39-82.44 133.5-142.98 68.28 60.71 133.43 143.22 65.15 82.51 65.15 170.97 0 81.15-58.21 137.09-58.21 55.95-140.31 55.95Zm267.9 0q-16.16 0-27.1-10.59-10.94-10.59-10.94-26.72 0-15.31 10.92-26.6 10.93-11.28 26.97-11.28 15.46 0 26.38 11.28 10.92 11.29 10.92 26.7 0 15.98-10.99 26.59-10.99 10.62-26.16 10.62Zm-167.19-95.63q41.85-39.66 41.85-97.3 0-64.07-48.18-127.02-48.17-62.94-94.44-110.98-46.38 48.04-94.65 110.83t-48.27 127.17q0 57.64 42.09 97.3 42.1 39.67 100.93 39.67 58.83 0 100.67-39.67Zm-100.54-26.6q31.5 0 53.87-22.18 22.36-22.17 22.36-54.13 0-31.39-22.36-53.81-22.37-22.42-53.96-22.42-31.81 0-53.82 22.33-22.01 22.34-22.01 54.13 0 31.73 22.02 53.9 22.03 22.18 53.9 22.18Zm-.52-455.16q-15.98 0-26.59-10.59-10.62-10.59-10.62-26.71 0-15.31 10.59-26.6 10.59-11.29 26.71-11.29 15.31 0 26.6 11.29 11.29 11.29 11.29 26.69 0 15.98-11.29 26.6-11.29 10.61-26.69 10.61ZM480-424Z"/></svg>