<svg xmlns="http://www.w3.org/2000/svg" height="40" viewBox="0 -960 960 960" width="40"><path d="M480.08-94.9q-11.24 0-18.46-7.23-7.21-7.23-7.21-18.57 0-9.83 7.33-17.46 7.32-7.63 18.47-7.63 10.62 0 17.86 7.64 7.24 7.65 7.24 17.39 0 11.49-7.24 18.67-7.24 7.19-17.99 7.19Zm-160.34-36.47q-10.44 0-18.07-7.23-7.62-7.23-7.62-19.14 0-9.69 7.63-17.52t18.48-7.83q10.78 0 18.35 7.83 7.57 7.83 7.57 17.7 0 11.63-7.57 18.91-7.57 7.28-18.77 7.28Zm320.18 0q-11.3 0-18.79-7.23-7.49-7.23-7.49-19.14 0-9.69 7.52-17.52t18.95-7.83q10.77 0 18.17 7.83 7.39 7.83 7.39 17.7 0 11.63-7.39 18.91-7.4 7.28-18.36 7.28Zm-423.8-111.45q-10.5 0-18.02-7.12-7.51-7.12-7.51-18.3 0-10.49 7.53-17.98 7.53-7.5 17.91-7.5 10.47 0 17.96 7.5 7.5 7.49 7.5 18.12 0 11.1-7.5 18.19-7.49 7.09-17.87 7.09Zm264.18.15q-76.56 0-131-50.93t-54.44-125.76q0-85.97 60.95-161.16T480-709.33q63.49 53.84 124.42 128.81 60.94 74.97 60.94 161.16 0 74.83-54.26 125.76-54.25 50.93-130.8 50.93Zm263.78.16q-11.57 0-19.05-7.24-7.49-7.24-7.49-18.59 0-10.72 7.49-18.13 7.49-7.4 18.89-7.4 11.23 0 18.44 7.3 7.2 7.3 7.2 18.42 0 11.06-7.14 18.35-7.14 7.29-18.34 7.29Zm-156.17-74.32q45.01-41.73 45.01-102.95 0-74.3-52.3-135.53-52.3-61.24-100.62-113.1-47.9 51.86-100.3 113.2-52.41 61.35-52.41 135.43 0 61.22 44.99 102.95 44.98 41.73 107.79 41.73 62.82 0 107.84-41.73Zm-107.66-33.39q30.71 0 53.43-21.84 22.73-21.85 22.73-54.07 0-31.36-22.73-53.9-22.72-22.55-53.72-22.55-30.77 0-52.96 22.33-22.18 22.32-22.18 54.05 0 31.97 22.31 53.98 22.31 22 53.12 22Zm.19-443.64q-10.84 0-18.18-7.2-7.35-7.19-7.35-18.24 0-10.13 7.36-17.8 7.37-7.66 18.09-7.66 10.13 0 17.79 7.66 7.66 7.67 7.66 17.71 0 11.17-7.66 18.35-7.66 7.18-17.71 7.18ZM480-426.01Z"/></svg>