<svg xmlns="http://www.w3.org/2000/svg" height="40" viewBox="0 -960 960 960" width="40"><path d="M479.98-106.33q-9.31 0-15.15-5.92-5.83-5.92-5.83-15.08 0-8.67 5.92-14.84 5.92-6.16 15.08-6.16 9.33 0 15.17 6.16Q501-136 501-127.61q0 9.57-5.83 15.42-5.84 5.86-15.19 5.86Zm-157.62-35.34q-8.36 0-14.53-6.19-6.16-6.2-6.16-15.76 0-8.38 6.13-14.55 6.13-6.16 14.87-6.16 9.33 0 15.5 6.16 6.16 6.17 6.16 14.55 0 9.56-6.16 15.76-6.17 6.19-15.81 6.19Zm314.97 0q-9.44 0-15.55-6.19-6.11-6.2-6.11-15.76 0-8.38 6.11-14.55 6.11-6.16 15.55-6.16 9.34 0 15.17 6.16 5.83 6.17 5.83 14.55 0 9.56-5.83 15.76-5.83 6.19-15.17 6.19ZM221.31-251.33q-8.98 0-15.14-5.92-6.17-5.92-6.17-15.08 0-9.34 6.23-15.17 6.24-5.83 14.8-5.83 9.3 0 15.14 5.83 5.83 5.83 5.83 15.18 0 9.32-5.83 15.15-5.84 5.84-14.86 5.84Zm258.97 0q-73.61 0-126.11-49t-52.5-121.34q0-82.33 58.66-154.33Q419-648 480-699.67 541-648 599.67-576q58.66 72 58.66 154.33 0 72.34-52.22 121.34t-125.83 49Zm258.62 0q-9.4 0-15.48-5.95-6.09-5.95-6.09-15.15 0-9.24 6.09-15.07 6.08-5.83 15.48-5.83 9.43 0 15.27 5.7 5.83 5.7 5.83 15.2 0 9.2-5.7 15.15-5.7 5.95-15.4 5.95Zm-150.07-66.34q45.5-42.33 45.5-104 0-74.66-52.83-135.5Q528.67-618 480-670.33 431.33-618 378.5-557.17q-52.83 60.84-52.83 135.5 0 61.67 45.5 104 45.5 42.34 108.83 42.34t108.83-42.34Zm-108.79-34.66q30.8 0 53.21-21.66 22.42-21.66 22.42-52.9 0-32.23-22.42-54-22.41-21.78-53.33-21.78-29.92 0-51.75 21.64-21.84 21.64-21.84 53.83 0 31.2 21.96 53.03 21.96 21.84 51.75 21.84Zm.27-431.34q-8.98 0-15.14-6.23-6.17-6.23-6.17-14.8 0-9.3 6.23-15.13 6.24-5.84 14.8-5.84 9.3 0 15.14 5.84Q501-814 501-804.98q0 8.98-5.83 15.15-5.84 6.16-14.86 6.16ZM480-427Z"/></svg>