<svg xmlns="http://www.w3.org/2000/svg" height="40" viewBox="0 -960 960 960" width="40"><path d="M480.49-50.67q-18.19 0-30.34-12Q438-74.68 438-92.5q0-17 12.22-29.25Q462.43-134 480.21-134q17.29 0 29.21 12.26 11.91 12.26 11.91 29 0 18.24-11.91 30.16-11.92 11.91-28.93 11.91ZM308.88-89.83q-17.92 0-30.73-12.01-12.82-12.01-12.82-30.39 0-16.87 12.82-29.57 12.81-12.7 30.73-12.7 17.95 0 30.2 12.7t12.25 29.57q0 18.38-12.25 30.39-12.25 12.01-30.2 12.01Zm342 0q-18.06 0-30.47-12.01T608-132.23q0-16.87 12.41-29.57t30.47-12.7q17.95 0 30.54 12.7Q694-149.1 694-132.23q0 18.38-12.58 30.39-12.59 12.01-30.54 12.01ZM197.06-210q-17.73 0-29.73-11.9t-12-29.55q0-17.15 12.07-29.52 12.07-12.36 29.38-12.36 17.15 0 29.52 12.36 12.37 12.37 12.37 29.25 0 18.05-12.37 29.89Q213.93-210 197.06-210Zm283.18.67q-87.91 0-150.49-58.75-62.58-58.75-62.58-145.25 0-97 69.66-184.75Q406.5-685.83 480-749.33q73.58 63.62 143.12 151.39 69.55 87.77 69.55 184.61 0 86.5-62.27 145.25-62.26 58.75-150.16 58.75Zm283 .66q-18.49 0-31.2-12.31-12.71-12.32-12.71-30.56 0-17.39 12.67-29.93Q744.66-294 763.1-294q17.57 0 29.9 12.53 12.33 12.54 12.33 29.93 0 18.24-12.43 30.56-12.43 12.31-29.66 12.31ZM585.45-313.08q43.88-40.42 43.88-100.42 0-70.83-50.25-135.92Q528.83-614.5 480-665.33q-48.67 50.83-99.08 115.83-50.42 65-50.42 136 0 60 44.08 100.42 44.09 40.41 105.54 40.41 61.46 0 105.33-40.41Zm-105.29-26.75q32.85 0 56.34-23.3 23.5-23.29 23.5-57.49 0-32.55-23.5-56.55-23.49-24-56.34-24-34.18 0-57.84 23.8-23.65 23.79-23.65 56.74 0 33.96 23.65 57.38 23.66 23.42 57.84 23.42Zm.06-488q-18.05 0-29.89-11.74-11.83-11.73-11.83-29.71 0-16.82 11.9-29.35 11.9-12.54 29.55-12.54 16.82 0 29.35 12.54 12.53 12.53 12.53 29.07 0 18.39-12.53 30.06-12.53 11.67-29.08 11.67ZM480-420.5Z"/></svg>