<svg xmlns="http://www.w3.org/2000/svg" height="24" viewBox="0 -960 960 960" width="24"><path d="M480.21-110.5q-9.75 0-15.98-6.28-6.23-6.27-6.23-15.72 0-9 6.23-15.25t15.98-6.25q9.29 0 15.29 6.26t6 15.28q0 9.46-6 15.71t-15.29 6.25Zm-154-36q-9.75 0-15.98-6T304-168.11q0-9.16 6.23-15.52 6.23-6.37 15.98-6.37 9.29 0 15.29 6.37 6 6.36 6 15.52 0 9.61-6 15.61t-15.29 6Zm308 0q-9.75 0-15.98-6T612-168.11q0-9.16 6.23-15.52 6.23-6.37 15.98-6.37 9.29 0 15.29 6.37 6 6.36 6 15.52 0 9.61-6 15.61t-15.29 6ZM225.11-254q-9.61 0-15.61-6t-6-15.61q0-9.16 6-15.52 6-6.37 15.61-6.37 9.16 0 15.52 6.37 6.37 6.36 6.37 15.52 0 9.61-6.37 15.61-6.36 6-15.52 6Zm254.96 0Q407.5-254 356-302.25T304.5-421.5q0-82 58-152.75T480-696q59.58 51.12 117.54 121.81Q655.5-503.5 655.5-421.5q0 71-51.43 119.25-51.42 48.25-124 48.25ZM735-254q-9.66 0-15.83-6T713-275.61q0-9.16 6.13-15.52 6.13-6.37 15.73-6.37 9.64 0 15.64 6.37 6 6.36 6 15.52 0 9.61-6.1 15.61t-15.4 6ZM480.23-355q30.27 0 52.02-21.25Q554-397.5 554-428.23q0-30.77-21.75-52.27Q510.5-502 480.23-502q-29.75 0-50.99 21.41Q408-459.17 408-428q0 30.5 21.24 51.75T480.23-355Zm-.12-425q-9.61 0-15.61-6t-6-15.61q0-9.16 6-15.52 6-6.37 15.61-6.37 9.16 0 15.52 6.37 6.37 6.36 6.37 15.52 0 9.61-6.37 15.61-6.36 6-15.52 6Z"/></svg>