<svg xmlns="http://www.w3.org/2000/svg" height="24" viewBox="0 -960 960 960" width="24"><path d="M480.21-73.89Q464-73.89 453-84.78t-11-26.8q0-15.15 11-26.32 11-11.18 27.21-11.18 15.44 0 26.21 11.19 10.77 11.18 10.77 26.35 0 15.92-10.77 26.79-10.77 10.86-26.21 10.86Zm-161.38-38.15q-16.21 0-27.21-10.62-11-10.61-11-26.68 0-15.31 11-26.6 11-11.29 27.21-11.29 15.44 0 26.21 11.29 10.77 11.29 10.77 26.6 0 16.07-10.77 26.68-10.77 10.62-26.21 10.62Zm322.77 0q-16.21 0-27.21-10.62-11-10.61-11-26.68 0-15.31 11-26.6 11-11.29 27.21-11.29 15.44 0 26.21 11.29 10.77 11.29 10.77 26.6 0 16.07-10.77 26.68-10.77 10.62-26.21 10.62ZM212.19-225.69q-16.07 0-26.69-10.62-10.61-10.61-10.61-26.69 0-15.31 10.61-26.6 10.62-11.28 26.69-11.28 15.31 0 26.6 11.28 11.29 11.29 11.29 26.6 0 16.08-11.29 26.69-11.29 10.62-26.6 10.62Zm267.88 0q-82.11 0-140.53-55.95-58.42-55.94-58.42-137.09 0-88.77 65.38-171.21 65.39-82.44 133.5-142.98 68.2 60.66 133.39 143.19 65.19 82.54 65.19 171 0 81.15-58.2 137.09-58.19 55.95-140.31 55.95Zm267.85 0q-16.12 0-27.06-10.62-10.94-10.61-10.94-26.69 0-15.31 10.9-26.6 10.9-11.28 26.96-11.28 15.49 0 26.41 11.28 10.92 11.29 10.92 26.6 0 16.08-11.02 26.69-11.02 10.62-26.17 10.62ZM480.23-347.92q31.5 0 53.87-22.18 22.36-22.17 22.36-54.13 0-31.39-22.36-53.81-22.37-22.42-53.87-22.42-31.9 0-53.91 22.33-22.01 22.34-22.01 54.13 0 31.73 22.01 53.9 22.01 22.18 53.91 22.18Zm-.43-455.16q-16.07 0-26.68-10.61-10.62-10.62-10.62-26.69 0-15.31 10.62-26.6 10.61-11.29 26.68-11.29 15.31 0 26.6 11.29 11.29 11.29 11.29 26.6 0 16.07-11.29 26.69-11.29 10.61-26.6 10.61Z"/></svg>