<svg xmlns="http://www.w3.org/2000/svg" height="40" viewBox="0 -960 960 960" width="40"><path d="M480.05-91.79q-11.46 0-18.83-7.46-7.37-7.45-7.37-18.7 0-10.82 7.45-18.49 7.45-7.66 18.7-7.66 11.33 0 18.74 7.66 7.41 7.67 7.41 18.22 0 11.65-7.41 19.04-7.41 7.39-18.69 7.39Zm-161.47-36.26q-10.66 0-18.44-7.73-7.78-7.73-7.78-19.38 0-10.53 7.76-18.28 7.75-7.74 18.7-7.74 11.49 0 19.23 7.74 7.74 7.75 7.74 18.28 0 11.65-7.74 19.38-7.74 7.73-19.47 7.73Zm322.45 0q-11.53 0-19.18-7.73-7.64-7.73-7.64-19.38 0-10.53 7.64-18.28 7.65-7.74 19.18-7.74 11.48 0 19.05 7.74 7.56 7.75 7.56 18.28 0 11.65-7.56 19.38-7.57 7.73-19.05 7.73ZM215.07-240.56q-11.2 0-18.83-7.46-7.62-7.45-7.62-18.7 0-11.33 7.69-18.74 7.69-7.41 18.48-7.41 11.31 0 18.72 7.41 7.41 7.41 7.41 18.69 0 11.46-7.41 18.83-7.41 7.38-18.44 7.38Zm265.18.15q-77.35 0-132.47-51.81-55.11-51.81-55.11-127.99 0-85.41 61.51-161.75Q415.69-658.31 480-713.28q64.31 54.97 125.82 131.32 61.51 76.34 61.51 161.75 0 76.18-54.86 127.99-54.87 51.81-132.22 51.81Zm264.89.15q-11.62 0-19.33-7.57-7.71-7.57-7.71-18.98 0-11.24 7.71-18.73t19.33-7.49q11.42 0 18.91 7.39 7.49 7.38 7.49 18.83 0 11.41-7.39 18.98-7.38 7.57-19.01 7.57ZM588.26-316.4q45.23-42.14 45.23-103.73 0-72.82-52.34-135.27Q528.82-617.85 480-670.1q-48.9 52.25-101.19 114.7-52.3 62.45-52.3 135.27 0 61.59 45.23 103.73T480-274.26q63.03 0 108.26-42.14Zm-108.24-32.47q31.44 0 54.2-22.1 22.75-22.09 22.75-54.15 0-32.59-22.75-54.91-22.76-22.33-54.3-22.33-31 0-53.33 22.2-22.33 22.19-22.33 54.75 0 32.03 22.42 54.28 22.43 22.26 53.34 22.26Zm.28-445.34q-11.2 0-18.83-7.69-7.62-7.7-7.62-18.48 0-11.31 7.69-18.72 7.7-7.41 18.49-7.41 11.3 0 18.71 7.41t7.41 18.44q0 11.2-7.41 18.83-7.41 7.62-18.44 7.62Zm-.3 368.98Z"/></svg>