<svg xmlns="http://www.w3.org/2000/svg" height="20" viewBox="0 -960 960 960" width="20"><path d="M480 3.44q-28.19 0-48.83-20.67-20.65-20.67-20.65-48.89 0-29.88 20.65-49.64 20.64-19.76 48.83-19.76 29.39 0 49.44 19.86 20.04 19.86 20.04 49.76 0 28.25-20.04 48.79Q509.39 3.44 480 3.44ZM289.74-40.13q-28.39 0-49.37-21.15-20.98-21.14-20.98-49.89 0-30.62 20.98-51.05 20.98-20.43 49.37-20.43 30.39 0 49.72 20.43 19.32 20.43 19.32 51.05 0 28.75-19.32 49.89-19.33 21.15-49.72 21.15Zm379.38-1.43q-28.25 0-48.29-20.31-20.05-20.31-20.05-49.3 0-29.62 20.17-50.05 20.17-20.43 48.39-20.43 29.88 0 50.14 20.43t20.26 50.05q0 28.99-20.36 49.3t-50.26 20.31Zm-511.73-122.7q-28.19 0-48.83-21.04-20.65-21.05-20.65-49.44 0-29.39 20.65-48.93 20.64-19.55 48.83-19.55 29.39 0 49.44 19.55 20.04 19.54 20.04 48.93 0 28.39-20.04 49.44-20.05 21.04-49.44 21.04Zm322.89-14.26q-103.24 0-175.72-67.48-72.47-67.48-72.47-169.26 0-120.52 83.16-216.49Q398.41-727.72 480-803.17q82.7 75.69 165.09 171.54t82.39 216.37q0 101.78-72.48 169.26-72.48 67.48-174.72 67.48Zm322.19 14.26q-28.25 0-48.8-21.04-20.54-21.05-20.54-49.44 0-29.39 20.67-48.93 20.67-19.55 48.89-19.55 29.88 0 49.64 19.55 19.76 19.54 19.76 48.93 0 28.39-19.86 49.44-19.86 21.04-49.76 21.04ZM480.1-349q31.47 0 54.18-22.72Q557-394.43 557-425.43t-22.82-54.29Q511.37-503 479.89-503 449-503 426-479.72q-23 23.29-23 54.29t23.11 53.71Q449.21-349 480.1-349Zm-.1-491.87q-28.19 0-48.83-20.76-20.65-20.76-20.65-49.18 0-30.06 20.65-49.54 20.64-19.48 48.83-19.48 29.39 0 49.44 19.48 20.04 19.48 20.04 49.54 0 28.42-20.04 49.18-20.05 20.76-49.44 20.76Z"/></svg>