<svg xmlns="http://www.w3.org/2000/svg" height="20" viewBox="0 -960 960 960" width="20"><path d="M480.21-59q-19.25 0-32.73-13.28Q434-85.55 434-104.5q0-19 13.48-32.25T480.21-150q19.29 0 32.04 13.26T525-104.46q0 18.96-12.75 32.21T480.21-59Zm-164-41.5q-19.25 0-32.73-13-13.48-13-13.48-32.11 0-19.16 13.48-32.52 13.48-13.37 32.73-13.37 19.29 0 32.04 13.37Q361-164.77 361-145.61q0 19.11-12.75 32.11t-32.04 13Zm328 0q-19.25 0-32.73-13-13.48-13-13.48-32.11 0-19.16 13.48-32.52 13.48-13.37 32.73-13.37 19.29 0 32.04 13.37Q689-164.77 689-145.61q0 19.11-12.75 32.11t-32.04 13ZM208.11-212Q189-212 176-225t-13-32.11q0-19.16 13-32.52Q189-303 208.11-303q19.16 0 32.52 13.37Q254-276.27 254-257.11 254-238 240.63-225q-13.36 13-32.52 13Zm271.96-12q-86.07 0-147.82-56.25T270.5-421q0-97 69.5-181.75T480-754q71.58 66.62 140.29 151.56T689-421q0 84.5-61.43 140.75Q566.15-224 480.07-224ZM752-212q-19.16 0-32.58-13Q706-238 706-257.11q0-19.16 13.38-32.52Q732.76-303 751.86-303 771-303 784-289.63q13 13.36 13 32.52Q797-238 783.9-225T752-212ZM580.12-328.25Q622-365.5 622-420.5q0-71.5-47.25-130.25T480-662q-47 52.5-94.75 111T337.5-420.5q0 55 42.25 92.25T480.12-291q58.12 0 100-37.25Zm-99.89-35.25q28.27 0 49.02-20.75Q550-405 550-433.73q0-27.77-20.75-48.77-20.75-21-49.02-21-29.25 0-49.74 20.91Q410-461.67 410-433.5q0 28.5 20.49 49.25t49.74 20.75Zm-.62-450q-19.11 0-32.11-13t-13-32.11q0-19.16 13-32.52 13-13.37 32.11-13.37 19.16 0 32.52 13.37 13.37 13.36 13.37 32.52 0 19.11-13.37 32.11-13.36 13-32.52 13Zm.39 380Z"/></svg>