<svg xmlns="http://www.w3.org/2000/svg" height="40" viewBox="0 -960 960 960" width="40"><path d="M307.83-674.68q-35.18 0-60.08-24.9-24.89-24.89-24.89-60.07 0-35.52 24.89-61.19 24.9-25.68 60.08-25.68 35.51 0 61.19 25.68 25.68 25.67 25.68 61.19 0 35.18-25.68 60.07-25.68 24.9-61.19 24.9ZM761.41-29 644.75-232.01H353.52q-27.04 0-47.29-15.42t-24.71-40.58l-44.51-232.12q-10.09-48.85 23.61-85.03 33.71-36.19 85.71-36.19 22.16 0 41.25 10.53 19.09 10.52 34.83 25.07l110.66 111.68 93.59-69.13-30.27-14.34q-8.09-4.48-10.67-13.57-2.57-9.09 2.19-16.62l56.75-101.39q4.15-7.49 11.68-9.49 7.53-2 15.73 1.59l56.63 28.22q7.71 4.86 9.81 13.66 2.09 8.81-2.29 16l-51.09 95.26 23.78 28.63-182.08 137.52-58.63-39.29 20.53 94.7h132.49q23.79 0 39.57 12.74 15.78 12.73 28.07 34.23l135.33 232L761.41-29Zm-223.22-81.84H270.47q-37.19 0-60.33-20.86t-30.13-56.98L89.68-641.35h80.51l86 452.67h282v77.84Z"/></svg>