<svg xmlns="http://www.w3.org/2000/svg" height="40" viewBox="0 -960 960 960" width="40"><path d="M282.56-665.61q-30.18 0-51.33-21.29-21.15-21.28-21.15-51.2 0-30 21.15-51.66 21.15-21.65 51.33-21.65 30 0 51.66 21.65 21.65 21.66 21.65 51.66 0 29.92-21.65 51.2-21.66 21.29-51.66 21.29Zm456.18 618.3L630.01-235.19H330.94q-23.91 0-41.73-13.78-17.81-13.79-21.88-35.88l-46.73-237.3q-8.95-41.73 18.51-73.34 27.45-31.6 70.89-31.6 20.5 0 38.68 9.04t31.33 24.63l107.14 127.5 112.52-83.4-36.03-17.47q-5.64-3.24-7.17-8.92-1.53-5.69.9-11.33l41.12-88.59q2.44-5.91 8.18-7.75 5.74-1.84 12.17.87l48.97 23.96q5.64 3.23 7.28 9.04 1.65 5.82-.78 10.93l-38.02 83.76 17.43 24.53-174.07 134.64-58.77-44.72 25.95 117.36h153.9q17.14 0 31.26 9.84 14.12 9.85 22.8 25.48L780.9-71.01l-42.16 23.7Zm-218.91-97.43H263q-26.92 0-46.1-16.63-19.17-16.63-24.58-42.8l-87.58-437.92h49.53l84.33 437.15q.77 4.62 5.39 8.47 4.61 3.84 9.23 3.84h266.61v47.89Z"/></svg>