<svg xmlns="http://www.w3.org/2000/svg" height="20" viewBox="0 -960 960 960" width="20"><path d="M317.61-668.46q-37.3 0-62.57-25.27-25.27-25.27-25.27-62.58 0-37.3 25.27-62.57 25.27-25.27 62.57-25.27 37.31 0 62.58 25.27 25.27 25.27 25.27 62.57 0 37.31-25.27 62.58-25.27 25.27-62.58 25.27ZM714.77-85.31 615.69-259H374.31q-34.54 0-62.16-21.88-27.61-21.89-35.84-56.66l-42.93-189.38q-8.61-35 11.5-67.54Q265-627 301.38-634q26.08-5 48.08 6.42 22 11.43 41.23 29.5l83.85 79.85 114.84-83.15L546-622.15q-7.85-3.62-11.46-13.73-3.62-10.12-.39-17.97l48.08-101.38q3.61-8.23 13.04-10.85 9.42-2.61 17.65 1L671.15-736q7.85 3.62 10.77 12.54 2.92 8.92-.31 16.77l-49.69 109.54 28.23 41.38-207 150.08-26.31-47.39L454.31-363h175q21.3 0 38.5 9.46 17.19 9.46 27.03 27.93l110.23 190.3-90.3 50ZM529.23-133h-265q-44.31 0-66.11-15.62-21.81-15.61-30.04-59.92L84-627h80.23l81.69 403.69q.77 4.62 5.39 8.46 4.61 3.85 9.23 3.85h268.69v78Z"/></svg>