<svg xmlns="http://www.w3.org/2000/svg" height="20" viewBox="0 -960 960 960" width="20"><path d="M300.23-624.92q-29.61 0-50.65-21.04t-21.04-50.66q0-29.61 21.04-50.65t50.65-21.04q29.62 0 50.65 21.04 21.04 21.04 21.04 50.65 0 29.62-21.04 50.66-21.03 21.04-50.65 21.04Zm389.31 504.3L607.38-264H358.62q-27.08 0-47.31-16.77-20.23-16.77-26.69-41.31l-44.85-194.77q-6.23-24 7.5-46.07Q261-585 285.77-592q19.15-5 36.15 3.35 17 8.34 31.46 22.5l109.7 109.69 114.69-87.31L541-563.31q-4.69-2.23-6.42-8.46-1.73-6.23-.27-10.92l35.15-75.77q2.23-5.46 8.08-6.69 5.84-1.23 11.31 1L630.31-643q4.69 2.23 6.04 8.08 1.34 5.84-.12 10.54l-34.38 78.07 11.46 15.77-174 139.16-59.62-74.77L416.62-320h193q13.61 0 25.5 6.42 11.88 6.43 19.57 20.35l83.46 144.61-48.61 28ZM526.46-184h-257q-20.61 0-35.23-10.23-14.61-10.23-18.08-30.85L136-624h31.46l79.39 383.38q1.53 9.24 10.77 16.93 9.23 7.69 18.46 7.69h250.38v32Z"/></svg>