<svg xmlns="http://www.w3.org/2000/svg" height="40" viewBox="0 -960 960 960" width="40"><path d="M283.33-676q-32.16 0-55.08-22.92-22.92-22.91-22.92-55.08 0-32.5 22.92-55.92 22.92-23.41 55.08-23.41 32.5 0 55.92 23.41 23.42 23.42 23.42 55.92 0 32.17-23.42 55.08Q315.83-676 283.33-676ZM750.67-33.33l-115.34-200H336q-26.67 0-46.92-15.42T264-289.33l-45.83-238.34q-9.34-45.83 21.16-80.41 30.5-34.59 78.17-34.59 22.17 0 41.92 9.59 19.75 9.58 33.41 26.58L493.5-479l108.67-76.67L571.33-570q-5.83-3.17-7.75-9.33-1.91-6.17.59-12l47.33-100.84q2.83-6.16 8.67-8.16 5.83-2 12.33.83l55.5 26.33q5.83 3.17 7.83 9.34 2 6.16-.5 11.66L653.67-562 675-530.17 483.5-392.83l-43-31 18.83 87.16h151.34q19.83 0 35.33 11.42t25.33 28.58l135.34 232-56 31.34Zm-230-93.34H250.5q-28.33 0-48.08-17.75T177-190L86.67-642.67h66l86 452.67h282v63.33Z"/></svg>