<svg xmlns="http://www.w3.org/2000/svg" height="40" viewBox="0 -960 960 960" width="40"><path d="M281.33-649q-27 0-45.33-18.67-18.33-18.66-18.33-45 0-26 18.33-44.83t45.33-18.83q26 0 44.84 18.83Q345-738.67 345-712.67q0 26.34-18.83 45Q307.33-649 281.33-649ZM719.67-69.67l-98.17-168.5H322.83q-19.5 0-33.41-11.16-13.92-11.17-16.75-28.34L224.5-513.33q-8.33-35.17 14.25-62 22.58-26.84 59.25-26.84 17.83 0 33.5 8.17 15.67 8.17 28 21.5L477-445l118.67-94.17-44.34-22.5q-5.33-3.33-6.25-8.25-.91-4.91 1.42-10.25l31.17-69q1.83-5.5 7.41-7.08 5.59-1.58 11.92.92l38.5 20.16q5.33 3.34 6.42 8.59 1.08 5.25-1.25 9.75l-32.17 73.5 11.17 12.83L473.5-400.17l-84-66.66 37.33 165.66h158q12.84 0 24.75 7.34 11.92 7.33 18.75 20.5L739.67-81.17l-20 11.5Zm-201.17-104H283q-24.67 0-42.92-14.83t-23.25-38.33l-83.16-414.34h23.16l81.67 412.34q2 12 14 22t24 10h242v23.16Z"/></svg>