<svg xmlns="http://www.w3.org/2000/svg" height="40" viewBox="0 -960 960 960" width="40"><path d="M311.87-688.71q-37.32 0-63.45-26.13-26.13-26.13-26.13-63.45 0-37.32 26.13-64.4 26.13-27.08 63.45-27.08 37.32 0 64.12 27.08 26.79 27.08 26.79 64.4 0 37.32-26.79 63.45-26.8 26.13-64.12 26.13ZM770.42-15.25 648.49-227.38H355.36q-29.01 0-51.27-16.98-22.25-16.99-26.97-45.06L232.1-521.54q-10.52-51.42 24.89-90.31 35.4-38.89 89.91-38.89 23.97 0 45.08 11.1 21.11 11.09 37.82 26.51l103.3 102.88 89.77-66.63-30.45-14.41q-9.69-4.42-12.51-15.04-2.81-10.63 2.55-19.09l59.16-106.61q4.42-8.19 13.16-10.85 8.73-2.67 17.86 1.75l58.74 29.29q8.08 4.8 10.9 14.92 2.81 10.12-2.18 18.59l-52.9 99.81 28.83 36.81-186.39 139.8-50.96-33.92 18.6 85.09h129.98q25.6 0 42.75 13.59t30.37 35.79L843.39-55.64l-72.97 40.39Zm-230.8-79.33H269.51q-44.07 0-70.44-23.54-26.36-23.55-34.88-65.92l-91.2-459.18h92.33l87.33 459.18h286.97v89.46Z"/></svg>