<svg xmlns="http://www.w3.org/2000/svg" height="24" viewBox="0 -960 960 960" width="24"><path d="M294.61-663.61q-29.99 0-51.11-21.12t-21.12-51.11q0-30 21.12-51.12 21.12-21.12 51.11-21.12 30 0 51.12 21.12 21.12 21.12 21.12 51.12 0 29.99-21.12 51.11t-51.12 21.12ZM725.92-60.39 619.27-244.04H339.11q-24.73 0-42.78-14.73-18.06-14.73-22.79-38.38l-44.42-220.39q-8.62-41.88 18.09-74.27 26.71-32.38 69.48-32.38 21.58 0 40.62 9.58 19.03 9.57 33.27 25.65l103.27 117.35 106.92-76.81-27.54-13.2q-6.54-3.3-8.4-9.82-1.87-6.52 1.05-13.06l42.27-92.46q3.12-6.73 9.64-8.94 6.52-2.21 13.44.9l50.96 23.89q6.54 3.3 8.56 9.82 2.02 6.52-.91 12.87l-37.11 80.88 19.81 27.66-181.5 132.07-57.54-42 24.38 100.62h134q17.81 0 32.79 9.31 14.98 9.3 24.33 25.27L775-87.96l-49.08 27.57Zm-207.5-87.69H274.15q-30.3 0-52.94-18.84-22.63-18.85-28.86-48.66l-84.27-423.61h57.19l84.08 422.84q.77 4.62 5.38 8.47 4.62 3.84 9.23 3.84h254.46v55.96Z"/></svg>