<svg xmlns="http://www.w3.org/2000/svg" height="24" viewBox="0 -960 960 960" width="24"><path d="M322.76-706.5q-38.72 0-65.43-26.72-26.72-26.71-26.72-65.43 0-38.72 26.72-65.56 26.71-26.83 65.43-26.83 38.72 0 65.44 26.83 26.71 26.84 26.71 65.56t-26.71 65.43q-26.72 26.72-65.44 26.72ZM759.11-18.2 633.83-235H361.65q-32.28 0-57.68-20.14t-32.17-54.19l-42.28-211.89q-11.24-54.48 23.96-97.74 35.19-43.26 91.15-43.26 28.28 0 52.69 12.12 24.4 12.12 43.88 31.45l82.41 82.69 90.15-61.97-25.37-11.05q-10.72-5.48-14.72-17.05-4-11.58 1.72-22.06l59.83-118.56q5.48-10.24 16.45-14.24 10.98-4 21.46 1.48l64.04 31q10.48 5.48 14.48 16.55 4 11.08-1.71 21.56l-52.87 105.56 38.52 52.94L527.28-410 496-428.98l13.96 46.46h107.63q27.43 0 48.07 12.98 20.64 12.97 33.6 35.65L852.87-69.96 759.11-18.2Zm-228.5-67.21H275.57q-55.68 0-88.64-27.32-32.95-27.31-44.19-82.27L54.22-641.8h113.11l88 446.8h275.28v109.59Z"/></svg>