<svg xmlns="http://www.w3.org/2000/svg" height="40" viewBox="0 -960 960 960" width="40"><path d="M282.56-668.46q-30.15 0-51.79-21.77t-21.64-51.67q0-30.3 21.64-52.28 21.64-21.97 51.79-21.97 30.31 0 52.29 21.97 21.97 21.98 21.97 52.28 0 29.9-21.97 51.67-21.98 21.77-52.29 21.77ZM741.59-42.57 631.44-232.82H330.46q-24.05 0-42.25-14.1-18.21-14.11-22.77-36.98l-47.23-237.3q-8.62-42.18 19.41-74.27 28.02-32.09 71.4-32.09 21 0 39.65 8.71 18.64 8.72 31.79 24.98l105.72 127 107.77-80.08L561.74-563q-5.61-3.21-7.39-9.15-1.79-5.95.62-11.57l41.59-89.51q2.95-6.41 8.93-8.49 5.97-2.07 12.38 1.13l47.56 23.49q5.62 3.2 7.5 9.25 1.89 6.06-.52 11.67l-36.59 80.41 18.84 26.92L480.1-394.21l-56.87-43.77 25.03 114.49h153.89q17.64 0 31.98 10 14.33 10 23.51 25.8l128 220-44.05 25.12ZM520.31-140H261.08q-26.93 0-47.27-17.57-20.35-17.56-25.76-44.23L100-642.56h51.9l85.28 439.99q.77 4.62 5.38 8.47 4.62 3.84 9.24 3.84h268.51V-140Z"/></svg>