<svg xmlns="http://www.w3.org/2000/svg" height="20" viewBox="0 -960 960 960" width="20"><path d="M363-639q-40.5 0-68.75-28.25T266-736q0-40.5 28.25-69.25T363-834q40.5 0 69.25 28.75T461-736q0 40.5-28.75 68.75T363-639ZM725-97l-96-169H412q-33 0-58.25-20.25T321-338l-37.5-171q-9-38.5 16.5-70.25T367.5-618q22.5-5 41.75 7.25t40.25 24.25l116 68.5 75-56-22.5-11q-10.5-5.5-14.25-19t2.75-23l68-103.5q5.5-9.5 16-11t20 3l58.5 30q10.5 5.5 13 18t-4 22L716-566l25 23.5-193.5 144-62-64L511-371h133q27.5 0 43.5 12.25T718-321l101 173-94 51Zm-161-23H296.5q-45 0-69.25-20.25T195-204l-83-416h99l82 402h271v98Z"/></svg>