<svg xmlns="http://www.w3.org/2000/svg" height="24" viewBox="0 -960 960 960" width="24"><path d="M300-674q-32.5 0-55.25-22.75T222-752q0-32.5 22.75-55.25T300-830q32.5 0 55.25 22.75T378-752q0 32.5-22.75 55.25T300-674ZM734-50 621-245H347q-28 0-48.75-16.75T272-306l-42.5-215q-9-46.5 20.5-82.25T326.5-639q23.5 0 44.75 10.25t36.25 28.25l95 113.5 100-67-18.5-8q-7.5-3.5-9.75-10.5t1.25-14.5l49-106.5q3.5-7.5 10.5-10t14.5 1l57.5 26q7.5 3.5 10 10.5t-1 14.5L676-566l25 36.5-201.5 134-41-27L475-359h124q20.5 0 37.5 10.75T664-320L800-87l-66 37Zm-215-80H265.5q-33 0-57.75-21.25T176-205L90-639h77l86 434h266v75Z"/></svg>