<svg xmlns="http://www.w3.org/2000/svg" height="20" viewBox="0 -960 960 960" width="20"><path d="M323.44-647.28q-36.44 0-62.02-25.58-25.57-25.57-25.57-62.01 0-36.43 25.57-62.13 25.58-25.7 62.02-25.7 36.43 0 62.13 25.7 25.69 25.7 25.69 62.13 0 36.44-25.69 62.01-25.7 25.58-62.13 25.58ZM713.5-93.85l-96.72-169.43H382.85q-34 0-60-21t-34-54l-40.28-180.89q-7.48-35.44 13.69-65.28 21.18-29.83 57.33-36.83 23-5 44.64 4.98 21.64 9.97 38.84 26.78l97.02 93.87 89.35-61.18-15.77-8q-7.95-3.71-10.81-12.27-2.86-8.55 1.1-16.27l53.78-105.24q3.72-7.72 11.67-9.72 7.96-2 15.68 1.48l53.48 25.96q7.95 3.72 10.57 12.15 2.62 8.44-1.34 16.15l-43.78 87.63 24.2 33.33L479-388.39l-32.89-48.31 20.72 73.83h163.43q21.15 0 37.77 10.22 16.62 10.22 27.82 29.37l105 180-87.35 49.43Zm-176.65-42.02H261.04q-30.54 0-52.21-17.55-21.68-17.56-27.4-47.86l-84-422h80.42l84 408h275v79.41Z"/></svg>