<svg xmlns="http://www.w3.org/2000/svg" height="40" viewBox="0 -960 960 960" width="40"><path d="M307.83-678.68q-35.35 0-60.83-25.48-25.48-25.48-25.48-60.83 0-36.01 25.48-62.1 25.48-26.1 60.83-26.1 36.01 0 62.11 26.1 26.09 26.09 26.09 62.1 0 35.35-26.09 60.83-26.1 25.48-62.11 25.48ZM765.41-22.33 646.75-228.68H352.86q-27.38 0-48.21-15.83-20.84-15.84-25.79-42.17L233.84-518.8q-9.75-49.68 24.62-86.45 34.37-36.76 86.7-36.76 22.67 0 42.51 10.1 19.84 10.11 35.58 25.33L531.9-495.41l86.93-64.46-25.1-12.33q-8.27-4.66-11.09-13.91-2.83-9.25 2.1-16.95l57.42-102.9q4.65-7.98 12.52-10.32 7.86-2.33 16.22 1.76l54.46 27.55q7.89 5.03 10.32 14.17 2.42 9.13-2.13 16.83l-49.09 90.75 25.79 31.8L527.67-395.9l-55.97-37.96 19.03 90.87h132.49q24.29 0 40.57 12.99t29.07 34.65l138 236.67-65.45 36.35Zm-226.55-81.84H267.97q-37.19 0-62.08-22.28-24.89-22.27-31.88-58.9l-91-456.66h83.85l87.33 456.66h284.67v81.18Z"/></svg>