<svg xmlns="http://www.w3.org/2000/svg" height="20" viewBox="0 -960 960 960" width="20"><path d="M348.44-667q-41.7 0-70.4-28.7-28.69-28.69-28.69-70.39 0-41.69 28.69-70.67 28.7-28.98 70.4-28.98 41.69 0 70.39 28.98 28.69 28.98 28.69 70.67 0 41.7-28.69 70.39-28.7 28.7-70.39 28.7ZM731.35-75.83 627.04-259H400.09q-36.31 0-65.39-23.15-29.09-23.15-37.52-59.89L257.87-518.7q-9.56-41.13 16.26-76.56 25.83-35.44 69.09-42.44 26.3-5 49.39 7.29 23.09 12.28 44.22 28.32l92.52 65.83 85.09-60.13-26.79-12.74q-10.69-5.13-14.69-18.17-4-13.05 1.69-23.18l64.05-112.61q5.13-9.56 16.26-12.56 11.13-3 21.26 2.13l61.74 31q10.13 5.13 13.63 17.17 3.5 12.05-2.2 22.18l-58.78 109.61 32.87 41.39L512.31-403 479-449.13l21.26 67.26h145.22q27.39 0 46.04 12.13t31.92 36.09l115.34 198.39-107.43 59.43Zm-181-28.69H277.61q-50.96 0-77.72-21.61-26.76-21.61-36.32-70.87L78.7-624.17h108.34l84 413.17h279.31v106.48Z"/></svg>