<svg xmlns="http://www.w3.org/2000/svg" height="48" viewBox="0 -960 960 960" width="48"><path d="M275-677q-32 0-55-23t-23-55q0-32.5 23-56.25T275-835q32.5 0 56.25 23.75T355-755q0 32-23.75 55T275-677ZM759-25 642.5-227.5h-312q-26 0-46-14.75T260-281l-47.5-250q-9.5-45.5 21.5-79.5t79-34q21.5 0 40.5 9.25t32 25.75L489-475l113-81.5-37-17.5q-5-3-6.75-8.75t.25-10.75l46.5-98q2.5-5.5 7.75-7.25T624-698l54.5 26.5q5 3 6.75 8.75T685-652.5L642.5-560l19.5 29.5-186.5 139-44-33 20 99h165q19.5 0 34.25 11.75T675-285L810-53.5 759-25ZM521.5-125H243q-26 0-43.25-16t-22.25-41.5L85-644.5h60.5l86 462h290v57.5Z"/></svg>