<svg xmlns="http://www.w3.org/2000/svg" height="24" viewBox="0 -960 960 960" width="24"><path d="M312.44-679.28q-34.44 0-59.02-24.58-24.57-24.57-24.57-59.01 0-34.43 24.57-59.13 24.58-24.7 59.02-24.7 34.43 0 59.13 24.7 24.69 24.7 24.69 59.13 0 34.44-24.69 59.01-24.7 24.58-59.13 24.58ZM745.5-37.85 628.78-239.28H354.85q-29 0-50.5-17.5t-27.5-46.5l-42.28-211.89q-9.48-49.44 22.69-86.78 32.18-37.33 82.33-37.33 24 0 46.14 9.98 22.14 9.97 38.34 27.78l97.02 104.87 82.35-56.18-10.77-5q-8.95-4.71-11.81-13.27-2.86-8.55 2.1-17.27l54.78-109.24q4.72-8.72 13.17-11.72 8.46-3 17.18 1.48l54.48 25.96q8.95 4.72 12.07 13.65 3.12 8.94-1.84 17.65l-41.78 81.63 29.2 39.33L523-395.39l-44.89-29.31 14.72 61.83h114.43q23.15 0 41.27 11.72 18.12 11.72 30.32 31.87l140 240-73.35 41.43Zm-216.65-74.02H272.04q-37.54 0-66.71-25.05-29.18-25.06-36.9-62.36l-87-440h89.42l88 440h270v87.41Z"/></svg>