<svg xmlns="http://www.w3.org/2000/svg" height="20" viewBox="0 -960 960 960" width="20"><path d="M305.61-636.46q-32.3 0-55.07-22.77-22.77-22.77-22.77-55.08 0-32.3 22.77-55.07 22.77-22.77 55.07-22.77 32.31 0 55.08 22.77 22.77 22.77 22.77 55.07 0 32.31-22.77 55.08-22.77 22.77-55.08 22.77Zm393.16 528.15L609.69-264H366.31q-30.54 0-53.66-18.88-23.11-18.89-30.34-47.66l-42.93-189.38q-6.61-29 10-54.54Q266-600 295.38-607q21.08-5 40.58 3.92 19.5 8.93 34.73 25l100.85 105.85 105.84-76.15L551-562.15q-5.85-2.62-7.96-9.23-2.12-6.62.11-12.47l42.08-90.38q2.61-6.23 9.04-7.85 6.42-1.61 12.65 1L654.15-658q5.85 2.62 7.77 9.04 1.92 6.42-.31 12.27l-36.69 81.54 17.23 25.38-194 141.08-42.31-59.39L434.31-340h183q16.3 0 30.5 7.96 14.19 7.96 23.03 23.43l94.23 162.3-66.3 38ZM527.23-164h-267q-23.31 0-40.61-13.12-17.31-13.11-21.54-36.42L116-624h52.23l81.69 395.69q.77 4.62 5.39 8.46 4.61 3.85 9.23 3.85h262.69v52Z"/></svg>