<svg xmlns="http://www.w3.org/2000/svg" height="20" viewBox="0 -960 960 960" width="20"><path d="M300.23-621.23q-29.5 0-49.98-20.48-20.48-20.48-20.48-49.98 0-29.5 20.48-49.98 20.48-20.48 49.98-20.48 29.5 0 49.98 20.48 20.48 20.48 20.48 49.98 0 29.5-20.48 49.98-20.48 20.48-49.98 20.48Zm385.62 494.46-80.31-140.31H359.23q-26.46 0-46.33-16.21-19.86-16.21-25.82-40.02l-44.35-194.77q-6.23-23.27 6.69-44.79 12.93-21.51 37.46-28.51 18.66-5 34.99 3.9 16.32 8.9 30.78 22.06l111.54 110.19 120.85-91.62-41.58-21.38q-4.58-2.12-6.06-8.15-1.48-6.04-.13-10.62l34.54-74.42q1.73-4.96 7.27-5.89 5.54-.92 10.88.81l43.42 21.77q4.58 2.11 5.62 7.65 1.04 5.54-.31 9.73l-36.23 82.27 9.62 12.81-173.5 139.15-62.08-76 38.27 149.74h193q13.11 0 24.58 6.36 11.46 6.37 18.65 19.79l81 140.31-46.15 26.15Zm-160-63.38H271.81q-20.62 0-33.64-8.95-13.02-8.94-16.48-29.05l-79.54-395.23h28.39l78.15 379.69q1.54 9.23 10.77 16.92 9.23 7.69 18.46 7.69h247.93v28.93Z"/></svg>