<svg xmlns="http://www.w3.org/2000/svg" height="24" viewBox="0 -960 960 960" width="24"><path d="M294.61-668.46q-30.3 0-52.07-21.77t-21.77-52.08q0-30.3 21.77-52.07t52.07-21.77q30.31 0 52.08 21.77t21.77 52.07q0 30.31-21.77 52.08t-52.08 21.77ZM730.77-52.31 621.69-240H338.31q-25.54 0-44.16-15.38-18.61-15.39-23.84-40.16l-44.93-220.38q-8.61-43 19-76.04Q272-625 315.38-625q22.08 0 42.08 8.92 20 8.93 34.23 26l100.85 116.85 98.84-71.15L570-555.15q-6.85-3.62-8.96-10.23-2.12-6.62 1.11-13.47l43.08-94.38q3.61-7.23 10.54-9.85 6.92-2.61 14.15 1L678.15-659q6.85 3.62 9.27 10.54 2.42 6.92-.81 13.77l-34.69 75.54 22.23 31.38-182 132.08-54.31-40.39L460.31-340h134q18.3 0 34 9.46 15.69 9.46 25.53 25.93l129.23 222.3-52.3 30ZM519.23-140h-248q-30.31 0-55.11-20.62-24.81-20.61-31.04-50.92L100-640h61.23l85.69 427.69q.77 4.62 5.39 8.46 4.61 3.85 9.23 3.85h257.69v60Z"/></svg>