<svg xmlns="http://www.w3.org/2000/svg" height="48" viewBox="0 -960 960 960" width="48"><path d="M299.09-683.56q-36.13 0-61.48-25.35-25.35-25.35-25.35-61.48 0-36.13 25.35-62.76 25.35-26.63 61.48-26.63 36.13 0 62.48 26.63 26.34 26.63 26.34 62.76 0 36.13-26.34 61.48-26.35 25.35-62.48 25.35Zm474.87 670.6L653.22-223.57H347q-27.87 0-48.96-15.65-21.08-15.65-24.95-41.39l-46.87-244.35q-10-49.56 24.69-86.43 34.7-36.87 87.83-36.87 22.3 0 42.17 10.5t34.87 25.11l108.7 115.91 95.61-72.39-34.78-16.74q-8.7-3.56-10.92-12.98-2.21-9.41 2.48-16.54L633.09-717q3.56-7 10.85-9 7.28-2 15.41 1.57L716.09-696q6.56 4.13 8.78 13.04 2.22 8.92-1.91 16.05L672-569l24.31 31.52-180 139.61-53.79-37.3 20.26 100h146.87q23.7 0 39.35 13.56 15.65 13.57 28.35 34.39L836.7-47.83l-62.74 34.87Zm-235.7-88.65h-278.3q-37.13 0-59.55-20.76Q178-143.13 171-178.57L78.13-644.74h79.83l87 466.17h293.3v76.96Z"/></svg>