<svg xmlns="http://www.w3.org/2000/svg" version="1.1" width="3300" height="2000"><g id="Notes"><style>
    text {
      font-family: monospace;
      text-anchor: middle;
    }
    text.emphasis {
      font-weight:bold;
    }
    text.lanchor {
      text-anchor: start;
    }
  </style><rect height="2200" id="artboard" fill="white" width="3300" x="0" y="0"/><line id="" style="fill:none;stroke:black;stroke-width:0.5;" x1="263" x2="3036" y1="292" y2="292"/><text class="lanchor emphasis" transform="matrix(1 0 0 1 263 322)">Weight/Scale Variations</text><text transform="matrix(1 0 0 1 559.711 322)">Ultralight</text><text transform="matrix(1 0 0 1 856.422 322)">Thin</text><text transform="matrix(1 0 0 1 1153.13 322)">Light</text><text transform="matrix(1 0 0 1 1449.84 322)">Regular</text><text transform="matrix(1 0 0 1 1746.56 322)">Medium</text><text transform="matrix(1 0 0 1 2043.27 322)">Semibold</text><text transform="matrix(1 0 0 1 2339.98 322)">Bold</text><text transform="matrix(1 0 0 1 2636.69 322)">Heavy</text><text transform="matrix(1 0 0 1 2933.4 322)">Black</text><text id="template-version" style="text-anchor: end;" transform="matrix(1 0 0 1 3036 1933)">Template v.1.0</text><text class="lanchor" transform="matrix(1 0 0 1 263 726)">Small</text><text class="lanchor" transform="matrix(1 0 0 1 263 1156)">Medium</text><text class="lanchor" transform="matrix(1 0 0 1 263 1586)">Large</text></g><g id="Guides"><g id="H-reference" style="fill:#27AAE1;stroke:none;" transform="matrix(1 0 0 1 339 696)"><path d="M 54.9316 0 L 57.666 0 L 30.5664 -70.459 L 28.0762 -70.459 L 0.976562 0 L 3.66211 0 L 12.9395 -24.4629 L 45.7031 -24.4629 Z M 29.1992 -67.0898 L 29.4434 -67.0898 L 44.8242 -26.709 L 13.8184 -26.709 Z"/></g><line id="Baseline-S" style="fill:none;stroke:#27AAE1;opacity:1;stroke-width:0.577;" x1="263" x2="3036" y1="696" y2="696"/><line id="Capline-S" style="fill:none;stroke:#27AAE1;opacity:1;stroke-width:0.577;" x1="263" x2="3036" y1="625.541" y2="625.541"/><g id="H-reference" style="fill:#27AAE1;stroke:none;" transform="matrix(1 0 0 1 339 1126)"><path d="M 54.9316 0 L 57.666 0 L 30.5664 -70.459 L 28.0762 -70.459 L 0.976562 0 L 3.66211 0 L 12.9395 -24.4629 L 45.7031 -24.4629 Z M 29.1992 -67.0898 L 29.4434 -67.0898 L 44.8242 -26.709 L 13.8184 -26.709 Z"/></g><line id="Baseline-M" style="fill:none;stroke:#27AAE1;opacity:1;stroke-width:0.577;" x1="263" x2="3036" y1="1126" y2="1126"/><line id="Capline-M" style="fill:none;stroke:#27AAE1;opacity:1;stroke-width:0.577;" x1="263" x2="3036" y1="1055.54" y2="1055.54"/><g id="H-reference" style="fill:#27AAE1;stroke:none;" transform="matrix(1 0 0 1 339 1556)"><path d="M 54.9316 0 L 57.666 0 L 30.5664 -70.459 L 28.0762 -70.459 L 0.976562 0 L 3.66211 0 L 12.9395 -24.4629 L 45.7031 -24.4629 Z M 29.1992 -67.0898 L 29.4434 -67.0898 L 44.8242 -26.709 L 13.8184 -26.709 Z"/></g><line id="Baseline-L" style="fill:none;stroke:#27AAE1;opacity:1;stroke-width:0.577;" x1="263" x2="3036" y1="1556" y2="1556"/><line id="Capline-L" style="fill:none;stroke:#27AAE1;opacity:1;stroke-width:0.577;" x1="263" x2="3036" y1="1485.54" y2="1485.54"/><rect height="119.336" id="left-margin" style="fill:darkred;stroke:none;opacity:0.4;" width="12.4512" x="1394.06" y="1030.79"/><rect height="119.336" id="right-margin" style="fill:darkgreen;stroke:none;opacity:0.4;" width="12.4512" x="1502.5112" y="1030.79"/><rect x="1406.5112" y="1045" width="96" height="96" fill="none" stroke="blue" stroke-dasharray="5"/><rect x="1394.06" y="1030.79" width="120.9024" height="119.336" fill="none" stroke="blue"/></g><g id="Symbols"><g id="Bold-L" transform="matrix(1 0 0 1 2266 1556)"><path d="M77.442 39.509 Q73.604 39.509 70.987 36.887 Q68.37 34.266 68.37 30.549 Q68.37 26.771 71.026 24.15 Q73.682 21.53 77.366 21.53 Q81.189 21.53 83.769 24.121 Q86.349 26.713 86.349 30.478 Q86.349 34.349 83.8 36.929 Q81.251 39.509 77.442 39.509 Z M47.383 33.059 Q43.612 33.059 40.833 30.437 Q38.055 27.814 38.055 23.708 Q38.055 19.874 40.856 17.155 Q43.657 14.435 47.374 14.435 Q51.358 14.435 54.019 17.188 Q56.679 19.938 56.679 23.7 Q56.679 27.814 54.049 30.437 Q51.419 33.059 47.383 33.059 Z M107.207 33.059 Q103.4 33.059 100.72 30.437 Q98.04 27.814 98.04 23.708 Q98.04 19.874 100.743 17.155 Q103.445 14.435 107.197 14.435 Q111.182 14.435 113.923 17.188 Q116.664 19.938 116.664 23.7 Q116.664 27.814 113.954 30.437 Q111.243 33.059 107.207 33.059 Z M26.356 12.661 Q22.736 12.661 20.035 9.962 Q17.334 7.264 17.334 3.602 Q17.334 -0.202 20.013 -2.84 Q22.691 -5.479 26.301 -5.479 Q30.036 -5.479 32.674 -2.84 Q35.314 -0.202 35.314 3.535 Q35.314 7.296 32.674 9.978 Q30.036 12.661 26.356 12.661 Z M77.463 12.339 Q61.678 12.339 50.633 1.898 Q39.587 -8.543 39.587 -23.781 Q39.587 -42.406 52.164 -56.958 Q64.742 -71.511 77.4 -82.154 Q90.003 -71.505 102.608 -56.955 Q115.213 -42.406 115.213 -23.781 Q115.213 -8.543 104.23 1.898 Q93.248 12.339 77.463 12.339 Z M128.494 12.984 Q124.517 12.984 121.76 10.207 Q119.002 7.43 119.002 3.52 Q119.002 -0.437 121.753 -3.038 Q124.503 -5.641 128.463 -5.641 Q132.467 -5.641 135.047 -3.038 Q137.627 -0.437 137.627 3.52 Q137.627 7.43 134.999 10.207 Q132.37 12.984 128.494 12.984 Z M93.585 -8.772 Q100.297 -14.966 100.297 -24.104 Q100.297 -37.326 92.759 -46.437 Q85.221 -55.547 77.4 -63.126 Q69.66 -55.547 62.081 -46.437 Q54.503 -37.326 54.503 -24.104 Q54.503 -14.966 61.273 -8.772 Q68.044 -2.577 77.458 -2.577 Q86.872 -2.577 93.585 -8.772 Z M77.418 -11.526 Q82.924 -11.526 86.854 -15.487 Q90.784 -19.448 90.784 -24.918 Q90.784 -30.392 86.854 -34.504 Q82.924 -38.616 77.418 -38.616 Q71.834 -38.616 67.764 -34.546 Q63.694 -30.478 63.694 -24.939 Q63.694 -19.508 67.764 -15.517 Q71.834 -11.526 77.418 -11.526 Z M77.473 -93.925 Q73.772 -93.925 71.111 -96.503 Q68.451 -99.08 68.451 -102.823 Q68.451 -106.546 71.089 -109.224 Q73.727 -111.904 77.418 -111.904 Q81.072 -111.904 83.75 -109.255 Q86.43 -106.607 86.43 -102.9 Q86.43 -99.004 83.75 -96.465 Q81.072 -93.925 77.473 -93.925 Z"/></g><g id="Semibold-L" transform="matrix(1 0 0 1 1970.27 1556)"><path d="M77.468 37.126 Q74.096 37.126 71.829 34.864 Q69.562 32.601 69.562 29.326 Q69.562 26.069 71.858 23.8 Q74.152 21.53 77.395 21.53 Q80.699 21.53 82.928 23.784 Q85.158 26.039 85.158 29.26 Q85.158 32.668 82.945 34.896 Q80.733 37.126 77.468 37.126 Z M48.249 30.745 Q44.944 30.745 42.517 28.473 Q40.088 26.201 40.088 22.654 Q40.088 19.384 42.528 17.015 Q44.969 14.645 48.244 14.645 Q51.708 14.645 54.019 17.033 Q56.329 19.421 56.329 22.649 Q56.329 26.201 54.036 28.473 Q51.744 30.745 48.249 30.745 Z M106.391 30.745 Q103.05 30.745 100.72 28.473 Q98.39 26.201 98.39 22.654 Q98.39 19.384 100.733 17.015 Q103.074 14.645 106.386 14.645 Q109.85 14.645 112.241 17.033 Q114.631 19.421 114.631 22.649 Q114.631 26.201 112.257 28.473 Q109.884 30.745 106.391 30.745 Z M28.465 10.699 Q25.26 10.699 22.944 8.395 Q20.629 6.092 20.629 2.87 Q20.629 -0.411 22.939 -2.699 Q25.249 -4.989 28.406 -4.989 Q31.649 -4.989 33.937 -2.699 Q36.225 -0.411 36.225 2.804 Q36.225 6.124 33.937 8.411 Q31.649 10.699 28.465 10.699 Z M77.458 10.586 Q62.38 10.586 51.755 0.635 Q41.128 -9.314 41.128 -23.957 Q41.128 -41.424 53.111 -55.731 Q65.092 -70.039 77.4 -80.401 Q89.682 -70.026 101.676 -55.725 Q113.672 -41.424 113.672 -23.957 Q113.672 -9.314 103.103 0.635 Q92.537 10.586 77.458 10.586 Z M126.389 11.021 Q122.905 11.021 120.497 8.63 Q118.091 6.239 118.091 2.815 Q118.091 -0.579 120.491 -2.864 Q122.89 -5.15 126.362 -5.15 Q129.803 -5.15 132.067 -2.864 Q134.333 -0.579 134.333 2.815 Q134.333 6.239 132.033 8.63 Q129.734 11.021 126.389 11.021 Z M94.215 -8.269 Q101.209 -14.663 101.209 -24.173 Q101.209 -37.046 93.285 -46.753 Q85.361 -56.459 77.4 -64.458 Q69.52 -56.459 61.556 -46.753 Q53.591 -37.046 53.591 -24.173 Q53.591 -14.663 60.625 -8.269 Q67.66 -1.875 77.442 -1.875 Q87.223 -1.875 94.215 -8.269 Z M77.419 -11.876 Q82.855 -11.876 86.749 -15.767 Q90.643 -19.658 90.643 -25.199 Q90.643 -30.602 86.749 -34.645 Q82.855 -38.686 77.419 -38.686 Q71.834 -38.686 67.835 -34.687 Q63.834 -30.688 63.834 -25.22 Q63.834 -19.718 67.835 -15.798 Q71.834 -11.876 77.419 -11.876 Z M77.479 -93.154 Q74.193 -93.154 71.918 -95.371 Q69.642 -97.589 69.642 -100.891 Q69.642 -104.092 71.911 -106.42 Q74.181 -108.75 77.418 -108.75 Q80.58 -108.75 82.91 -106.438 Q85.238 -104.127 85.238 -100.964 Q85.238 -97.532 82.91 -95.342 Q80.58 -93.154 77.479 -93.154 Z"/></g><g id="Medium-L" transform="matrix(1 0 0 1 1674.31 1556)"><path d="M77.487 35.338 Q74.464 35.338 72.459 33.346 Q70.455 31.353 70.455 28.411 Q70.455 25.544 72.48 23.538 Q74.507 21.53 77.418 21.53 Q80.33 21.53 82.297 23.531 Q84.264 25.532 84.264 28.346 Q84.264 31.405 82.305 33.371 Q80.344 35.338 77.487 35.338 Z M48.901 29.01 Q45.943 29.01 43.778 27.001 Q41.614 24.992 41.614 21.862 Q41.614 19.016 43.784 16.909 Q45.955 14.803 48.897 14.803 Q51.971 14.803 54.019 16.917 Q56.067 19.031 56.067 21.861 Q56.067 24.992 54.027 27.001 Q51.987 29.01 48.901 29.01 Z M105.78 29.01 Q102.787 29.01 100.72 27.001 Q98.653 24.992 98.653 21.862 Q98.653 19.016 100.725 16.909 Q102.797 14.803 105.777 14.803 Q108.85 14.803 110.979 16.917 Q113.106 19.031 113.106 21.861 Q113.106 24.992 110.985 27.001 Q108.865 29.01 105.78 29.01 Z M30.047 9.227 Q27.153 9.227 25.128 7.219 Q23.101 5.212 23.101 2.322 Q23.101 -0.569 25.134 -2.595 Q27.167 -4.62 29.983 -4.62 Q32.858 -4.62 34.883 -2.595 Q36.909 -0.569 36.909 2.256 Q36.909 5.244 34.883 7.235 Q32.858 9.227 30.047 9.227 Z M77.455 9.272 Q62.905 9.272 52.595 -0.311 Q42.286 -9.893 42.286 -24.088 Q42.286 -40.688 53.82 -54.811 Q65.355 -68.934 77.4 -79.087 Q89.442 -68.918 100.978 -54.803 Q112.514 -40.688 112.514 -24.088 Q112.514 -9.893 102.258 -0.311 Q92.003 9.272 77.455 9.272 Z M124.812 9.549 Q121.695 9.549 119.551 7.446 Q117.408 5.344 117.408 2.285 Q117.408 -0.687 119.544 -2.735 Q121.681 -4.781 124.788 -4.781 Q127.805 -4.781 129.832 -2.735 Q131.861 -0.687 131.861 2.285 Q131.861 5.344 129.809 7.446 Q127.757 9.549 124.812 9.549 Z M94.689 -7.892 Q101.892 -14.435 101.892 -24.226 Q101.892 -36.836 93.68 -46.988 Q85.466 -57.142 77.4 -65.458 Q69.415 -57.142 61.161 -46.988 Q52.908 -36.836 52.908 -24.226 Q52.908 -14.435 60.14 -7.892 Q67.372 -1.35 77.429 -1.35 Q87.486 -1.35 94.689 -7.892 Z M77.419 -12.139 Q82.802 -12.139 86.67 -15.978 Q90.539 -19.816 90.539 -25.41 Q90.539 -30.76 86.67 -34.749 Q82.802 -38.739 77.419 -38.739 Q71.834 -38.739 67.886 -34.791 Q63.939 -30.846 63.939 -25.431 Q63.939 -19.876 67.886 -16.007 Q71.834 -12.139 77.419 -12.139 Z M77.482 -92.575 Q74.509 -92.575 72.522 -94.523 Q70.536 -96.471 70.536 -99.441 Q70.536 -102.252 72.529 -104.318 Q74.522 -106.383 77.418 -106.383 Q80.212 -106.383 82.278 -104.324 Q84.345 -102.266 84.345 -99.511 Q84.345 -96.428 82.278 -94.502 Q80.212 -92.575 77.482 -92.575 Z"/></g><g id="Regular-L" transform="matrix(1 0 0 1 1378.56 1556)"><path d="M77.502 34.027 Q74.733 34.027 72.922 32.232 Q71.111 30.439 71.111 27.738 Q71.111 25.158 72.938 23.344 Q74.765 21.53 77.434 21.53 Q80.061 21.53 81.834 23.346 Q83.608 25.161 83.608 27.677 Q83.608 30.479 81.834 32.253 Q80.061 34.027 77.502 34.027 Z M49.376 27.738 Q46.675 27.738 44.703 25.922 Q42.731 24.105 42.731 21.282 Q42.731 18.745 44.703 16.833 Q46.675 14.919 49.376 14.919 Q52.164 14.919 54.019 16.833 Q55.873 18.745 55.873 21.282 Q55.873 24.105 54.019 25.922 Q52.164 27.738 49.376 27.738 Z M105.33 27.738 Q102.594 27.738 100.72 25.922 Q98.846 24.105 98.846 21.282 Q98.846 18.745 100.72 16.833 Q102.594 14.919 105.33 14.919 Q108.118 14.919 110.053 16.833 Q111.988 18.745 111.988 21.282 Q111.988 24.105 110.053 25.922 Q108.118 27.738 105.33 27.738 Z M31.207 8.146 Q28.541 8.146 26.727 6.356 Q24.913 4.567 24.913 1.92 Q24.913 -0.685 26.743 -2.517 Q28.573 -4.351 31.139 -4.351 Q33.745 -4.351 35.577 -2.517 Q37.41 -0.685 37.41 1.853 Q37.41 4.599 35.577 6.373 Q33.745 8.146 31.207 8.146 Z M77.452 8.308 Q63.291 8.308 53.212 -1.005 Q43.134 -10.317 43.134 -24.184 Q43.134 -40.148 54.341 -54.137 Q65.548 -68.125 77.4 -78.122 Q89.265 -68.106 100.465 -54.127 Q111.666 -40.148 111.666 -24.184 Q111.666 -10.317 101.639 -1.005 Q91.613 8.308 77.452 8.308 Z M123.656 8.469 Q120.809 8.469 118.857 6.579 Q116.906 4.689 116.906 1.896 Q116.906 -0.766 118.851 -2.638 Q120.794 -4.512 123.632 -4.512 Q126.339 -4.512 128.194 -2.638 Q130.048 -0.766 130.048 1.896 Q130.048 4.689 128.178 6.579 Q126.307 8.469 123.656 8.469 Z M95.036 -7.616 Q102.394 -14.267 102.394 -24.265 Q102.394 -36.681 93.968 -47.162 Q85.543 -57.644 77.4 -66.19 Q69.338 -57.644 60.872 -47.162 Q52.406 -36.681 52.406 -24.265 Q52.406 -14.267 59.783 -7.616 Q67.161 -0.964 77.419 -0.964 Q87.678 -0.964 95.036 -7.616 Z M77.419 -12.332 Q82.763 -12.332 86.612 -16.132 Q90.461 -19.932 90.461 -25.565 Q90.461 -30.876 86.612 -34.827 Q82.763 -38.777 77.419 -38.777 Q71.834 -38.777 67.925 -34.869 Q64.016 -30.962 64.016 -25.586 Q64.016 -19.992 67.925 -16.162 Q71.834 -12.332 77.419 -12.332 Z M77.485 -92.151 Q74.739 -92.151 72.966 -93.901 Q71.192 -95.65 71.192 -98.377 Q71.192 -100.902 72.982 -102.774 Q74.772 -104.648 77.418 -104.648 Q79.943 -104.648 81.815 -102.774 Q83.689 -100.902 83.689 -98.445 Q83.689 -95.618 81.815 -93.885 Q79.943 -92.151 77.485 -92.151 Z"/></g><g id="Light-L" transform="matrix(1 0 0 1 1082.77 1556)"><path d="M77.46 30.523 Q75.199 30.523 73.744 29.072 Q72.29 27.622 72.29 25.381 Q72.29 23.36 73.765 21.856 Q75.239 20.351 77.434 20.351 Q79.564 20.351 81.012 21.857 Q82.46 23.363 82.46 25.336 Q82.46 27.654 81.012 29.088 Q79.564 30.523 77.46 30.523 Z M50.326 24.45 Q48.196 24.45 46.611 22.978 Q45.026 21.504 45.026 19.142 Q45.026 17.163 46.611 15.591 Q48.194 14.019 50.37 14.019 Q52.598 14.019 54.127 15.591 Q55.655 17.163 55.655 19.156 Q55.655 21.496 54.127 22.973 Q52.598 24.45 50.326 24.45 Z M104.385 24.45 Q102.133 24.45 100.614 22.978 Q99.095 21.504 99.095 19.142 Q99.095 17.163 100.617 15.591 Q102.137 14.019 104.4 14.019 Q106.63 14.019 108.176 15.591 Q109.724 17.163 109.724 19.156 Q109.724 21.496 108.176 22.973 Q106.63 24.45 104.385 24.45 Z M32.869 5.603 Q30.742 5.603 29.239 4.157 Q27.735 2.711 27.735 0.524 Q27.735 -1.584 29.251 -3.077 Q30.767 -4.568 32.818 -4.568 Q34.924 -4.568 36.415 -3.077 Q37.907 -1.584 37.907 0.5 Q37.907 2.738 36.415 4.171 Q34.924 5.603 32.869 5.603 Z M77.46 5.702 Q64.19 5.702 54.748 -3.051 Q45.305 -11.805 45.305 -24.773 Q45.305 -39.745 55.83 -52.803 Q66.354 -65.861 77.4 -75.146 Q88.471 -65.834 98.999 -52.805 Q109.526 -39.776 109.526 -24.773 Q109.526 -11.805 100.128 -3.051 Q90.729 5.702 77.46 5.702 Z M121.987 5.802 Q119.654 5.802 118.095 4.291 Q116.534 2.78 116.534 0.501 Q116.534 -1.664 118.091 -3.165 Q119.649 -4.667 121.963 -4.667 Q124.2 -4.667 125.681 -3.178 Q127.163 -1.69 127.163 0.516 Q127.163 2.772 125.683 4.288 Q124.201 5.802 121.987 5.802 Z M95.079 -8.105 Q102.455 -14.842 102.455 -24.854 Q102.455 -37.239 93.938 -47.441 Q85.419 -57.644 77.4 -66.19 Q69.462 -57.644 60.919 -47.425 Q52.376 -37.209 52.376 -24.854 Q52.376 -14.842 59.753 -8.105 Q67.13 -1.367 77.416 -1.367 Q87.702 -1.367 95.079 -8.105 Z M77.431 -13.232 Q82.578 -13.232 86.364 -16.902 Q90.152 -20.574 90.152 -26.031 Q90.152 -31.228 86.364 -35.049 Q82.578 -38.871 77.403 -38.871 Q72.113 -38.871 68.344 -35.093 Q64.574 -31.316 64.574 -26.058 Q64.574 -20.643 68.357 -16.938 Q72.142 -13.232 77.431 -13.232 Z M77.503 -89.205 Q75.297 -89.205 73.835 -90.64 Q72.371 -92.075 72.371 -94.286 Q72.371 -96.311 73.846 -97.843 Q75.321 -99.377 77.452 -99.377 Q79.477 -99.377 81.009 -97.843 Q82.541 -96.311 82.541 -94.339 Q82.541 -92.051 81.009 -90.629 Q79.477 -89.205 77.503 -89.205 Z"/></g><g id="Thin-L" transform="matrix(1 0 0 1 787.282 1556)"><path d="M77.416 27.019 Q75.663 27.019 74.565 25.911 Q73.469 24.803 73.469 23.025 Q73.469 21.561 74.591 20.367 Q75.713 19.173 77.434 19.173 Q79.069 19.173 80.191 20.369 Q81.314 21.564 81.314 22.994 Q81.314 24.828 80.191 25.924 Q79.069 27.019 77.416 27.019 Z M51.274 21.164 Q49.715 21.164 48.519 20.034 Q47.32 18.905 47.32 17.002 Q47.32 15.583 48.517 14.351 Q49.712 13.121 51.361 13.121 Q53.032 13.121 54.236 14.351 Q55.439 15.583 55.439 17.033 Q55.439 18.889 54.236 20.026 Q53.032 21.164 51.274 21.164 Z M103.44 21.164 Q101.671 21.164 100.507 20.034 Q99.343 18.905 99.343 17.002 Q99.343 15.583 100.512 14.351 Q101.681 13.121 103.471 13.121 Q105.141 13.121 106.301 14.351 Q107.46 15.583 107.46 17.033 Q107.46 18.889 106.301 20.026 Q105.141 21.164 103.44 21.164 Z M34.532 3.06 Q32.945 3.06 31.75 1.957 Q30.557 0.855 30.557 -0.871 Q30.557 -2.483 31.758 -3.635 Q32.961 -4.784 34.495 -4.784 Q36.101 -4.784 37.252 -3.635 Q38.402 -2.483 38.402 -0.853 Q38.402 0.877 37.252 1.969 Q36.101 3.06 34.532 3.06 Z M77.468 3.098 Q65.089 3.098 56.283 -5.097 Q47.475 -13.294 47.475 -25.363 Q47.475 -39.342 57.318 -51.469 Q67.161 -63.597 77.4 -72.169 Q87.678 -63.563 97.532 -51.484 Q107.386 -39.403 107.386 -25.363 Q107.386 -13.294 98.616 -5.097 Q89.847 3.098 77.468 3.098 Z M120.318 3.135 Q118.501 3.135 117.332 2.004 Q116.161 0.872 116.161 -0.893 Q116.161 -2.564 117.332 -3.693 Q118.503 -4.821 120.293 -4.821 Q122.06 -4.821 123.171 -3.719 Q124.28 -2.614 124.28 -0.864 Q124.28 0.856 123.189 1.996 Q122.097 3.135 120.318 3.135 Z M95.121 -8.593 Q102.518 -15.414 102.518 -25.444 Q102.518 -37.797 93.907 -47.72 Q85.295 -57.644 77.4 -66.19 Q69.586 -57.644 60.965 -47.69 Q52.345 -37.736 52.345 -25.444 Q52.345 -15.414 59.722 -8.593 Q67.099 -1.771 77.411 -1.771 Q87.725 -1.771 95.121 -8.593 Z M77.44 -14.13 Q82.392 -14.13 86.116 -17.673 Q89.84 -21.216 89.84 -26.495 Q89.84 -31.581 86.116 -35.272 Q82.392 -38.963 77.387 -38.963 Q72.392 -38.963 68.762 -35.319 Q65.132 -31.673 65.132 -26.529 Q65.132 -21.295 68.791 -17.713 Q72.448 -14.13 77.44 -14.13 Z M77.523 -86.259 Q75.855 -86.259 74.702 -87.381 Q73.549 -88.502 73.549 -90.197 Q73.549 -91.722 74.71 -92.914 Q75.871 -94.106 77.485 -94.106 Q79.013 -94.106 80.203 -92.914 Q81.394 -91.722 81.394 -90.234 Q81.394 -88.486 80.203 -87.373 Q79.013 -86.259 77.523 -86.259 Z"/></g><g id="Ultralight-L" transform="matrix(1 0 0 1 491.205 1556)"><path d="M77.392 24.916 Q75.942 24.916 75.059 24.015 Q74.175 23.113 74.175 21.611 Q74.175 20.482 75.086 19.474 Q75.997 18.466 77.434 18.466 Q78.771 18.466 79.698 19.476 Q80.625 20.485 80.625 21.588 Q80.625 23.133 79.698 24.025 Q78.771 24.916 77.392 24.916 Z M51.843 19.192 Q50.626 19.192 49.662 18.268 Q48.697 17.344 48.697 15.719 Q48.697 14.633 49.66 13.608 Q50.623 12.581 51.956 12.581 Q53.293 12.581 54.301 13.608 Q55.309 14.633 55.309 15.757 Q55.309 17.323 54.301 18.258 Q53.293 19.192 51.843 19.192 Z M102.873 19.192 Q101.394 19.192 100.443 18.268 Q99.491 17.344 99.491 15.719 Q99.491 14.633 100.449 13.608 Q101.407 12.581 102.911 12.581 Q104.248 12.581 105.175 13.608 Q106.103 14.633 106.103 15.757 Q106.103 17.323 105.175 18.258 Q104.248 19.192 102.873 19.192 Z M35.528 1.535 Q34.266 1.535 33.258 0.637 Q32.25 -0.26 32.25 -1.708 Q32.25 -3.024 33.264 -3.968 Q34.277 -4.915 35.501 -4.915 Q36.809 -4.915 37.753 -3.968 Q38.7 -3.024 38.7 -1.664 Q38.7 -0.239 37.753 0.648 Q36.809 1.535 35.528 1.535 Z M77.473 1.535 Q65.629 1.535 57.203 -6.326 Q48.778 -14.187 48.778 -25.716 Q48.778 -39.1 58.211 -50.67 Q67.644 -62.239 77.4 -70.382 Q87.202 -62.201 96.653 -50.691 Q106.103 -39.181 106.103 -25.716 Q106.103 -14.187 97.709 -6.326 Q89.316 1.535 77.473 1.535 Z M119.317 1.535 Q117.809 1.535 116.874 0.63 Q115.939 -0.273 115.939 -1.732 Q115.939 -3.104 116.877 -4.009 Q117.816 -4.915 119.291 -4.915 Q120.776 -4.915 121.663 -4.041 Q122.55 -3.169 122.55 -1.692 Q122.55 -0.294 121.692 0.621 Q120.833 1.535 119.317 1.535 Z M95.147 -8.885 Q102.555 -15.759 102.555 -25.797 Q102.555 -38.132 93.888 -47.888 Q85.221 -57.644 77.4 -66.19 Q69.66 -57.644 60.993 -47.848 Q52.326 -38.052 52.326 -25.797 Q52.326 -15.759 59.703 -8.885 Q67.08 -2.012 77.41 -2.012 Q87.739 -2.012 95.147 -8.885 Z M77.447 -14.671 Q82.279 -14.671 85.967 -18.136 Q89.655 -21.601 89.655 -26.774 Q89.655 -31.791 85.967 -35.406 Q82.279 -39.019 77.377 -39.019 Q72.559 -39.019 69.013 -35.453 Q65.468 -31.886 65.468 -26.813 Q65.468 -21.685 69.049 -18.178 Q72.632 -14.671 77.447 -14.671 Z M77.534 -84.492 Q76.191 -84.492 75.223 -85.426 Q74.256 -86.358 74.256 -87.743 Q74.256 -88.97 75.23 -89.955 Q76.202 -90.942 77.506 -90.942 Q78.734 -90.942 79.719 -89.955 Q80.706 -88.97 80.706 -87.77 Q80.706 -86.346 79.719 -85.419 Q78.734 -84.492 77.534 -84.492 Z"/></g><g id="Bold-M" transform="matrix(1 0 0 1 2281.8 1126)"><path d="M60.026 24.145 Q56.37 24.145 53.748 21.548 Q51.125 18.951 51.125 15.333 Q51.125 11.708 53.748 9.114 Q56.37 6.52 60.026 6.52 Q63.688 6.52 66.219 9.115 Q68.75 11.71 68.75 15.338 Q68.75 18.958 66.219 21.551 Q63.688 24.145 60.026 24.145 Z M37.276 18.958 Q33.62 18.958 30.997 16.395 Q28.375 13.833 28.375 10.069 Q28.375 6.424 30.997 3.754 Q33.62 1.083 37.276 1.083 Q40.938 1.083 43.469 3.754 Q46 6.424 46 10.069 Q46 13.833 43.469 16.395 Q40.938 18.958 37.276 18.958 Z M82.776 18.958 Q79.12 18.958 76.498 16.395 Q73.875 13.833 73.875 10.069 Q73.875 6.424 76.498 3.754 Q79.12 1.083 82.776 1.083 Q86.438 1.083 88.969 3.754 Q91.5 6.424 91.5 10.069 Q91.5 13.833 88.969 16.395 Q86.438 18.958 82.776 18.958 Z M20.514 3.395 Q16.875 3.395 14.312 0.77 Q11.75 -1.855 11.75 -5.494 Q11.75 -9.139 14.312 -11.684 Q16.875 -14.23 20.514 -14.23 Q24.159 -14.23 26.766 -11.684 Q29.375 -9.139 29.375 -5.494 Q29.375 -1.855 26.766 0.77 Q24.159 3.395 20.514 3.395 Z M60.009 2.895 Q47.375 2.895 38.531 -5.761 Q29.688 -14.417 29.688 -26.98 Q29.688 -41.23 39.75 -53.074 Q49.812 -64.917 60 -73.855 Q70.073 -64.902 80.161 -53.035 Q90.25 -41.167 90.25 -26.98 Q90.25 -14.417 81.446 -5.761 Q72.644 2.895 60.009 2.895 Z M99.5 3.395 Q95.855 3.395 93.24 0.77 Q90.625 -1.855 90.625 -5.494 Q90.625 -9.139 93.235 -11.684 Q95.845 -14.23 99.483 -14.23 Q103.125 -14.23 105.688 -11.684 Q108.25 -9.139 108.25 -5.494 Q108.25 -1.855 105.675 0.77 Q103.1 3.395 99.5 3.395 Z M70.703 -16.574 Q75.125 -20.917 75.125 -27.042 Q75.125 -35.355 70.344 -42.011 Q65.562 -48.667 60 -53.48 Q54.5 -48.667 49.656 -42.042 Q44.812 -35.417 44.812 -27.042 Q44.812 -20.917 49.281 -16.574 Q53.75 -12.23 60.015 -12.23 Q66.28 -12.23 70.703 -16.574 Z M60.029 -17.292 Q64.312 -17.292 67.219 -20.261 Q70.125 -23.23 70.125 -27.321 Q70.125 -31.542 67.219 -34.542 Q64.312 -37.542 60.029 -37.542 Q55.748 -37.542 52.811 -34.554 Q49.875 -31.564 49.875 -27.292 Q49.875 -23.23 52.811 -20.261 Q55.748 -17.292 60.029 -17.292 Z M59.951 -79.167 Q56.312 -79.167 53.75 -81.73 Q51.188 -84.292 51.188 -87.931 Q51.188 -91.576 53.75 -94.184 Q56.312 -96.792 59.951 -96.792 Q63.596 -96.792 66.204 -94.184 Q68.812 -91.576 68.812 -87.931 Q68.812 -84.292 66.204 -81.73 Q63.596 -79.167 59.951 -79.167 Z"/></g><g id="Semibold-M" transform="matrix(1 0 0 1 1985.97 1126)"><path d="M60.026 21.645 Q56.86 21.645 54.617 19.429 Q52.375 17.213 52.375 14.083 Q52.375 11.001 54.617 8.76 Q56.86 6.52 60.026 6.52 Q63.144 6.52 65.323 8.761 Q67.5 11.004 67.5 14.088 Q67.5 17.219 65.323 19.431 Q63.144 21.645 60.026 21.645 Z M38.146 16.566 Q34.979 16.566 32.736 14.384 Q30.495 12.203 30.495 8.981 Q30.495 5.88 32.736 3.59 Q34.979 1.3 38.146 1.3 Q41.264 1.3 43.441 3.59 Q45.62 5.88 45.62 8.981 Q45.62 12.203 43.441 14.384 Q41.264 16.566 38.146 16.566 Z M81.907 16.566 Q78.74 16.566 76.498 14.384 Q74.255 12.203 74.255 8.981 Q74.255 5.88 76.498 3.59 Q78.74 1.3 81.907 1.3 Q85.025 1.3 87.203 3.59 Q89.38 5.88 89.38 8.981 Q89.38 12.203 87.203 14.384 Q85.025 16.566 81.907 16.566 Z M22.688 1.384 Q19.538 1.384 17.356 -0.834 Q15.174 -3.05 15.174 -6.2 Q15.174 -9.301 17.356 -11.521 Q19.538 -13.741 22.688 -13.741 Q25.789 -13.741 28.044 -11.521 Q30.299 -9.301 30.299 -6.2 Q30.299 -3.05 28.044 -0.834 Q25.789 1.384 22.688 1.384 Z M60.009 1.101 Q48.081 1.101 39.672 -7.092 Q31.264 -15.287 31.264 -27.142 Q31.264 -40.251 40.755 -51.824 Q50.248 -63.396 60 -72.061 Q69.692 -63.381 79.184 -51.785 Q88.674 -40.189 88.674 -27.142 Q88.674 -15.287 80.305 -7.092 Q71.938 1.101 60.009 1.101 Z M97.326 1.384 Q94.17 1.384 91.936 -0.834 Q89.701 -3.05 89.701 -6.2 Q89.701 -9.301 91.93 -11.521 Q94.16 -13.741 97.309 -13.741 Q100.407 -13.741 102.618 -11.521 Q104.826 -9.301 104.826 -6.2 Q104.826 -3.05 102.605 -0.834 Q100.382 1.384 97.326 1.384 Z M71.355 -16.085 Q76.049 -20.646 76.049 -27.151 Q76.049 -35.029 70.832 -42.337 Q65.616 -49.646 60 -54.892 Q54.391 -49.646 49.14 -42.369 Q43.889 -35.091 43.889 -27.151 Q43.889 -20.646 48.629 -16.085 Q53.37 -11.524 60.015 -11.524 Q66.661 -11.524 71.355 -16.085 Z M60.029 -17.672 Q64.204 -17.672 67.082 -20.587 Q69.963 -23.501 69.963 -27.594 Q69.963 -31.705 67.082 -34.651 Q64.204 -37.596 60.029 -37.596 Q55.803 -37.596 52.92 -34.662 Q50.038 -31.727 50.038 -27.564 Q50.038 -23.501 52.92 -20.587 Q55.803 -17.672 60.029 -17.672 Z M59.951 -78.406 Q56.801 -78.406 54.62 -80.589 Q52.438 -82.771 52.438 -85.921 Q52.438 -89.021 54.62 -91.276 Q56.801 -93.531 59.951 -93.531 Q63.053 -93.531 65.308 -91.276 Q67.562 -89.021 67.562 -85.921 Q67.562 -82.771 65.308 -80.589 Q63.053 -78.406 59.951 -78.406 Z"/></g><g id="Medium-M" transform="matrix(1 0 0 1 1689.91 1126)"><path d="M60.026 19.77 Q57.226 19.77 55.27 17.839 Q53.312 15.908 53.312 13.145 Q53.312 10.471 55.27 8.495 Q57.226 6.52 60.026 6.52 Q62.736 6.52 64.65 8.496 Q66.562 10.474 66.562 13.15 Q66.562 15.914 64.65 17.843 Q62.736 19.77 60.026 19.77 Z M38.799 14.773 Q35.999 14.773 34.041 12.876 Q32.084 10.979 32.084 8.166 Q32.084 5.473 34.041 3.468 Q35.999 1.463 38.799 1.463 Q41.509 1.463 43.421 3.468 Q45.334 5.473 45.334 8.166 Q45.334 10.979 43.421 12.876 Q41.509 14.773 38.799 14.773 Z M81.255 14.773 Q78.455 14.773 76.498 12.876 Q74.541 10.979 74.541 8.166 Q74.541 5.473 76.498 3.468 Q78.455 1.463 81.255 1.463 Q83.965 1.463 85.877 3.468 Q87.791 5.473 87.791 8.166 Q87.791 10.979 85.877 12.876 Q83.965 14.773 81.255 14.773 Z M24.319 -0.124 Q21.535 -0.124 19.639 -2.036 Q17.741 -3.947 17.741 -6.73 Q17.741 -9.424 19.639 -11.399 Q21.535 -13.374 24.319 -13.374 Q27.011 -13.374 29.001 -11.399 Q30.991 -9.424 30.991 -6.73 Q30.991 -3.947 29.001 -2.036 Q27.011 -0.124 24.319 -0.124 Z M60.009 -0.244 Q48.611 -0.244 40.529 -8.091 Q32.446 -15.939 32.446 -27.265 Q32.446 -39.517 41.51 -50.886 Q50.574 -62.255 60 -70.716 Q69.407 -62.239 78.45 -50.847 Q87.491 -39.455 87.491 -27.265 Q87.491 -15.939 79.45 -8.091 Q71.407 -0.244 60.009 -0.244 Z M95.696 -0.124 Q92.906 -0.124 90.957 -2.036 Q89.009 -3.947 89.009 -6.73 Q89.009 -9.424 90.953 -11.399 Q92.896 -13.374 95.677 -13.374 Q98.37 -13.374 100.314 -11.399 Q102.259 -9.424 102.259 -6.73 Q102.259 -3.947 100.301 -2.036 Q98.345 -0.124 95.696 -0.124 Z M71.844 -15.717 Q76.741 -20.442 76.741 -27.232 Q76.741 -34.784 71.2 -42.582 Q65.657 -50.38 60 -55.952 Q54.31 -50.38 48.752 -42.614 Q43.196 -34.846 43.196 -27.232 Q43.196 -20.442 48.14 -15.717 Q53.084 -10.994 60.015 -10.994 Q66.946 -10.994 71.844 -15.717 Z M60.029 -17.959 Q64.123 -17.959 66.981 -20.832 Q69.84 -23.705 69.84 -27.797 Q69.84 -31.827 66.981 -34.732 Q64.123 -37.637 60.029 -37.637 Q55.843 -37.637 53.001 -34.744 Q50.16 -31.85 50.16 -27.767 Q50.16 -23.705 53.001 -20.832 Q55.843 -17.959 60.029 -17.959 Z M59.951 -77.836 Q57.169 -77.836 55.271 -79.732 Q53.375 -81.63 53.375 -84.412 Q53.375 -87.106 55.271 -89.096 Q57.169 -91.086 59.951 -91.086 Q62.645 -91.086 64.635 -89.096 Q66.625 -87.106 66.625 -84.412 Q66.625 -81.63 64.635 -79.732 Q62.645 -77.836 59.951 -77.836 Z"/></g><g id="Regular-M" transform="matrix(1 0 0 1 1394.06 1126)"><path d="M60.026 18.395 Q57.495 18.395 55.748 16.673 Q54 14.951 54 12.458 Q54 10.083 55.748 8.301 Q57.495 6.52 60.026 6.52 Q62.438 6.52 64.156 8.303 Q65.875 10.085 65.875 12.463 Q65.875 14.958 64.156 16.676 Q62.438 18.395 60.026 18.395 Z M39.276 13.458 Q36.745 13.458 34.998 11.77 Q33.25 10.083 33.25 7.569 Q33.25 5.174 34.998 3.379 Q36.745 1.583 39.276 1.583 Q41.688 1.583 43.406 3.379 Q45.125 5.174 45.125 7.569 Q45.125 10.083 43.406 11.77 Q41.688 13.458 39.276 13.458 Z M80.776 13.458 Q78.245 13.458 76.498 11.77 Q74.75 10.083 74.75 7.569 Q74.75 5.174 76.498 3.379 Q78.245 1.583 80.776 1.583 Q83.188 1.583 84.906 3.379 Q86.625 5.174 86.625 7.569 Q86.625 10.083 84.906 11.77 Q83.188 13.458 80.776 13.458 Z M25.514 -1.23 Q23 -1.23 21.312 -2.917 Q19.625 -4.605 19.625 -7.119 Q19.625 -9.514 21.312 -11.309 Q23 -13.105 25.514 -13.105 Q27.909 -13.105 29.704 -11.309 Q31.5 -9.514 31.5 -7.119 Q31.5 -4.605 29.704 -2.917 Q27.909 -1.23 25.514 -1.23 Z M60.009 -1.23 Q49 -1.23 41.156 -8.824 Q33.312 -16.417 33.312 -27.355 Q33.312 -38.98 42.062 -50.199 Q50.812 -61.417 60 -69.73 Q69.198 -61.402 77.911 -50.16 Q86.625 -38.917 86.625 -27.355 Q86.625 -16.417 78.821 -8.824 Q71.019 -1.23 60.009 -1.23 Z M94.5 -1.23 Q91.98 -1.23 90.24 -2.917 Q88.5 -4.605 88.5 -7.119 Q88.5 -9.514 90.235 -11.309 Q91.97 -13.105 94.483 -13.105 Q96.875 -13.105 98.625 -11.309 Q100.375 -9.514 100.375 -7.119 Q100.375 -4.605 98.612 -2.917 Q96.85 -1.23 94.5 -1.23 Z M72.203 -15.449 Q77.25 -20.292 77.25 -27.292 Q77.25 -34.605 71.469 -42.761 Q65.688 -50.917 60 -56.73 Q54.25 -50.917 48.469 -42.792 Q42.688 -34.667 42.688 -27.292 Q42.688 -20.292 47.781 -15.449 Q52.875 -10.605 60.015 -10.605 Q67.155 -10.605 72.203 -15.449 Z M60.029 -18.167 Q64.062 -18.167 66.906 -21.011 Q69.75 -23.855 69.75 -27.946 Q69.75 -31.917 66.906 -34.792 Q64.062 -37.667 60.029 -37.667 Q55.873 -37.667 53.061 -34.804 Q50.25 -31.939 50.25 -27.917 Q50.25 -23.855 53.061 -21.011 Q55.873 -18.167 60.029 -18.167 Z M59.951 -77.417 Q57.438 -77.417 55.75 -79.105 Q54.062 -80.792 54.062 -83.306 Q54.062 -85.701 55.75 -87.496 Q57.438 -89.292 59.951 -89.292 Q62.346 -89.292 64.141 -87.496 Q65.938 -85.701 65.938 -83.306 Q65.938 -80.792 64.141 -79.105 Q62.346 -77.417 59.951 -77.417 Z"/></g><g id="Light-M" transform="matrix(1 0 0 1 1098.18 1126)"><path d="M60.015 15.534 Q58 15.534 56.625 14.176 Q55.25 12.818 55.25 10.823 Q55.25 8.929 56.627 7.533 Q58.004 6.135 60.026 6.135 Q61.956 6.135 63.303 7.534 Q64.649 8.931 64.649 10.839 Q64.649 12.818 63.303 14.176 Q61.956 15.534 60.015 15.534 Z M39.843 10.765 Q37.828 10.765 36.453 9.441 Q35.078 8.118 35.078 6.103 Q35.078 4.189 36.454 2.778 Q37.831 1.366 39.854 1.366 Q41.784 1.366 43.13 2.778 Q44.476 4.189 44.476 6.114 Q44.476 8.111 43.13 9.438 Q41.784 10.765 39.843 10.765 Z M80.188 10.765 Q78.174 10.765 76.799 9.441 Q75.424 8.118 75.424 6.103 Q75.424 4.189 76.8 2.778 Q78.177 1.366 80.2 1.366 Q82.13 1.366 83.476 2.778 Q84.823 4.189 84.823 6.114 Q84.823 8.111 83.476 9.438 Q82.13 10.765 80.188 10.765 Z M26.512 -3.441 Q24.515 -3.441 23.188 -4.765 Q21.861 -6.089 21.861 -8.105 Q21.861 -10.019 23.185 -11.43 Q24.509 -12.84 26.524 -12.84 Q28.438 -12.84 29.849 -11.43 Q31.26 -10.019 31.26 -8.092 Q31.26 -6.095 29.849 -4.769 Q28.438 -3.441 26.512 -3.441 Z M60.008 -3.441 Q49.745 -3.441 42.443 -10.435 Q35.14 -17.427 35.14 -27.571 Q35.14 -38.667 43.312 -48.972 Q51.486 -59.277 60 -66.845 Q68.535 -59.256 76.679 -48.942 Q84.823 -38.629 84.823 -27.571 Q84.823 -17.427 77.546 -10.435 Q70.27 -3.441 60.008 -3.441 Z M93.495 -3.441 Q91.475 -3.441 90.108 -4.765 Q88.74 -6.089 88.74 -8.105 Q88.74 -10.019 90.105 -11.43 Q91.471 -12.84 93.476 -12.84 Q95.409 -12.84 96.774 -11.43 Q98.139 -10.019 98.139 -8.092 Q98.139 -6.095 96.765 -4.769 Q95.391 -3.441 93.495 -3.441 Z M72.596 -15.395 Q77.828 -20.352 77.828 -27.557 Q77.828 -35.566 71.805 -43.435 Q65.784 -51.302 60 -57.307 Q54.203 -51.302 48.169 -43.454 Q42.135 -35.605 42.135 -27.557 Q42.135 -20.352 47.396 -15.395 Q52.659 -10.436 60.013 -10.436 Q67.366 -10.436 72.596 -15.395 Z M60.029 -18.72 Q63.966 -18.72 66.763 -21.492 Q69.558 -24.264 69.558 -28.259 Q69.558 -32.182 66.763 -34.985 Q63.966 -37.787 60.017 -37.787 Q56.041 -37.787 53.29 -34.996 Q50.539 -32.204 50.539 -28.23 Q50.539 -24.264 53.291 -21.492 Q56.045 -18.72 60.029 -18.72 Z M59.964 -75.615 Q57.966 -75.615 56.64 -76.939 Q55.312 -78.262 55.312 -80.277 Q55.312 -82.191 56.636 -83.602 Q57.96 -85.014 59.975 -85.014 Q61.889 -85.014 63.3 -83.602 Q64.711 -82.191 64.711 -80.266 Q64.711 -78.269 63.3 -76.941 Q61.889 -75.615 59.964 -75.615 Z"/></g><g id="Thin-M" transform="matrix(1 0 0 1 802.565 1126)"><path d="M60.004 12.674 Q58.505 12.674 57.502 11.68 Q56.5 10.685 56.5 9.189 Q56.5 7.775 57.506 6.763 Q58.513 5.751 60.026 5.751 Q61.476 5.751 62.45 6.764 Q63.422 7.778 63.422 9.216 Q63.422 10.679 62.45 11.676 Q61.476 12.674 60.004 12.674 Z M40.407 8.073 Q38.909 8.073 37.906 7.113 Q36.904 6.153 36.904 4.636 Q36.904 3.203 37.91 2.176 Q38.916 1.15 40.431 1.15 Q41.88 1.15 42.854 2.176 Q43.828 3.203 43.828 4.659 Q43.828 6.14 42.854 7.106 Q41.88 8.073 40.407 8.073 Z M79.6 8.073 Q78.101 8.073 77.099 7.113 Q76.096 6.153 76.096 4.636 Q76.096 3.203 77.103 2.176 Q78.109 1.15 79.623 1.15 Q81.073 1.15 82.046 2.176 Q83.019 3.203 83.019 4.659 Q83.019 6.14 82.046 7.106 Q81.073 8.073 79.6 8.073 Z M27.51 -5.652 Q26.029 -5.652 25.062 -6.614 Q24.096 -7.574 24.096 -9.09 Q24.096 -10.522 25.056 -11.55 Q26.016 -12.576 27.534 -12.576 Q28.966 -12.576 29.992 -11.55 Q31.019 -10.522 31.019 -9.066 Q31.019 -7.586 29.992 -6.62 Q28.966 -5.652 27.51 -5.652 Z M60.006 -5.652 Q50.49 -5.652 43.729 -12.045 Q36.966 -18.436 36.966 -27.787 Q36.966 -38.355 44.562 -47.746 Q52.159 -57.139 60 -63.961 Q67.871 -57.111 75.445 -47.726 Q83.019 -38.34 83.019 -27.787 Q83.019 -18.436 76.27 -12.045 Q69.521 -5.652 60.006 -5.652 Z M92.49 -5.652 Q90.97 -5.652 89.975 -6.614 Q88.981 -7.574 88.981 -9.09 Q88.981 -10.522 89.976 -11.55 Q90.971 -12.576 92.47 -12.576 Q93.942 -12.576 94.922 -11.55 Q95.904 -10.522 95.904 -9.066 Q95.904 -7.586 94.918 -6.62 Q93.933 -5.652 92.49 -5.652 Z M72.99 -15.34 Q78.404 -20.412 78.404 -27.821 Q78.404 -36.527 72.141 -44.107 Q65.88 -51.686 60 -57.884 Q54.154 -51.686 47.867 -44.115 Q41.581 -36.542 41.581 -27.821 Q41.581 -20.412 47.013 -15.34 Q52.443 -10.269 60.009 -10.269 Q67.576 -10.269 72.99 -15.34 Z M60.029 -19.274 Q63.87 -19.274 66.618 -21.972 Q69.365 -24.672 69.365 -28.571 Q69.365 -32.446 66.618 -35.177 Q63.87 -37.907 60.005 -37.907 Q56.209 -37.907 53.517 -35.187 Q50.828 -32.469 50.828 -28.542 Q50.828 -24.672 53.521 -21.972 Q56.216 -19.274 60.029 -19.274 Z M59.976 -73.811 Q58.495 -73.811 57.529 -74.771 Q56.562 -75.732 56.562 -77.249 Q56.562 -78.681 57.523 -79.709 Q58.483 -80.735 60 -80.735 Q61.432 -80.735 62.459 -79.709 Q63.485 -78.681 63.485 -77.225 Q63.485 -75.745 62.459 -74.777 Q61.432 -73.811 59.976 -73.811 Z"/></g><g id="Ultralight-M" transform="matrix(1 0 0 1 506.415 1126)"><path d="M59.996 10.958 Q58.807 10.958 58.029 10.181 Q57.25 9.405 57.25 8.208 Q57.25 7.083 58.034 6.301 Q58.818 5.52 60.026 5.52 Q61.188 5.52 61.938 6.303 Q62.688 7.085 62.688 8.243 Q62.688 9.395 61.938 10.176 Q61.188 10.958 59.996 10.958 Z M40.746 6.458 Q39.557 6.458 38.779 5.716 Q38 4.974 38 3.756 Q38 2.611 38.784 1.816 Q39.568 1.02 40.776 1.02 Q41.938 1.02 42.688 1.816 Q43.438 2.611 43.438 3.786 Q43.438 4.958 42.688 5.708 Q41.938 6.458 40.746 6.458 Z M79.246 6.458 Q78.058 6.458 77.279 5.716 Q76.5 4.974 76.5 3.756 Q76.5 2.611 77.284 1.816 Q78.067 1.02 79.276 1.02 Q80.438 1.02 81.188 1.816 Q81.938 2.611 81.938 3.786 Q81.938 4.958 81.188 5.708 Q80.438 6.458 79.246 6.458 Z M28.109 -6.98 Q26.938 -6.98 26.188 -7.721 Q25.438 -8.464 25.438 -9.681 Q25.438 -10.826 26.179 -11.621 Q26.921 -12.417 28.139 -12.417 Q29.284 -12.417 30.079 -11.621 Q30.875 -10.826 30.875 -9.651 Q30.875 -8.48 30.079 -7.73 Q29.284 -6.98 28.109 -6.98 Z M60.005 -6.98 Q50.938 -6.98 44.5 -13.011 Q38.062 -19.042 38.062 -27.917 Q38.062 -38.167 45.312 -47.011 Q52.562 -55.855 60 -62.23 Q67.474 -55.825 74.706 -46.996 Q81.938 -38.167 81.938 -27.917 Q81.938 -19.042 75.505 -13.011 Q69.071 -6.98 60.005 -6.98 Z M91.886 -6.98 Q90.668 -6.98 89.896 -7.721 Q89.125 -8.464 89.125 -9.681 Q89.125 -10.826 89.899 -11.621 Q90.672 -12.417 91.866 -12.417 Q93.062 -12.417 93.812 -11.621 Q94.562 -10.826 94.562 -9.651 Q94.562 -8.48 93.81 -7.73 Q93.056 -6.98 91.886 -6.98 Z M73.226 -15.307 Q78.75 -20.449 78.75 -27.98 Q78.75 -37.105 72.344 -44.511 Q65.938 -51.917 60 -58.23 Q54.125 -51.917 47.688 -44.511 Q41.25 -37.105 41.25 -27.98 Q41.25 -20.449 46.781 -15.307 Q52.312 -10.167 60.008 -10.167 Q67.703 -10.167 73.226 -15.307 Z M60.029 -19.605 Q63.812 -19.605 66.531 -22.261 Q69.25 -24.917 69.25 -28.759 Q69.25 -32.605 66.531 -35.292 Q63.812 -37.98 59.998 -37.98 Q56.31 -37.98 53.655 -35.304 Q51 -32.626 51 -28.73 Q51 -24.917 53.66 -22.261 Q56.32 -19.605 60.029 -19.605 Z M59.984 -72.73 Q58.812 -72.73 58.062 -73.471 Q57.312 -74.214 57.312 -75.431 Q57.312 -76.576 58.054 -77.371 Q58.796 -78.167 60.014 -78.167 Q61.159 -78.167 61.954 -77.371 Q62.75 -76.576 62.75 -75.401 Q62.75 -74.23 61.954 -73.48 Q61.159 -72.73 59.984 -72.73 Z"/></g><g id="Bold-S" transform="matrix(1 0 0 1 2294.23 696)"><path d="M47.361 10.828 Q44.575 10.828 42.555 8.828 Q40.535 6.829 40.535 4.072 Q40.535 1.212 42.555 -0.736 Q44.575 -2.684 47.361 -2.684 Q50.249 -2.684 52.148 -0.735 Q54.047 1.214 54.047 4.076 Q54.047 6.834 52.148 8.831 Q50.249 10.828 47.361 10.828 Z M29.608 6.538 Q26.822 6.538 24.802 4.565 Q22.782 2.593 22.782 -0.278 Q22.782 -3.154 24.802 -5.162 Q26.822 -7.171 29.608 -7.171 Q32.497 -7.171 34.395 -5.162 Q36.294 -3.154 36.294 -0.278 Q36.294 2.593 34.395 4.565 Q32.497 6.538 29.608 6.538 Z M65.113 6.538 Q62.327 6.538 60.307 4.565 Q58.287 2.593 58.287 -0.278 Q58.287 -3.154 60.307 -5.162 Q62.327 -7.171 65.113 -7.171 Q68.002 -7.171 69.9 -5.162 Q71.799 -3.154 71.799 -0.278 Q71.799 2.593 69.9 4.565 Q68.002 6.538 65.113 6.538 Z M16.58 -5.149 Q13.808 -5.149 11.835 -7.171 Q9.863 -9.193 9.863 -11.965 Q9.863 -14.841 11.835 -16.751 Q13.808 -18.661 16.58 -18.661 Q19.456 -18.661 21.414 -16.751 Q23.374 -14.841 23.374 -11.965 Q23.374 -9.193 21.414 -7.171 Q19.456 -5.149 16.58 -5.149 Z M47.347 -6.727 Q37.576 -6.727 30.697 -13.113 Q23.818 -19.499 23.818 -29.115 Q23.818 -40.753 31.708 -49.605 Q39.598 -58.456 47.34 -65.508 Q55.09 -58.444 62.951 -49.574 Q70.813 -40.704 70.813 -29.115 Q70.813 -19.499 63.965 -13.113 Q57.119 -6.727 47.347 -6.727 Z M78.111 -5.149 Q75.334 -5.149 73.32 -7.171 Q71.306 -9.193 71.306 -11.965 Q71.306 -14.841 73.316 -16.751 Q75.326 -18.661 78.097 -18.661 Q80.971 -18.661 82.894 -16.751 Q84.818 -14.841 84.818 -11.965 Q84.818 -9.193 82.884 -7.171 Q80.951 -5.149 78.111 -5.149 Z M56.031 -21.151 Q59.668 -24.431 59.668 -29.165 Q59.668 -37.005 55.797 -41.616 Q51.926 -46.227 47.34 -50.615 Q42.902 -46.227 38.932 -41.641 Q34.963 -37.055 34.963 -29.165 Q34.963 -24.431 38.636 -21.151 Q42.31 -17.872 47.352 -17.872 Q52.394 -17.872 56.031 -21.151 Z M47.363 -23.05 Q50.348 -23.05 52.444 -25.195 Q54.54 -27.34 54.54 -30.173 Q54.54 -33.11 52.444 -35.279 Q50.348 -37.449 47.363 -37.449 Q44.379 -37.449 42.26 -35.288 Q40.14 -33.126 40.14 -30.151 Q40.14 -27.34 42.26 -25.195 Q44.379 -23.05 47.363 -23.05 Z M47.302 -69.502 Q44.529 -69.502 42.557 -71.475 Q40.584 -73.447 40.584 -76.22 Q40.584 -79.095 42.557 -81.054 Q44.529 -83.014 47.302 -83.014 Q50.177 -83.014 52.136 -81.054 Q54.096 -79.095 54.096 -76.22 Q54.096 -73.447 52.136 -71.475 Q50.177 -69.502 47.302 -69.502 Z"/></g><g id="Semibold-S" transform="matrix(1 0 0 1 1998.1 696)"><path d="M47.361 8.855 Q44.961 8.855 43.241 7.156 Q41.521 5.457 41.521 3.086 Q41.521 0.655 43.241 -1.015 Q44.961 -2.684 47.361 -2.684 Q49.82 -2.684 51.441 -1.014 Q53.06 0.657 53.06 3.09 Q53.06 5.462 51.441 7.158 Q49.82 8.855 47.361 8.855 Z M30.295 4.651 Q27.894 4.651 26.174 2.978 Q24.455 1.307 24.455 -1.136 Q24.455 -3.583 26.174 -5.291 Q27.894 -7 30.295 -7 Q32.754 -7 34.374 -5.291 Q35.994 -3.583 35.994 -1.136 Q35.994 1.307 34.374 2.978 Q32.754 4.651 30.295 4.651 Z M64.428 4.651 Q62.027 4.651 60.307 2.978 Q58.587 1.307 58.587 -1.136 Q58.587 -3.583 60.307 -5.291 Q62.027 -7 64.428 -7 Q66.887 -7 68.507 -5.291 Q70.126 -3.583 70.126 -1.136 Q70.126 1.307 68.507 2.978 Q66.887 4.651 64.428 4.651 Z M18.295 -6.736 Q15.908 -6.736 14.237 -8.437 Q12.564 -10.136 12.564 -12.523 Q12.564 -14.969 14.237 -16.622 Q15.908 -18.275 18.295 -18.275 Q20.742 -18.275 22.422 -16.622 Q24.103 -14.969 24.103 -12.523 Q24.103 -10.136 22.422 -8.437 Q20.742 -6.736 18.295 -6.736 Z M47.347 -8.143 Q38.133 -8.143 31.597 -14.164 Q25.062 -20.186 25.062 -29.243 Q25.062 -39.981 32.501 -48.618 Q39.941 -57.256 47.34 -64.093 Q54.79 -57.244 62.18 -48.588 Q69.569 -39.931 69.569 -29.243 Q69.569 -20.186 63.065 -14.164 Q56.561 -8.143 47.347 -8.143 Z M76.396 -6.736 Q74.004 -6.736 72.291 -8.437 Q70.577 -10.136 70.577 -12.523 Q70.577 -14.969 72.286 -16.622 Q73.996 -18.275 76.382 -18.275 Q78.827 -18.275 80.472 -16.622 Q82.116 -14.969 82.116 -12.523 Q82.116 -10.136 80.462 -8.437 Q78.807 -6.736 76.396 -6.736 Z M56.546 -20.766 Q60.397 -24.217 60.397 -29.25 Q60.397 -36.748 56.183 -41.873 Q51.968 -46.999 47.34 -51.73 Q42.816 -46.999 38.525 -41.898 Q34.234 -36.797 34.234 -29.25 Q34.234 -24.217 38.122 -20.766 Q42.01 -17.315 47.352 -17.315 Q52.694 -17.315 56.546 -20.766 Z M47.363 -23.35 Q50.262 -23.35 52.336 -25.452 Q54.411 -27.554 54.411 -30.388 Q54.411 -33.238 52.336 -35.365 Q50.262 -37.491 47.363 -37.491 Q44.423 -37.491 42.346 -35.374 Q40.269 -33.256 40.269 -30.365 Q40.269 -27.554 42.346 -25.452 Q44.423 -23.35 47.363 -23.35 Z M47.302 -68.902 Q44.915 -68.902 43.243 -70.574 Q41.57 -72.247 41.57 -74.634 Q41.57 -77.08 43.243 -78.76 Q44.915 -80.441 47.302 -80.441 Q49.748 -80.441 51.429 -78.76 Q53.11 -77.08 53.11 -74.634 Q53.11 -72.247 51.429 -70.574 Q49.748 -68.902 47.302 -68.902 Z"/></g><g id="Medium-S" transform="matrix(1 0 0 1 1701.85 696)"><path d="M47.361 7.376 Q45.25 7.376 43.756 5.902 Q42.261 4.427 42.261 2.346 Q42.261 0.237 43.756 -1.224 Q45.25 -2.684 47.361 -2.684 Q49.499 -2.684 50.91 -1.223 Q52.321 0.239 52.321 2.35 Q52.321 4.432 50.91 5.905 Q49.499 7.376 47.361 7.376 Z M30.809 3.236 Q28.699 3.236 27.204 1.789 Q25.709 0.341 25.709 -1.779 Q25.709 -3.905 27.204 -5.388 Q28.699 -6.871 30.809 -6.871 Q32.948 -6.871 34.358 -5.388 Q35.768 -3.905 35.768 -1.779 Q35.768 0.341 34.358 1.789 Q32.948 3.236 30.809 3.236 Z M63.913 3.236 Q61.802 3.236 60.307 1.789 Q58.813 0.341 58.813 -1.779 Q58.813 -3.905 60.307 -5.388 Q61.802 -6.871 63.913 -6.871 Q66.051 -6.871 67.461 -5.388 Q68.873 -3.905 68.873 -1.779 Q68.873 0.341 67.461 1.789 Q66.051 3.236 63.913 3.236 Z M19.582 -7.926 Q17.484 -7.926 16.037 -9.385 Q14.59 -10.844 14.59 -12.941 Q14.59 -15.066 16.037 -16.526 Q17.484 -17.985 19.582 -17.985 Q21.706 -17.985 23.178 -16.526 Q24.649 -15.066 24.649 -12.941 Q24.649 -10.844 23.178 -9.385 Q21.706 -7.926 19.582 -7.926 Z M47.347 -9.204 Q38.552 -9.204 32.273 -14.952 Q25.995 -20.7 25.995 -29.34 Q25.995 -39.402 33.097 -47.879 Q40.199 -56.355 47.34 -63.031 Q54.565 -56.343 61.601 -47.848 Q68.636 -39.353 68.636 -29.34 Q68.636 -20.7 62.39 -14.952 Q56.143 -9.204 47.347 -9.204 Z M75.11 -7.926 Q73.007 -7.926 71.519 -9.385 Q70.031 -10.844 70.031 -12.941 Q70.031 -15.066 71.515 -16.526 Q72.999 -17.985 75.095 -17.985 Q77.219 -17.985 78.654 -16.526 Q80.09 -15.066 80.09 -12.941 Q80.09 -10.844 78.645 -9.385 Q77.2 -7.926 75.11 -7.926 Z M56.931 -20.476 Q60.943 -24.056 60.943 -29.314 Q60.943 -36.555 56.473 -42.067 Q52.001 -47.578 47.34 -52.566 Q42.752 -47.578 38.219 -42.091 Q33.687 -36.604 33.687 -29.314 Q33.687 -24.056 37.736 -20.476 Q41.784 -16.897 47.352 -16.897 Q52.919 -16.897 56.931 -20.476 Z M47.363 -23.575 Q50.198 -23.575 52.256 -25.646 Q54.315 -27.715 54.315 -30.549 Q54.315 -33.334 52.256 -35.429 Q50.198 -37.524 47.363 -37.524 Q44.454 -37.524 42.41 -35.438 Q40.365 -33.352 40.365 -30.526 Q40.365 -27.715 42.41 -25.646 Q44.454 -23.575 47.363 -23.575 Z M47.302 -68.452 Q45.205 -68.452 43.757 -69.899 Q42.31 -71.346 42.31 -73.443 Q42.31 -75.569 43.757 -77.04 Q45.205 -78.512 47.302 -78.512 Q49.427 -78.512 50.898 -77.04 Q52.37 -75.569 52.37 -73.443 Q52.37 -71.346 50.898 -69.899 Q49.427 -68.452 47.302 -68.452 Z"/></g><g id="Regular-S" transform="matrix(1 0 0 1 1405.73 696)"><path d="M47.361 6.291 Q45.462 6.291 44.133 4.981 Q42.803 3.673 42.803 1.804 Q42.803 -0.07 44.133 -1.377 Q45.462 -2.684 47.361 -2.684 Q49.263 -2.684 50.521 -1.376 Q51.778 -0.068 51.778 1.808 Q51.778 3.678 50.521 4.984 Q49.263 6.291 47.361 6.291 Z M31.186 2.198 Q29.288 2.198 27.958 0.916 Q26.629 -0.366 26.629 -2.251 Q26.629 -4.14 27.958 -5.458 Q29.288 -6.777 31.186 -6.777 Q33.089 -6.777 34.346 -5.458 Q35.604 -4.14 35.604 -2.251 Q35.604 -0.366 34.346 0.916 Q33.089 2.198 31.186 2.198 Z M63.535 2.198 Q61.637 2.198 60.307 0.916 Q58.978 -0.366 58.978 -2.251 Q58.978 -4.14 60.307 -5.458 Q61.637 -6.777 63.535 -6.777 Q65.438 -6.777 66.695 -5.458 Q67.953 -4.14 67.953 -2.251 Q67.953 -0.366 66.695 0.916 Q65.438 2.198 63.535 2.198 Z M20.525 -8.798 Q18.64 -8.798 17.358 -10.081 Q16.076 -11.363 16.076 -13.247 Q16.076 -15.137 17.358 -16.455 Q18.64 -17.773 20.525 -17.773 Q22.415 -17.773 23.732 -16.455 Q25.051 -15.137 25.051 -13.247 Q25.051 -11.363 23.732 -10.081 Q22.415 -8.798 20.525 -8.798 Z M47.347 -9.982 Q38.858 -9.982 32.768 -15.53 Q26.678 -21.077 26.678 -29.411 Q26.678 -38.978 33.532 -47.336 Q40.387 -55.695 47.34 -62.253 Q54.4 -55.683 61.176 -47.306 Q67.953 -38.928 67.953 -29.411 Q67.953 -21.077 61.894 -15.53 Q55.837 -9.982 47.347 -9.982 Z M74.166 -8.798 Q72.276 -8.798 70.953 -10.081 Q69.629 -11.363 69.629 -13.247 Q69.629 -15.137 70.949 -16.455 Q72.268 -17.773 74.152 -17.773 Q76.04 -17.773 77.322 -16.455 Q78.604 -15.137 78.604 -13.247 Q78.604 -11.363 77.312 -10.081 Q76.02 -8.798 74.166 -8.798 Z M57.214 -20.264 Q61.345 -23.937 61.345 -29.362 Q61.345 -36.413 56.685 -42.208 Q52.025 -48.002 47.34 -53.18 Q42.705 -48.002 37.995 -42.232 Q33.286 -36.463 33.286 -29.362 Q33.286 -23.937 37.453 -20.264 Q41.62 -16.59 47.352 -16.59 Q53.084 -16.59 57.214 -20.264 Z M47.363 -23.74 Q50.151 -23.74 52.197 -25.787 Q54.244 -27.833 54.244 -30.667 Q54.244 -33.405 52.197 -35.477 Q50.151 -37.548 47.363 -37.548 Q44.478 -37.548 42.457 -35.485 Q40.436 -33.422 40.436 -30.644 Q40.436 -27.833 42.457 -25.787 Q44.478 -23.74 47.363 -23.74 Z M47.302 -68.121 Q45.417 -68.121 44.135 -69.404 Q42.853 -70.686 42.853 -72.57 Q42.853 -74.46 44.135 -75.778 Q45.417 -77.096 47.302 -77.096 Q49.191 -77.096 50.509 -75.778 Q51.827 -74.46 51.827 -72.57 Q51.827 -70.686 50.509 -69.404 Q49.191 -68.121 47.302 -68.121 Z"/></g><g id="Light-S" transform="matrix(1 0 0 1 1109.75 696)"><path d="M47.352 4.034 Q45.861 4.034 44.825 3.012 Q43.79 1.989 43.79 0.514 Q43.79 -0.98 44.827 -1.984 Q45.864 -2.988 47.361 -2.988 Q48.883 -2.988 49.847 -1.983 Q50.811 -0.979 50.811 0.526 Q50.811 1.989 49.847 3.012 Q48.883 4.034 47.352 4.034 Z M31.633 0.074 Q30.142 0.074 29.106 -0.921 Q28.071 -1.916 28.071 -3.408 Q28.071 -4.918 29.107 -5.932 Q30.145 -6.947 31.642 -6.947 Q33.165 -6.947 34.128 -5.932 Q35.092 -4.918 35.092 -3.399 Q35.092 -1.921 34.128 -0.924 Q33.165 0.074 31.633 0.074 Z M63.071 0.074 Q61.58 0.074 60.545 -0.921 Q59.509 -1.916 59.509 -3.408 Q59.509 -4.918 60.546 -5.932 Q61.583 -6.947 63.081 -6.947 Q64.603 -6.947 65.567 -5.932 Q66.53 -4.918 66.53 -3.399 Q66.53 -1.921 65.567 -0.924 Q64.603 0.074 63.071 0.074 Z M21.313 -10.543 Q19.835 -10.543 18.837 -11.538 Q17.84 -12.533 17.84 -14.026 Q17.84 -15.536 18.835 -16.55 Q19.831 -17.564 21.322 -17.564 Q22.832 -17.564 23.847 -16.55 Q24.861 -15.536 24.861 -14.016 Q24.861 -12.538 23.847 -11.541 Q22.832 -10.543 21.313 -10.543 Z M47.346 -11.727 Q39.446 -11.727 33.783 -16.801 Q28.12 -21.874 28.12 -29.582 Q28.12 -38.731 34.519 -46.369 Q40.919 -54.006 47.34 -59.977 Q53.877 -53.989 60.204 -46.345 Q66.53 -38.701 66.53 -29.582 Q66.53 -21.874 60.888 -16.801 Q55.246 -11.727 47.346 -11.727 Z M73.373 -10.543 Q71.878 -10.543 70.848 -11.538 Q69.819 -12.533 69.819 -14.026 Q69.819 -15.536 70.846 -16.55 Q71.875 -17.564 73.358 -17.564 Q74.883 -17.564 75.861 -16.55 Q76.84 -15.536 76.84 -14.016 Q76.84 -12.538 75.854 -11.541 Q74.869 -10.543 73.373 -10.543 Z M57.525 -20.221 Q61.8 -23.985 61.8 -29.571 Q61.8 -37.172 56.95 -42.739 Q52.101 -48.306 47.34 -53.635 Q42.667 -48.306 37.759 -42.754 Q32.85 -37.202 32.85 -29.571 Q32.85 -23.985 37.149 -20.221 Q41.449 -16.457 47.35 -16.457 Q53.251 -16.457 57.525 -20.221 Z M47.363 -24.176 Q50.075 -24.176 52.084 -26.166 Q54.092 -28.156 54.092 -30.913 Q54.092 -33.615 52.084 -35.628 Q50.075 -37.642 47.354 -37.642 Q44.611 -37.642 42.638 -35.637 Q40.664 -33.631 40.664 -30.89 Q40.664 -28.156 42.639 -26.166 Q44.614 -24.176 47.363 -24.176 Z M47.311 -66.699 Q45.834 -66.699 44.837 -67.694 Q43.839 -68.69 43.839 -70.181 Q43.839 -71.691 44.834 -72.706 Q45.829 -73.72 47.32 -73.72 Q48.83 -73.72 49.845 -72.706 Q50.86 -71.691 50.86 -70.172 Q50.86 -68.694 49.845 -67.696 Q48.83 -66.699 47.311 -66.699 Z"/></g><g id="Thin-S" transform="matrix(1 0 0 1 814.015 696)"><path d="M47.343 1.777 Q46.259 1.777 45.517 1.042 Q44.776 0.307 44.776 -0.775 Q44.776 -1.891 45.52 -2.591 Q46.265 -3.29 47.361 -3.29 Q48.505 -3.29 49.174 -2.59 Q49.843 -1.889 49.843 -0.754 Q49.843 0.302 49.174 1.039 Q48.505 1.777 47.343 1.777 Z M32.079 -2.051 Q30.995 -2.051 30.253 -2.759 Q29.512 -3.467 29.512 -4.565 Q29.512 -5.696 30.256 -6.407 Q31.001 -7.118 32.098 -7.118 Q33.241 -7.118 33.91 -6.407 Q34.58 -5.696 34.58 -4.547 Q34.58 -3.477 33.91 -2.764 Q33.241 -2.051 32.079 -2.051 Z M62.607 -2.051 Q61.523 -2.051 60.782 -2.759 Q60.04 -3.467 60.04 -4.565 Q60.04 -5.696 60.785 -6.407 Q61.529 -7.118 62.625 -7.118 Q63.769 -7.118 64.439 -6.407 Q65.107 -5.696 65.107 -4.547 Q65.107 -3.477 64.439 -2.764 Q63.769 -2.051 62.607 -2.051 Z M22.1 -12.288 Q21.03 -12.288 20.317 -12.997 Q19.604 -13.705 19.604 -14.803 Q19.604 -15.933 20.312 -16.645 Q21.02 -17.356 22.119 -17.356 Q23.249 -17.356 23.96 -16.645 Q24.671 -15.933 24.671 -14.784 Q24.671 -13.715 23.96 -13.002 Q23.249 -12.288 22.1 -12.288 Z M47.345 -13.471 Q40.034 -13.471 34.798 -18.071 Q29.561 -22.67 29.561 -29.752 Q29.561 -38.485 35.505 -45.401 Q41.449 -52.319 47.34 -57.702 Q53.353 -52.297 59.23 -45.385 Q65.107 -38.473 65.107 -29.752 Q65.107 -22.67 59.881 -18.071 Q54.655 -13.471 47.345 -13.471 Z M72.58 -12.288 Q71.479 -12.288 70.744 -12.997 Q70.009 -13.705 70.009 -14.803 Q70.009 -15.933 70.745 -16.645 Q71.48 -17.356 72.564 -17.356 Q73.726 -17.356 74.401 -16.645 Q75.076 -15.933 75.076 -14.784 Q75.076 -13.715 74.397 -13.002 Q73.718 -12.288 72.58 -12.288 Z M57.836 -20.178 Q62.255 -24.032 62.255 -29.779 Q62.255 -37.93 57.215 -43.27 Q52.177 -48.608 47.34 -54.09 Q42.629 -48.608 37.521 -43.276 Q32.413 -37.942 32.413 -29.779 Q32.413 -24.032 36.846 -20.178 Q41.279 -16.325 47.347 -16.325 Q53.416 -16.325 57.836 -20.178 Z M47.363 -24.613 Q49.999 -24.613 51.969 -26.545 Q53.94 -28.478 53.94 -31.16 Q53.94 -33.823 51.969 -35.78 Q49.999 -37.737 47.344 -37.737 Q44.743 -37.737 42.817 -35.788 Q40.892 -33.84 40.892 -31.137 Q40.892 -28.478 42.82 -26.545 Q44.749 -24.613 47.363 -24.613 Z M47.321 -65.276 Q46.251 -65.276 45.538 -65.984 Q44.825 -66.693 44.825 -67.791 Q44.825 -68.921 45.533 -69.633 Q46.241 -70.344 47.34 -70.344 Q48.47 -70.344 49.181 -69.633 Q49.892 -68.921 49.892 -67.772 Q49.892 -66.703 49.181 -65.989 Q48.47 -65.276 47.321 -65.276 Z"/></g><g id="Ultralight-S" transform="matrix(1 0 0 1 517.792 696)"><path d="M47.337 0.423 Q46.498 0.423 45.933 -0.14 Q45.367 -0.703 45.367 -1.55 Q45.367 -2.437 45.937 -2.955 Q46.506 -3.473 47.361 -3.473 Q48.277 -3.473 48.77 -2.954 Q49.263 -2.435 49.263 -1.522 Q49.263 -0.711 48.77 -0.144 Q48.277 0.423 47.337 0.423 Z M32.346 -3.325 Q31.507 -3.325 30.942 -3.86 Q30.377 -4.397 30.377 -5.259 Q30.377 -6.162 30.946 -6.691 Q31.515 -7.22 32.37 -7.22 Q33.286 -7.22 33.779 -6.691 Q34.272 -6.162 34.272 -5.235 Q34.272 -4.41 33.779 -3.867 Q33.286 -3.325 32.346 -3.325 Z M62.328 -3.325 Q61.489 -3.325 60.924 -3.86 Q60.358 -4.397 60.358 -5.259 Q60.358 -6.162 60.928 -6.691 Q61.497 -7.22 62.352 -7.22 Q63.268 -7.22 63.761 -6.691 Q64.254 -6.162 64.254 -5.235 Q64.254 -4.41 63.761 -3.867 Q63.268 -3.325 62.328 -3.325 Z M22.572 -13.335 Q21.747 -13.335 21.204 -13.871 Q20.662 -14.407 20.662 -15.269 Q20.662 -16.173 21.197 -16.701 Q21.734 -17.231 22.596 -17.231 Q23.499 -17.231 24.028 -16.701 Q24.558 -16.173 24.558 -15.246 Q24.558 -14.42 24.028 -13.878 Q23.499 -13.335 22.572 -13.335 Z M47.344 -14.519 Q40.387 -14.519 35.406 -18.834 Q30.426 -23.148 30.426 -29.855 Q30.426 -38.337 36.097 -44.821 Q41.768 -51.306 47.34 -56.336 Q53.04 -51.282 58.647 -44.809 Q64.254 -38.337 64.254 -29.855 Q64.254 -23.148 59.278 -18.834 Q54.3 -14.519 47.344 -14.519 Z M72.104 -13.335 Q71.241 -13.335 70.682 -13.871 Q70.122 -14.407 70.122 -15.269 Q70.122 -16.173 70.684 -16.701 Q71.245 -17.231 72.088 -17.231 Q73.032 -17.231 73.525 -16.701 Q74.018 -16.173 74.018 -15.246 Q74.018 -14.42 73.523 -13.878 Q73.027 -13.335 72.104 -13.335 Z M58.022 -20.152 Q62.528 -24.061 62.528 -29.904 Q62.528 -38.386 57.375 -43.588 Q52.222 -48.791 47.34 -54.363 Q42.606 -48.791 37.379 -43.588 Q32.152 -38.386 32.152 -29.904 Q32.152 -24.061 36.664 -20.152 Q41.176 -16.245 47.346 -16.245 Q53.516 -16.245 58.022 -20.152 Z M47.363 -24.874 Q49.954 -24.874 51.901 -26.773 Q53.849 -28.671 53.849 -31.308 Q53.849 -33.948 51.901 -35.871 Q49.954 -37.794 47.338 -37.794 Q44.823 -37.794 42.926 -35.88 Q41.028 -33.965 41.028 -31.285 Q41.028 -28.671 42.929 -26.773 Q44.831 -24.874 47.363 -24.874 Z M47.327 -64.423 Q46.502 -64.423 45.959 -64.959 Q45.417 -65.495 45.417 -66.357 Q45.417 -67.26 45.952 -67.789 Q46.489 -68.319 47.351 -68.319 Q48.254 -68.319 48.783 -67.789 Q49.312 -67.26 49.312 -66.333 Q49.312 -65.508 48.783 -64.965 Q48.254 -64.423 47.327 -64.423 Z"/></g></g></svg>