<svg xmlns="http://www.w3.org/2000/svg" version="1.1" width="3300" height="2000"><g id="Notes"><style>
    text {
      font-family: monospace;
      text-anchor: middle;
    }
    text.emphasis {
      font-weight:bold;
    }
    text.lanchor {
      text-anchor: start;
    }
  </style><rect height="2200" id="artboard" fill="white" width="3300" x="0" y="0"/><line id="" style="fill:none;stroke:black;stroke-width:0.5;" x1="263" x2="3036" y1="292" y2="292"/><text class="lanchor emphasis" transform="matrix(1 0 0 1 263 322)">Weight/Scale Variations</text><text transform="matrix(1 0 0 1 559.711 322)">Ultralight</text><text transform="matrix(1 0 0 1 856.422 322)">Thin</text><text transform="matrix(1 0 0 1 1153.13 322)">Light</text><text transform="matrix(1 0 0 1 1449.84 322)">Regular</text><text transform="matrix(1 0 0 1 1746.56 322)">Medium</text><text transform="matrix(1 0 0 1 2043.27 322)">Semibold</text><text transform="matrix(1 0 0 1 2339.98 322)">Bold</text><text transform="matrix(1 0 0 1 2636.69 322)">Heavy</text><text transform="matrix(1 0 0 1 2933.4 322)">Black</text><text id="template-version" style="text-anchor: end;" transform="matrix(1 0 0 1 3036 1933)">Template v.1.0</text><text class="lanchor" transform="matrix(1 0 0 1 263 726)">Small</text><text class="lanchor" transform="matrix(1 0 0 1 263 1156)">Medium</text><text class="lanchor" transform="matrix(1 0 0 1 263 1586)">Large</text></g><g id="Guides"><g id="H-reference" style="fill:#27AAE1;stroke:none;" transform="matrix(1 0 0 1 339 696)"><path d="M 54.9316 0 L 57.666 0 L 30.5664 -70.459 L 28.0762 -70.459 L 0.976562 0 L 3.66211 0 L 12.9395 -24.4629 L 45.7031 -24.4629 Z M 29.1992 -67.0898 L 29.4434 -67.0898 L 44.8242 -26.709 L 13.8184 -26.709 Z"/></g><line id="Baseline-S" style="fill:none;stroke:#27AAE1;opacity:1;stroke-width:0.577;" x1="263" x2="3036" y1="696" y2="696"/><line id="Capline-S" style="fill:none;stroke:#27AAE1;opacity:1;stroke-width:0.577;" x1="263" x2="3036" y1="625.541" y2="625.541"/><g id="H-reference" style="fill:#27AAE1;stroke:none;" transform="matrix(1 0 0 1 339 1126)"><path d="M 54.9316 0 L 57.666 0 L 30.5664 -70.459 L 28.0762 -70.459 L 0.976562 0 L 3.66211 0 L 12.9395 -24.4629 L 45.7031 -24.4629 Z M 29.1992 -67.0898 L 29.4434 -67.0898 L 44.8242 -26.709 L 13.8184 -26.709 Z"/></g><line id="Baseline-M" style="fill:none;stroke:#27AAE1;opacity:1;stroke-width:0.577;" x1="263" x2="3036" y1="1126" y2="1126"/><line id="Capline-M" style="fill:none;stroke:#27AAE1;opacity:1;stroke-width:0.577;" x1="263" x2="3036" y1="1055.54" y2="1055.54"/><g id="H-reference" style="fill:#27AAE1;stroke:none;" transform="matrix(1 0 0 1 339 1556)"><path d="M 54.9316 0 L 57.666 0 L 30.5664 -70.459 L 28.0762 -70.459 L 0.976562 0 L 3.66211 0 L 12.9395 -24.4629 L 45.7031 -24.4629 Z M 29.1992 -67.0898 L 29.4434 -67.0898 L 44.8242 -26.709 L 13.8184 -26.709 Z"/></g><line id="Baseline-L" style="fill:none;stroke:#27AAE1;opacity:1;stroke-width:0.577;" x1="263" x2="3036" y1="1556" y2="1556"/><line id="Capline-L" style="fill:none;stroke:#27AAE1;opacity:1;stroke-width:0.577;" x1="263" x2="3036" y1="1485.54" y2="1485.54"/><rect height="119.336" id="left-margin" style="fill:darkred;stroke:none;opacity:0.4;" width="12.4512" x="1394.06" y="1030.79"/><rect height="119.336" id="right-margin" style="fill:darkgreen;stroke:none;opacity:0.4;" width="12.4512" x="1502.5112" y="1030.79"/><rect x="1406.5112" y="1045" width="96" height="96" fill="none" stroke="blue" stroke-dasharray="5"/><rect x="1394.06" y="1030.79" width="120.9024" height="119.336" fill="none" stroke="blue"/></g><g id="Symbols"><g id="Bold-L" transform="matrix(1 0 0 1 2266 1556)"><path d="M62.646 12.097  98.121 -35.311  62.646 -82.637 H81.028 L116.342 -35.311 L81.028 12.097 H62.646 Z"/></g><g id="Semibold-L" transform="matrix(1 0 0 1 1970.27 1556)"><path d="M62.296 10.905  96.929 -35.311  62.296 -81.446 H77.663 L112.206 -35.311 L77.663 10.905 H62.296 Z"/></g><g id="Medium-L" transform="matrix(1 0 0 1 1674.31 1556)"><path d="M62.033 10.012  96.036 -35.311  62.033 -80.553 H75.139 L109.103 -35.311 L75.139 10.012 H62.033 Z"/></g><g id="Regular-L" transform="matrix(1 0 0 1 1378.56 1556)"><path d="M61.839 9.356  95.379 -35.311  61.839 -79.896 H73.288 L106.828 -35.311 L73.288 9.356 H61.839 Z"/></g><g id="Light-L" transform="matrix(1 0 0 1 1082.77 1556)"><path d="M64.6 7.961  96.713 -35.311  64.6 -78.469 H73.319 L105.433 -35.311 L73.319 7.961 H64.6 Z"/></g><g id="Thin-L" transform="matrix(1 0 0 1 787.282 1556)"><path d="M67.359 6.564  98.046 -35.311  67.359 -77.044 H73.349 L104.037 -35.311 L73.349 6.564 H67.359 Z"/></g><g id="Ultralight-L" transform="matrix(1 0 0 1 491.205 1556)"><path d="M69.015 5.728  98.846 -35.311  69.015 -76.187 H73.369 L103.2 -35.311 L73.369 5.728 H69.015 Z"/></g><g id="Bold-M" transform="matrix(1 0 0 1 2281.8 1126)"><path d="M43.625 1.77  70 -35.292  43.625 -72.355 H62.25 L88.625 -35.292 L62.25 1.77 H43.625 Z"/></g><g id="Semibold-M" transform="matrix(1 0 0 1 1985.97 1126)"><path d="M43.245 0.52  68.805 -35.292  43.245 -71.105 H58.773 L84.331 -35.292 L58.773 0.52 H43.245 Z"/></g><g id="Medium-M" transform="matrix(1 0 0 1 1689.91 1126)"><path d="M42.959 -0.417  67.907 -35.292  42.959 -70.167 H56.163 L81.111 -35.292 L56.163 -0.417 H42.959 Z"/></g><g id="Regular-M" transform="matrix(1 0 0 1 1394.06 1126)"><path d="M42.75 -1.105  67.25 -35.292  42.75 -69.48 H54.25 L78.75 -35.292 L54.25 -1.105 H42.75 Z"/></g><g id="Light-M" transform="matrix(1 0 0 1 1098.18 1126)"><path d="M46.812 -2.186  70.544 -35.292  46.812 -68.374 H55.38 L79.11 -35.292 L55.38 -2.186 H46.812 Z"/></g><g id="Thin-M" transform="matrix(1 0 0 1 802.565 1126)"><path d="M50.875 -3.269  73.836 -35.292  50.875 -67.269 H56.51 L79.471 -35.292 L56.51 -3.269 H50.875 Z"/></g><g id="Ultralight-M" transform="matrix(1 0 0 1 506.415 1126)"><path d="M53.312 -3.917  75.812 -35.292  53.312 -66.605 H57.188 L79.688 -35.292 L57.188 -3.917 H53.312 Z"/></g><g id="Bold-S" transform="matrix(1 0 0 1 2294.23 696)"><path d="M37.872 -9.982  55.92 -35.279  37.872 -60.577 H52.37 L70.418 -35.279 L52.37 -9.982 H37.872 Z"/></g><g id="Semibold-S" transform="matrix(1 0 0 1 1998.1 696)"><path d="M37.572 -10.968  54.978 -35.279  37.572 -59.59 H49.626 L67.03 -35.279 L49.626 -10.968 H37.572 Z"/></g><g id="Medium-S" transform="matrix(1 0 0 1 1701.85 696)"><path d="M37.346 -11.708  54.269 -35.279  37.346 -58.851 H47.567 L64.49 -35.279 L47.567 -11.708 H37.346 Z"/></g><g id="Regular-S" transform="matrix(1 0 0 1 1405.73 696)"><path d="M37.182 -12.25  53.751 -35.279  37.182 -58.308 H46.058 L62.627 -35.279 L46.058 -12.25 H37.182 Z"/></g><g id="Light-S" transform="matrix(1 0 0 1 1109.75 696)"><path d="M40.387 -13.103  56.349 -35.279  40.387 -57.435 H46.949 L62.911 -35.279 L46.949 -13.103 H40.387 Z"/></g><g id="Thin-S" transform="matrix(1 0 0 1 814.015 696)"><path d="M43.592 -13.958  58.947 -35.279  43.592 -56.564 H47.841 L63.196 -35.279 L47.841 -13.958 H43.592 Z"/></g><g id="Ultralight-S" transform="matrix(1 0 0 1 517.792 696)"><path d="M45.515 -14.469  60.506 -35.279  45.515 -56.04 H48.376 L63.367 -35.279 L48.376 -14.469 H45.515 Z"/></g></g></svg>