<svg xmlns="http://www.w3.org/2000/svg" version="1.1" width="3300" height="2000"><g id="Notes"><style>
    text {
      font-family: monospace;
      text-anchor: middle;
    }
    text.emphasis {
      font-weight:bold;
    }
    text.lanchor {
      text-anchor: start;
    }
  </style><rect height="2200" id="artboard" fill="white" width="3300" x="0" y="0"/><line id="" style="fill:none;stroke:black;stroke-width:0.5;" x1="263" x2="3036" y1="292" y2="292"/><text class="lanchor emphasis" transform="matrix(1 0 0 1 263 322)">Weight/Scale Variations</text><text transform="matrix(1 0 0 1 559.711 322)">Ultralight</text><text transform="matrix(1 0 0 1 856.422 322)">Thin</text><text transform="matrix(1 0 0 1 1153.13 322)">Light</text><text transform="matrix(1 0 0 1 1449.84 322)">Regular</text><text transform="matrix(1 0 0 1 1746.56 322)">Medium</text><text transform="matrix(1 0 0 1 2043.27 322)">Semibold</text><text transform="matrix(1 0 0 1 2339.98 322)">Bold</text><text transform="matrix(1 0 0 1 2636.69 322)">Heavy</text><text transform="matrix(1 0 0 1 2933.4 322)">Black</text><text id="template-version" style="text-anchor: end;" transform="matrix(1 0 0 1 3036 1933)">Template v.1.0</text><text class="lanchor" transform="matrix(1 0 0 1 263 726)">Small</text><text class="lanchor" transform="matrix(1 0 0 1 263 1156)">Medium</text><text class="lanchor" transform="matrix(1 0 0 1 263 1586)">Large</text></g><g id="Guides"><g id="H-reference" style="fill:#27AAE1;stroke:none;" transform="matrix(1 0 0 1 339 696)"><path d="M 54.9316 0 L 57.666 0 L 30.5664 -70.459 L 28.0762 -70.459 L 0.976562 0 L 3.66211 0 L 12.9395 -24.4629 L 45.7031 -24.4629 Z M 29.1992 -67.0898 L 29.4434 -67.0898 L 44.8242 -26.709 L 13.8184 -26.709 Z"/></g><line id="Baseline-S" style="fill:none;stroke:#27AAE1;opacity:1;stroke-width:0.577;" x1="263" x2="3036" y1="696" y2="696"/><line id="Capline-S" style="fill:none;stroke:#27AAE1;opacity:1;stroke-width:0.577;" x1="263" x2="3036" y1="625.541" y2="625.541"/><g id="H-reference" style="fill:#27AAE1;stroke:none;" transform="matrix(1 0 0 1 339 1126)"><path d="M 54.9316 0 L 57.666 0 L 30.5664 -70.459 L 28.0762 -70.459 L 0.976562 0 L 3.66211 0 L 12.9395 -24.4629 L 45.7031 -24.4629 Z M 29.1992 -67.0898 L 29.4434 -67.0898 L 44.8242 -26.709 L 13.8184 -26.709 Z"/></g><line id="Baseline-M" style="fill:none;stroke:#27AAE1;opacity:1;stroke-width:0.577;" x1="263" x2="3036" y1="1126" y2="1126"/><line id="Capline-M" style="fill:none;stroke:#27AAE1;opacity:1;stroke-width:0.577;" x1="263" x2="3036" y1="1055.54" y2="1055.54"/><g id="H-reference" style="fill:#27AAE1;stroke:none;" transform="matrix(1 0 0 1 339 1556)"><path d="M 54.9316 0 L 57.666 0 L 30.5664 -70.459 L 28.0762 -70.459 L 0.976562 0 L 3.66211 0 L 12.9395 -24.4629 L 45.7031 -24.4629 Z M 29.1992 -67.0898 L 29.4434 -67.0898 L 44.8242 -26.709 L 13.8184 -26.709 Z"/></g><line id="Baseline-L" style="fill:none;stroke:#27AAE1;opacity:1;stroke-width:0.577;" x1="263" x2="3036" y1="1556" y2="1556"/><line id="Capline-L" style="fill:none;stroke:#27AAE1;opacity:1;stroke-width:0.577;" x1="263" x2="3036" y1="1485.54" y2="1485.54"/><rect height="119.336" id="left-margin" style="fill:darkred;stroke:none;opacity:0.4;" width="12.4512" x="1394.06" y="1030.79"/><rect height="119.336" id="right-margin" style="fill:darkgreen;stroke:none;opacity:0.4;" width="12.4512" x="1502.5112" y="1030.79"/><rect x="1406.5112" y="1045" width="96" height="96" fill="none" stroke="blue" stroke-dasharray="5"/><rect x="1394.06" y="1030.79" width="120.9024" height="119.336" fill="none" stroke="blue"/></g><g id="Symbols"><g id="Bold-L" transform="matrix(1 0 0 1 2266 1556)"><path d="M77.408 40.396 Q73.53 40.396 70.869 37.697 Q68.209 34.999 68.209 31.274 Q68.209 27.335 70.908 24.674 Q73.606 22.014 77.331 22.014 Q81.27 22.014 83.931 24.644 Q86.591 27.274 86.591 31.197 Q86.591 35.075 83.961 37.736 Q81.331 40.396 77.408 40.396 Z M47.025 33.946 Q43.215 33.946 40.393 31.203 Q37.571 28.459 37.571 24.371 Q37.571 20.401 40.416 17.66 Q43.259 14.919 47.016 14.919 Q51.116 14.919 53.858 17.692 Q56.599 20.466 56.599 24.363 Q56.599 28.459 53.888 31.203 Q51.178 33.946 47.025 33.946 Z M107.494 33.946 Q103.648 33.946 100.925 31.203 Q98.201 28.459 98.201 24.371 Q98.201 20.401 100.947 17.66 Q103.692 14.919 107.484 14.919 Q111.585 14.919 114.407 17.692 Q117.229 20.466 117.229 24.363 Q117.229 28.459 114.438 31.203 Q111.646 33.946 107.494 33.946 Z M26.016 13.306 Q22.253 13.306 19.511 10.526 Q16.77 7.748 16.77 4.023 Q16.77 0.084 19.489 -2.577 Q22.207 -5.237 25.961 -5.237 Q29.831 -5.237 32.492 -2.577 Q35.153 0.084 35.153 3.955 Q35.153 7.78 32.492 10.542 Q29.831 13.306 26.016 13.306 Z M77.452 12.984 Q61.436 12.984 50.229 2.261 Q39.023 -8.462 39.023 -24.141 Q39.023 -39.261 48.214 -52.161 Q57.405 -65.061 68.531 -75.381 Q72.24 -78.929 77.4 -79.009 Q82.56 -79.09 86.269 -75.381 Q97.395 -65.061 106.586 -52.161 Q115.778 -39.261 115.778 -24.141 Q115.778 -8.462 104.622 2.261 Q93.467 12.984 77.452 12.984 Z M128.816 13.629 Q124.785 13.629 121.974 10.771 Q119.164 7.914 119.164 3.942 Q119.164 -0.071 121.974 -2.735 Q124.785 -5.399 128.808 -5.399 Q132.87 -5.399 135.531 -2.735 Q138.191 -0.071 138.191 3.942 Q138.191 7.914 135.498 10.771 Q132.805 13.629 128.816 13.629 Z M93.686 -8.651 Q100.459 -14.966 100.459 -24.265 Q100.459 -37.004 92.88 -46.437 Q85.301 -55.87 77.4 -63.61 Q69.499 -55.87 61.92 -46.437 Q54.341 -37.004 54.341 -24.265 Q54.341 -14.966 61.152 -8.651 Q67.964 -2.335 77.439 -2.335 Q86.914 -2.335 93.686 -8.651 Z M77.381 -11.204 Q83.005 -11.204 86.975 -15.204 Q90.945 -19.207 90.945 -24.72 Q90.945 -30.392 86.975 -34.504 Q83.005 -38.616 77.381 -38.616 Q71.756 -38.616 67.644 -34.533 Q63.532 -30.449 63.532 -24.778 Q63.532 -19.266 67.644 -15.235 Q71.756 -11.204 77.381 -11.204 Z M77.455 -94.086 Q73.691 -94.086 70.95 -96.786 Q68.209 -99.483 68.209 -103.208 Q68.209 -107.147 70.927 -109.808 Q73.646 -112.469 77.4 -112.469 Q81.27 -112.469 83.931 -109.839 Q86.591 -107.209 86.591 -103.286 Q86.591 -99.407 83.931 -96.747 Q81.27 -94.086 77.455 -94.086 Z"/></g><g id="Semibold-L" transform="matrix(1 0 0 1 1970.27 1556)"><path d="M77.434 38.013 Q74.02 38.013 71.711 35.675 Q69.4 33.335 69.4 30.052 Q69.4 26.634 71.739 24.324 Q74.078 22.014 77.361 22.014 Q80.78 22.014 83.089 24.307 Q85.4 26.6 85.4 29.98 Q85.4 33.393 83.107 35.702 Q80.814 38.013 77.434 38.013 Z M47.893 31.632 Q44.547 31.632 42.075 29.239 Q39.605 26.846 39.605 23.317 Q39.605 19.911 42.088 17.52 Q44.571 15.128 47.886 15.128 Q51.466 15.128 53.858 17.537 Q56.249 19.947 56.249 23.312 Q56.249 26.846 53.875 29.239 Q51.502 31.632 47.893 31.632 Z M106.68 31.632 Q103.298 31.632 100.925 29.239 Q98.551 26.846 98.551 23.317 Q98.551 19.911 100.938 17.52 Q103.323 15.128 106.673 15.128 Q110.253 15.128 112.725 17.537 Q115.195 19.947 115.195 23.312 Q115.195 26.846 112.741 29.239 Q110.287 31.632 106.68 31.632 Z M28.125 11.344 Q24.776 11.344 22.42 8.959 Q20.064 6.576 20.064 3.291 Q20.064 -0.126 22.415 -2.437 Q24.765 -4.747 28.064 -4.747 Q31.444 -4.747 33.754 -2.437 Q36.064 -0.126 36.064 3.225 Q36.064 6.608 33.754 8.975 Q31.444 11.344 28.125 11.344 Z M77.447 11.231 Q62.138 11.231 51.352 0.998 Q40.564 -9.233 40.564 -24.265 Q40.564 -38.911 49.721 -51.74 Q58.877 -64.571 69.863 -74.82 Q73.011 -77.806 77.4 -77.853 Q81.789 -77.898 84.937 -74.82 Q95.923 -64.571 105.079 -51.74 Q114.236 -38.911 114.236 -24.265 Q114.236 -9.233 103.495 0.998 Q92.754 11.231 77.447 11.231 Z M126.712 11.666 Q123.172 11.666 120.712 9.194 Q118.253 6.722 118.253 3.236 Q118.253 -0.215 120.712 -2.561 Q123.172 -4.909 126.709 -4.909 Q130.206 -4.909 132.551 -2.561 Q134.897 -0.215 134.897 3.236 Q134.897 6.722 132.533 9.194 Q130.169 11.666 126.712 11.666 Z M94.317 -8.148 Q101.37 -14.663 101.37 -24.334 Q101.37 -36.723 93.406 -46.753 Q85.442 -56.781 77.4 -64.942 Q69.358 -56.781 61.394 -46.753 Q53.43 -36.723 53.43 -24.334 Q53.43 -14.663 60.504 -8.148 Q67.58 -1.634 77.423 -1.634 Q87.264 -1.634 94.317 -8.148 Z M77.382 -11.554 Q82.936 -11.554 86.87 -15.485 Q90.805 -19.416 90.805 -25 Q90.805 -30.602 86.87 -34.645 Q82.936 -38.686 77.382 -38.686 Q71.756 -38.686 67.714 -34.672 Q63.673 -30.66 63.673 -25.058 Q63.673 -19.476 67.714 -15.516 Q71.756 -11.554 77.382 -11.554 Z M77.46 -93.315 Q74.112 -93.315 71.756 -95.654 Q69.4 -97.992 69.4 -101.275 Q69.4 -104.693 71.75 -107.004 Q74.101 -109.315 77.4 -109.315 Q80.78 -109.315 83.089 -107.022 Q85.4 -104.729 85.4 -101.347 Q85.4 -97.935 83.089 -95.625 Q80.78 -93.315 77.46 -93.315 Z"/></g><g id="Medium-L" transform="matrix(1 0 0 1 1674.31 1556)"><path d="M77.453 36.225 Q74.389 36.225 72.342 34.156 Q70.294 32.087 70.294 29.136 Q70.294 26.108 72.363 24.062 Q74.431 22.014 77.384 22.014 Q80.411 22.014 82.458 24.054 Q84.506 26.093 84.506 29.067 Q84.506 32.131 82.466 34.177 Q80.425 36.225 77.453 36.225 Z M48.543 29.897 Q45.547 29.897 43.338 27.767 Q41.13 25.637 41.13 22.525 Q41.13 19.542 43.342 17.415 Q45.556 15.286 48.541 15.286 Q51.729 15.286 53.858 17.423 Q55.986 19.558 55.986 22.523 Q55.986 25.637 53.866 27.767 Q51.745 29.897 48.543 29.897 Z M106.067 29.897 Q103.036 29.897 100.925 27.767 Q98.814 25.637 98.814 22.525 Q98.814 19.542 100.93 17.415 Q103.045 15.286 106.065 15.286 Q109.253 15.286 111.462 17.423 Q113.67 19.558 113.67 22.523 Q113.67 25.637 111.469 27.767 Q109.268 29.897 106.067 29.897 Z M29.705 9.872 Q26.669 9.872 24.604 7.783 Q22.536 5.695 22.536 2.743 Q22.536 -0.284 24.61 -2.332 Q26.684 -4.378 29.643 -4.378 Q32.653 -4.378 34.701 -2.332 Q36.747 -0.284 36.747 2.677 Q36.747 5.728 34.701 7.8 Q32.653 9.872 29.705 9.872 Z M77.442 9.917 Q62.663 9.917 52.192 0.052 Q41.722 -9.812 41.722 -24.359 Q41.722 -38.648 50.852 -51.424 Q59.982 -64.202 70.863 -74.399 Q73.59 -76.966 77.4 -76.986 Q81.21 -77.005 83.937 -74.399 Q94.818 -64.202 103.948 -51.424 Q113.078 -38.648 113.078 -24.359 Q113.078 -9.812 102.65 0.052 Q92.222 9.917 77.442 9.917 Z M125.135 10.194 Q121.963 10.194 119.765 8.011 Q117.569 5.827 117.569 2.707 Q117.569 -0.321 119.765 -2.43 Q121.963 -4.539 125.133 -4.539 Q128.208 -4.539 130.316 -2.43 Q132.425 -0.321 132.425 2.707 Q132.425 5.827 130.309 8.011 Q128.192 10.194 125.135 10.194 Z M94.791 -7.771 Q102.054 -14.435 102.054 -24.388 Q102.054 -36.514 93.801 -46.988 Q85.546 -57.465 77.4 -65.942 Q69.254 -57.465 60.999 -46.988 Q52.746 -36.514 52.746 -24.388 Q52.746 -14.435 60.019 -7.771 Q67.291 -1.108 77.41 -1.108 Q87.526 -1.108 94.791 -7.771 Z M77.382 -11.816 Q82.883 -11.816 86.791 -15.696 Q90.7 -19.574 90.7 -25.212 Q90.7 -30.76 86.791 -34.749 Q82.883 -38.739 77.382 -38.739 Q71.756 -38.739 67.767 -34.778 Q63.778 -30.817 63.778 -25.27 Q63.778 -19.634 67.767 -15.725 Q71.756 -11.816 77.382 -11.816 Z M77.465 -92.737 Q74.428 -92.737 72.361 -94.805 Q70.294 -96.874 70.294 -99.825 Q70.294 -102.853 72.367 -104.901 Q74.441 -106.948 77.4 -106.948 Q80.411 -106.948 82.458 -104.908 Q84.506 -102.868 84.506 -99.894 Q84.506 -96.831 82.458 -94.784 Q80.411 -92.737 77.465 -92.737 Z"/></g><g id="Regular-L" transform="matrix(1 0 0 1 1378.56 1556)"><path d="M77.466 34.914 Q74.659 34.914 72.804 33.043 Q70.95 31.173 70.95 28.464 Q70.95 25.723 72.821 23.868 Q74.691 22.014 77.4 22.014 Q80.141 22.014 81.996 23.868 Q83.85 25.723 83.85 28.398 Q83.85 31.205 81.996 33.059 Q80.141 34.914 77.466 34.914 Z M49.02 28.625 Q46.279 28.625 44.263 26.688 Q42.248 24.75 42.248 21.944 Q42.248 19.273 44.263 17.338 Q46.279 15.403 49.02 15.403 Q51.922 15.403 53.858 17.338 Q55.793 19.273 55.793 21.944 Q55.793 24.75 53.858 26.688 Q51.922 28.625 49.02 28.625 Z M105.619 28.625 Q102.842 28.625 100.925 26.688 Q99.008 24.75 99.008 21.944 Q99.008 19.273 100.925 17.338 Q102.842 15.403 105.619 15.403 Q108.521 15.403 110.537 17.338 Q112.553 19.273 112.553 21.944 Q112.553 24.75 110.537 26.688 Q108.521 28.625 105.619 28.625 Z M30.865 8.791 Q28.058 8.791 26.203 6.921 Q24.349 5.05 24.349 2.341 Q24.349 -0.4 26.219 -2.254 Q28.09 -4.109 30.799 -4.109 Q33.54 -4.109 35.394 -2.254 Q37.249 -0.4 37.249 2.275 Q37.249 5.083 35.394 6.937 Q33.54 8.791 30.865 8.791 Z M77.439 8.953 Q63.049 8.953 52.809 -0.642 Q42.57 -10.236 42.57 -24.426 Q42.57 -38.455 51.681 -51.194 Q60.791 -63.932 71.595 -74.091 Q74.014 -76.349 77.4 -76.349 Q80.786 -76.349 83.205 -74.091 Q94.009 -63.932 103.119 -51.194 Q112.23 -38.455 112.23 -24.426 Q112.23 -10.236 102.029 -0.642 Q91.83 8.953 77.439 8.953 Z M123.979 9.114 Q121.076 9.114 119.072 7.143 Q117.068 5.173 117.068 2.319 Q117.068 -0.4 119.072 -2.335 Q121.076 -4.27 123.979 -4.27 Q126.743 -4.27 128.678 -2.335 Q130.613 -0.4 130.613 2.319 Q130.613 5.173 128.678 7.143 Q126.743 9.114 123.979 9.114 Z M95.138 -7.495 Q102.555 -14.267 102.555 -24.426 Q102.555 -36.359 94.089 -47.162 Q85.624 -57.966 77.4 -66.674 Q69.176 -57.966 60.711 -47.162 Q52.245 -36.359 52.245 -24.426 Q52.245 -14.267 59.663 -7.495 Q67.08 -0.722 77.4 -0.722 Q87.72 -0.722 95.138 -7.495 Z M77.382 -12.01 Q82.844 -12.01 86.733 -15.849 Q90.623 -19.69 90.623 -25.366 Q90.623 -30.876 86.733 -34.827 Q82.844 -38.777 77.382 -38.777 Q71.756 -38.777 67.806 -34.856 Q63.855 -30.933 63.855 -25.424 Q63.855 -19.75 67.806 -15.88 Q71.756 -12.01 77.382 -12.01 Z M77.466 -92.312 Q74.659 -92.312 72.804 -94.183 Q70.95 -96.053 70.95 -98.762 Q70.95 -101.504 72.821 -103.358 Q74.691 -105.212 77.4 -105.212 Q80.141 -105.212 81.996 -103.358 Q83.85 -101.504 83.85 -98.829 Q83.85 -96.021 81.996 -94.167 Q80.141 -92.312 77.466 -92.312 Z"/></g><g id="Light-L" transform="matrix(1 0 0 1 1082.77 1556)"><path d="M77.44 31.068 Q75.155 31.068 73.674 29.568 Q72.19 28.067 72.19 25.858 Q72.19 23.676 73.691 22.162 Q75.191 20.65 77.4 20.65 Q79.645 20.65 81.126 22.162 Q82.61 23.676 82.61 25.792 Q82.61 28.099 81.126 29.584 Q79.645 31.068 77.44 31.068 Z M50.108 25.028 Q47.954 25.028 46.342 23.46 Q44.729 21.893 44.729 19.587 Q44.729 17.475 46.338 15.91 Q47.948 14.348 50.136 14.348 Q52.48 14.348 54.043 15.91 Q55.607 17.475 55.607 19.587 Q55.607 21.893 54.043 23.46 Q52.48 25.028 50.108 25.028 Z M104.564 25.028 Q102.287 25.028 100.741 23.46 Q99.193 21.893 99.193 19.587 Q99.193 17.475 100.741 15.91 Q102.287 14.348 104.564 14.348 Q106.909 14.348 108.491 15.91 Q110.071 17.475 110.071 19.587 Q110.071 21.893 108.491 23.46 Q106.909 25.028 104.564 25.028 Z M32.668 6 Q30.415 6 28.901 4.5 Q27.388 2.999 27.388 0.79 Q27.388 -1.455 28.917 -2.936 Q30.447 -4.418 32.6 -4.418 Q34.843 -4.418 36.325 -2.936 Q37.807 -1.455 37.807 0.751 Q37.807 3.036 36.325 4.518 Q34.843 6 32.668 6 Z M77.45 6.1 Q64.04 6.1 54.485 -2.812 Q44.927 -11.725 44.927 -24.923 Q44.927 -38.394 53.79 -50.449 Q62.652 -62.505 72.898 -71.921 Q74.759 -73.62 77.4 -73.62 Q80.041 -73.62 81.902 -71.921 Q92.148 -62.505 101.01 -50.449 Q109.873 -38.394 109.873 -24.923 Q109.873 -11.725 100.365 -2.812 Q90.86 6.1 77.45 6.1 Z M122.179 6.198 Q119.83 6.198 118.232 4.634 Q116.634 3.07 116.634 0.767 Q116.634 -1.455 118.232 -2.986 Q119.83 -4.518 122.179 -4.518 Q124.448 -4.518 125.98 -2.999 Q127.512 -1.479 127.512 0.767 Q127.512 3.07 125.991 4.634 Q124.472 6.198 122.179 6.198 Z M95.138 -8.022 Q102.555 -14.825 102.555 -24.923 Q102.555 -37.041 94.028 -47.441 Q85.5 -57.842 77.4 -66.488 Q69.3 -57.842 60.772 -47.441 Q52.245 -37.041 52.245 -24.923 Q52.245 -14.825 59.663 -8.022 Q67.08 -1.219 77.4 -1.219 Q87.72 -1.219 95.138 -8.022 Z M77.394 -13.002 Q82.658 -13.002 86.454 -16.714 Q90.25 -20.426 90.25 -25.863 Q90.25 -31.26 86.454 -35.049 Q82.658 -38.839 77.382 -38.839 Q72.066 -38.839 68.27 -35.08 Q64.476 -31.32 64.476 -25.927 Q64.476 -20.495 68.283 -16.749 Q72.09 -13.002 77.394 -13.002 Z M77.469 -89.273 Q75.217 -89.273 73.704 -90.803 Q72.19 -92.332 72.19 -94.486 Q72.19 -96.728 73.72 -98.209 Q75.249 -99.693 77.403 -99.693 Q79.645 -99.693 81.126 -98.209 Q82.61 -96.728 82.61 -94.552 Q82.61 -92.3 81.126 -90.787 Q79.645 -89.273 77.469 -89.273 Z"/></g><g id="Thin-L" transform="matrix(1 0 0 1 787.282 1556)"><path d="M77.413 27.224 Q75.65 27.224 74.541 26.093 Q73.43 24.963 73.43 23.254 Q73.43 21.63 74.56 20.458 Q75.691 19.285 77.4 19.285 Q79.15 19.285 80.259 20.458 Q81.37 21.63 81.37 23.188 Q81.37 24.995 80.259 26.11 Q79.15 27.224 77.413 27.224 Z M51.195 21.43 Q49.628 21.43 48.419 20.234 Q47.209 19.037 47.209 17.231 Q47.209 15.675 48.412 14.485 Q49.615 13.293 51.253 13.293 Q53.038 13.293 54.23 14.485 Q55.42 15.675 55.42 17.231 Q55.42 19.037 54.23 20.234 Q53.038 21.43 51.195 21.43 Z M103.51 21.43 Q101.733 21.43 100.557 20.234 Q99.38 19.037 99.38 17.231 Q99.38 15.675 100.557 14.485 Q101.733 13.293 103.51 13.293 Q105.296 13.293 106.444 14.485 Q107.591 15.675 107.591 17.231 Q107.591 19.037 106.444 20.234 Q105.296 21.43 103.51 21.43 Z M34.469 3.209 Q32.771 3.209 31.599 2.08 Q30.426 0.95 30.426 -0.76 Q30.426 -2.509 31.615 -3.619 Q32.803 -4.73 34.403 -4.73 Q36.144 -4.73 37.255 -3.619 Q38.365 -2.509 38.365 -0.772 Q38.365 0.99 37.255 2.099 Q36.144 3.209 34.469 3.209 Z M77.461 3.247 Q65.034 3.247 56.159 -4.983 Q47.283 -13.213 47.283 -25.418 Q47.283 -38.331 55.897 -49.705 Q64.513 -61.08 74.199 -69.75 Q75.502 -70.89 77.4 -70.89 Q79.298 -70.89 80.601 -69.75 Q90.287 -61.08 98.903 -49.705 Q107.517 -38.331 107.517 -25.418 Q107.517 -13.213 98.703 -4.983 Q89.887 3.247 77.461 3.247 Z M120.381 3.285 Q118.583 3.285 117.392 2.125 Q116.2 0.967 116.2 -0.782 Q116.2 -2.509 117.392 -3.638 Q118.583 -4.767 120.381 -4.767 Q122.153 -4.767 123.282 -3.662 Q124.411 -2.558 124.411 -0.782 Q124.411 0.967 123.306 2.125 Q122.203 3.285 120.381 3.285 Z M95.138 -8.55 Q102.555 -15.383 102.555 -25.418 Q102.555 -37.723 93.965 -47.72 Q85.375 -57.718 77.4 -66.301 Q69.425 -57.718 60.835 -47.72 Q52.245 -37.723 52.245 -25.418 Q52.245 -15.383 59.663 -8.55 Q67.08 -1.714 77.4 -1.714 Q87.72 -1.714 95.138 -8.55 Z M77.403 -13.995 Q82.473 -13.995 86.175 -17.578 Q89.878 -21.159 89.878 -26.36 Q89.878 -31.642 86.175 -35.272 Q82.473 -38.902 77.381 -38.902 Q72.377 -38.902 68.736 -35.304 Q65.095 -31.707 65.095 -26.431 Q65.095 -21.238 68.759 -17.617 Q72.422 -13.995 77.403 -13.995 Z M77.473 -86.235 Q75.775 -86.235 74.602 -87.423 Q73.43 -88.612 73.43 -90.21 Q73.43 -91.953 74.618 -93.062 Q75.807 -94.173 77.406 -94.173 Q79.15 -94.173 80.259 -93.062 Q81.37 -91.953 81.37 -90.278 Q81.37 -88.58 80.259 -87.407 Q79.15 -86.235 77.473 -86.235 Z"/></g><g id="Ultralight-L" transform="matrix(1 0 0 1 491.205 1556)"><path d="M77.397 24.916 Q75.949 24.916 75.062 24.008 Q74.175 23.101 74.175 21.691 Q74.175 20.401 75.083 19.434 Q75.991 18.466 77.4 18.466 Q78.851 18.466 79.738 19.434 Q80.625 20.401 80.625 21.625 Q80.625 23.133 79.738 24.025 Q78.851 24.916 77.397 24.916 Z M51.848 19.273 Q50.633 19.273 49.665 18.299 Q48.697 17.323 48.697 15.817 Q48.697 14.596 49.657 13.629 Q50.616 12.661 51.922 12.661 Q53.374 12.661 54.341 13.629 Q55.309 14.596 55.309 15.817 Q55.309 17.323 54.341 18.299 Q53.374 19.273 51.848 19.273 Z M102.877 19.273 Q101.4 19.273 100.446 18.299 Q99.491 17.323 99.491 15.817 Q99.491 14.596 100.446 13.629 Q101.4 12.661 102.877 12.661 Q104.329 12.661 105.216 13.629 Q106.103 14.596 106.103 15.817 Q106.103 17.323 105.216 18.299 Q104.329 19.273 102.877 19.273 Z M35.549 1.535 Q34.185 1.535 33.218 0.627 Q32.25 -0.281 32.25 -1.69 Q32.25 -3.141 33.234 -4.028 Q34.217 -4.915 35.483 -4.915 Q36.926 -4.915 37.813 -4.028 Q38.7 -3.141 38.7 -1.687 Q38.7 -0.239 37.813 0.648 Q36.926 1.535 35.549 1.535 Z M77.466 1.535 Q65.629 1.535 57.163 -6.286 Q48.697 -14.106 48.697 -25.716 Q48.697 -38.294 57.163 -49.259 Q65.629 -60.224 74.981 -68.447 Q75.949 -69.254 77.4 -69.254 Q78.851 -69.254 79.819 -68.447 Q89.171 -60.224 97.637 -49.259 Q106.103 -38.294 106.103 -25.716 Q106.103 -14.106 97.703 -6.286 Q89.305 1.535 77.466 1.535 Z M119.302 1.535 Q117.835 1.535 116.887 0.621 Q115.939 -0.294 115.939 -1.713 Q115.939 -3.141 116.887 -4.028 Q117.835 -4.915 119.302 -4.915 Q120.776 -4.915 121.663 -4.06 Q122.55 -3.206 122.55 -1.713 Q122.55 -0.294 121.695 0.621 Q120.841 1.535 119.302 1.535 Z M95.138 -8.866 Q102.555 -15.719 102.555 -25.716 Q102.555 -38.132 93.928 -47.888 Q85.301 -57.644 77.4 -66.19 Q69.499 -57.644 60.872 -47.888 Q52.245 -38.132 52.245 -25.716 Q52.245 -15.719 59.663 -8.866 Q67.08 -2.012 77.4 -2.012 Q87.72 -2.012 95.138 -8.866 Z M77.41 -14.59 Q82.36 -14.59 86.008 -18.096 Q89.655 -21.601 89.655 -26.656 Q89.655 -31.871 86.008 -35.406 Q82.36 -38.939 77.381 -38.939 Q72.562 -38.939 69.015 -35.438 Q65.468 -31.939 65.468 -26.732 Q65.468 -21.685 69.046 -18.137 Q72.622 -14.59 77.41 -14.59 Z M77.474 -84.411 Q76.11 -84.411 75.142 -85.395 Q74.175 -86.379 74.175 -87.644 Q74.175 -89.087 75.159 -89.974 Q76.142 -90.861 77.408 -90.861 Q78.851 -90.861 79.738 -89.974 Q80.625 -89.087 80.625 -87.71 Q80.625 -86.346 79.738 -85.379 Q78.851 -84.411 77.474 -84.411 Z"/></g><g id="Bold-M" transform="matrix(1 0 0 1 2281.8 1126)"><path d="M60 25.52 Q56.25 25.52 53.562 22.833 Q50.875 20.145 50.875 16.395 Q50.875 12.645 53.562 9.958 Q56.25 7.27 60 7.27 Q63.75 7.27 66.438 9.958 Q69.125 12.645 69.125 16.395 Q69.125 20.145 66.438 22.833 Q63.75 25.52 60 25.52 Z M36.75 20.27 Q33 20.27 30.312 17.583 Q27.625 14.895 27.625 11.02 Q27.625 7.27 30.312 4.52 Q33 1.77 36.75 1.77 Q40.5 1.77 43.188 4.52 Q45.875 7.27 45.875 11.02 Q45.875 14.895 43.188 17.583 Q40.5 20.27 36.75 20.27 Z M83.25 20.27 Q79.5 20.27 76.812 17.583 Q74.125 14.895 74.125 11.02 Q74.125 7.27 76.812 4.52 Q79.5 1.77 83.25 1.77 Q87 1.77 89.688 4.52 Q92.375 7.27 92.375 11.02 Q92.375 14.895 89.688 17.583 Q87 20.27 83.25 20.27 Z M20 4.395 Q16.25 4.395 13.562 1.645 Q10.875 -1.105 10.875 -4.855 Q10.875 -8.605 13.562 -11.23 Q16.25 -13.855 20 -13.855 Q23.75 -13.855 26.438 -11.23 Q29.125 -8.605 29.125 -4.855 Q29.125 -1.105 26.438 1.645 Q23.75 4.395 20 4.395 Z M60 3.895 Q47 3.895 37.938 -5.23 Q28.875 -14.355 28.875 -27.355 Q28.875 -38.355 35.688 -48.48 Q42.5 -58.605 51.125 -67.23 Q54.75 -70.855 59.938 -70.855 Q65.125 -70.855 68.875 -67.23 Q77.5 -58.605 84.312 -48.48 Q91.125 -38.355 91.125 -27.355 Q91.125 -14.355 82.062 -5.23 Q73 3.895 60 3.895 Z M100 4.395 Q96.25 4.395 93.562 1.645 Q90.875 -1.105 90.875 -4.855 Q90.875 -8.605 93.562 -11.23 Q96.25 -13.855 100 -13.855 Q103.75 -13.855 106.438 -11.23 Q109.125 -8.605 109.125 -4.855 Q109.125 -1.105 106.438 1.645 Q103.75 4.395 100 4.395 Z M70.875 -16.417 Q75.375 -20.98 75.375 -27.355 Q75.375 -34.855 70.5 -42.042 Q65.625 -49.23 60 -54.23 Q54.375 -49.23 49.5 -42.042 Q44.625 -34.855 44.625 -27.355 Q44.625 -20.98 49.125 -16.417 Q53.625 -11.855 60 -11.855 Q66.375 -11.855 70.875 -16.417 Z M60 -16.855 Q64.375 -16.855 67.375 -19.855 Q70.375 -22.855 70.375 -27.105 Q70.375 -31.48 67.375 -34.542 Q64.375 -37.605 60 -37.605 Q55.625 -37.605 52.625 -34.542 Q49.625 -31.48 49.625 -27.105 Q49.625 -22.855 52.625 -19.855 Q55.625 -16.855 60 -16.855 Z M60 -79.48 Q56.25 -79.48 53.562 -82.167 Q50.875 -84.855 50.875 -88.605 Q50.875 -92.355 53.562 -95.042 Q56.25 -97.73 60 -97.73 Q63.75 -97.73 66.438 -95.042 Q69.125 -92.355 69.125 -88.605 Q69.125 -84.855 66.438 -82.167 Q63.75 -79.48 60 -79.48 Z"/></g><g id="Semibold-M" transform="matrix(1 0 0 1 1985.97 1126)"><path d="M60 23.02 Q56.739 23.02 54.432 20.713 Q52.125 18.406 52.125 15.145 Q52.125 11.939 54.432 9.604 Q56.739 7.27 60 7.27 Q63.206 7.27 65.541 9.604 Q67.875 11.939 67.875 15.145 Q67.875 18.406 65.541 20.713 Q63.206 23.02 60 23.02 Z M37.62 17.879 Q34.359 17.879 32.051 15.571 Q29.745 13.265 29.745 9.933 Q29.745 6.726 32.051 4.358 Q34.359 1.988 37.62 1.988 Q40.826 1.988 43.16 4.358 Q45.495 6.726 45.495 9.933 Q45.495 13.265 43.16 15.571 Q40.826 17.879 37.62 17.879 Z M82.38 17.879 Q79.12 17.879 76.812 15.571 Q74.505 13.265 74.505 9.933 Q74.505 6.726 76.812 4.358 Q79.12 1.988 82.38 1.988 Q85.588 1.988 87.921 4.358 Q90.255 6.726 90.255 9.933 Q90.255 13.265 87.921 15.571 Q85.588 17.879 82.38 17.879 Z M22.174 2.384 Q18.913 2.384 16.606 0.041 Q14.299 -2.3 14.299 -5.561 Q14.299 -8.767 16.606 -11.067 Q18.913 -13.366 22.174 -13.366 Q25.38 -13.366 27.715 -11.067 Q30.049 -8.767 30.049 -5.561 Q30.049 -2.3 27.715 0.041 Q25.38 2.384 22.174 2.384 Z M60 2.101 Q47.706 2.101 39.079 -6.561 Q30.451 -15.225 30.451 -27.517 Q30.451 -37.975 37.236 -48.045 Q44.021 -58.116 52.484 -66.632 Q55.565 -69.767 59.938 -69.741 Q64.31 -69.714 67.516 -66.632 Q75.979 -58.116 82.764 -48.045 Q89.549 -37.975 89.549 -27.517 Q89.549 -15.225 80.921 -6.561 Q72.294 2.101 60 2.101 Z M97.826 2.384 Q94.565 2.384 92.259 0.041 Q89.951 -2.3 89.951 -5.561 Q89.951 -8.767 92.259 -11.067 Q94.565 -13.366 97.826 -13.366 Q101.032 -13.366 103.368 -11.067 Q105.701 -8.767 105.701 -5.561 Q105.701 -2.3 103.368 0.041 Q101.032 2.384 97.826 2.384 Z M71.528 -15.929 Q76.299 -20.709 76.299 -27.464 Q76.299 -34.529 70.989 -42.369 Q65.679 -50.209 60 -55.642 Q54.266 -50.209 48.984 -42.369 Q43.701 -34.529 43.701 -27.464 Q43.701 -20.709 48.472 -15.929 Q53.245 -11.149 60 -11.149 Q66.755 -11.149 71.528 -15.929 Z M60 -17.235 Q64.266 -17.235 67.239 -20.181 Q70.213 -23.126 70.213 -27.376 Q70.213 -31.642 67.239 -34.651 Q64.266 -37.659 60 -37.659 Q55.679 -37.659 52.734 -34.651 Q49.788 -31.642 49.788 -27.376 Q49.788 -23.126 52.734 -20.181 Q55.679 -17.235 60 -17.235 Z M60 -78.719 Q56.739 -78.719 54.432 -81.026 Q52.125 -83.334 52.125 -86.594 Q52.125 -89.801 54.432 -92.135 Q56.739 -94.469 60 -94.469 Q63.206 -94.469 65.541 -92.135 Q67.875 -89.801 67.875 -86.594 Q67.875 -83.334 65.541 -81.026 Q63.206 -78.719 60 -78.719 Z"/></g><g id="Medium-M" transform="matrix(1 0 0 1 1689.91 1126)"><path d="M60 21.145 Q57.106 21.145 55.084 19.124 Q53.062 17.101 53.062 14.208 Q53.062 11.409 55.084 9.339 Q57.106 7.27 60 7.27 Q62.799 7.27 64.869 9.339 Q66.938 11.409 66.938 14.208 Q66.938 17.101 64.869 19.124 Q62.799 21.145 60 21.145 Z M38.271 16.085 Q35.377 16.085 33.356 14.064 Q31.334 12.041 31.334 9.118 Q31.334 6.319 33.356 4.235 Q35.377 2.15 38.271 2.15 Q41.071 2.15 43.14 4.235 Q45.209 6.319 45.209 9.118 Q45.209 12.041 43.14 14.064 Q41.071 16.085 38.271 16.085 Z M81.729 16.085 Q78.834 16.085 76.812 14.064 Q74.791 12.041 74.791 9.118 Q74.791 6.319 76.812 4.235 Q78.834 2.15 81.729 2.15 Q84.528 2.15 86.596 4.235 Q88.666 6.319 88.666 9.118 Q88.666 12.041 86.596 14.064 Q84.528 16.085 81.729 16.085 Z M23.804 0.876 Q20.91 0.876 18.889 -1.161 Q16.866 -3.197 16.866 -6.091 Q16.866 -8.89 18.889 -10.945 Q20.91 -12.999 23.804 -12.999 Q26.604 -12.999 28.672 -10.945 Q30.741 -8.89 30.741 -6.091 Q30.741 -3.197 28.672 -1.161 Q26.604 0.876 23.804 0.876 Z M60 0.756 Q48.236 0.756 39.935 -7.56 Q31.634 -15.876 31.634 -27.64 Q31.634 -37.689 38.398 -47.719 Q45.163 -57.749 53.502 -66.184 Q56.176 -68.952 59.938 -68.905 Q63.699 -68.857 66.498 -66.184 Q74.838 -57.749 81.603 -47.719 Q88.366 -37.689 88.366 -27.64 Q88.366 -15.876 80.065 -7.56 Q71.764 0.756 60 0.756 Z M96.196 0.876 Q93.301 0.876 91.28 -1.161 Q89.259 -3.197 89.259 -6.091 Q89.259 -8.89 91.28 -10.945 Q93.301 -12.999 96.196 -12.999 Q98.995 -12.999 101.064 -10.945 Q103.134 -8.89 103.134 -6.091 Q103.134 -3.197 101.064 -1.161 Q98.995 0.876 96.196 0.876 Z M72.016 -15.561 Q76.991 -20.505 76.991 -27.545 Q76.991 -34.284 71.356 -42.614 Q65.72 -50.942 60 -56.702 Q54.185 -50.942 48.596 -42.614 Q43.009 -34.284 43.009 -27.545 Q43.009 -20.505 47.984 -15.561 Q52.959 -10.619 60 -10.619 Q67.041 -10.619 72.016 -15.561 Z M60 -17.521 Q64.185 -17.521 67.138 -20.426 Q70.09 -23.33 70.09 -27.58 Q70.09 -31.765 67.138 -34.732 Q64.185 -37.7 60 -37.7 Q55.72 -37.7 52.815 -34.732 Q49.91 -31.765 49.91 -27.58 Q49.91 -23.33 52.815 -20.426 Q55.72 -17.521 60 -17.521 Z M60 -78.149 Q57.106 -78.149 55.084 -80.17 Q53.062 -82.192 53.062 -85.086 Q53.062 -87.885 55.084 -89.954 Q57.106 -92.024 60 -92.024 Q62.799 -92.024 64.869 -89.954 Q66.938 -87.885 66.938 -85.086 Q66.938 -82.192 64.869 -80.17 Q62.799 -78.149 60 -78.149 Z"/></g><g id="Regular-M" transform="matrix(1 0 0 1 1394.06 1126)"><path d="M60 19.77 Q57.375 19.77 55.562 17.958 Q53.75 16.145 53.75 13.52 Q53.75 11.02 55.562 9.145 Q57.375 7.27 60 7.27 Q62.5 7.27 64.375 9.145 Q66.25 11.02 66.25 13.52 Q66.25 16.145 64.375 17.958 Q62.5 19.77 60 19.77 Z M38.75 14.77 Q36.125 14.77 34.312 12.958 Q32.5 11.145 32.5 8.52 Q32.5 6.02 34.312 4.145 Q36.125 2.27 38.75 2.27 Q41.25 2.27 43.125 4.145 Q45 6.02 45 8.52 Q45 11.145 43.125 12.958 Q41.25 14.77 38.75 14.77 Z M81.25 14.77 Q78.625 14.77 76.812 12.958 Q75 11.145 75 8.52 Q75 6.02 76.812 4.145 Q78.625 2.27 81.25 2.27 Q83.75 2.27 85.625 4.145 Q87.5 6.02 87.5 8.52 Q87.5 11.145 85.625 12.958 Q83.75 14.77 81.25 14.77 Z M25 -0.23 Q22.375 -0.23 20.562 -2.042 Q18.75 -3.855 18.75 -6.48 Q18.75 -8.98 20.562 -10.855 Q22.375 -12.73 25 -12.73 Q27.5 -12.73 29.375 -10.855 Q31.25 -8.98 31.25 -6.48 Q31.25 -3.855 29.375 -2.042 Q27.5 -0.23 25 -0.23 Z M60 -0.23 Q48.625 -0.23 40.562 -8.292 Q32.5 -16.355 32.5 -27.73 Q32.5 -37.48 39.25 -47.48 Q46 -57.48 54.25 -65.855 Q56.625 -68.355 59.938 -68.292 Q63.25 -68.23 65.75 -65.855 Q74 -57.48 80.75 -47.48 Q87.5 -37.48 87.5 -27.73 Q87.5 -16.355 79.438 -8.292 Q71.375 -0.23 60 -0.23 Z M95 -0.23 Q92.375 -0.23 90.562 -2.042 Q88.75 -3.855 88.75 -6.48 Q88.75 -8.98 90.562 -10.855 Q92.375 -12.73 95 -12.73 Q97.5 -12.73 99.375 -10.855 Q101.25 -8.98 101.25 -6.48 Q101.25 -3.855 99.375 -2.042 Q97.5 -0.23 95 -0.23 Z M72.375 -15.292 Q77.5 -20.355 77.5 -27.605 Q77.5 -34.105 71.625 -42.792 Q65.75 -51.48 60 -57.48 Q54.125 -51.48 48.312 -42.792 Q42.5 -34.105 42.5 -27.605 Q42.5 -20.355 47.625 -15.292 Q52.75 -10.23 60 -10.23 Q67.25 -10.23 72.375 -15.292 Z M60 -17.73 Q64.125 -17.73 67.062 -20.605 Q70 -23.48 70 -27.73 Q70 -31.855 67.062 -34.792 Q64.125 -37.73 60 -37.73 Q55.75 -37.73 52.875 -34.792 Q50 -31.855 50 -27.73 Q50 -23.48 52.875 -20.605 Q55.75 -17.73 60 -17.73 Z M60 -77.73 Q57.375 -77.73 55.562 -79.542 Q53.75 -81.355 53.75 -83.98 Q53.75 -86.48 55.562 -88.355 Q57.375 -90.23 60 -90.23 Q62.5 -90.23 64.375 -88.355 Q66.25 -86.48 66.25 -83.98 Q66.25 -81.355 64.375 -79.542 Q62.5 -77.73 60 -77.73 Z"/></g><g id="Light-M" transform="matrix(1 0 0 1 1098.18 1126)"><path d="M60 16.645 Q57.904 16.645 56.476 15.218 Q55.049 13.789 55.049 11.693 Q55.049 9.674 56.476 8.208 Q57.904 6.741 60 6.741 Q62.019 6.741 63.485 8.208 Q64.951 9.674 64.951 11.693 Q64.951 13.789 63.485 15.218 Q62.019 16.645 60 16.645 Z M39.424 11.838 Q37.328 11.838 35.899 10.409 Q34.471 8.981 34.471 6.885 Q34.471 4.866 35.899 3.4 Q37.328 1.934 39.424 1.934 Q41.443 1.934 42.909 3.4 Q44.375 4.866 44.375 6.885 Q44.375 8.981 42.909 10.409 Q41.443 11.838 39.424 11.838 Z M80.576 11.838 Q78.481 11.838 77.052 10.409 Q75.625 8.981 75.625 6.885 Q75.625 4.866 77.052 3.4 Q78.481 1.934 80.576 1.934 Q82.596 1.934 84.062 3.4 Q85.529 4.866 85.529 6.885 Q85.529 8.981 84.062 10.409 Q82.596 11.838 80.576 11.838 Z M26.106 -2.634 Q24.01 -2.634 22.582 -4.062 Q21.154 -5.49 21.154 -7.586 Q21.154 -9.605 22.582 -11.071 Q24.01 -12.537 26.106 -12.537 Q28.125 -12.537 29.591 -11.071 Q31.058 -9.605 31.058 -7.586 Q31.058 -5.49 29.591 -4.062 Q28.125 -2.634 26.106 -2.634 Z M60 -2.634 Q49.443 -2.634 41.956 -9.999 Q34.471 -17.365 34.471 -27.874 Q34.471 -37.48 41.101 -46.927 Q47.731 -56.374 55.596 -64.027 Q57.443 -65.902 59.961 -65.865 Q62.481 -65.826 64.404 -64.027 Q72.269 -56.374 78.899 -46.927 Q85.529 -37.48 85.529 -27.874 Q85.529 -17.365 78.044 -9.999 Q70.558 -2.634 60 -2.634 Z M93.894 -2.634 Q91.797 -2.634 90.37 -4.062 Q88.942 -5.49 88.942 -7.586 Q88.942 -9.605 90.37 -11.071 Q91.797 -12.537 93.894 -12.537 Q95.914 -12.537 97.38 -11.071 Q98.846 -9.605 98.846 -7.586 Q98.846 -5.49 97.38 -4.062 Q95.914 -2.634 93.894 -2.634 Z M72.735 -15.269 Q78.029 -20.402 78.029 -27.797 Q78.029 -35.162 71.938 -43.466 Q65.846 -51.769 60 -57.912 Q54.078 -51.769 48.024 -43.466 Q41.971 -35.162 41.971 -27.797 Q41.971 -20.402 47.265 -15.269 Q52.557 -10.134 60 -10.134 Q67.442 -10.134 72.735 -15.269 Z M60 -18.355 Q64.029 -18.355 66.894 -21.157 Q69.76 -23.961 69.76 -28.066 Q69.76 -32.144 66.894 -34.985 Q64.029 -37.826 60 -37.826 Q55.943 -37.826 53.14 -34.985 Q50.336 -32.144 50.336 -28.066 Q50.336 -23.961 53.14 -21.157 Q55.943 -18.355 60 -18.355 Z M60 -75.855 Q57.904 -75.855 56.476 -77.282 Q55.049 -78.71 55.049 -80.806 Q55.049 -82.826 56.476 -84.292 Q57.904 -85.759 60 -85.759 Q62.019 -85.759 63.485 -84.292 Q64.951 -82.826 64.951 -80.806 Q64.951 -78.71 63.485 -77.282 Q62.019 -75.855 60 -75.855 Z"/></g><g id="Thin-M" transform="matrix(1 0 0 1 802.565 1126)"><path d="M60 13.52 Q58.432 13.52 57.39 12.476 Q56.346 11.434 56.346 9.866 Q56.346 8.328 57.39 7.27 Q58.432 6.213 60 6.213 Q61.539 6.213 62.596 7.27 Q63.654 8.328 63.654 9.866 Q63.654 11.434 62.596 12.476 Q61.539 13.52 60 13.52 Z M40.096 8.905 Q38.529 8.905 37.485 7.861 Q36.443 6.818 36.443 5.251 Q36.443 3.713 37.485 2.655 Q38.529 1.598 40.096 1.598 Q41.635 1.598 42.693 2.655 Q43.75 3.713 43.75 5.251 Q43.75 6.818 42.693 7.861 Q41.635 8.905 40.096 8.905 Z M79.904 8.905 Q78.336 8.905 77.294 7.861 Q76.25 6.818 76.25 5.251 Q76.25 3.713 77.294 2.655 Q78.336 1.598 79.904 1.598 Q81.442 1.598 82.5 2.655 Q83.558 3.713 83.558 5.251 Q83.558 6.818 82.5 7.861 Q81.442 8.905 79.904 8.905 Z M27.211 -5.037 Q25.644 -5.037 24.601 -6.081 Q23.558 -7.124 23.558 -8.691 Q23.558 -10.23 24.601 -11.287 Q25.644 -12.345 27.211 -12.345 Q28.75 -12.345 29.808 -11.287 Q30.865 -10.23 30.865 -8.691 Q30.865 -7.124 29.808 -6.081 Q28.75 -5.037 27.211 -5.037 Z M60 -5.037 Q50.26 -5.037 43.351 -11.706 Q36.443 -18.374 36.443 -28.019 Q36.443 -37.48 42.953 -46.374 Q49.461 -55.269 56.943 -62.201 Q58.26 -63.451 59.985 -63.436 Q61.711 -63.422 63.057 -62.201 Q70.539 -55.269 77.047 -46.374 Q83.558 -37.48 83.558 -28.019 Q83.558 -18.374 76.649 -11.706 Q69.74 -5.037 60 -5.037 Z M92.789 -5.037 Q91.221 -5.037 90.177 -6.081 Q89.135 -7.124 89.135 -8.691 Q89.135 -10.23 90.177 -11.287 Q91.221 -12.345 92.789 -12.345 Q94.328 -12.345 95.385 -11.287 Q96.442 -10.23 96.442 -8.691 Q96.442 -7.124 95.385 -6.081 Q94.328 -5.037 92.789 -5.037 Z M73.096 -15.245 Q78.558 -20.451 78.558 -27.99 Q78.558 -36.22 72.25 -44.139 Q65.942 -52.057 60 -58.345 Q54.029 -52.057 47.735 -44.139 Q41.443 -36.22 41.443 -27.99 Q41.443 -20.451 46.904 -15.245 Q52.365 -10.037 60 -10.037 Q67.635 -10.037 73.096 -15.245 Z M60 -18.98 Q63.932 -18.98 66.726 -21.711 Q69.519 -24.441 69.519 -28.402 Q69.519 -32.432 66.726 -35.177 Q63.932 -37.922 60 -37.922 Q56.135 -37.922 53.404 -35.177 Q50.672 -32.432 50.672 -28.402 Q50.672 -24.441 53.404 -21.711 Q56.135 -18.98 60 -18.98 Z M60 -73.98 Q58.432 -73.98 57.39 -75.024 Q56.346 -76.066 56.346 -77.634 Q56.346 -79.172 57.39 -80.23 Q58.432 -81.287 60 -81.287 Q61.539 -81.287 62.596 -80.23 Q63.654 -79.172 63.654 -77.634 Q63.654 -76.066 62.596 -75.024 Q61.539 -73.98 60 -73.98 Z"/></g><g id="Ultralight-M" transform="matrix(1 0 0 1 506.415 1126)"><path d="M60 11.645 Q58.75 11.645 57.938 10.833 Q57.125 10.02 57.125 8.77 Q57.125 7.52 57.938 6.708 Q58.75 5.895 60 5.895 Q61.25 5.895 62.062 6.708 Q62.875 7.52 62.875 8.77 Q62.875 10.02 62.062 10.833 Q61.25 11.645 60 11.645 Z M40.5 7.145 Q39.25 7.145 38.438 6.333 Q37.625 5.52 37.625 4.27 Q37.625 3.02 38.438 2.208 Q39.25 1.395 40.5 1.395 Q41.75 1.395 42.562 2.208 Q43.375 3.02 43.375 4.27 Q43.375 5.52 42.562 6.333 Q41.75 7.145 40.5 7.145 Z M79.5 7.145 Q78.25 7.145 77.438 6.333 Q76.625 5.52 76.625 4.27 Q76.625 3.02 77.438 2.208 Q78.25 1.395 79.5 1.395 Q80.75 1.395 81.562 2.208 Q82.375 3.02 82.375 4.27 Q82.375 5.52 81.562 6.333 Q80.75 7.145 79.5 7.145 Z M27.875 -6.48 Q26.625 -6.48 25.812 -7.292 Q25 -8.105 25 -9.355 Q25 -10.605 25.812 -11.417 Q26.625 -12.23 27.875 -12.23 Q29.125 -12.23 29.938 -11.417 Q30.75 -10.605 30.75 -9.355 Q30.75 -8.105 29.938 -7.292 Q29.125 -6.48 27.875 -6.48 Z M60 -6.48 Q50.75 -6.48 44.188 -12.73 Q37.625 -18.98 37.625 -28.105 Q37.625 -37.48 44.062 -46.042 Q50.5 -54.605 57.75 -61.105 Q58.75 -61.98 60 -61.98 Q61.25 -61.98 62.25 -61.105 Q69.5 -54.605 75.938 -46.042 Q82.375 -37.48 82.375 -28.105 Q82.375 -18.98 75.812 -12.73 Q69.25 -6.48 60 -6.48 Z M92.125 -6.48 Q90.875 -6.48 90.062 -7.292 Q89.25 -8.105 89.25 -9.355 Q89.25 -10.605 90.062 -11.417 Q90.875 -12.23 92.125 -12.23 Q93.375 -12.23 94.188 -11.417 Q95 -10.605 95 -9.355 Q95 -8.105 94.188 -7.292 Q93.375 -6.48 92.125 -6.48 Z M73.312 -15.23 Q78.875 -20.48 78.875 -28.105 Q78.875 -36.855 72.438 -44.542 Q66 -52.23 60 -58.605 Q54 -52.23 47.562 -44.542 Q41.125 -36.855 41.125 -28.105 Q41.125 -20.48 46.688 -15.23 Q52.25 -9.98 60 -9.98 Q67.75 -9.98 73.312 -15.23 Z M60 -19.355 Q63.875 -19.355 66.625 -22.042 Q69.375 -24.73 69.375 -28.605 Q69.375 -32.605 66.625 -35.292 Q63.875 -37.98 60 -37.98 Q56.25 -37.98 53.562 -35.292 Q50.875 -32.605 50.875 -28.605 Q50.875 -24.73 53.562 -22.042 Q56.25 -19.355 60 -19.355 Z M60 -72.855 Q58.75 -72.855 57.938 -73.667 Q57.125 -74.48 57.125 -75.73 Q57.125 -76.98 57.938 -77.792 Q58.75 -78.605 60 -78.605 Q61.25 -78.605 62.062 -77.792 Q62.875 -76.98 62.875 -75.73 Q62.875 -74.48 62.062 -73.667 Q61.25 -72.855 60 -72.855 Z"/></g><g id="Bold-S" transform="matrix(1 0 0 1 2294.23 696)"><path d="M47.34 11.913 Q44.48 11.913 42.409 9.842 Q40.338 7.771 40.338 4.91 Q40.338 1.952 42.409 -0.07 Q44.48 -2.092 47.34 -2.092 Q50.299 -2.092 52.321 -0.07 Q54.342 1.952 54.342 4.91 Q54.342 7.771 52.321 9.842 Q50.299 11.913 47.34 11.913 Z M29.193 7.573 Q26.333 7.573 24.262 5.502 Q22.191 3.431 22.191 0.472 Q22.191 -2.486 24.262 -4.558 Q26.333 -6.629 29.193 -6.629 Q32.152 -6.629 34.174 -4.558 Q36.195 -2.486 36.195 0.472 Q36.195 3.431 34.174 5.502 Q32.152 7.573 29.193 7.573 Z M65.487 7.573 Q62.627 7.573 60.556 5.502 Q58.485 3.431 58.485 0.472 Q58.485 -2.486 60.556 -4.558 Q62.627 -6.629 65.487 -6.629 Q68.446 -6.629 70.468 -4.558 Q72.489 -2.486 72.489 0.472 Q72.489 3.431 70.468 5.502 Q68.446 7.573 65.487 7.573 Z M16.175 -4.36 Q13.314 -4.36 11.243 -6.481 Q9.172 -8.601 9.172 -11.461 Q9.172 -14.42 11.243 -16.393 Q13.314 -18.365 16.175 -18.365 Q19.133 -18.365 21.155 -16.393 Q23.177 -14.42 23.177 -11.461 Q23.177 -8.601 21.155 -6.481 Q19.133 -4.36 16.175 -4.36 Z M47.34 -5.938 Q37.28 -5.938 30.229 -12.694 Q23.177 -19.45 23.177 -29.411 Q23.177 -38.485 28.601 -46.227 Q34.026 -53.969 40.831 -60.675 Q43.494 -63.239 47.389 -63.338 Q51.285 -63.437 53.948 -60.774 Q60.753 -54.067 66.128 -46.276 Q71.503 -38.485 71.503 -29.411 Q71.503 -19.45 64.451 -12.694 Q57.4 -5.938 47.34 -5.938 Z M78.505 -4.36 Q75.645 -4.36 73.574 -6.481 Q71.503 -8.601 71.503 -11.461 Q71.503 -14.42 73.574 -16.393 Q75.645 -18.365 78.505 -18.365 Q81.464 -18.365 83.486 -16.393 Q85.508 -14.42 85.508 -11.461 Q85.508 -8.601 83.486 -6.481 Q81.464 -4.36 78.505 -4.36 Z M56.167 -21.028 Q59.865 -24.48 59.865 -29.411 Q59.865 -36.611 55.92 -41.641 Q51.975 -46.67 47.34 -51.207 Q42.803 -46.67 38.809 -41.641 Q34.815 -36.611 34.815 -29.411 Q34.815 -24.48 38.513 -21.028 Q42.212 -17.576 47.34 -17.576 Q52.468 -17.576 56.167 -21.028 Z M47.34 -22.705 Q50.397 -22.705 52.567 -24.874 Q54.737 -27.044 54.737 -30.003 Q54.737 -33.06 52.567 -35.279 Q50.397 -37.498 47.34 -37.498 Q44.283 -37.498 42.113 -35.279 Q39.943 -33.06 39.943 -30.003 Q39.943 -27.044 42.113 -24.874 Q44.283 -22.705 47.34 -22.705 Z M47.34 -69.749 Q44.48 -69.749 42.409 -71.82 Q40.338 -73.891 40.338 -76.751 Q40.338 -79.71 42.409 -81.732 Q44.48 -83.753 47.34 -83.753 Q50.299 -83.753 52.321 -81.732 Q54.342 -79.71 54.342 -76.751 Q54.342 -73.891 52.321 -71.82 Q50.299 -69.749 47.34 -69.749 Z"/></g><g id="Semibold-S" transform="matrix(1 0 0 1 1998.1 696)"><path d="M47.34 9.94 Q44.865 9.94 43.095 8.169 Q41.324 6.399 41.324 3.924 Q41.324 1.394 43.095 -0.349 Q44.865 -2.092 47.34 -2.092 Q49.87 -2.092 51.613 -0.349 Q53.356 1.394 53.356 3.924 Q53.356 6.399 51.613 8.169 Q49.87 9.94 47.34 9.94 Z M29.879 5.687 Q27.405 5.687 25.634 3.915 Q23.863 2.145 23.863 -0.386 Q23.863 -2.916 25.634 -4.686 Q27.405 -6.457 29.879 -6.457 Q32.409 -6.457 34.152 -4.686 Q35.896 -2.916 35.896 -0.386 Q35.896 2.145 34.152 3.915 Q32.409 5.687 29.879 5.687 Z M64.801 5.687 Q62.327 5.687 60.556 3.915 Q58.784 2.145 58.784 -0.386 Q58.784 -2.916 60.556 -4.686 Q62.327 -6.457 64.801 -6.457 Q67.331 -6.457 69.074 -4.686 Q70.817 -2.916 70.817 -0.386 Q70.817 2.145 69.074 3.915 Q67.331 5.687 64.801 5.687 Z M17.89 -5.947 Q15.415 -5.947 13.645 -7.746 Q11.873 -9.544 11.873 -12.019 Q11.873 -14.548 13.645 -16.264 Q15.415 -17.98 17.89 -17.98 Q20.419 -17.98 22.163 -16.264 Q23.906 -14.548 23.906 -12.019 Q23.906 -9.544 22.163 -7.746 Q20.419 -5.947 17.89 -5.947 Z M47.34 -7.354 Q37.837 -7.354 31.129 -13.745 Q24.421 -20.136 24.421 -29.539 Q24.421 -38.185 29.823 -45.883 Q35.226 -53.583 41.903 -60.204 Q44.137 -62.381 47.389 -62.459 Q50.642 -62.536 52.876 -60.302 Q59.553 -53.682 64.906 -45.933 Q70.259 -38.185 70.259 -29.539 Q70.259 -20.136 63.551 -13.745 Q56.843 -7.354 47.34 -7.354 Z M76.79 -5.947 Q74.316 -5.947 72.546 -7.746 Q70.774 -9.544 70.774 -12.019 Q70.774 -14.548 72.546 -16.264 Q74.316 -17.98 76.79 -17.98 Q79.32 -17.98 81.064 -16.264 Q82.807 -14.548 82.807 -12.019 Q82.807 -9.544 81.064 -7.746 Q79.32 -5.947 76.79 -5.947 Z M56.682 -20.642 Q60.594 -24.266 60.594 -29.497 Q60.594 -36.353 56.306 -41.898 Q52.018 -47.443 47.34 -52.322 Q42.717 -47.443 38.402 -41.898 Q34.086 -36.353 34.086 -29.497 Q34.086 -24.266 37.998 -20.642 Q41.912 -17.019 47.34 -17.019 Q52.768 -17.019 56.682 -20.642 Z M47.34 -23.004 Q50.312 -23.004 52.46 -25.132 Q54.609 -27.258 54.609 -30.217 Q54.609 -33.188 52.46 -35.365 Q50.312 -37.541 47.34 -37.541 Q44.325 -37.541 42.199 -35.365 Q40.071 -33.188 40.071 -30.217 Q40.071 -27.258 42.199 -25.132 Q44.325 -23.004 47.34 -23.004 Z M47.34 -69.148 Q44.865 -69.148 43.095 -70.919 Q41.324 -72.691 41.324 -75.164 Q41.324 -77.695 43.095 -79.438 Q44.865 -81.18 47.34 -81.18 Q49.87 -81.18 51.613 -79.438 Q53.356 -77.695 53.356 -75.164 Q53.356 -72.691 51.613 -70.919 Q49.87 -69.148 47.34 -69.148 Z"/></g><g id="Medium-S" transform="matrix(1 0 0 1 1701.85 696)"><path d="M47.34 8.461 Q45.155 8.461 43.609 6.915 Q42.064 5.369 42.064 3.184 Q42.064 0.976 43.609 -0.558 Q45.155 -2.092 47.34 -2.092 Q49.548 -2.092 51.083 -0.558 Q52.616 0.976 52.616 3.184 Q52.616 5.369 51.083 6.915 Q49.548 8.461 47.34 8.461 Z M30.393 4.271 Q28.209 4.271 26.663 2.726 Q25.117 1.179 25.117 -1.029 Q25.117 -3.237 26.663 -4.782 Q28.209 -6.329 30.393 -6.329 Q32.602 -6.329 34.136 -4.782 Q35.67 -3.237 35.67 -1.029 Q35.67 1.179 34.136 2.726 Q32.602 4.271 30.393 4.271 Z M64.287 4.271 Q62.101 4.271 60.556 2.726 Q59.01 1.179 59.01 -1.029 Q59.01 -3.237 60.556 -4.782 Q62.101 -6.329 64.287 -6.329 Q66.495 -6.329 68.029 -4.782 Q69.563 -3.237 69.563 -1.029 Q69.563 1.179 68.029 2.726 Q66.495 4.271 64.287 4.271 Z M19.176 -7.137 Q16.991 -7.137 15.446 -8.695 Q13.899 -10.252 13.899 -12.437 Q13.899 -14.645 15.446 -16.168 Q16.991 -17.69 19.176 -17.69 Q21.385 -17.69 22.918 -16.168 Q24.452 -14.645 24.452 -12.437 Q24.452 -10.252 22.918 -8.695 Q21.385 -7.137 19.176 -7.137 Z M47.34 -8.415 Q38.256 -8.415 31.805 -14.533 Q25.354 -20.65 25.354 -29.636 Q25.354 -37.959 30.739 -45.626 Q36.126 -53.293 42.707 -59.85 Q44.619 -61.738 47.389 -61.8 Q50.16 -61.861 52.072 -59.948 Q58.652 -53.392 63.99 -45.675 Q69.326 -37.959 69.326 -29.636 Q69.326 -20.65 62.875 -14.533 Q56.424 -8.415 47.34 -8.415 Z M75.504 -7.137 Q73.319 -7.137 71.773 -8.695 Q70.228 -10.252 70.228 -12.437 Q70.228 -14.645 71.773 -16.168 Q73.319 -17.69 75.504 -17.69 Q77.713 -17.69 79.246 -16.168 Q80.781 -14.645 80.781 -12.437 Q80.781 -10.252 79.246 -8.695 Q77.713 -7.137 75.504 -7.137 Z M57.067 -20.352 Q61.141 -24.105 61.141 -29.561 Q61.141 -36.16 56.596 -42.091 Q52.05 -48.022 47.34 -53.158 Q42.653 -48.022 38.096 -42.091 Q33.539 -36.16 33.539 -29.561 Q33.539 -24.105 37.613 -20.352 Q41.686 -16.601 47.34 -16.601 Q52.994 -16.601 57.067 -20.352 Z M47.34 -23.23 Q50.247 -23.23 52.38 -25.325 Q54.512 -27.419 54.512 -30.378 Q54.512 -33.285 52.38 -35.429 Q50.247 -37.573 47.34 -37.573 Q44.358 -37.573 42.263 -35.429 Q40.168 -33.285 40.168 -30.378 Q40.168 -27.419 42.263 -25.325 Q44.358 -23.23 47.34 -23.23 Z M47.34 -68.698 Q45.155 -68.698 43.609 -70.244 Q42.064 -71.79 42.064 -73.975 Q42.064 -76.183 43.609 -77.717 Q45.155 -79.251 47.34 -79.251 Q49.548 -79.251 51.083 -77.717 Q52.616 -76.183 52.616 -73.975 Q52.616 -71.79 51.083 -70.244 Q49.548 -68.698 47.34 -68.698 Z"/></g><g id="Regular-S" transform="matrix(1 0 0 1 1405.73 696)"><path d="M47.34 7.376 Q45.367 7.376 43.987 5.995 Q42.606 4.615 42.606 2.642 Q42.606 0.67 43.987 -0.711 Q45.367 -2.092 47.34 -2.092 Q49.312 -2.092 50.693 -0.711 Q52.074 0.67 52.074 2.642 Q52.074 4.615 50.693 5.995 Q49.312 7.376 47.34 7.376 Z M30.771 3.234 Q28.799 3.234 27.418 1.853 Q26.037 0.472 26.037 -1.5 Q26.037 -3.473 27.418 -4.853 Q28.799 -6.234 30.771 -6.234 Q32.744 -6.234 34.124 -4.853 Q35.505 -3.473 35.505 -1.5 Q35.505 0.472 34.124 1.853 Q32.744 3.234 30.771 3.234 Z M63.909 3.234 Q61.937 3.234 60.556 1.853 Q59.175 0.472 59.175 -1.5 Q59.175 -3.473 60.556 -4.853 Q61.937 -6.234 63.909 -6.234 Q65.882 -6.234 67.262 -4.853 Q68.643 -3.473 68.643 -1.5 Q68.643 0.472 67.262 1.853 Q65.882 3.234 63.909 3.234 Z M20.12 -8.009 Q18.147 -8.009 16.766 -9.39 Q15.386 -10.771 15.386 -12.743 Q15.386 -14.716 16.766 -16.097 Q18.147 -17.477 20.12 -17.477 Q22.092 -17.477 23.473 -16.097 Q24.854 -14.716 24.854 -12.743 Q24.854 -10.771 23.473 -9.39 Q22.092 -8.009 20.12 -8.009 Z M47.34 -9.193 Q38.562 -9.193 32.3 -15.11 Q26.037 -21.028 26.037 -29.707 Q26.037 -37.794 31.412 -45.438 Q36.787 -53.081 43.296 -59.59 Q44.973 -61.267 47.389 -61.316 Q49.806 -61.366 51.482 -59.689 Q57.992 -53.18 63.317 -45.487 Q68.643 -37.794 68.643 -29.707 Q68.643 -21.028 62.38 -15.11 Q56.118 -9.193 47.34 -9.193 Z M74.561 -8.009 Q72.588 -8.009 71.207 -9.39 Q69.827 -10.771 69.827 -12.743 Q69.827 -14.716 71.207 -16.097 Q72.588 -17.477 74.561 -17.477 Q76.533 -17.477 77.914 -16.097 Q79.294 -14.716 79.294 -12.743 Q79.294 -10.771 77.914 -9.39 Q76.533 -8.009 74.561 -8.009 Z M57.35 -20.14 Q61.542 -23.987 61.542 -29.608 Q61.542 -36.019 56.808 -42.232 Q52.074 -48.446 47.34 -53.771 Q42.606 -48.446 37.872 -42.232 Q33.138 -36.019 33.138 -29.608 Q33.138 -23.987 37.33 -20.14 Q41.521 -16.294 47.34 -16.294 Q53.159 -16.294 57.35 -20.14 Z M47.34 -23.395 Q50.2 -23.395 52.321 -25.466 Q54.441 -27.537 54.441 -30.496 Q54.441 -33.356 52.321 -35.477 Q50.2 -37.597 47.34 -37.597 Q44.381 -37.597 42.31 -35.477 Q40.239 -33.356 40.239 -30.496 Q40.239 -27.537 42.31 -25.466 Q44.381 -23.395 47.34 -23.395 Z M47.34 -68.368 Q45.367 -68.368 43.987 -69.749 Q42.606 -71.129 42.606 -73.102 Q42.606 -75.074 43.987 -76.455 Q45.367 -77.836 47.34 -77.836 Q49.312 -77.836 50.693 -76.455 Q52.074 -75.074 52.074 -73.102 Q52.074 -71.129 50.693 -69.749 Q49.312 -68.368 47.34 -68.368 Z"/></g><g id="Light-S" transform="matrix(1 0 0 1 1109.75 696)"><path d="M47.34 4.91 Q45.785 4.91 44.708 3.833 Q43.631 2.755 43.631 1.2 Q43.631 -0.393 44.708 -1.451 Q45.785 -2.509 47.34 -2.509 Q48.933 -2.509 49.991 -1.451 Q51.049 -0.393 51.049 1.2 Q51.049 2.755 49.991 3.833 Q48.933 4.91 47.34 4.91 Z M31.303 0.92 Q29.747 0.92 28.669 -0.158 Q27.592 -1.235 27.592 -2.79 Q27.592 -4.383 28.669 -5.441 Q29.747 -6.5 31.303 -6.5 Q32.895 -6.5 33.954 -5.441 Q35.012 -4.383 35.012 -2.79 Q35.012 -1.235 33.954 -0.158 Q32.895 0.92 31.303 0.92 Z M63.377 0.92 Q61.823 0.92 60.745 -0.158 Q59.668 -1.235 59.668 -2.79 Q59.668 -4.383 60.745 -5.441 Q61.823 -6.5 63.377 -6.5 Q64.971 -6.5 66.029 -5.441 Q67.088 -4.383 67.088 -2.79 Q67.088 -1.235 66.029 -0.158 Q64.971 0.92 63.377 0.92 Z M20.992 -9.906 Q19.437 -9.906 18.36 -10.984 Q17.282 -12.061 17.282 -13.616 Q17.282 -15.209 18.36 -16.267 Q19.437 -17.326 20.992 -17.326 Q22.585 -17.326 23.643 -16.267 Q24.702 -15.209 24.702 -13.616 Q24.702 -12.061 23.643 -10.984 Q22.585 -9.906 20.992 -9.906 Z M47.34 -11.09 Q39.207 -11.09 33.399 -16.457 Q27.592 -21.825 27.592 -29.82 Q27.592 -37.794 32.873 -45.002 Q38.153 -52.208 44.359 -58.148 Q45.618 -59.332 47.408 -59.401 Q49.199 -59.469 50.42 -58.247 Q56.626 -52.307 61.857 -45.051 Q67.088 -37.794 67.088 -29.82 Q67.088 -21.825 61.281 -16.457 Q55.473 -11.09 47.34 -11.09 Z M73.688 -9.906 Q72.132 -9.906 71.055 -10.984 Q69.978 -12.061 69.978 -13.616 Q69.978 -15.209 71.055 -16.267 Q72.132 -17.326 73.688 -17.326 Q75.281 -17.326 76.34 -16.267 Q77.398 -15.209 77.398 -13.616 Q77.398 -12.061 76.34 -10.984 Q75.281 -9.906 73.688 -9.906 Z M57.634 -20.122 Q61.959 -24.024 61.959 -29.76 Q61.959 -36.853 57.055 -42.764 Q52.15 -48.674 47.34 -54.113 Q42.569 -48.674 37.644 -42.764 Q32.721 -36.853 32.721 -29.76 Q32.721 -24.024 37.046 -20.122 Q41.369 -16.218 47.34 -16.218 Q53.311 -16.218 57.634 -20.122 Z M47.34 -23.888 Q50.124 -23.888 52.187 -25.902 Q54.252 -27.917 54.252 -30.761 Q54.252 -33.584 52.187 -35.628 Q50.124 -37.673 47.34 -37.673 Q44.533 -37.673 42.519 -35.628 Q40.504 -33.584 40.504 -30.761 Q40.504 -27.917 42.519 -25.902 Q44.533 -23.888 47.34 -23.888 Z M47.34 -66.889 Q45.785 -66.889 44.708 -67.966 Q43.631 -69.043 43.631 -70.598 Q43.631 -72.192 44.708 -73.25 Q45.785 -74.308 47.34 -74.308 Q48.933 -74.308 49.991 -73.25 Q51.049 -72.192 51.049 -70.598 Q51.049 -69.043 49.991 -67.966 Q48.933 -66.889 47.34 -66.889 Z"/></g><g id="Thin-S" transform="matrix(1 0 0 1 814.015 696)"><path d="M47.34 2.445 Q46.202 2.445 45.429 1.671 Q44.654 0.897 44.654 -0.241 Q44.654 -1.455 45.429 -2.191 Q46.202 -2.926 47.34 -2.926 Q48.554 -2.926 49.29 -2.191 Q50.026 -1.455 50.026 -0.241 Q50.026 0.897 49.29 1.671 Q48.554 2.445 47.34 2.445 Z M31.833 -1.394 Q30.695 -1.394 29.921 -2.168 Q29.148 -2.942 29.148 -4.079 Q29.148 -5.293 29.921 -6.029 Q30.695 -6.765 31.833 -6.765 Q33.047 -6.765 33.783 -6.029 Q34.519 -5.293 34.519 -4.079 Q34.519 -2.942 33.783 -2.168 Q33.047 -1.394 31.833 -1.394 Z M62.847 -1.394 Q61.709 -1.394 60.935 -2.168 Q60.161 -2.942 60.161 -4.079 Q60.161 -5.293 60.935 -6.029 Q61.709 -6.765 62.847 -6.765 Q64.061 -6.765 64.797 -6.029 Q65.532 -5.293 65.532 -4.079 Q65.532 -2.942 64.797 -2.168 Q64.061 -1.394 62.847 -1.394 Z M21.864 -11.803 Q20.726 -11.803 19.953 -12.577 Q19.179 -13.35 19.179 -14.488 Q19.179 -15.702 19.953 -16.438 Q20.726 -17.174 21.864 -17.174 Q23.078 -17.174 23.814 -16.438 Q24.55 -15.702 24.55 -14.488 Q24.55 -13.35 23.814 -12.577 Q23.078 -11.803 21.864 -11.803 Z M47.34 -12.986 Q39.852 -12.986 34.5 -17.804 Q29.148 -22.621 29.148 -29.935 Q29.148 -37.794 34.333 -44.565 Q39.518 -51.336 45.421 -56.708 Q46.263 -57.398 47.427 -57.485 Q48.592 -57.573 49.358 -56.806 Q55.261 -51.435 60.396 -44.614 Q65.532 -37.794 65.532 -29.935 Q65.532 -22.621 60.18 -17.804 Q54.828 -12.986 47.34 -12.986 Z M72.816 -11.803 Q71.678 -11.803 70.903 -12.577 Q70.13 -13.35 70.13 -14.488 Q70.13 -15.702 70.903 -16.438 Q71.678 -17.174 72.816 -17.174 Q74.03 -17.174 74.766 -16.438 Q75.501 -15.702 75.501 -14.488 Q75.501 -13.35 74.766 -12.577 Q74.03 -11.803 72.816 -11.803 Z M57.92 -20.103 Q62.376 -24.063 62.376 -29.912 Q62.376 -37.688 57.301 -43.295 Q52.226 -48.901 47.34 -54.454 Q42.53 -48.901 37.416 -43.295 Q32.304 -37.688 32.304 -29.912 Q32.304 -24.063 36.76 -20.103 Q41.217 -16.142 47.34 -16.142 Q53.463 -16.142 57.92 -20.103 Z M47.34 -24.381 Q50.048 -24.381 52.055 -26.339 Q54.061 -28.296 54.061 -31.027 Q54.061 -33.812 52.055 -35.78 Q50.048 -37.749 47.34 -37.749 Q44.685 -37.749 42.727 -35.78 Q40.77 -33.812 40.77 -31.027 Q40.77 -28.296 42.727 -26.339 Q44.685 -24.381 47.34 -24.381 Z M47.34 -65.409 Q46.202 -65.409 45.429 -66.183 Q44.654 -66.957 44.654 -68.095 Q44.654 -69.309 45.429 -70.045 Q46.202 -70.78 47.34 -70.78 Q48.554 -70.78 49.29 -70.045 Q50.026 -69.309 50.026 -68.095 Q50.026 -66.957 49.29 -66.183 Q48.554 -65.409 47.34 -65.409 Z"/></g><g id="Ultralight-S" transform="matrix(1 0 0 1 517.792 696)"><path d="M47.34 0.965 Q46.452 0.965 45.861 0.374 Q45.269 -0.218 45.269 -1.106 Q45.269 -2.092 45.861 -2.634 Q46.452 -3.177 47.34 -3.177 Q48.326 -3.177 48.869 -2.634 Q49.411 -2.092 49.411 -1.106 Q49.411 -0.218 48.869 0.374 Q48.326 0.965 47.34 0.965 Z M32.152 -2.782 Q31.264 -2.782 30.672 -3.374 Q30.081 -3.966 30.081 -4.853 Q30.081 -5.84 30.672 -6.382 Q31.264 -6.925 32.152 -6.925 Q33.138 -6.925 33.68 -6.382 Q34.223 -5.84 34.223 -4.853 Q34.223 -3.966 33.68 -3.374 Q33.138 -2.782 32.152 -2.782 Z M62.528 -2.782 Q61.641 -2.782 61.049 -3.374 Q60.457 -3.966 60.457 -4.853 Q60.457 -5.84 61.049 -6.382 Q61.641 -6.925 62.528 -6.925 Q63.515 -6.925 64.057 -6.382 Q64.599 -5.84 64.599 -4.853 Q64.599 -3.966 64.057 -3.374 Q63.515 -2.782 62.528 -2.782 Z M22.388 -12.941 Q21.5 -12.941 20.909 -13.532 Q20.317 -14.124 20.317 -15.012 Q20.317 -15.998 20.909 -16.541 Q21.5 -17.083 22.388 -17.083 Q23.374 -17.083 23.917 -16.541 Q24.459 -15.998 24.459 -15.012 Q24.459 -14.124 23.917 -13.532 Q23.374 -12.941 22.388 -12.941 Z M47.34 -14.124 Q40.239 -14.124 35.16 -18.612 Q30.081 -23.099 30.081 -30.003 Q30.081 -37.794 35.209 -44.303 Q40.338 -50.813 46.058 -55.843 Q46.65 -56.237 47.439 -56.336 Q48.228 -56.434 48.721 -55.941 Q54.441 -50.911 59.52 -44.353 Q64.599 -37.794 64.599 -30.003 Q64.599 -23.099 59.52 -18.612 Q54.441 -14.124 47.34 -14.124 Z M72.292 -12.941 Q71.404 -12.941 70.813 -13.532 Q70.221 -14.124 70.221 -15.012 Q70.221 -15.998 70.813 -16.541 Q71.404 -17.083 72.292 -17.083 Q73.278 -17.083 73.821 -16.541 Q74.363 -15.998 74.363 -15.012 Q74.363 -14.124 73.821 -13.532 Q73.278 -12.941 72.292 -12.941 Z M58.09 -20.091 Q62.627 -24.085 62.627 -30.003 Q62.627 -38.189 57.449 -43.613 Q52.271 -49.037 47.34 -54.659 Q42.507 -49.037 37.28 -43.613 Q32.053 -38.189 32.053 -30.003 Q32.053 -24.085 36.59 -20.091 Q41.127 -16.097 47.34 -16.097 Q53.553 -16.097 58.09 -20.091 Z M47.34 -24.677 Q50.003 -24.677 51.975 -26.6 Q53.948 -28.523 53.948 -31.186 Q53.948 -33.948 51.975 -35.871 Q50.003 -37.794 47.34 -37.794 Q44.776 -37.794 42.853 -35.871 Q40.929 -33.948 40.929 -31.186 Q40.929 -28.523 42.853 -26.6 Q44.776 -24.677 47.34 -24.677 Z M47.34 -64.522 Q46.452 -64.522 45.861 -65.113 Q45.269 -65.705 45.269 -66.593 Q45.269 -67.579 45.861 -68.121 Q46.452 -68.664 47.34 -68.664 Q48.326 -68.664 48.869 -68.121 Q49.411 -67.579 49.411 -66.593 Q49.411 -65.705 48.869 -65.113 Q48.326 -64.522 47.34 -64.522 Z"/></g></g></svg>