<svg xmlns="http://www.w3.org/2000/svg" version="1.1" width="3300" height="2000"><g id="Notes"><style>
    text {
      font-family: monospace;
      text-anchor: middle;
    }
    text.emphasis {
      font-weight:bold;
    }
    text.lanchor {
      text-anchor: start;
    }
  </style><rect height="2200" id="artboard" fill="white" width="3300" x="0" y="0"/><line id="" style="fill:none;stroke:black;stroke-width:0.5;" x1="263" x2="3036" y1="292" y2="292"/><text class="lanchor emphasis" transform="matrix(1 0 0 1 263 322)">Weight/Scale Variations</text><text transform="matrix(1 0 0 1 559.711 322)">Ultralight</text><text transform="matrix(1 0 0 1 856.422 322)">Thin</text><text transform="matrix(1 0 0 1 1153.13 322)">Light</text><text transform="matrix(1 0 0 1 1449.84 322)">Regular</text><text transform="matrix(1 0 0 1 1746.56 322)">Medium</text><text transform="matrix(1 0 0 1 2043.27 322)">Semibold</text><text transform="matrix(1 0 0 1 2339.98 322)">Bold</text><text transform="matrix(1 0 0 1 2636.69 322)">Heavy</text><text transform="matrix(1 0 0 1 2933.4 322)">Black</text><text id="template-version" style="text-anchor: end;" transform="matrix(1 0 0 1 3036 1933)">Template v.1.0</text><text class="lanchor" transform="matrix(1 0 0 1 263 726)">Small</text><text class="lanchor" transform="matrix(1 0 0 1 263 1156)">Medium</text><text class="lanchor" transform="matrix(1 0 0 1 263 1586)">Large</text></g><g id="Guides"><g id="H-reference" style="fill:#27AAE1;stroke:none;" transform="matrix(1 0 0 1 339 696)"><path d="M 54.9316 0 L 57.666 0 L 30.5664 -70.459 L 28.0762 -70.459 L 0.976562 0 L 3.66211 0 L 12.9395 -24.4629 L 45.7031 -24.4629 Z M 29.1992 -67.0898 L 29.4434 -67.0898 L 44.8242 -26.709 L 13.8184 -26.709 Z"/></g><line id="Baseline-S" style="fill:none;stroke:#27AAE1;opacity:1;stroke-width:0.577;" x1="263" x2="3036" y1="696" y2="696"/><line id="Capline-S" style="fill:none;stroke:#27AAE1;opacity:1;stroke-width:0.577;" x1="263" x2="3036" y1="625.541" y2="625.541"/><g id="H-reference" style="fill:#27AAE1;stroke:none;" transform="matrix(1 0 0 1 339 1126)"><path d="M 54.9316 0 L 57.666 0 L 30.5664 -70.459 L 28.0762 -70.459 L 0.976562 0 L 3.66211 0 L 12.9395 -24.4629 L 45.7031 -24.4629 Z M 29.1992 -67.0898 L 29.4434 -67.0898 L 44.8242 -26.709 L 13.8184 -26.709 Z"/></g><line id="Baseline-M" style="fill:none;stroke:#27AAE1;opacity:1;stroke-width:0.577;" x1="263" x2="3036" y1="1126" y2="1126"/><line id="Capline-M" style="fill:none;stroke:#27AAE1;opacity:1;stroke-width:0.577;" x1="263" x2="3036" y1="1055.54" y2="1055.54"/><g id="H-reference" style="fill:#27AAE1;stroke:none;" transform="matrix(1 0 0 1 339 1556)"><path d="M 54.9316 0 L 57.666 0 L 30.5664 -70.459 L 28.0762 -70.459 L 0.976562 0 L 3.66211 0 L 12.9395 -24.4629 L 45.7031 -24.4629 Z M 29.1992 -67.0898 L 29.4434 -67.0898 L 44.8242 -26.709 L 13.8184 -26.709 Z"/></g><line id="Baseline-L" style="fill:none;stroke:#27AAE1;opacity:1;stroke-width:0.577;" x1="263" x2="3036" y1="1556" y2="1556"/><line id="Capline-L" style="fill:none;stroke:#27AAE1;opacity:1;stroke-width:0.577;" x1="263" x2="3036" y1="1485.54" y2="1485.54"/><rect height="119.336" id="left-margin" style="fill:darkred;stroke:none;opacity:0.4;" width="12.4512" x="1394.06" y="1030.79"/><rect height="119.336" id="right-margin" style="fill:darkgreen;stroke:none;opacity:0.4;" width="12.4512" x="1502.5112" y="1030.79"/><rect x="1406.5112" y="1045" width="96" height="96" fill="none" stroke="blue" stroke-dasharray="5"/><rect x="1394.06" y="1030.79" width="120.9024" height="119.336" fill="none" stroke="blue"/></g><g id="Symbols"><g id="Bold-L" transform="matrix(1 0 0 1 2266 1556)"><path d="M77.348 39.59 Q73.588 39.59 71.06 37.016 Q68.531 34.445 68.531 30.826 Q68.531 26.79 71.098 24.241 Q73.664 21.691 77.273 21.691 Q81.17 21.691 83.8 24.239 Q86.43 26.785 86.43 30.813 Q86.43 34.591 83.831 37.091 Q81.231 39.59 77.348 39.59 Z M47.29 33.301 Q43.538 33.301 40.958 30.61 Q38.377 27.917 38.377 23.887 Q38.377 19.821 40.98 17.209 Q43.581 14.596 47.28 14.596 Q51.5 14.596 54.13 17.241 Q56.76 19.885 56.76 23.879 Q56.76 27.917 54.161 30.61 Q51.561 33.301 47.29 33.301 Z M107.062 33.301 Q103.369 33.301 100.786 30.621 Q98.201 27.941 98.201 23.957 Q98.201 20.014 100.843 17.386 Q103.485 14.758 107.117 14.758 Q111.263 14.758 114.004 17.418 Q116.745 20.079 116.745 23.949 Q116.745 27.941 114.005 30.621 Q111.267 33.301 107.062 33.301 Z M26.822 12.661 Q23.117 12.661 20.427 10.043 Q17.738 7.425 17.738 3.701 Q17.738 0.084 20.405 -2.657 Q23.072 -5.399 26.768 -5.399 Q30.315 -5.399 32.976 -2.657 Q35.636 0.084 35.636 3.633 Q35.636 7.458 32.976 10.059 Q30.315 12.661 26.822 12.661 Z M77.584 12.339 Q61.598 12.339 50.552 1.835 Q39.506 -8.667 39.506 -24.463 Q39.506 -39.261 48.697 -52.081 Q57.889 -64.9 68.854 -75.22 Q72.322 -78.606 77.303 -78.7 Q82.284 -78.792 85.946 -75.22 Q97.05 -64.977 106.252 -52.119 Q115.455 -39.261 115.455 -24.463 Q115.455 -8.874 104.432 1.733 Q93.407 12.339 77.584 12.339 Z M128.06 12.984 Q124.183 12.984 121.431 10.288 Q118.68 7.592 118.68 3.62 Q118.68 -0.071 121.468 -2.816 Q124.254 -5.56 128.116 -5.56 Q132.225 -5.56 134.724 -2.816 Q137.224 -0.071 137.224 3.62 Q137.224 7.592 134.663 10.288 Q132.104 12.984 128.06 12.984 Z M93.748 -8.893 Q100.62 -15.288 100.62 -24.426 Q100.62 -36.842 92.88 -46.517 Q85.14 -56.192 77.4 -63.771 Q69.499 -56.031 61.92 -46.437 Q54.341 -36.842 54.341 -24.426 Q54.341 -15.288 61.152 -8.893 Q67.964 -2.496 77.419 -2.496 Q86.875 -2.496 93.748 -8.893 Z M77.435 -11.526 Q83.005 -11.526 86.975 -15.477 Q90.945 -19.427 90.945 -24.908 Q90.945 -30.392 86.965 -34.585 Q82.987 -38.777 77.366 -38.777 Q71.918 -38.777 67.806 -34.632 Q63.694 -30.488 63.694 -24.955 Q63.694 -19.427 67.865 -15.477 Q72.037 -11.526 77.435 -11.526 Z M77.455 -93.602 Q73.901 -93.602 71.216 -96.141 Q68.531 -98.677 68.531 -102.408 Q68.531 -106.217 71.193 -108.858 Q73.856 -111.501 77.4 -111.501 Q80.948 -111.501 83.689 -108.889 Q86.43 -106.278 86.43 -102.486 Q86.43 -98.601 83.689 -96.102 Q80.948 -93.602 77.455 -93.602 Z"/></g><g id="Semibold-L" transform="matrix(1 0 0 1 1970.27 1556)"><path d="M77.374 38.889 Q73.843 38.889 71.503 36.517 Q69.162 34.143 69.162 30.736 Q69.162 27 71.531 24.626 Q73.901 22.252 77.302 22.252 Q80.96 22.252 83.379 24.624 Q85.8 26.998 85.8 30.7 Q85.8 34.241 83.397 36.565 Q80.994 38.889 77.374 38.889 Z M47.316 32.6 Q43.818 32.6 41.343 30.096 Q38.868 27.591 38.868 23.884 Q38.868 20.129 41.356 17.678 Q43.842 15.227 47.309 15.227 Q51.29 15.227 53.674 17.697 Q56.059 20.166 56.059 23.879 Q56.059 27.591 53.691 30.096 Q51.324 32.6 47.316 32.6 Z M107.105 32.53 Q103.65 32.53 101.241 30.059 Q98.832 27.587 98.832 23.954 Q98.832 20.322 101.273 17.855 Q103.714 15.388 107.136 15.388 Q110.982 15.388 113.547 17.874 Q116.115 20.359 116.115 23.949 Q116.115 27.587 113.549 30.059 Q110.985 32.53 107.105 32.53 Z M27.319 11.96 Q23.792 11.96 21.325 9.527 Q18.86 7.093 18.86 3.601 Q18.86 0.224 21.32 -2.272 Q23.781 -4.768 27.258 -4.768 Q30.596 -4.768 33.045 -2.272 Q35.496 0.224 35.496 3.533 Q35.496 7.126 33.045 9.543 Q30.596 11.96 27.319 11.96 Z M77.544 11.849 Q61.878 11.849 50.937 1.609 Q39.996 -8.629 39.996 -24.097 Q39.996 -38.981 49.223 -51.905 Q58.45 -64.831 69.484 -75.151 Q72.708 -78.256 77.355 -78.313 Q82.004 -78.371 85.316 -75.151 Q96.419 -64.906 105.657 -51.944 Q114.894 -38.981 114.894 -24.097 Q114.894 -8.835 103.971 1.506 Q93.048 11.849 77.544 11.849 Z M127.587 12.282 Q123.972 12.282 121.397 9.762 Q118.82 7.24 118.82 3.544 Q118.82 0.137 121.416 -2.396 Q124.013 -4.93 127.62 -4.93 Q131.383 -4.93 133.742 -2.396 Q136.101 0.137 136.101 3.544 Q136.101 7.24 133.709 9.762 Q131.316 12.282 127.587 12.282 Z M94.281 -8.145 Q101.391 -14.634 101.391 -24.076 Q101.391 -36.773 93.336 -46.763 Q85.28 -56.754 77.4 -64.823 Q69.429 -56.662 61.464 -46.717 Q53.5 -36.773 53.5 -24.076 Q53.5 -14.634 60.575 -8.145 Q67.651 -1.655 77.411 -1.655 Q87.172 -1.655 94.281 -8.145 Z M77.424 -11.386 Q83.005 -11.386 87.011 -15.372 Q91.014 -19.358 91.014 -24.908 Q91.014 -30.462 87.014 -34.62 Q83.011 -38.777 77.381 -38.777 Q71.848 -38.777 67.736 -34.667 Q63.624 -30.557 63.624 -24.957 Q63.624 -19.358 67.783 -15.372 Q71.942 -11.386 77.424 -11.386 Z M77.46 -93.952 Q74.086 -93.952 71.624 -96.341 Q69.162 -98.729 69.162 -102.226 Q69.162 -105.709 71.618 -108.15 Q74.075 -110.59 77.4 -110.59 Q80.738 -110.59 83.268 -108.167 Q85.8 -105.745 85.8 -102.299 Q85.8 -98.671 83.268 -96.311 Q80.738 -93.952 77.46 -93.952 Z"/></g><g id="Medium-L" transform="matrix(1 0 0 1 1674.31 1556)"><path d="M77.394 38.363 Q74.035 38.363 71.835 36.141 Q69.636 33.917 69.636 30.668 Q69.636 27.158 71.856 24.915 Q74.077 22.673 77.324 22.673 Q80.802 22.673 83.063 24.915 Q85.325 27.158 85.325 30.615 Q85.325 33.979 83.071 36.17 Q80.817 38.363 77.394 38.363 Z M47.335 32.074 Q44.028 32.074 41.632 29.712 Q39.237 27.348 39.237 23.881 Q39.237 20.361 41.638 18.031 Q44.039 15.701 47.332 15.701 Q51.132 15.701 53.332 18.039 Q55.533 20.375 55.533 23.879 Q55.533 27.348 53.34 29.712 Q51.147 32.074 47.335 32.074 Z M107.138 31.952 Q103.86 31.952 101.583 29.636 Q99.306 27.32 99.306 23.95 Q99.306 20.554 101.597 18.208 Q103.889 15.862 107.151 15.862 Q110.772 15.862 113.206 18.216 Q115.64 20.569 115.64 23.949 Q115.64 27.32 113.207 29.636 Q110.772 31.952 107.138 31.952 Z M27.69 11.434 Q24.299 11.434 21.999 9.14 Q19.7 6.845 19.7 3.525 Q19.7 0.329 22.007 -1.983 Q24.313 -4.294 27.627 -4.294 Q30.805 -4.294 33.098 -1.983 Q35.391 0.329 35.391 3.459 Q35.391 6.877 33.098 9.156 Q30.805 11.434 27.69 11.434 Z M77.513 11.479 Q62.088 11.479 51.226 1.44 Q40.366 -8.6 40.366 -23.822 Q40.366 -38.771 49.618 -51.774 Q58.871 -64.777 69.958 -75.097 Q72.996 -77.993 77.395 -78.024 Q81.792 -78.055 84.842 -75.097 Q95.945 -64.853 105.209 -51.813 Q114.473 -38.771 114.473 -23.822 Q114.473 -8.806 103.624 1.337 Q92.777 11.479 77.513 11.479 Z M127.233 11.757 Q123.816 11.757 121.37 9.367 Q118.925 6.977 118.925 3.488 Q118.925 0.292 121.379 -2.082 Q123.832 -4.455 127.247 -4.455 Q130.753 -4.455 133.007 -2.082 Q135.261 0.292 135.261 3.488 Q135.261 6.977 132.993 9.367 Q130.724 11.757 127.233 11.757 Z M94.683 -7.584 Q101.97 -14.143 101.97 -23.813 Q101.97 -36.72 93.678 -46.946 Q85.385 -57.175 77.4 -65.611 Q69.376 -57.136 61.122 -46.927 Q52.869 -36.72 52.869 -23.813 Q52.869 -14.143 60.141 -7.584 Q67.414 -1.024 77.405 -1.024 Q87.396 -1.024 94.683 -7.584 Z M77.416 -11.281 Q83.005 -11.281 87.036 -15.293 Q91.068 -19.305 91.068 -24.91 Q91.068 -30.515 87.049 -34.646 Q83.031 -38.777 77.392 -38.777 Q71.795 -38.777 67.683 -34.693 Q63.571 -30.61 63.571 -24.957 Q63.571 -19.305 67.72 -15.293 Q71.869 -11.281 77.416 -11.281 Z M77.465 -94.215 Q74.225 -94.215 71.93 -96.492 Q69.636 -98.767 69.636 -102.089 Q69.636 -105.33 71.937 -107.618 Q74.238 -109.906 77.4 -109.906 Q80.58 -109.906 82.952 -107.625 Q85.325 -105.345 85.325 -102.157 Q85.325 -98.724 82.952 -96.47 Q80.58 -94.215 77.465 -94.215 Z"/></g><g id="Regular-L" transform="matrix(1 0 0 1 1378.56 1556)"><path d="M77.408 37.978 Q74.175 37.978 72.079 35.865 Q69.983 33.753 69.983 30.62 Q69.983 27.274 72.095 25.127 Q74.207 22.981 77.34 22.981 Q80.686 22.981 82.833 25.127 Q84.979 27.274 84.979 30.552 Q84.979 33.785 82.833 35.881 Q80.686 37.978 77.408 37.978 Z M47.348 31.689 Q44.183 31.689 41.844 29.43 Q39.506 27.169 39.506 23.879 Q39.506 20.53 41.844 18.289 Q44.183 16.048 47.348 16.048 Q51.016 16.048 53.082 18.289 Q55.148 20.53 55.148 23.879 Q55.148 27.169 53.082 29.43 Q51.016 31.689 47.348 31.689 Z M107.162 31.528 Q104.014 31.528 101.834 29.326 Q99.653 27.125 99.653 23.949 Q99.653 20.724 101.834 18.466 Q104.014 16.209 107.162 16.209 Q110.618 16.209 112.956 18.466 Q115.294 20.724 115.294 23.949 Q115.294 27.125 112.956 29.326 Q110.618 31.528 107.162 31.528 Z M27.962 11.049 Q24.671 11.049 22.494 8.856 Q20.317 6.663 20.317 3.47 Q20.317 0.406 22.511 -1.771 Q24.703 -3.947 27.896 -3.947 Q30.96 -3.947 33.137 -1.771 Q35.314 0.406 35.314 3.404 Q35.314 6.695 33.137 8.872 Q30.96 11.049 27.962 11.049 Z M77.49 11.21 Q62.242 11.21 51.439 1.316 Q40.635 -8.579 40.635 -23.62 Q40.635 -38.616 49.907 -51.677 Q59.179 -64.739 70.305 -75.059 Q73.207 -77.8 77.423 -77.813 Q81.639 -77.824 84.495 -75.059 Q95.599 -64.816 104.882 -51.716 Q114.165 -38.616 114.165 -23.62 Q114.165 -8.785 103.371 1.213 Q92.578 11.21 77.49 11.21 Z M126.973 11.371 Q123.7 11.371 121.35 9.078 Q119.002 6.785 119.002 3.447 Q119.002 0.406 121.35 -1.851 Q123.7 -4.109 126.973 -4.109 Q130.29 -4.109 132.467 -1.851 Q134.644 0.406 134.644 3.447 Q134.644 6.785 132.467 9.078 Q130.29 11.371 126.973 11.371 Z M94.976 -7.172 Q102.394 -13.784 102.394 -23.62 Q102.394 -36.681 93.928 -47.082 Q85.463 -57.482 77.4 -66.19 Q69.338 -57.482 60.872 -47.082 Q52.406 -36.681 52.406 -23.62 Q52.406 -13.784 59.824 -7.172 Q67.241 -0.561 77.4 -0.561 Q87.559 -0.561 94.976 -7.172 Z M77.41 -11.204 Q83.005 -11.204 87.056 -15.235 Q91.106 -19.266 91.106 -24.91 Q91.106 -30.554 87.075 -34.666 Q83.044 -38.777 77.4 -38.777 Q71.756 -38.777 67.644 -34.712 Q63.532 -30.649 63.532 -24.958 Q63.532 -19.266 67.675 -15.235 Q71.816 -11.204 77.41 -11.204 Z M77.466 -94.409 Q74.327 -94.409 72.155 -96.602 Q69.983 -98.795 69.983 -101.987 Q69.983 -105.051 72.171 -107.228 Q74.359 -109.405 77.4 -109.405 Q80.464 -109.405 82.721 -107.228 Q84.979 -105.051 84.979 -102.054 Q84.979 -98.762 82.721 -96.586 Q80.464 -94.409 77.466 -94.409 Z"/></g><g id="Light-L" transform="matrix(1 0 0 1 1082.77 1556)"><path d="M77.381 34.132 Q74.672 34.132 72.948 32.39 Q71.223 30.647 71.223 28.014 Q71.223 25.227 72.966 23.421 Q74.707 21.617 77.34 21.617 Q80.19 21.617 81.965 23.421 Q83.739 25.227 83.739 27.948 Q83.739 30.679 81.965 32.406 Q80.19 34.132 77.381 34.132 Z M48.436 28.091 Q45.858 28.091 43.923 26.201 Q41.988 24.312 41.988 21.522 Q41.988 18.732 43.92 16.862 Q45.851 14.993 48.465 14.993 Q51.574 14.993 53.267 16.862 Q54.962 18.732 54.962 21.522 Q54.962 24.312 53.267 26.201 Q51.574 28.091 48.436 28.091 Z M106.107 27.93 Q103.46 27.93 101.649 26.1 Q99.838 24.268 99.838 21.591 Q99.838 18.926 101.649 17.039 Q103.46 15.154 106.107 15.154 Q109.005 15.154 110.909 17.039 Q112.812 18.926 112.812 21.591 Q112.812 24.268 110.909 26.1 Q109.005 27.93 106.107 27.93 Z M29.765 8.258 Q27.029 8.258 25.192 6.435 Q23.357 4.612 23.357 1.919 Q23.357 -0.648 25.208 -2.453 Q27.061 -4.257 29.697 -4.257 Q32.263 -4.257 34.067 -2.453 Q35.872 -0.648 35.872 1.88 Q35.872 4.649 34.067 6.453 Q32.263 8.258 29.765 8.258 Z M77.502 8.357 Q63.234 8.357 53.114 -0.855 Q42.992 -10.067 42.992 -24.117 Q42.992 -38.555 52.016 -50.933 Q61.04 -63.312 71.608 -72.888 Q73.952 -75.072 77.423 -75.083 Q80.894 -75.096 83.192 -72.888 Q93.738 -63.389 102.773 -50.971 Q111.808 -38.555 111.808 -24.117 Q111.808 -10.273 101.707 -0.958 Q91.606 8.357 77.502 8.357 Z M125.174 8.456 Q122.453 8.456 120.51 6.569 Q118.569 4.683 118.569 1.896 Q118.569 -0.648 120.51 -2.503 Q122.453 -4.357 125.174 -4.357 Q127.995 -4.357 129.769 -2.516 Q131.543 -0.673 131.543 1.896 Q131.543 4.683 129.78 6.569 Q128.02 8.456 125.174 8.456 Z M94.976 -7.7 Q102.394 -14.342 102.394 -24.117 Q102.394 -37.363 93.867 -47.361 Q85.338 -57.358 77.4 -66.005 Q69.462 -57.358 60.933 -47.361 Q52.406 -37.363 52.406 -24.117 Q52.406 -14.342 59.824 -7.7 Q67.241 -1.058 77.4 -1.058 Q87.559 -1.058 94.976 -7.7 Z M77.421 -12.195 Q82.82 -12.195 86.777 -16.099 Q90.734 -20.002 90.734 -25.407 Q90.734 -30.938 86.796 -34.888 Q82.858 -38.839 77.398 -38.839 Q72.066 -38.839 68.109 -34.938 Q64.153 -31.036 64.153 -25.461 Q64.153 -20.011 68.151 -16.104 Q72.15 -12.195 77.421 -12.195 Z M77.469 -91.369 Q74.885 -91.369 73.054 -93.222 Q71.223 -95.073 71.223 -97.711 Q71.223 -100.275 73.07 -102.079 Q74.917 -103.885 77.403 -103.885 Q79.967 -103.885 81.852 -102.079 Q83.739 -100.275 83.739 -97.777 Q83.739 -95.041 81.852 -93.206 Q79.967 -91.369 77.469 -91.369 Z"/></g><g id="Thin-L" transform="matrix(1 0 0 1 787.282 1556)"><path d="M77.353 30.287 Q75.167 30.287 73.815 28.915 Q72.463 27.543 72.463 25.41 Q72.463 23.181 73.835 21.717 Q75.207 20.253 77.34 20.253 Q79.695 20.253 81.096 21.717 Q82.499 23.181 82.499 25.342 Q82.499 27.575 81.096 28.931 Q79.695 30.287 77.353 30.287 Z M49.523 24.494 Q47.532 24.494 46 22.975 Q44.468 21.456 44.468 19.166 Q44.468 16.933 45.993 15.436 Q47.519 13.938 49.581 13.938 Q52.132 13.938 53.454 15.436 Q54.775 16.933 54.775 19.166 Q54.775 21.456 53.454 22.975 Q52.132 24.494 49.523 24.494 Z M105.053 24.333 Q102.905 24.333 101.465 22.873 Q100.025 21.412 100.025 19.235 Q100.025 17.126 101.465 15.614 Q102.905 14.1 105.053 14.1 Q107.392 14.1 108.863 15.614 Q110.332 17.126 110.332 19.235 Q110.332 21.412 108.863 22.873 Q107.392 24.333 105.053 24.333 Z M31.566 5.466 Q29.385 5.466 27.89 4.015 Q26.395 2.562 26.395 0.369 Q26.395 -1.703 27.906 -3.135 Q29.417 -4.568 31.5 -4.568 Q33.564 -4.568 34.998 -3.135 Q36.43 -1.703 36.43 0.356 Q36.43 2.602 34.998 4.034 Q33.564 5.466 31.566 5.466 Z M77.511 5.505 Q64.227 5.505 54.788 -3.025 Q45.348 -11.555 45.348 -24.612 Q45.348 -38.492 54.124 -50.189 Q62.9 -61.886 72.909 -70.718 Q74.696 -72.342 77.423 -72.355 Q80.151 -72.366 81.891 -70.718 Q91.879 -61.962 100.665 -50.228 Q109.452 -38.492 109.452 -24.612 Q109.452 -11.762 100.043 -3.128 Q90.635 5.505 77.511 5.505 Z M123.376 5.542 Q121.207 5.542 119.67 4.06 Q118.135 2.58 118.135 0.347 Q118.135 -1.703 119.67 -3.154 Q121.207 -4.605 123.376 -4.605 Q125.701 -4.605 127.071 -3.178 Q128.442 -1.751 128.442 0.347 Q128.442 2.58 127.096 4.06 Q125.751 5.542 123.376 5.542 Z M94.976 -8.227 Q102.394 -14.9 102.394 -24.612 Q102.394 -38.045 93.804 -47.64 Q85.214 -57.234 77.4 -65.818 Q69.586 -57.234 60.996 -47.64 Q52.406 -38.045 52.406 -24.612 Q52.406 -14.9 59.824 -8.227 Q67.241 -1.553 77.4 -1.553 Q87.559 -1.553 94.976 -8.227 Z M77.431 -13.189 Q82.634 -13.189 86.498 -16.962 Q90.361 -20.737 90.361 -25.902 Q90.361 -31.32 86.517 -35.111 Q82.671 -38.902 77.398 -38.902 Q72.377 -38.902 68.575 -35.162 Q64.773 -31.423 64.773 -25.963 Q64.773 -20.755 68.628 -16.972 Q72.482 -13.189 77.431 -13.189 Z M77.473 -88.331 Q75.442 -88.331 73.952 -89.842 Q72.463 -91.353 72.463 -93.435 Q72.463 -95.5 73.969 -96.932 Q75.475 -98.366 77.406 -98.366 Q79.472 -98.366 80.985 -96.932 Q82.499 -95.5 82.499 -93.503 Q82.499 -91.321 80.985 -89.826 Q79.472 -88.331 77.473 -88.331 Z"/></g><g id="Ultralight-L" transform="matrix(1 0 0 1 491.205 1556)"><path d="M77.337 27.98 Q75.465 27.98 74.336 26.83 Q73.207 25.681 73.207 23.847 Q73.207 21.952 74.357 20.693 Q75.507 19.434 77.34 19.434 Q79.396 19.434 80.575 20.693 Q81.754 21.952 81.754 23.779 Q81.754 25.713 80.575 26.846 Q79.396 27.98 77.337 27.98 Z M50.176 22.336 Q48.536 22.336 47.246 21.04 Q45.956 19.742 45.956 17.752 Q45.956 15.854 47.238 14.58 Q48.52 13.306 50.25 13.306 Q52.468 13.306 53.566 14.58 Q54.664 15.854 54.664 17.752 Q54.664 19.742 53.566 21.04 Q52.468 22.336 50.176 22.336 Z M104.421 22.175 Q102.573 22.175 101.355 20.937 Q100.136 19.698 100.136 17.821 Q100.136 16.048 101.355 14.758 Q102.573 13.468 104.421 13.468 Q106.425 13.468 107.634 14.758 Q108.844 16.048 108.844 17.821 Q108.844 19.698 107.634 20.937 Q106.425 22.175 104.421 22.175 Z M32.647 3.793 Q30.799 3.793 29.509 2.562 Q28.219 1.332 28.219 -0.561 Q28.219 -2.335 29.525 -3.544 Q30.831 -4.754 32.581 -4.754 Q34.346 -4.754 35.556 -3.544 Q36.765 -2.335 36.765 -0.558 Q36.765 1.374 35.556 2.583 Q34.346 3.793 32.647 3.793 Z M77.518 3.793 Q64.823 3.793 55.793 -4.328 Q46.763 -12.449 46.763 -24.91 Q46.763 -38.455 55.389 -49.742 Q64.016 -61.03 73.691 -69.415 Q75.142 -70.705 77.423 -70.718 Q79.704 -70.729 81.109 -69.415 Q90.761 -61.107 99.399 -49.781 Q108.038 -38.455 108.038 -24.91 Q108.038 -12.655 99.045 -4.431 Q90.053 3.793 77.518 3.793 Z M122.297 3.793 Q120.459 3.793 119.165 2.556 Q117.874 1.319 117.874 -0.584 Q117.874 -2.335 119.165 -3.544 Q120.459 -4.754 122.297 -4.754 Q124.324 -4.754 125.453 -3.577 Q126.581 -2.399 126.581 -0.584 Q126.581 1.319 125.485 2.556 Q124.388 3.793 122.297 3.793 Z M94.976 -8.543 Q102.394 -15.235 102.394 -24.91 Q102.394 -38.455 93.767 -47.807 Q85.14 -57.16 77.4 -65.706 Q69.66 -57.16 61.033 -47.807 Q52.406 -38.455 52.406 -24.91 Q52.406 -15.235 59.824 -8.543 Q67.241 -1.851 77.4 -1.851 Q87.559 -1.851 94.976 -8.543 Z M77.437 -13.784 Q82.521 -13.784 86.33 -17.48 Q90.139 -21.177 90.139 -26.2 Q90.139 -31.549 86.349 -35.245 Q82.56 -38.939 77.398 -38.939 Q72.562 -38.939 68.854 -35.296 Q65.145 -31.653 65.145 -26.264 Q65.145 -21.201 68.913 -17.492 Q72.682 -13.784 77.437 -13.784 Z M77.474 -86.507 Q75.778 -86.507 74.493 -87.814 Q73.207 -89.12 73.207 -90.869 Q73.207 -92.635 74.509 -93.844 Q75.81 -95.054 77.408 -95.054 Q79.174 -95.054 80.464 -93.844 Q81.754 -92.635 81.754 -90.935 Q81.754 -89.087 80.464 -87.797 Q79.174 -86.507 77.474 -86.507 Z"/></g><g id="Bold-M" transform="matrix(1 0 0 1 2281.8 1126)"><path d="M60 27.395 Q56.045 27.395 53.148 24.493 Q50.25 21.59 50.25 17.628 Q50.25 13.52 53.148 10.708 Q56.045 7.895 60 7.895 Q64 7.895 66.875 10.73 Q69.75 13.564 69.75 17.676 Q69.75 21.645 66.875 24.52 Q64 27.395 60 27.395 Z M35.75 22.145 Q31.75 22.145 28.875 19.185 Q26 16.225 26 12.145 Q26 7.97 28.875 5.058 Q31.75 2.145 35.75 2.145 Q39.875 2.145 42.688 5.058 Q45.5 7.97 45.5 12.145 Q45.5 16.225 42.688 19.185 Q39.875 22.145 35.75 22.145 Z M84.094 22.02 Q80.125 22.02 77.312 19.149 Q74.5 16.278 74.5 12.145 Q74.5 8.095 77.34 5.183 Q80.18 2.27 84.142 2.27 Q88.25 2.27 91.125 5.183 Q94 8.095 94 12.145 Q94 16.278 91.103 19.149 Q88.206 22.02 84.094 22.02 Z M18.25 5.77 Q14.295 5.77 11.398 2.833 Q8.5 -0.105 8.5 -4.105 Q8.5 -8.105 11.398 -10.917 Q14.295 -13.73 18.25 -13.73 Q22.25 -13.73 25.125 -10.917 Q28 -8.105 28 -4.105 Q28 -0.105 25.125 2.833 Q22.25 5.77 18.25 5.77 Z M60.062 5.27 Q46.5 5.27 37.125 -4.014 Q27.75 -13.299 27.75 -26.855 Q27.75 -38.48 34.688 -48.792 Q41.625 -59.105 50.375 -67.855 Q54.314 -71.73 59.907 -71.73 Q65.5 -71.73 69.625 -67.855 Q78.375 -59.105 85.312 -48.792 Q92.25 -38.48 92.25 -26.855 Q92.25 -13.299 82.875 -4.014 Q73.5 5.27 60.062 5.27 Z M101.719 5.77 Q97.75 5.77 94.875 2.833 Q92 -0.105 92 -4.105 Q92 -8.105 94.903 -10.917 Q97.805 -13.73 101.767 -13.73 Q105.875 -13.73 108.688 -10.917 Q111.5 -8.105 111.5 -4.105 Q111.5 -0.105 108.665 2.833 Q105.831 5.77 101.719 5.77 Z M70.797 -16.167 Q75.25 -20.605 75.25 -26.855 Q75.25 -35.105 70.375 -41.98 Q65.5 -48.855 60 -53.98 Q54.375 -48.855 49.562 -41.98 Q44.75 -35.105 44.75 -26.855 Q44.75 -20.605 49.188 -16.167 Q53.625 -11.73 59.985 -11.73 Q66.345 -11.73 70.797 -16.167 Z M60.021 -16.355 Q64.5 -16.355 67.562 -19.417 Q70.625 -22.48 70.625 -26.855 Q70.625 -31.23 67.54 -34.417 Q64.456 -37.605 59.976 -37.605 Q55.625 -37.605 52.5 -34.417 Q49.375 -31.23 49.375 -26.855 Q49.375 -22.48 52.524 -19.417 Q55.671 -16.355 60.021 -16.355 Z M60 -80.73 Q56.045 -80.73 53.148 -83.605 Q50.25 -86.48 50.25 -90.485 Q50.25 -94.634 53.148 -97.431 Q56.045 -100.23 60 -100.23 Q64 -100.23 66.875 -97.431 Q69.75 -94.634 69.75 -90.485 Q69.75 -86.48 66.875 -83.605 Q64 -80.73 60 -80.73 Z"/></g><g id="Semibold-M" transform="matrix(1 0 0 1 1985.97 1126)"><path d="M60 26.2 Q56.351 26.2 53.709 23.554 Q51.065 20.908 51.065 17.255 Q51.065 13.52 53.709 10.925 Q56.351 8.33 60 8.33 Q63.674 8.33 66.305 10.938 Q68.935 13.545 68.935 17.283 Q68.935 20.939 66.305 23.569 Q63.674 26.2 60 26.2 Z M35.968 21.004 Q32.294 21.004 29.609 18.298 Q26.924 15.593 26.924 11.874 Q26.924 8.046 29.609 5.368 Q32.294 2.689 35.968 2.689 Q39.766 2.689 42.307 5.368 Q44.847 8.046 44.847 11.874 Q44.847 15.593 42.307 18.298 Q39.766 21.004 35.968 21.004 Z M83.89 20.825 Q80.234 20.825 77.666 18.224 Q75.097 15.623 75.097 11.874 Q75.097 8.171 77.681 5.493 Q80.265 2.814 83.918 2.814 Q87.653 2.814 90.31 5.493 Q92.968 8.171 92.968 11.874 Q92.968 15.623 90.297 18.224 Q87.627 20.825 83.89 20.825 Z M19.174 4.738 Q15.525 4.738 12.883 2.045 Q10.239 -0.649 10.239 -4.322 Q10.239 -7.996 12.883 -10.564 Q15.525 -13.132 19.174 -13.132 Q22.848 -13.132 25.479 -10.564 Q28.109 -7.996 28.109 -4.322 Q28.109 -0.649 25.479 2.045 Q22.848 4.738 19.174 4.738 Z M60.035 4.455 Q46.88 4.455 37.695 -4.542 Q28.511 -13.54 28.511 -26.637 Q28.511 -38.154 35.475 -48.547 Q42.44 -58.942 51.19 -67.637 Q54.83 -71.241 59.947 -71.214 Q65.065 -71.186 68.81 -67.637 Q77.505 -58.942 84.47 -48.547 Q91.435 -38.154 91.435 -26.637 Q91.435 -13.54 82.25 -4.542 Q73.065 4.455 60.035 4.455 Z M100.809 4.738 Q97.153 4.738 94.521 2.045 Q91.891 -0.649 91.891 -4.322 Q91.891 -7.996 94.537 -10.564 Q97.184 -13.132 100.836 -13.132 Q104.571 -13.132 107.166 -10.564 Q109.761 -7.996 109.761 -4.322 Q109.761 -0.649 107.154 2.045 Q104.546 4.738 100.809 4.738 Z M71.375 -15.489 Q76.065 -20.061 76.065 -26.637 Q76.065 -34.942 70.81 -42.251 Q65.554 -49.561 60 -55.175 Q54.321 -49.616 49.1 -42.279 Q43.88 -34.942 43.88 -26.637 Q43.88 -20.061 48.59 -15.489 Q53.299 -10.915 59.991 -10.915 Q66.684 -10.915 71.375 -15.489 Z M60.013 -16.355 Q64.446 -16.355 67.535 -19.445 Q70.625 -22.534 70.625 -26.909 Q70.625 -31.284 67.522 -34.445 Q64.421 -37.605 59.986 -37.605 Q55.625 -37.605 52.5 -34.445 Q49.375 -31.284 49.375 -26.909 Q49.375 -22.534 52.514 -19.445 Q55.651 -16.355 60.013 -16.355 Z M60 -80.839 Q56.351 -80.839 53.709 -83.496 Q51.065 -86.154 51.065 -89.831 Q51.065 -93.589 53.709 -96.149 Q56.351 -98.709 60 -98.709 Q63.674 -98.709 66.305 -96.149 Q68.935 -93.589 68.935 -89.831 Q68.935 -86.154 66.305 -83.496 Q63.674 -80.839 60 -80.839 Z"/></g><g id="Medium-M" transform="matrix(1 0 0 1 1689.91 1126)"><path d="M60 25.303 Q56.581 25.303 54.129 22.849 Q51.676 20.395 51.676 16.975 Q51.676 13.52 54.129 11.088 Q56.581 8.656 60 8.656 Q63.429 8.656 65.876 11.094 Q68.324 13.53 68.324 16.986 Q68.324 20.409 65.876 22.855 Q63.429 25.303 60 25.303 Z M36.13 20.148 Q32.701 20.148 30.159 17.633 Q27.616 15.118 27.616 11.67 Q27.616 8.104 30.159 5.6 Q32.701 3.096 36.13 3.096 Q39.685 3.096 42.021 5.6 Q44.359 8.104 44.359 11.67 Q44.359 15.118 42.021 17.633 Q39.685 20.148 36.13 20.148 Z M83.737 19.928 Q80.315 19.928 77.931 17.529 Q75.546 15.13 75.546 11.67 Q75.546 8.229 77.938 5.725 Q80.329 3.221 83.749 3.221 Q87.204 3.221 89.699 5.725 Q92.192 8.229 92.192 11.67 Q92.192 15.13 89.692 17.529 Q87.194 19.928 83.737 19.928 Z M19.866 3.963 Q16.449 3.963 13.996 1.454 Q11.544 -1.056 11.544 -4.485 Q11.544 -7.915 13.996 -10.299 Q16.449 -12.684 19.866 -12.684 Q23.296 -12.684 25.744 -10.299 Q28.19 -7.915 28.19 -4.485 Q28.19 -1.056 25.744 1.454 Q23.296 3.963 19.866 3.963 Z M60.015 3.844 Q47.166 3.844 38.124 -4.939 Q29.081 -13.722 29.081 -26.475 Q29.081 -37.909 36.066 -48.365 Q43.051 -58.82 51.801 -67.475 Q55.216 -70.874 59.977 -70.826 Q64.739 -70.779 68.199 -67.475 Q76.854 -58.82 83.839 -48.365 Q90.824 -37.909 90.824 -26.475 Q90.824 -13.722 81.781 -4.939 Q72.739 3.844 60.015 3.844 Z M100.125 3.963 Q96.704 3.963 94.256 1.454 Q91.81 -1.056 91.81 -4.485 Q91.81 -7.915 94.264 -10.299 Q96.718 -12.684 100.138 -12.684 Q103.593 -12.684 106.025 -10.299 Q108.456 -7.915 108.456 -4.485 Q108.456 -1.056 106.019 1.454 Q103.582 3.963 100.125 3.963 Z M71.808 -14.979 Q76.676 -19.654 76.676 -26.475 Q76.676 -34.82 71.136 -42.455 Q65.595 -50.091 60 -56.072 Q54.28 -50.186 48.754 -42.502 Q43.229 -34.82 43.229 -26.475 Q43.229 -19.654 48.141 -14.979 Q53.054 -10.304 59.996 -10.304 Q66.939 -10.304 71.808 -14.979 Z M60.005 -16.355 Q64.405 -16.355 67.515 -19.465 Q70.625 -22.575 70.625 -26.95 Q70.625 -31.325 67.51 -34.465 Q64.395 -37.605 59.994 -37.605 Q55.625 -37.605 52.5 -34.465 Q49.375 -31.325 49.375 -26.95 Q49.375 -22.575 52.505 -19.465 Q55.636 -16.355 60.005 -16.355 Z M60 -80.92 Q56.581 -80.92 54.129 -83.415 Q51.676 -85.909 51.676 -89.34 Q51.676 -92.805 54.129 -95.186 Q56.581 -97.567 60 -97.567 Q63.429 -97.567 65.876 -95.186 Q68.324 -92.805 68.324 -89.34 Q68.324 -85.909 65.876 -83.415 Q63.429 -80.92 60 -80.92 Z"/></g><g id="Regular-M" transform="matrix(1 0 0 1 1394.06 1126)"><path d="M60 24.645 Q56.75 24.645 54.438 22.333 Q52.125 20.02 52.125 16.77 Q52.125 13.52 54.438 11.208 Q56.75 8.895 60 8.895 Q63.25 8.895 65.562 11.208 Q67.875 13.52 67.875 16.77 Q67.875 20.02 65.562 22.333 Q63.25 24.645 60 24.645 Z M36.25 19.52 Q33 19.52 30.562 17.145 Q28.125 14.77 28.125 11.52 Q28.125 8.145 30.562 5.77 Q33 3.395 36.25 3.395 Q39.625 3.395 41.812 5.77 Q44 8.145 44 11.52 Q44 14.77 41.812 17.145 Q39.625 19.52 36.25 19.52 Z M83.625 19.27 Q80.375 19.27 78.125 17.02 Q75.875 14.77 75.875 11.52 Q75.875 8.27 78.125 5.895 Q80.375 3.52 83.625 3.52 Q86.875 3.52 89.25 5.895 Q91.625 8.27 91.625 11.52 Q91.625 14.77 89.25 17.02 Q86.875 19.27 83.625 19.27 Z M20.375 3.395 Q17.125 3.395 14.812 1.02 Q12.5 -1.355 12.5 -4.605 Q12.5 -7.855 14.812 -10.105 Q17.125 -12.355 20.375 -12.355 Q23.625 -12.355 25.938 -10.105 Q28.25 -7.855 28.25 -4.605 Q28.25 -1.355 25.938 1.02 Q23.625 3.395 20.375 3.395 Z M60 3.395 Q47.375 3.395 38.438 -5.23 Q29.5 -13.855 29.5 -26.355 Q29.5 -37.73 36.5 -48.23 Q43.5 -58.73 52.25 -67.355 Q55.5 -70.605 60 -70.542 Q64.5 -70.48 67.75 -67.355 Q76.375 -58.73 83.375 -48.23 Q90.375 -37.73 90.375 -26.355 Q90.375 -13.855 81.438 -5.23 Q72.5 3.395 60 3.395 Z M99.625 3.395 Q96.375 3.395 94.062 1.02 Q91.75 -1.355 91.75 -4.605 Q91.75 -7.855 94.062 -10.105 Q96.375 -12.355 99.625 -12.355 Q102.875 -12.355 105.188 -10.105 Q107.5 -7.855 107.5 -4.605 Q107.5 -1.355 105.188 1.02 Q102.875 3.395 99.625 3.395 Z M72.125 -14.605 Q77.125 -19.355 77.125 -26.355 Q77.125 -34.73 71.375 -42.605 Q65.625 -50.48 60 -56.73 Q54.25 -50.605 48.5 -42.667 Q42.75 -34.73 42.75 -26.355 Q42.75 -19.355 47.812 -14.605 Q52.875 -9.855 60 -9.855 Q67.125 -9.855 72.125 -14.605 Z M60 -16.355 Q64.375 -16.355 67.5 -19.48 Q70.625 -22.605 70.625 -26.98 Q70.625 -31.355 67.5 -34.48 Q64.375 -37.605 60 -37.605 Q55.625 -37.605 52.5 -34.48 Q49.375 -31.355 49.375 -26.98 Q49.375 -22.605 52.5 -19.48 Q55.625 -16.355 60 -16.355 Z M60 -80.98 Q56.75 -80.98 54.438 -83.355 Q52.125 -85.73 52.125 -88.98 Q52.125 -92.23 54.438 -94.48 Q56.75 -96.73 60 -96.73 Q63.25 -96.73 65.562 -94.48 Q67.875 -92.23 67.875 -88.98 Q67.875 -85.73 65.562 -83.355 Q63.25 -80.98 60 -80.98 Z"/></g><g id="Light-M" transform="matrix(1 0 0 1 1098.18 1126)"><path d="M60 21.52 Q57.279 21.52 55.351 19.593 Q53.424 17.664 53.424 14.943 Q53.424 12.174 55.351 10.27 Q57.279 8.366 60 8.366 Q62.769 8.366 64.672 10.27 Q66.576 12.174 66.576 14.943 Q66.576 17.664 64.672 19.593 Q62.769 21.52 60 21.52 Z M36.924 16.588 Q34.203 16.588 32.149 14.596 Q30.096 12.606 30.096 9.885 Q30.096 6.991 32.149 5.025 Q34.203 3.059 36.924 3.059 Q39.818 3.059 41.596 5.025 Q43.375 6.991 43.375 9.885 Q43.375 12.606 41.596 14.596 Q39.818 16.588 36.924 16.588 Z M82.951 16.338 Q80.231 16.338 78.365 14.471 Q76.5 12.606 76.5 9.885 Q76.5 7.116 78.365 5.15 Q80.231 3.184 82.951 3.184 Q85.721 3.184 87.688 5.15 Q89.654 7.116 89.654 9.885 Q89.654 12.606 87.688 14.471 Q85.721 16.338 82.951 16.338 Z M21.481 0.991 Q18.76 0.991 16.832 -1 Q14.904 -2.99 14.904 -5.711 Q14.904 -8.48 16.832 -10.321 Q18.76 -12.162 21.481 -12.162 Q24.25 -12.162 26.154 -10.321 Q28.058 -8.48 28.058 -5.711 Q28.058 -2.99 26.154 -1 Q24.25 0.991 21.481 0.991 Z M60 0.991 Q48.193 0.991 39.831 -6.936 Q31.471 -14.865 31.471 -26.499 Q31.471 -37.73 38.351 -47.677 Q45.231 -57.624 53.596 -65.527 Q56.318 -68.152 60.024 -68.115 Q63.731 -68.076 66.404 -65.527 Q74.644 -57.624 81.524 -47.677 Q88.404 -37.73 88.404 -26.499 Q88.404 -14.865 80.044 -6.936 Q71.683 0.991 60 0.991 Z M98.519 0.991 Q95.797 0.991 93.87 -1 Q91.942 -2.99 91.942 -5.711 Q91.942 -8.48 93.87 -10.321 Q95.797 -12.162 98.519 -12.162 Q101.289 -12.162 103.192 -10.321 Q105.096 -8.48 105.096 -5.711 Q105.096 -2.99 103.192 -1 Q101.289 0.991 98.519 0.991 Z M72.485 -14.581 Q77.654 -19.402 77.654 -26.547 Q77.654 -35.787 71.688 -43.279 Q65.721 -50.769 60 -57.162 Q54.203 -50.894 48.211 -43.341 Q42.221 -35.787 42.221 -26.547 Q42.221 -19.402 47.453 -14.581 Q52.682 -9.759 60 -9.759 Q67.317 -9.759 72.485 -14.581 Z M60 -16.98 Q64.279 -16.98 67.331 -20.032 Q70.385 -23.086 70.385 -27.316 Q70.385 -31.644 67.331 -34.672 Q64.279 -37.701 60 -37.701 Q55.818 -37.701 52.765 -34.672 Q49.711 -31.644 49.711 -27.316 Q49.711 -23.086 52.765 -20.032 Q55.818 -16.98 60 -16.98 Z M60 -79.105 Q57.279 -79.105 55.351 -81.095 Q53.424 -83.085 53.424 -85.806 Q53.424 -88.576 55.351 -90.417 Q57.279 -92.259 60 -92.259 Q62.769 -92.259 64.672 -90.417 Q66.576 -88.576 66.576 -85.806 Q66.576 -83.085 64.672 -81.095 Q62.769 -79.105 60 -79.105 Z"/></g><g id="Thin-M" transform="matrix(1 0 0 1 802.565 1126)"><path d="M60 18.395 Q57.807 18.395 56.265 16.851 Q54.721 15.309 54.721 13.116 Q54.721 10.828 56.265 9.333 Q57.807 7.838 60 7.838 Q62.289 7.838 63.784 9.333 Q65.279 10.828 65.279 13.116 Q65.279 15.309 63.784 16.851 Q62.289 18.395 60 18.395 Z M37.596 13.655 Q35.404 13.655 33.735 12.049 Q32.068 10.443 32.068 8.251 Q32.068 5.838 33.735 4.28 Q35.404 2.723 37.596 2.723 Q40.01 2.723 41.38 4.28 Q42.75 5.838 42.75 8.251 Q42.75 10.443 41.38 12.049 Q40.01 13.655 37.596 13.655 Z M82.279 13.405 Q80.086 13.405 78.606 11.924 Q77.125 10.443 77.125 8.251 Q77.125 5.963 78.606 4.405 Q80.086 2.848 82.279 2.848 Q84.567 2.848 86.125 4.405 Q87.683 5.963 87.683 8.251 Q87.683 10.443 86.125 11.924 Q84.567 13.405 82.279 13.405 Z M22.586 -1.412 Q20.394 -1.412 18.851 -3.019 Q17.308 -4.624 17.308 -6.816 Q17.308 -9.105 18.851 -10.537 Q20.394 -11.97 22.586 -11.97 Q24.875 -11.97 26.37 -10.537 Q27.865 -9.105 27.865 -6.816 Q27.865 -4.624 26.37 -3.019 Q24.875 -1.412 22.586 -1.412 Z M60 -1.412 Q49.01 -1.412 41.226 -8.644 Q33.443 -15.874 33.443 -26.644 Q33.443 -37.73 40.203 -47.124 Q46.961 -56.519 54.943 -63.701 Q57.135 -65.701 60.047 -65.686 Q62.961 -65.672 65.058 -63.701 Q72.914 -56.519 79.672 -47.124 Q86.433 -37.73 86.433 -26.644 Q86.433 -15.874 78.649 -8.644 Q70.865 -1.412 60 -1.412 Z M97.414 -1.412 Q95.221 -1.412 93.677 -3.019 Q92.135 -4.624 92.135 -6.816 Q92.135 -9.105 93.677 -10.537 Q95.221 -11.97 97.414 -11.97 Q99.703 -11.97 101.198 -10.537 Q102.692 -9.105 102.692 -6.816 Q102.692 -4.624 101.198 -3.019 Q99.703 -1.412 97.414 -1.412 Z M72.846 -14.557 Q78.183 -19.451 78.183 -26.74 Q78.183 -36.845 72 -43.951 Q65.817 -51.057 60 -57.595 Q54.154 -51.182 47.922 -44.014 Q41.693 -36.845 41.693 -26.74 Q41.693 -19.451 47.091 -14.557 Q52.49 -9.662 60 -9.662 Q67.51 -9.662 72.846 -14.557 Z M60 -17.605 Q64.183 -17.605 67.164 -20.586 Q70.144 -23.566 70.144 -27.652 Q70.144 -31.932 67.164 -34.865 Q64.183 -37.797 60 -37.797 Q56.01 -37.797 53.029 -34.865 Q50.047 -31.932 50.047 -27.652 Q50.047 -23.566 53.029 -20.586 Q56.01 -17.605 60 -17.605 Z M60 -77.23 Q57.807 -77.23 56.265 -78.836 Q54.721 -80.441 54.721 -82.634 Q54.721 -84.922 56.265 -86.355 Q57.807 -87.787 60 -87.787 Q62.289 -87.787 63.784 -86.355 Q65.279 -84.922 65.279 -82.634 Q65.279 -80.441 63.784 -78.836 Q62.289 -77.23 60 -77.23 Z"/></g><g id="Ultralight-M" transform="matrix(1 0 0 1 506.415 1126)"><path d="M60 16.52 Q58.125 16.52 56.812 15.208 Q55.5 13.895 55.5 12.02 Q55.5 10.02 56.812 8.77 Q58.125 7.52 60 7.52 Q62 7.52 63.25 8.77 Q64.5 10.02 64.5 12.02 Q64.5 13.895 63.25 15.208 Q62 16.52 60 16.52 Z M38 11.895 Q36.125 11.895 34.688 10.52 Q33.25 9.145 33.25 7.27 Q33.25 5.145 34.688 3.833 Q36.125 2.52 38 2.52 Q40.125 2.52 41.25 3.833 Q42.375 5.145 42.375 7.27 Q42.375 9.145 41.25 10.52 Q40.125 11.895 38 11.895 Z M81.875 11.645 Q80 11.645 78.75 10.395 Q77.5 9.145 77.5 7.27 Q77.5 5.27 78.75 3.958 Q80 2.645 81.875 2.645 Q83.875 2.645 85.188 3.958 Q86.5 5.27 86.5 7.27 Q86.5 9.145 85.188 10.395 Q83.875 11.645 81.875 11.645 Z M23.25 -2.855 Q21.375 -2.855 20.062 -4.23 Q18.75 -5.605 18.75 -7.48 Q18.75 -9.48 20.062 -10.667 Q21.375 -11.855 23.25 -11.855 Q25.25 -11.855 26.5 -10.667 Q27.75 -9.48 27.75 -7.48 Q27.75 -5.605 26.5 -4.23 Q25.25 -2.855 23.25 -2.855 Z M60 -2.855 Q49.5 -2.855 42.062 -9.667 Q34.625 -16.48 34.625 -26.73 Q34.625 -37.73 41.312 -46.792 Q48 -55.855 55.75 -62.605 Q57.625 -64.23 60.062 -64.23 Q62.5 -64.23 64.25 -62.605 Q71.875 -55.855 78.562 -46.792 Q85.25 -37.73 85.25 -26.73 Q85.25 -16.48 77.812 -9.667 Q70.375 -2.855 60 -2.855 Z M96.75 -2.855 Q94.875 -2.855 93.562 -4.23 Q92.25 -5.605 92.25 -7.48 Q92.25 -9.48 93.562 -10.667 Q94.875 -11.855 96.75 -11.855 Q98.75 -11.855 100 -10.667 Q101.25 -9.48 101.25 -7.48 Q101.25 -5.605 100 -4.23 Q98.75 -2.855 96.75 -2.855 Z M73.062 -14.542 Q78.5 -19.48 78.5 -26.855 Q78.5 -37.48 72.188 -44.355 Q65.875 -51.23 60 -57.855 Q54.125 -51.355 47.75 -44.417 Q41.375 -37.48 41.375 -26.855 Q41.375 -19.48 46.875 -14.542 Q52.375 -9.605 60 -9.605 Q67.625 -9.605 73.062 -14.542 Z M60 -17.98 Q64.125 -17.98 67.062 -20.917 Q70 -23.855 70 -27.855 Q70 -32.105 67.062 -34.98 Q64.125 -37.855 60 -37.855 Q56.125 -37.855 53.188 -34.98 Q50.25 -32.105 50.25 -27.855 Q50.25 -23.855 53.188 -20.917 Q56.125 -17.98 60 -17.98 Z M60 -76.105 Q58.125 -76.105 56.812 -77.48 Q55.5 -78.855 55.5 -80.73 Q55.5 -82.73 56.812 -83.917 Q58.125 -85.105 60 -85.105 Q62 -85.105 63.25 -83.917 Q64.5 -82.73 64.5 -80.73 Q64.5 -78.855 63.25 -77.48 Q62 -76.105 60 -76.105 Z"/></g><g id="Bold-S" transform="matrix(1 0 0 1 2294.23 696)"><path d="M47.34 13.392 Q44.318 13.392 42.081 11.151 Q39.845 8.911 39.845 5.883 Q39.845 2.642 42.081 0.522 Q44.318 -1.599 47.34 -1.599 Q50.496 -1.599 52.666 0.539 Q54.836 2.677 54.836 5.921 Q54.836 8.954 52.666 11.173 Q50.496 13.392 47.34 13.392 Z M28.404 9.053 Q25.347 9.053 23.128 6.766 Q20.909 4.48 20.909 1.36 Q20.909 -1.934 23.128 -4.134 Q25.347 -6.333 28.404 -6.333 Q31.659 -6.333 33.779 -4.134 Q35.9 -1.934 35.9 1.36 Q35.9 4.48 33.779 6.766 Q31.659 9.053 28.404 9.053 Z M66.153 8.954 Q63.12 8.954 60.95 6.738 Q58.781 4.522 58.781 1.36 Q58.781 -1.836 60.972 -4.035 Q63.163 -6.234 66.191 -6.234 Q69.432 -6.234 71.602 -4.035 Q73.772 -1.836 73.772 1.36 Q73.772 4.522 71.584 6.738 Q69.397 8.954 66.153 8.954 Z M14.794 -3.275 Q11.772 -3.275 9.535 -5.544 Q7.298 -7.812 7.298 -10.87 Q7.298 -14.026 9.535 -16.146 Q11.772 -18.266 14.794 -18.266 Q17.95 -18.266 20.12 -16.146 Q22.289 -14.026 22.289 -10.87 Q22.289 -7.812 20.12 -5.544 Q17.95 -3.275 14.794 -3.275 Z M47.389 -4.853 Q36.886 -4.853 29.588 -11.735 Q22.289 -18.617 22.289 -29.017 Q22.289 -38.583 27.812 -46.473 Q33.335 -54.363 40.239 -61.168 Q43.149 -63.93 47.366 -64.028 Q51.581 -64.127 54.54 -61.267 Q61.443 -54.462 66.917 -46.523 Q72.391 -38.583 72.391 -29.017 Q72.391 -18.617 65.093 -11.735 Q57.794 -4.853 47.389 -4.853 Z M79.862 -3.275 Q76.829 -3.275 74.61 -5.544 Q72.391 -7.812 72.391 -10.87 Q72.391 -14.026 74.632 -16.146 Q76.872 -18.266 79.9 -18.266 Q83.141 -18.266 85.261 -16.146 Q87.382 -14.026 87.382 -10.87 Q87.382 -7.812 85.244 -5.544 Q83.106 -3.275 79.862 -3.275 Z M56.106 -20.831 Q59.767 -24.184 59.767 -29.017 Q59.767 -36.808 55.822 -41.591 Q51.877 -46.375 47.34 -51.01 Q42.803 -46.375 38.858 -41.591 Q34.913 -36.808 34.913 -29.017 Q34.913 -24.184 38.562 -20.831 Q42.212 -17.477 47.328 -17.477 Q52.445 -17.477 56.106 -20.831 Z M47.357 -22.31 Q50.496 -22.31 52.715 -24.529 Q54.934 -26.748 54.934 -29.806 Q54.934 -32.863 52.697 -35.181 Q50.461 -37.498 47.321 -37.498 Q44.283 -37.498 42.014 -35.181 Q39.746 -32.863 39.746 -29.806 Q39.746 -26.748 42.033 -24.529 Q44.319 -22.31 47.357 -22.31 Z M47.34 -70.735 Q44.318 -70.735 42.081 -72.954 Q39.845 -75.173 39.845 -78.234 Q39.845 -81.508 42.081 -83.616 Q44.318 -85.726 47.34 -85.726 Q50.496 -85.726 52.666 -83.616 Q54.836 -81.508 54.836 -78.234 Q54.836 -75.173 52.666 -72.954 Q50.496 -70.735 47.34 -70.735 Z"/></g><g id="Semibold-S" transform="matrix(1 0 0 1 1998.1 696)"><path d="M47.34 12.449 Q44.56 12.449 42.524 10.411 Q40.488 8.372 40.488 5.589 Q40.488 2.642 42.524 0.693 Q44.56 -1.256 47.34 -1.256 Q50.239 -1.256 52.216 0.703 Q54.192 2.662 54.192 5.611 Q54.192 8.397 52.216 10.423 Q50.239 12.449 47.34 12.449 Z M28.576 8.152 Q25.776 8.152 23.706 6.066 Q21.637 3.981 21.637 1.146 Q21.637 -1.874 23.706 -3.889 Q25.776 -5.904 28.576 -5.904 Q31.573 -5.904 33.479 -3.889 Q35.385 -1.874 35.385 1.146 Q35.385 3.981 33.479 6.066 Q31.573 8.152 28.576 8.152 Z M65.992 8.011 Q63.206 8.011 61.229 6.008 Q59.252 4.005 59.252 1.146 Q59.252 -1.775 61.241 -3.79 Q63.23 -5.805 66.014 -5.805 Q68.961 -5.805 70.959 -3.79 Q72.957 -1.775 72.957 1.146 Q72.957 4.005 70.949 6.008 Q68.941 8.011 65.992 8.011 Z M15.523 -4.09 Q12.742 -4.09 10.707 -6.165 Q8.67 -8.241 8.67 -11.041 Q8.67 -13.94 10.707 -15.867 Q12.742 -17.795 15.523 -17.795 Q18.421 -17.795 20.399 -15.867 Q22.375 -13.94 22.375 -11.041 Q22.375 -8.241 20.399 -6.165 Q18.421 -4.09 15.523 -4.09 Z M47.368 -5.497 Q37.186 -5.497 30.037 -12.152 Q22.89 -18.807 22.89 -28.845 Q22.89 -38.326 28.434 -46.28 Q33.978 -54.235 40.882 -60.997 Q43.557 -63.544 47.397 -63.621 Q51.238 -63.698 53.897 -61.095 Q60.757 -54.334 66.252 -46.329 Q71.748 -38.326 71.748 -28.845 Q71.748 -18.807 64.599 -12.152 Q57.451 -5.497 47.368 -5.497 Z M79.144 -4.09 Q76.357 -4.09 74.331 -6.165 Q72.305 -8.241 72.305 -11.041 Q72.305 -13.94 74.344 -15.867 Q76.382 -17.795 79.165 -17.795 Q82.112 -17.795 84.061 -15.867 Q86.01 -13.94 86.01 -11.041 Q86.01 -8.241 84.051 -6.165 Q82.092 -4.09 79.144 -4.09 Z M56.561 -20.295 Q60.41 -23.755 60.41 -28.845 Q60.41 -36.68 56.165 -41.805 Q51.919 -46.932 47.34 -51.953 Q42.761 -46.975 38.493 -41.827 Q34.227 -36.68 34.227 -28.845 Q34.227 -23.755 38.091 -20.295 Q41.954 -16.834 47.333 -16.834 Q52.712 -16.834 56.561 -20.295 Z M47.35 -22.31 Q50.454 -22.31 52.693 -24.551 Q54.934 -26.791 54.934 -29.848 Q54.934 -32.905 52.684 -35.202 Q50.434 -37.498 47.329 -37.498 Q44.283 -37.498 42.014 -35.202 Q39.746 -32.905 39.746 -29.848 Q39.746 -26.791 42.025 -24.551 Q44.303 -22.31 47.35 -22.31 Z M47.34 -70.821 Q44.56 -70.821 42.524 -72.868 Q40.488 -74.916 40.488 -77.719 Q40.488 -80.683 42.524 -82.605 Q44.56 -84.526 47.34 -84.526 Q50.239 -84.526 52.216 -82.605 Q54.192 -80.683 54.192 -77.719 Q54.192 -74.916 52.216 -72.868 Q50.239 -70.821 47.34 -70.821 Z"/></g><g id="Medium-S" transform="matrix(1 0 0 1 1701.85 696)"><path d="M47.34 11.741 Q44.741 11.741 42.856 9.854 Q40.97 7.968 40.97 5.368 Q40.97 2.642 42.856 0.821 Q44.741 -0.998 47.34 -0.998 Q50.045 -0.998 51.878 0.826 Q53.71 2.65 53.71 5.377 Q53.71 7.979 51.878 9.859 Q50.045 11.741 47.34 11.741 Z M28.704 7.477 Q26.097 7.477 24.14 5.542 Q22.184 3.607 22.184 0.985 Q22.184 -1.829 24.14 -3.706 Q26.097 -5.582 28.704 -5.582 Q31.509 -5.582 33.253 -3.706 Q34.999 -1.829 34.999 0.985 Q34.999 3.607 33.253 5.542 Q31.509 7.477 28.704 7.477 Z M65.872 7.303 Q63.27 7.303 61.438 5.46 Q59.606 3.616 59.606 0.985 Q59.606 -1.73 61.443 -3.607 Q63.281 -5.484 65.881 -5.484 Q68.607 -5.484 70.476 -3.607 Q72.345 -1.73 72.345 0.985 Q72.345 3.616 70.472 5.46 Q68.599 7.303 65.872 7.303 Z M16.069 -4.702 Q13.471 -4.702 11.585 -6.632 Q9.7 -8.563 9.7 -11.169 Q9.7 -13.876 11.585 -15.658 Q13.471 -17.441 16.069 -17.441 Q18.775 -17.441 20.608 -15.658 Q22.439 -13.876 22.439 -11.169 Q22.439 -8.563 20.608 -6.632 Q18.775 -4.702 16.069 -4.702 Z M47.352 -5.979 Q37.411 -5.979 30.376 -12.464 Q23.34 -18.951 23.34 -28.717 Q23.34 -38.133 28.9 -46.136 Q34.461 -54.138 41.364 -60.869 Q43.861 -63.254 47.421 -63.315 Q50.98 -63.377 53.414 -60.967 Q60.243 -54.237 65.754 -46.185 Q71.265 -38.133 71.265 -28.717 Q71.265 -18.951 64.23 -12.464 Q57.194 -5.979 47.352 -5.979 Z M78.604 -4.702 Q76.003 -4.702 74.122 -6.632 Q72.241 -8.563 72.241 -11.169 Q72.241 -13.876 74.128 -15.658 Q76.014 -17.441 78.614 -17.441 Q81.34 -17.441 83.161 -15.658 Q84.98 -13.876 84.98 -11.169 Q84.98 -8.563 83.156 -6.632 Q81.332 -4.702 78.604 -4.702 Z M56.903 -19.893 Q60.892 -23.433 60.892 -28.717 Q60.892 -36.583 56.422 -41.966 Q51.952 -47.35 47.34 -52.661 Q42.728 -47.425 38.22 -42.004 Q33.713 -36.583 33.713 -28.717 Q33.713 -23.433 37.737 -19.893 Q41.761 -16.352 47.337 -16.352 Q52.913 -16.352 56.903 -19.893 Z M47.344 -22.31 Q50.421 -22.31 52.678 -24.567 Q54.934 -26.823 54.934 -29.881 Q54.934 -32.938 52.674 -35.218 Q50.413 -37.498 47.335 -37.498 Q44.283 -37.498 42.014 -35.218 Q39.746 -32.938 39.746 -29.881 Q39.746 -26.823 42.018 -24.567 Q44.292 -22.31 47.344 -22.31 Z M47.34 -70.885 Q44.741 -70.885 42.856 -72.804 Q40.97 -74.722 40.97 -77.331 Q40.97 -80.065 42.856 -81.845 Q44.741 -83.625 47.34 -83.625 Q50.045 -83.625 51.878 -81.845 Q53.71 -80.065 53.71 -77.331 Q53.71 -74.722 51.878 -72.804 Q50.045 -70.885 47.34 -70.885 Z"/></g><g id="Regular-S" transform="matrix(1 0 0 1 1405.73 696)"><path d="M47.34 11.222 Q44.874 11.222 43.099 9.447 Q41.324 7.672 41.324 5.206 Q41.324 2.642 43.099 0.916 Q44.874 -0.81 47.34 -0.81 Q49.904 -0.81 51.63 0.916 Q53.356 2.642 53.356 5.206 Q53.356 7.672 51.63 9.447 Q49.904 11.222 47.34 11.222 Z M28.799 6.982 Q26.333 6.982 24.459 5.157 Q22.585 3.332 22.585 0.867 Q22.585 -1.796 24.459 -3.571 Q26.333 -5.347 28.799 -5.347 Q31.461 -5.347 33.089 -3.571 Q34.716 -1.796 34.716 0.867 Q34.716 3.332 33.089 5.157 Q31.461 6.982 28.799 6.982 Z M65.783 6.784 Q63.317 6.784 61.591 5.058 Q59.865 3.332 59.865 0.867 Q59.865 -1.697 61.591 -3.473 Q63.317 -5.248 65.783 -5.248 Q68.347 -5.248 70.122 -3.473 Q71.898 -1.697 71.898 0.867 Q71.898 3.332 70.122 5.058 Q68.347 6.784 65.783 6.784 Z M16.47 -5.149 Q14.005 -5.149 12.229 -6.974 Q10.454 -8.798 10.454 -11.264 Q10.454 -13.828 12.229 -15.505 Q14.005 -17.182 16.47 -17.182 Q19.035 -17.182 20.761 -15.505 Q22.486 -13.828 22.486 -11.264 Q22.486 -8.798 20.761 -6.974 Q19.035 -5.149 16.47 -5.149 Z M47.34 -6.333 Q37.576 -6.333 30.623 -12.694 Q23.67 -19.055 23.67 -28.622 Q23.67 -37.991 29.242 -46.029 Q34.815 -54.067 41.718 -60.774 Q44.085 -63.042 47.439 -63.092 Q50.792 -63.141 53.06 -60.872 Q59.865 -54.166 65.388 -46.079 Q70.911 -37.991 70.911 -28.622 Q70.911 -19.055 63.958 -12.694 Q57.005 -6.333 47.34 -6.333 Z M78.21 -5.149 Q75.744 -5.149 73.969 -6.974 Q72.194 -8.798 72.194 -11.264 Q72.194 -13.828 73.969 -15.505 Q75.744 -17.182 78.21 -17.182 Q80.774 -17.182 82.5 -15.505 Q84.226 -13.828 84.226 -11.264 Q84.226 -8.798 82.5 -6.974 Q80.774 -5.149 78.21 -5.149 Z M57.153 -19.598 Q61.246 -23.198 61.246 -28.622 Q61.246 -36.512 56.611 -42.084 Q51.975 -47.657 47.34 -53.18 Q42.705 -47.755 38.02 -42.134 Q33.335 -36.512 33.335 -28.622 Q33.335 -23.198 37.477 -19.598 Q41.62 -15.998 47.34 -15.998 Q53.06 -15.998 57.153 -19.598 Z M47.34 -22.31 Q50.397 -22.31 52.666 -24.578 Q54.934 -26.847 54.934 -29.904 Q54.934 -32.962 52.666 -35.23 Q50.397 -37.498 47.34 -37.498 Q44.283 -37.498 42.014 -35.23 Q39.746 -32.962 39.746 -29.904 Q39.746 -26.847 42.014 -24.578 Q44.283 -22.31 47.34 -22.31 Z M47.34 -70.932 Q44.874 -70.932 43.099 -72.757 Q41.324 -74.581 41.324 -77.047 Q41.324 -79.611 43.099 -81.288 Q44.874 -82.964 47.34 -82.964 Q49.904 -82.964 51.63 -81.288 Q53.356 -79.611 53.356 -77.047 Q53.356 -74.581 51.63 -72.757 Q49.904 -70.932 47.34 -70.932 Z"/></g><g id="Light-S" transform="matrix(1 0 0 1 1109.75 696)"><path d="M47.34 8.757 Q45.292 8.757 43.82 7.285 Q42.349 5.813 42.349 3.764 Q42.349 1.58 43.82 0.176 Q45.292 -1.227 47.34 -1.227 Q49.525 -1.227 50.928 0.176 Q52.331 1.58 52.331 3.764 Q52.331 5.813 50.928 7.285 Q49.525 8.757 47.34 8.757 Z M29.33 4.668 Q27.282 4.668 25.711 3.146 Q24.14 1.625 24.14 -0.423 Q24.14 -2.706 25.711 -4.159 Q27.282 -5.612 29.33 -5.612 Q31.613 -5.612 32.918 -4.159 Q34.223 -2.706 34.223 -0.423 Q34.223 1.625 32.918 3.146 Q31.613 4.668 29.33 4.668 Z M65.251 4.471 Q63.204 4.471 61.781 3.047 Q60.358 1.625 60.358 -0.423 Q60.358 -2.608 61.781 -4.061 Q63.204 -5.513 65.251 -5.513 Q67.437 -5.513 68.89 -4.061 Q70.342 -2.608 70.342 -0.423 Q70.342 1.625 68.89 3.047 Q67.437 4.471 65.251 4.471 Z M17.343 -7.046 Q15.295 -7.046 13.823 -8.568 Q12.351 -10.089 12.351 -12.137 Q12.351 -14.321 13.823 -15.676 Q15.295 -17.03 17.343 -17.03 Q19.528 -17.03 20.931 -15.676 Q22.335 -14.321 22.335 -12.137 Q22.335 -10.089 20.931 -8.568 Q19.528 -7.046 17.343 -7.046 Z M47.34 -8.229 Q38.221 -8.229 31.723 -14.04 Q25.225 -19.852 25.225 -28.736 Q25.225 -37.991 30.703 -45.594 Q36.181 -53.195 42.781 -59.332 Q44.73 -61.107 47.457 -61.176 Q50.185 -61.244 51.998 -59.431 Q58.499 -53.293 63.928 -45.643 Q69.356 -37.991 69.356 -28.736 Q69.356 -19.852 62.859 -14.04 Q56.36 -8.229 47.34 -8.229 Z M77.337 -7.046 Q75.288 -7.046 73.817 -8.568 Q72.345 -10.089 72.345 -12.137 Q72.345 -14.321 73.817 -15.676 Q75.288 -17.03 77.337 -17.03 Q79.522 -17.03 80.926 -15.676 Q82.329 -14.321 82.329 -12.137 Q82.329 -10.089 80.926 -8.568 Q79.522 -7.046 77.337 -7.046 Z M57.437 -19.579 Q61.663 -23.235 61.663 -28.774 Q61.663 -37.346 56.857 -42.616 Q52.051 -47.885 47.34 -53.521 Q42.667 -47.983 37.792 -42.665 Q32.918 -37.346 32.918 -28.774 Q32.918 -23.235 37.193 -19.579 Q41.468 -15.922 47.34 -15.922 Q53.212 -15.922 57.437 -19.579 Z M47.34 -22.803 Q50.321 -22.803 52.533 -25.014 Q54.745 -27.227 54.745 -30.17 Q54.745 -33.189 52.533 -35.382 Q50.321 -37.574 47.34 -37.574 Q44.435 -37.574 42.223 -35.382 Q40.011 -33.189 40.011 -30.17 Q40.011 -27.227 42.223 -25.014 Q44.435 -22.803 47.34 -22.803 Z M47.34 -69.453 Q45.292 -69.453 43.82 -70.974 Q42.349 -72.494 42.349 -74.543 Q42.349 -76.728 43.82 -78.083 Q45.292 -79.437 47.34 -79.437 Q49.525 -79.437 50.928 -78.083 Q52.331 -76.728 52.331 -74.543 Q52.331 -72.494 50.928 -70.974 Q49.525 -69.453 47.34 -69.453 Z"/></g><g id="Thin-S" transform="matrix(1 0 0 1 814.015 696)"><path d="M47.34 6.291 Q45.709 6.291 44.541 5.122 Q43.372 3.955 43.372 2.323 Q43.372 0.518 44.541 -0.563 Q45.709 -1.644 47.34 -1.644 Q49.146 -1.644 50.227 -0.563 Q51.308 0.518 51.308 2.323 Q51.308 3.955 50.227 5.122 Q49.146 6.291 47.34 6.291 Z M29.861 2.354 Q28.229 2.354 26.962 1.136 Q25.696 -0.082 25.696 -1.712 Q25.696 -3.617 26.962 -4.747 Q28.229 -5.877 29.861 -5.877 Q31.765 -5.877 32.747 -4.747 Q33.73 -3.617 33.73 -1.712 Q33.73 -0.082 32.747 1.136 Q31.765 2.354 29.861 2.354 Z M64.721 2.157 Q63.089 2.157 61.971 1.037 Q60.852 -0.082 60.852 -1.712 Q60.852 -3.518 61.971 -4.648 Q63.089 -5.779 64.721 -5.779 Q66.527 -5.779 67.657 -4.648 Q68.787 -3.518 68.787 -1.712 Q68.787 -0.082 67.657 1.037 Q66.527 2.157 64.721 2.157 Z M18.215 -8.942 Q16.584 -8.942 15.416 -10.161 Q14.247 -11.378 14.247 -13.009 Q14.247 -14.815 15.416 -15.846 Q16.584 -16.878 18.215 -16.878 Q20.021 -16.878 21.102 -15.846 Q22.183 -14.815 22.183 -13.009 Q22.183 -11.378 21.102 -10.161 Q20.021 -8.942 18.215 -8.942 Z M47.34 -10.126 Q38.866 -10.126 32.823 -15.388 Q26.781 -20.648 26.781 -28.85 Q26.781 -37.991 32.164 -45.157 Q37.546 -52.323 43.843 -57.891 Q45.375 -59.173 47.476 -59.26 Q49.578 -59.348 50.936 -57.99 Q57.134 -52.421 62.467 -45.206 Q67.801 -37.991 67.801 -28.85 Q67.801 -20.648 61.758 -15.388 Q55.715 -10.126 47.34 -10.126 Z M76.465 -8.942 Q74.834 -8.942 73.665 -10.161 Q72.497 -11.378 72.497 -13.009 Q72.497 -14.815 73.665 -15.846 Q74.834 -16.878 76.465 -16.878 Q78.271 -16.878 79.352 -15.846 Q80.433 -14.815 80.433 -13.009 Q80.433 -11.378 79.352 -10.161 Q78.271 -8.942 76.465 -8.942 Z M57.722 -19.56 Q62.08 -23.274 62.08 -28.926 Q62.08 -38.181 57.104 -43.147 Q52.127 -48.112 47.34 -53.862 Q42.629 -48.211 37.564 -43.196 Q32.501 -38.181 32.501 -28.926 Q32.501 -23.274 36.908 -19.56 Q41.316 -15.846 47.34 -15.846 Q53.364 -15.846 57.722 -19.56 Z M47.34 -23.296 Q50.245 -23.296 52.4 -25.451 Q54.554 -27.605 54.554 -30.435 Q54.554 -33.417 52.4 -35.534 Q50.245 -37.65 47.34 -37.65 Q44.586 -37.65 42.431 -35.534 Q40.276 -33.417 40.276 -30.435 Q40.276 -27.605 42.431 -25.451 Q44.586 -23.296 47.34 -23.296 Z M47.34 -67.973 Q45.709 -67.973 44.541 -69.192 Q43.372 -70.409 43.372 -72.04 Q43.372 -73.846 44.541 -74.877 Q45.709 -75.909 47.34 -75.909 Q49.146 -75.909 50.227 -74.877 Q51.308 -73.846 51.308 -72.04 Q51.308 -70.409 50.227 -69.192 Q49.146 -67.973 47.34 -67.973 Z"/></g><g id="Ultralight-S" transform="matrix(1 0 0 1 517.792 696)"><path d="M47.34 4.812 Q45.959 4.812 44.973 3.826 Q43.987 2.839 43.987 1.459 Q43.987 -0.119 44.973 -1.007 Q45.959 -1.895 47.34 -1.895 Q48.918 -1.895 49.806 -1.007 Q50.693 -0.119 50.693 1.459 Q50.693 2.839 49.806 3.826 Q48.918 4.812 47.34 4.812 Z M30.179 0.965 Q28.799 0.965 27.714 -0.07 Q26.629 -1.106 26.629 -2.486 Q26.629 -4.163 27.714 -5.1 Q28.799 -6.037 30.179 -6.037 Q31.856 -6.037 32.645 -5.1 Q33.434 -4.163 33.434 -2.486 Q33.434 -1.106 32.645 -0.07 Q31.856 0.965 30.179 0.965 Z M64.402 0.768 Q63.021 0.768 62.084 -0.169 Q61.148 -1.106 61.148 -2.486 Q61.148 -4.064 62.084 -5.001 Q63.021 -5.938 64.402 -5.938 Q65.98 -5.938 66.917 -5.001 Q67.854 -4.064 67.854 -2.486 Q67.854 -1.106 66.917 -0.169 Q65.98 0.768 64.402 0.768 Z M18.739 -10.081 Q17.358 -10.081 16.372 -11.116 Q15.386 -12.152 15.386 -13.532 Q15.386 -15.11 16.372 -15.949 Q17.358 -16.787 18.739 -16.787 Q20.317 -16.787 21.204 -15.949 Q22.092 -15.11 22.092 -13.532 Q22.092 -12.152 21.204 -11.116 Q20.317 -10.081 18.739 -10.081 Z M47.34 -11.264 Q39.253 -11.264 33.483 -16.195 Q27.714 -21.127 27.714 -28.918 Q27.714 -37.991 33.039 -44.895 Q38.365 -51.799 44.48 -57.026 Q45.762 -58.012 47.488 -58.111 Q49.214 -58.21 50.299 -57.125 Q56.315 -51.898 61.591 -44.945 Q66.868 -37.991 66.868 -28.918 Q66.868 -21.127 61.098 -16.195 Q55.329 -11.264 47.34 -11.264 Z M75.941 -10.081 Q74.561 -10.081 73.574 -11.116 Q72.588 -12.152 72.588 -13.532 Q72.588 -15.11 73.574 -15.949 Q74.561 -16.787 75.941 -16.787 Q77.519 -16.787 78.407 -15.949 Q79.294 -15.11 79.294 -13.532 Q79.294 -12.152 78.407 -11.116 Q77.519 -10.081 75.941 -10.081 Z M57.893 -19.549 Q62.331 -23.296 62.331 -29.017 Q62.331 -38.682 57.252 -43.465 Q52.173 -48.248 47.34 -54.067 Q42.606 -48.347 37.428 -43.514 Q32.25 -38.682 32.25 -29.017 Q32.25 -23.296 36.738 -19.549 Q41.225 -15.801 47.34 -15.801 Q53.455 -15.801 57.893 -19.549 Z M47.34 -23.592 Q50.2 -23.592 52.321 -25.713 Q54.441 -27.833 54.441 -30.595 Q54.441 -33.553 52.321 -35.624 Q50.2 -37.696 47.34 -37.696 Q44.677 -37.696 42.557 -35.624 Q40.436 -33.553 40.436 -30.595 Q40.436 -27.833 42.557 -25.713 Q44.677 -23.592 47.34 -23.592 Z M47.34 -67.086 Q45.959 -67.086 44.973 -68.121 Q43.987 -69.157 43.987 -70.538 Q43.987 -72.116 44.973 -72.954 Q45.959 -73.792 47.34 -73.792 Q48.918 -73.792 49.806 -72.954 Q50.693 -72.116 50.693 -70.538 Q50.693 -69.157 49.806 -68.121 Q48.918 -67.086 47.34 -67.086 Z"/></g></g></svg>