<svg xmlns="http://www.w3.org/2000/svg" height="48" viewBox="0 -960 960 960" width="48"><path d="M297.04-675.87q-34.82 0-59.52-24.7-24.69-24.69-24.69-59.52 0-35.32 24.69-61.05 24.7-25.73 59.52-25.73 35.33 0 61.06 25.73 25.73 25.73 25.73 61.05 0 34.83-25.73 59.52-25.73 24.7-61.06 24.7ZM768.61-21.04 650.98-226.37H346.33q-26.57 0-46.57-14.75t-23.93-38.75l-46.37-244.35q-10.07-48.32 23.76-83.74 33.82-35.41 85.78-35.41 21.5 0 39.94 10.1 18.43 10.1 33.13 24.34l112.54 120.36 99.43-74.71-36.43-17.5q-7.26-4.13-9.58-12.43-2.31-8.29 1.95-14.99l54.98-98.56q3.63-6.63 10.29-8.38 6.66-1.75 14.36 1.31l55.63 28.2q6.7 4.69 8.45 12.71 1.75 8.01-1.95 14.2l-50.98 97.02 21.76 26.68-178.02 139-58.13-40.35 21.7 105.78h148.04q22.89 0 37.92 12.88 15.04 12.88 26.8 33.84l135 231.5-57.22 31.33Zm-231.28-89.83H261.09q-33.92 0-54.27-18.83-20.36-18.82-26.49-51.67l-92.5-462h73.5l86 462h290v70.5Z"/></svg>