<svg xmlns="http://www.w3.org/2000/svg" height="24" viewBox="0 -960 960 960" width="24"><path d="M289.23-653.23q-27.5 0-46.98-19.48-19.48-19.48-19.48-46.98 0-27.5 19.48-46.98 19.48-19.48 46.98-19.48 27.5 0 46.98 19.48 19.48 19.48 19.48 46.98 0 27.5-19.48 46.98-19.48 19.48-46.98 19.48ZM717.85-70.77 617.54-243.08H331.23q-21.46 0-36.83-12.71-15.36-12.71-19.32-32.52l-46.35-225.77q-8.23-37.27 15.69-66.29 23.93-29.01 62.46-29.01 19.66 0 36.49 8.9 16.82 8.9 30.28 23.06l111.54 121.19 113.85-86.62-36.58-18.38q-5.58-3.12-7.06-9.15-1.48-6.04.87-11.62l35.54-78.42q2.73-5.96 8.77-7.89 6.04-1.92 12.38.81l44.42 21.77q5.58 3.11 7.12 9.15 1.54 6.04-.81 11.23l-34.23 76.27 14.62 18.81-161.5 130.15-74.08-57 32.27 137.74h144q15.11 0 28.08 7.86 12.96 7.87 21.15 22.29L750-88.92l-32.15 18.15Zm-200-95.38H282.81q-27.62 0-48.14-16.45-20.52-16.44-25.98-43.55l-82.54-413.23h37.39l82.15 411.69q1.54 9.23 10.77 16.92 9.23 7.69 18.46 7.69h242.93v36.93Z"/></svg>