<svg xmlns="http://www.w3.org/2000/svg" height="24" viewBox="0 -960 960 960" width="24"><path d="M337.44-699q-39.7 0-67.4-27.7-27.69-27.69-27.69-67.39 0-39.69 27.69-67.67 27.7-27.98 67.4-27.98 39.69 0 67.39 27.98 27.69 27.98 27.69 67.67 0 39.7-27.69 67.39-27.7 27.7-67.39 27.7ZM763.35-19.83 639.04-235H372.09q-31.31 0-55.89-19.65-24.59-19.65-31.02-52.39L243.87-514.7q-11.56-55.13 25.26-98.06 36.83-42.94 94.09-42.94 27.3 0 50.89 12.29 23.59 12.28 43.72 29.32l92.52 76.83 78.09-55.13-21.79-9.74q-11.69-6.13-15.69-19.17-4-13.05 2.69-24.18l65.05-116.61q6.13-10.56 17.76-14.56 11.63-4 22.76 2.13l62.74 31q11.13 6.13 15.13 18.67 4 12.55-2.7 23.68l-56.78 103.61 37.87 47.39L556.31-410 511-437.13l15.26 55.26h96.22q29.39 0 49.54 13.63t34.42 38.59L856.78-71.26l-93.43 51.43Zm-221-60.69H288.61q-57.96 0-92.22-29.11T150.57-195L62.7-640.17h117.34l88 445.17h274.31v114.48Z"/></svg>