<svg xmlns="http://www.w3.org/2000/svg" height="20" viewBox="0 -960 960 960" width="20"><path d="M305.61-631.61q-31.99 0-54.11-22.12t-22.12-54.11q0-32 22.12-54.12 22.12-22.12 54.11-22.12 32 0 54.12 22.12 22.12 22.12 22.12 54.12 0 31.99-22.12 54.11t-54.12 22.12Zm388.31 515.22-86.65-151.65H367.11q-29.73 0-52.28-18.23-22.56-18.23-29.29-45.88l-42.42-189.39q-6.62-27.88 9.09-52.77 15.71-24.88 44.48-31.88 20.58-5 39.12 4.58 18.53 9.57 33.77 24.65l103.27 106.35 113.92-81.81-32.54-16.2q-5.54-2.3-7.4-8.82-1.87-6.52.05-12.06l41.27-88.46q2.12-5.73 8.14-6.94 6.02-1.21 11.94.9l49.96 23.89q5.54 2.3 7.06 8.32 1.52 6.02-.41 11.37l-39.11 86.88 14.81 21.66-193.5 141.07-45.54-61 30.38 112.62h183q15.81 0 29.29 7.81 13.48 7.8 21.83 22.77l91 156.65-63.08 35.57Zm-167.5-55.69H263.15q-23.3 0-38.44-11.34-15.13-11.35-19.36-34.16l-81.27-405.61h48.19l80.08 390.84q.77 4.62 5.38 8.47 4.62 3.84 9.23 3.84h259.46v47.96Z"/></svg>