<svg xmlns="http://www.w3.org/2000/svg" height="24" viewBox="0 -960 960 960" width="24"><path d="M312.44-673.28q-33.94 0-57.77-23.83-23.82-23.82-23.82-57.76 0-33.93 23.82-57.88 23.83-23.95 57.77-23.95 33.93 0 57.88 23.95 23.94 23.95 23.94 57.88 0 33.94-23.94 57.76-23.95 23.83-57.88 23.83ZM739.5-47.85 625.78-244.28H355.85q-28 0-48.75-16.75t-26.25-44.25l-41.78-211.89q-9.48-47.94 21.69-84.53 31.18-36.58 80.33-36.58 23.5 0 44.39 10.73 20.89 10.72 37.09 27.53l100.02 105.37 92.35-63.18-18.27-8q-8.45-4.21-11.06-12.77-2.61-8.55 1.85-16.77l53.78-106.74q4.22-8.22 12.17-10.72 7.96-2.5 16.18 1.48l57.98 26.96q8.45 4.22 11.07 12.65 2.62 8.44-1.84 16.65l-44.78 88.13 26.2 34.83L521.5-397.89l-48.89-31.31 17.22 67.33h114.43q22.65 0 39.77 11.47 17.12 11.47 28.82 31.12l136 233-69.35 38.43Zm-211.65-74.02H275.54q-37.54 0-63.96-22.8-26.43-22.81-34.15-59.61l-86-434h84.42l86 434h266v82.41Z"/></svg>