<svg xmlns="http://www.w3.org/2000/svg" height="24" viewBox="0 -960 960 960" width="24"><path d="M357-689q-41 0-70-29t-29-70q0-41 29-70.5t70-29.5q41 0 70 29.5t29 70.5q0 41-29 70t-70 29ZM769-22 646-235H386q-30 0-53.5-19T303-304l-40-202q-12-56 27-98.5t98-42.5q26 0 48.5 12.5T480-608l106 69 62-46-17-8q-13-7-17-22t4-27l72-114q7-11 19.5-15t24.5 3l61 31q12 7 16 21.5t-4 26.5l-62 101 37 40-187 138-64-38 17 67h81q32 0 51.5 14.5T716-324L862-73l-93 51ZM558-74H306q-61 0-97-31.5T161-195L74-638h123l88 443h273v121Z"/></svg>