<svg xmlns="http://www.w3.org/2000/svg" height="40" viewBox="0 -960 960 960" width="40"><path d="M283.33-680q-32.33 0-55.83-23.5T204-759.33q0-33 23.5-56.84Q251-840 283.33-840q33 0 56.84 23.83Q364-792.33 364-759.33q0 32.33-23.83 55.83-23.84 23.5-56.84 23.5ZM754.67-26.67 637.33-230h-302q-27 0-47.83-15.83-20.83-15.84-26.17-42.17L215-526.33q-9-46.67 22.17-81.84 31.16-35.16 79.16-35.16 22.67 0 43.17 9.16 20.5 9.17 34.17 26.84l98.66 127 102-72-25.66-12.34q-6-3.33-8.17-9.66-2.17-6.34.5-12.34L609-689q3.33-6.67 9.5-9t12.83 1l53.34 25.67q6 3.33 8.33 9.83t-.33 12.5L653-563.33l23.33 35-192 137.33L444-420.67l17.33 83.34h151.34q20.33 0 36.33 11.66 16 11.67 26.33 29L813.33-60l-58.66 33.33ZM521.33-120H248q-28.33 0-49.83-19.17-21.5-19.16-27.17-47.5L80-643.33h69.33l87.34 456.66h284.66V-120Z"/></svg>