<svg xmlns="http://www.w3.org/2000/svg" height="48" viewBox="0 -960 960 960" width="48"><path d="M284.33-676.52q-33.2 0-56.92-23.72-23.71-23.72-23.71-56.91 0-33.7 23.71-58.28 23.72-24.59 56.92-24.59 33.69 0 58.28 24.59 24.59 24.58 24.59 58.28 0 33.19-24.59 56.91t-58.28 23.72ZM763.07-23.33 646.09-227.02H337.2q-26.24 0-46.24-14.75-20-14.75-24.26-38.75l-47.03-247.61q-9.74-46.7 22.46-81.29 32.2-34.6 81.87-34.6 21.5 0 40.26 9.61 18.76 9.61 32.48 25.15l107.33 128.52 107.26-78.63-36.76-17.5q-5.96-3.48-7.95-10.3-1.99-6.83.97-12.55l50.08-98.24q2.98-5.97 8.83-7.72t12.57.98l54.97 27.22q5.72 3.72 7.47 10.43 1.75 6.7-.97 11.92l-46.08 94.41 20.45 28.31-182.91 139-49.98-36.11 20.72 101.87h157.83q20.93 0 35.8 12.23 14.87 12.22 25.33 30.9l135 231.5-53.63 29.69ZM528.2-119.02H250.65q-29.35 0-47.91-17.2-18.57-17.19-24.04-45.8l-92.5-462h66l86 462h290v63Z"/></svg>