<svg xmlns="http://www.w3.org/2000/svg" height="40" viewBox="0 -960 960 960" width="40"><path d="M300.02-695.99q-36.56 0-62.03-25.48-25.48-25.48-25.48-62.04 0-36.55 25.48-62.82 25.47-26.26 62.03-26.26t62.7 26.26q26.15 26.27 26.15 62.82 0 36.56-26.15 62.04-26.14 25.48-62.7 25.48ZM767.49-13.18 644.36-227.16H346.88q-29.77 0-52.84-17.47-23.07-17.48-28.34-46.85l-45.77-235.71q-10.42-50.98 23.79-90.42 34.21-39.43 87.85-39.43 24.95 0 46.77 11.04 21.81 11.04 38.3 28.52l94.29 106.8 100.09-72.62-34.03-15.71q-8.72-3.98-11.64-13.57t1.46-17.4l55.03-108.57q3.99-8.08 12.39-10.75 8.41-2.66 16.89 1.32l60.04 29.51q7.65 4.14 10.57 13.24 2.92 9.09-1.3 16.9l-50.08 102.42 29.7 41.92-194.43 141.64-38.68-26.85 17.29 77.16h139.23q24.29 0 41.93 13.15t29.77 33.51L841.43-54.12l-73.94 40.94ZM529.84-97.51h-271.2q-42.88 0-68.26-22.08-25.39-22.08-33.8-64.24l-91.85-460.8h89.83l87.33 460.8h287.95v86.32Z"/></svg>