<svg xmlns="http://www.w3.org/2000/svg" height="40" viewBox="0 -960 960 960" width="40"><path d="M281.79-656.92q-27.97 0-47.75-20.04t-19.78-47.5q0-27.62 19.78-47.73 19.78-20.12 47.75-20.12 27.62 0 47.74 20.12 20.11 20.11 20.11 47.73 0 27.46-20.11 47.5-20.12 20.04-47.74 20.04ZM728.51-58.46 625.54-235.64H325.59q-21.1 0-36.68-12.37-15.58-12.37-19.37-31.78l-48.13-236.29q-8.23-37.69 16.65-66.7 24.89-29.02 63.66-29.02 19.33 0 36.11 8.27 16.79 8.27 29.43 23.12l112.77 127 113.53-88.15-38.74-19.77q-5.23-3.08-6.63-8.64-1.4-5.57.76-10.8l35.18-76.69q2.56-6.16 8.34-7.98 5.79-1.82 11.94 1.26l41.8 21.31q5.23 3.07 6.66 8.68 1.44 5.6-.72 10.83l-33.51 75.15L633-529.36 475.87-397.41l-73.41-57.87 32.72 145.64h156.46q14.95 0 27.62 8.33 12.66 8.34 20.69 22.59l118 203.34-29.44 16.92ZM519.28-160H274.15q-25.51 0-44.7-15.96t-24.35-40.96L120-641.79h34.46l83.23 423.33q1.54 9.23 10.77 16.92 9.23 7.69 18.46 7.69h252.36V-160Z"/></svg>