<svg xmlns="http://www.w3.org/2000/svg" height="40" viewBox="0 -960 960 960" width="40"><path d="M281.33-650q-26.66 0-45.33-19-18.67-19-18.67-45T236-759q18.67-19 45.33-19 26 0 45 19t19 45q0 26-19 45t-45 19ZM720.67-68 622-237.33H322.67q-19.34 0-33.34-11.34-14-11.33-17.33-28.66L223.33-513q-8-35 15-62.17 23-27.16 59-27.16 18.34 0 34 8 15.67 8 28 22l117 127 117-93-42.66-22q-5-3-6.17-8.34-1.17-5.33.83-10.33l31.34-69q2.33-6 8-7.67 5.66-1.66 11.66 1.34l38.34 20q5 3 6.16 8.33 1.17 5.33-.83 10.33l-31.67 72 11.67 14-146.67 130.34L390-465.67l37.33 164.34h158q13.34 0 25 7.33 11.67 7.33 19 20.67L741.33-80l-20.66 12Zm-202-104H282q-24.67 0-43.17-15t-23.5-39L132-641.33h24L238-228q2 12 14 22t24 10h242.67v24Z"/></svg>