<svg xmlns="http://www.w3.org/2000/svg" height="48" viewBox="0 -960 960 960" width="48"><path d="M285-666q-30 0-49.5-20T216-735q0-28 19.5-48.5T285-804q28 0 48.5 20.5T354-735q0 29-20.5 49T285-666ZM731-55 627-234H325q-22 0-38-12.5T268-279l-49-239q-9-38 15.5-68.5T299-617q20 0 37 9.5t31 24.5l110 116 123-99-53-26q-7-3-8.5-10t1.5-13l34-74q2-7 9-8.5t14 1.5l44 23q6 3 7.5 9.5T647-651l-38 87 16 21-151 135-76-61 37 159h158q15 0 28 8.5t21 22.5L762-72l-31 17ZM520-157H282q-34 0-54-16t-27-49l-85-422h36l82 420q2 12 14 22t24 10h248v35Z"/></svg>