<svg xmlns="http://www.w3.org/2000/svg" height="24" viewBox="0 -960 960 960" width="24"><path d="M329.39-672.3q-35.89 0-61.18-25.3-25.3-25.29-25.3-61.18t25.3-61.47q25.29-25.58 61.18-25.58t61.47 25.58q25.58 25.58 25.58 61.47t-25.58 61.18q-25.58 25.3-61.47 25.3ZM747-44.91 632.3-243.3H367.91q-28 0-48.75-16.75t-26.25-44.25l-40.8-207.66q-10.13-49.89 23.33-87.62 33.45-37.72 85.54-37.72 23.5 0 43.9 11.38t38.23 26.55l106.87 94.28 81.91-57.95-17.93-8q-9.76-5.2-12.86-15.87-3.1-10.68 2.66-19.87l60.31-107.07q5.19-9.19 14.45-11.69 9.26-2.5 18.46 2.13l58.63 28.26q9.76 5.19 12.54 15.58 2.79 10.4-2.97 19.59l-51.31 91.72 27.83 32.54-190.2 134.57-59.65-37.18 18.2 72.55h101.39q25.58 0 42.87 12.44 17.28 12.45 30.6 35.04l136 233L747-44.91Zm-207.09-65.87H289.24q-43.74 0-72.45-24.93-28.7-24.92-37.4-67.59l-86-434h94.52l86 434h266v92.52Z"/></svg>