<svg xmlns="http://www.w3.org/2000/svg" height="20" viewBox="0 -960 960 960" width="20"><path d="M333.76-674.5q-40.72 0-68.43-27.72-27.72-27.71-27.72-68.43 0-40.72 27.72-68.56 27.71-27.83 68.43-27.83 40.72 0 68.44 27.83 27.71 27.84 27.71 68.56t-27.71 68.43q-27.72 27.72-68.44 27.72ZM727.11-74.2 621.83-259H389.65q-37.28 0-67.18-23.64-29.9-23.64-38.67-61.69l-40.28-180.89q-9.24-40.48 14.96-76.24 24.19-35.76 66.15-42.76 27.28-5 51.19 7.12 23.9 12.12 44.38 30.45l82.41 71.69 97.15-66.97-30.37-14.05q-9.72-4.48-13.72-16.05-4-11.58.72-21.06l58.83-114.56q4.48-9.24 14.95-12.24 10.48-3 19.96 1.48l63.04 31q9.48 4.48 12.98 15.05 3.5 10.58-1.21 20.06l-54.87 111.56 33.52 46.94L483.28-403 464-440.98l19.96 58.46h156.63q25.43 0 44.57 11.48 19.14 11.47 31.1 33.15l118.61 203.93L727.11-74.2Zm-188.5-35.21H264.57q-48.68 0-74.14-19.82-25.45-19.81-34.69-67.77L70.22-625.8h104.11l84 414.8h280.28v101.59Z"/></svg>