<svg xmlns="http://www.w3.org/2000/svg" height="48" viewBox="0 -960 960 960" width="48"><path d="M288.65-690.74q-35.48 0-60.33-24.86-24.86-24.86-24.86-60.33 0-35.48 24.86-61.46 24.85-25.98 60.33-25.98t61.34 25.98q25.86 25.98 25.86 61.46 0 35.47-25.86 60.33t-61.34 24.86ZM771.67-10.67 649.63-223.24H339.5q-28.52 0-50.42-16.14-21.91-16.14-26.43-43.19l-47.52-247.6q-10-49.24 23.72-86.76 33.72-37.53 86.19-37.53 23.29 0 43.81 10.5 20.52 10.5 35.52 27.07l100.22 118.85 105.06-77.94-38.37-18.04q-7.71-3.24-10.1-11.84-2.38-8.6 1.34-15.07l52.63-103.57q3.24-7 10.36-9 7.12-2 14.6 1.24l58.04 28.76q6.24 3.48 8.62 11.58 2.38 8.09-1.1 14.57L657-576.5l25.28 36.41-187.5 141.57-42.37-30.78 18.96 92.5h155.02q22.72 0 38.86 13.23 16.14 13.24 27.86 32.44L835.72-46.2l-64.05 35.53Zm-242.21-92.9H250.17q-36.47 0-58.07-19.45-21.6-19.46-28.6-55.22l-93.52-467.8h78.19l87 467.8h294.29v74.67Z"/></svg>