<svg xmlns="http://www.w3.org/2000/svg" height="24" viewBox="0 -960 960 960" width="24"><path d="M329.39-678.3q-36.39 0-62.43-26.05-26.05-26.04-26.05-62.43t26.05-62.72q26.04-26.33 62.43-26.33t62.72 26.33q26.33 26.33 26.33 62.72t-26.33 62.43q-26.33 26.05-62.72 26.05ZM753-34.91 635.3-238.3H366.91q-29 0-50.5-17.5t-27.5-46.5l-41.3-207.66q-10.13-51.39 24.33-89.87 34.45-38.47 87.54-38.47 24 0 45.65 10.63t39.48 26.8l103.87 93.78 71.91-50.95-10.43-5q-10.26-5.7-13.61-16.37-3.35-10.68 2.91-20.37l61.31-109.57q5.69-9.69 15.45-12.69 9.76-3 19.46 2.13l55.13 27.26q10.26 5.69 13.54 16.58 3.29 10.9-2.97 20.59l-48.31 85.22 30.83 37.04L553-398.65l-55.65-35.18 15.7 67.05h101.39q26.08 0 44.37 12.69 18.28 12.7 32.1 35.79l140 240L753-34.91Zm-212.09-65.87H285.74q-43.74 0-75.2-27.18-31.45-27.17-40.15-70.34l-87-440h99.52l88 440h270v97.52Z"/></svg>