<svg xmlns="http://www.w3.org/2000/svg" height="40" viewBox="0 -960 960 960" width="40"><path d="M293.7-679.44q-33.61 0-57.95-24.34-24.34-24.34-24.34-57.94 0-34.28 24.34-59.07t57.95-24.79q34.27 0 59.06 24.79t24.79 59.07q0 33.6-24.79 57.94-24.79 24.34-59.06 24.34ZM759.21-24.83 641.32-229.44H342.75q-27.16 0-48-15.83-20.83-15.84-26-42.17l-45.78-235.71q-9.32-47.94 23.2-83.78 32.53-35.85 82.36-35.85 22.67 0 42.89 9.57 20.22 9.56 34.76 26.2l102.89 120.3 95.63-68.81-25.43-12.34q-6.96-3.89-9.4-11.46-2.45-7.56 1.17-14.28l51.99-102.57q3.89-7.23 10.77-9.56 6.89-2.34 14.27 1.32l53.81 26.46q6.8 4.05 9.17 11.67 2.38 7.61-1.09 14.33l-43.65 87.82 24.37 33.64-188.01 137.42-46.95-33.18 18.05 86.53h143.36q22.01 0 38.13 12.22 16.12 12.23 27.49 31.39l138 236.67-61.54 34.61ZM528.75-113.3h-272.3q-32.08 0-55.02-20.49-22.93-20.48-29.15-52.32l-91-456.67h75.47l87.33 456.67h284.67v72.81Z"/></svg>