<svg xmlns="http://www.w3.org/2000/svg" height="48" viewBox="0 -960 960 960" width="48"><path d="M314-675q-37 0-63-26t-26-63q0-37.5 26-64.75T314-856q37.5 0 64.75 27.25T406-764q0 37-27.25 63T314-675ZM776-18 657.5-225.5h-299q-27 0-47-14.75T288-279l-45.5-240Q232-569.5 268-606t91-36.5q21.5 0 39.5 10.75t34 23.25L552-499l89-69.5-36-17.5q-9-5-11.75-15.25t3.25-18.25l61.5-99q4.5-7.5 12.25-9.25T687-726l56.5 29.5q8 6 9.75 15.75T750-663.5L692.5-563l23.5 24.5-171.5 139-69-46 23 111h135q25.5 0 40.75 13.75T703-283L838-51.5 776-18Zm-226.5-82H275q-40 0-62.75-21t-29.75-59.5L90-642.5h83.5l86 462h290v80.5Z"/></svg>