<svg xmlns="http://www.w3.org/2000/svg" height="40" viewBox="0 -960 960 960" width="40"><path d="M281.79-655.23q-28.19 0-47.58-19.65-19.39-19.65-19.39-47.33 0-27.5 19.39-47.39t47.58-19.89q27.5 0 47.4 19.89 19.89 19.89 19.89 47.39 0 27.68-19.89 47.33-19.9 19.65-47.4 19.65ZM726.82-61.28 624.69-237.05H325.87q-21.15 0-36.53-12.15-15.38-12.15-18.67-31.16l-47.63-236.28q-8.57-37.63 15.84-66.25 24.41-28.62 63.62-28.62 18.83 0 35.44 8.49t29.25 22.67l113.62 127.5 116.36-90.12-41.22-20.62q-5.45-3.29-6.6-8.5-1.14-5.2 1.23-10.65l34.89-76.35q2.07-5.65 7.71-7.33 5.64-1.68 12.01.89l42.43 21.59q5.44 3.3 6.74 8.76 1.29 5.46-1.08 10.19l-34.36 77.35 13.52 17.22-156.63 131.95-74.54-58.44 33.06 147.55H590.8q14.44 0 27.19 8.28 12.74 8.27 20.27 22.36L755.13-77.36l-28.31 16.08ZM519-162.82H275.5q-25.51 0-44.11-15.51-18.6-15.5-23.75-40l-84.82-423.18h33.05l82.67 421.64q1.54 9.23 10.77 16.92 9.23 7.69 18.46 7.69H519v32.44Z"/></svg>