<svg xmlns="http://www.w3.org/2000/svg" height="48" viewBox="0 -960 960 960" width="48"><path d="M281-696q-35 0-59.5-24.5T197-780q0-35 24.5-60.5T281-866q35 0 60.5 25.5T367-780q0 35-25.5 59.5T281-696ZM770-9 647-223H334q-29 0-51.5-16.5T255-284l-48-250q-10-49 23-87t85-38q24 0 45 10.5t36 28.5l94 121 112-82-41-19q-7-3-9.5-11t.5-14l50-105q3-7 10-9t14 1l59 29q6 3 8.5 10.5T693-685l-47 103 26 40-193 143-34-26 18 87h161q22 0 38.5 13t27.5 31L835-45 770-9Zm-247-96H243q-36 0-57-18.5T158-178L64-647h77l87 469h295v73Z"/></svg>