<svg xmlns="http://www.w3.org/2000/svg" height="20" viewBox="0 -960 960 960" width="20"><path d="M363-645q-41 0-70-29t-29-70q0-41 29-70.5t70-29.5q41 0 70.5 29.5T463-744q0 41-29.5 70T363-645ZM731-87l-99-174H411q-34 0-60-21t-34-54l-38-171q-9-40 17.5-72.5T366-619q23-5 43.5 6.5T451-588l113 68 65-49-15-8q-11-6-15-19.5t3-23.5l69-106q6-10 17-12t21 3l55 29q11 6 14 19t-4 23l-59 96 28 28-194 144-58-62 23 86h133q28 0 45 12.5t32 38.5l105 180-98 54Zm-166-23H293q-45 0-72-22.5T186-199l-84-422h104l84 408h275v103Z"/></svg>