<svg xmlns="http://www.w3.org/2000/svg" height="48" viewBox="0 -960 960 960" width="48"><path d="M282.54-684.46q-33.08 0-55.65-22.77-22.58-22.77-22.58-55.46 0-32.31 22.58-55.89 22.57-23.57 55.65-23.57 32.31 0 55.88 23.57Q362-795 362-762.69q0 32.69-23.58 55.46-23.57 22.77-55.88 22.77ZM755-26.69 639.31-227.23H330.54q-26.31 0-46.31-14.96-20-14.96-24.23-39.89l-48.38-245.77q-9.62-44.76 20.11-79.88 29.73-35.11 77.12-35.11 22.46 0 41.92 10.11 19.46 10.12 34.08 26.96L485-486.69l116.23-88.54-45.62-21.69q-7-3-9.11-10.62-2.12-7.61.88-13.61l43.85-93.08q2.62-7 9.62-8.81 7-1.8 14 1.2l53.23 26.69q6 3 8.11 10.11 2.12 7.12-.88 13.12l-43.54 96.84 22.15 32.7-176.84 139.92-50.16-39.46 25.31 114.69h159.85q19.3 0 34.46 11.27 15.15 11.27 25 27.73L806.92-55.39 755-26.69ZM521.85-125H258q-35.23 0-55.84-17.54-20.62-17.54-27.62-52.38L84-645.85h61.23l85.08 450.16q.77 4.61 5.38 8.46 4.62 3.84 9.23 3.84h276.93V-125Z"/></svg>