<svg xmlns="http://www.w3.org/2000/svg" height="24" viewBox="0 -960 960 960" width="24"><path d="M352-677q-39 0-67-28t-28-67q0-39 28-67.5t67-28.5q39 0 67.5 28.5T448-772q0 39-28.5 67T352-677ZM763-31 644-237H383q-29 0-50.5-17.5T305-301l-40-202q-11-54 26.5-94t94.5-40q24 0 45 11.5t41 25.5l113 79 58-44-10-5q-12-7-16-20.5t4-24.5l70-110q7-11 18.5-14t22.5 3l56 29q12 7 15.5 20.5T799-662l-57 90 33 34-182 135-70-43 17 74h84q30 0 48.5 14t34.5 41L847-77l-84 46ZM557-86H304q-52 0-86.5-30T173-197L86-637h113l88 440h270v111Z"/></svg>