<svg xmlns="http://www.w3.org/2000/svg" height="20" viewBox="0 -960 960 960" width="20"><path d="M297-618q-28 0-48-20t-20-48q0-28 20-48t48-20q28 0 48 20t20 48q0 28-20 48t-48 20Zm387 490-78-136H354q-25 0-43.5-15.5T286-317l-46-198q-6-21 6-41t34-27q18-5 33.5 3t29.5 21l115 112 120-94-43-23q-4-2-5.5-8t-.5-10l31-67q2-5 7.5-6t10.5 1l38 20q4 2 5 7.5t0 9.5l-33 76 8 10-162 138-70-84 42 169h199q12 0 22.5 5.5T645-284l77 134-38 22Zm-158-68H275q-19 0-32-8.5T227-232l-79-392h19l78 376q2 12 14 22t24 10h243v20Z"/></svg>