<svg xmlns="http://www.w3.org/2000/svg" height="40" viewBox="0 -960 960 960" width="40"><path d="M479.89-9.75q-24.32 0-41.05-16.87-16.72-16.87-16.72-40.69 0-25.41 16.84-42.14 16.84-16.74 40.63-16.74 24.92 0 41.94 16.76 17.02 16.77 17.02 42.04 0 24.39-16.95 41.01-16.94 16.63-41.71 16.63ZM291.53-49.61q-24.25 0-41.65-17.57-17.39-17.56-17.39-42.81 0-25.73 17.45-43.01 17.44-17.28 41.57-17.28 26.58 0 43.22 17.36 16.63 17.35 16.63 42.91 0 25.27-16.56 42.83-16.56 17.57-43.27 17.57Zm374.99-.77q-24.04 0-40.84-17.15-16.81-17.16-16.81-42.18 0-24.88 16.98-42.22 16.99-17.35 40.87-17.35 25.86 0 43.56 17.42 17.69 17.42 17.69 42.14 0 25.03-17.72 42.19-17.73 17.15-43.73 17.15ZM164.07-178.32q-24.3 0-41.55-17.24-17.24-17.24-17.24-41.48 0-23.76 17.22-40.92 17.22-17.17 41.33-17.17 23.59 0 40.74 17.17 17.14 17.16 17.14 40.64 0 24.65-17.14 41.83-17.15 17.17-40.5 17.17Zm316.62-1.22q-99.85 0-169.57-66.32-69.73-66.32-69.73-164.92 0-112.16 79.24-206.9Q399.87-712.42 480-782.83q80.45 70.63 159.65 165.26 79.19 94.63 79.19 206.79 0 97.74-69.65 164.49-69.66 66.75-168.5 66.75Zm315.63 2.55q-24.7 0-42.36-17.6-17.67-17.6-17.67-42.68 0-23.89 17.79-41.21t42.44-17.32q25.52 0 42.2 17.32 16.67 17.32 16.67 41.21 0 25.08-16.85 42.68t-42.22 17.6ZM580.13-315.37q41.9-39.03 41.9-95.6 0-74.64-47.32-135.44Q527.39-607.2 480-655.54q-48.1 48.57-94.95 109.25T338.2-410.97q0 56.57 41.81 95.6 41.81 39.02 100.01 39.02 58.21 0 100.11-39.02Zm-100-15.72q34.9 0 59.7-24.71 24.79-24.72 24.79-59.34 0-34.63-24.81-60.24Q514.99-501 479.89-501q-34.51 0-59.85 25.42-25.33 25.42-25.33 60.24t25.56 59.54q25.56 24.71 59.86 24.71Zm.12-513.32q-23.68 0-40.91-16.95-17.22-16.96-17.22-41.23 0-24.42 17.2-41.34 17.2-16.91 40.68-16.91 23.59 0 41.07 16.84 17.48 16.85 17.48 41.11 0 24.8-17.48 41.64t-40.82 16.84ZM480-415.14Z"/></svg>