<svg xmlns="http://www.w3.org/2000/svg" height="40" viewBox="0 -960 960 960" width="40"><path d="M479.79-3.67q-26.1 0-44.28-18.38-18.18-18.37-18.18-43.9 0-27.64 18.34-45.68t43.8-18.04q26.78 0 45.32 18.09t18.54 45.71q0 26.2-18.41 44.2-18.41 18-45.13 18Zm-188.94-40q-26.18 0-44.52-19.02Q228-81.71 228-109.25q0-27.95 18.42-46.52 18.43-18.56 44.38-18.56 28.45 0 46.83 18.7Q356-136.93 356-109.29q0 27.58-18.25 46.6-18.24 19.02-46.9 19.02ZM666.88-44q-25.85 0-44.03-18.74-18.18-18.73-18.18-46.23 0-27.1 18.49-45.73 18.5-18.63 44.08-18.63 28.09 0 47.09 18.76 19 18.77 19 45.57 0 27.53-19.05 46.26Q695.23-44 666.88-44ZM159.56-172.67q-25.87 0-44.71-18.65Q96-209.98 96-236.05q0-25.62 18.75-44.45 18.76-18.83 44.58-18.83 25.34 0 44 18.83Q222-261.67 222-236.32q0 26.47-18.67 45.06-18.66 18.59-43.77 18.59Zm321.36-2.66q-102.25 0-172.92-68.19-70.67-68.18-70.67-169.15 0-114.33 81.09-209.38Q399.52-717.1 480-788.33q81.05 71.61 162.19 166.47t81.14 209.19q0 100.12-70.57 168.73-70.58 68.61-171.84 68.61Zm319.78 4q-26.61 0-45.66-18.98Q736-209.3 736-236.38q0-25.93 19.26-44.77Q774.53-300 801.06-300q27.94 0 45.77 18.85 17.84 18.84 17.84 44.77 0 27.08-18.15 46.07-18.14 18.98-45.82 18.98ZM576.38-320.28q40.29-38.27 40.29-92.72 0-73.33-45-131.67Q526.67-603 480-648q-47.67 45.67-91.83 103.67Q344-486.33 344-413q0 54.45 39.99 92.72 40 38.28 96.05 38.28t96.34-38.28Zm-96.18-11.39q34.98 0 59.55-24.5 24.58-24.5 24.58-58.82 0-34.34-24.67-60.18Q514.98-501 479.8-501q-34.13 0-59.47 25.64Q395-449.73 395-415.19q0 34.52 25.64 59.02 25.65 24.5 59.56 24.5Zm.03-511q-25.24 0-44.07-18.15-18.83-18.16-18.83-44.27 0-26.8 18.74-45.19 18.73-18.39 43.93-18.39 25.33 0 44.33 18.26 19 18.27 19 45 0 26.74-19 44.74-19 18-44.1 18ZM480-415Z"/></svg>