<svg xmlns="http://www.w3.org/2000/svg" height="40" viewBox="0 -960 960 960" width="40"><path d="M480.43-41.58q-19.97 0-33.47-13.38-13.5-13.39-13.5-32.93 0-18.98 13.59-32.54Q460.64-134 480.15-134q19.26 0 32.49 13.55 13.24 13.54 13.24 32.31 0 20.02-13.2 33.29-13.21 13.27-32.25 13.27Zm-174.8-39.49q-19.69 0-33.86-13.36-14.17-13.36-14.17-33.81 0-18.95 14.19-33 14.2-14.06 33.83-14.06 19.94 0 33.5 14.09 13.57 14.09 13.57 32.96 0 20.46-13.54 33.82-13.53 13.36-33.52 13.36Zm348.38 0q-19.84 0-33.6-13.36-13.76-13.36-13.76-33.81 0-18.95 13.78-33Q634.22-175.3 654-175.3q19.93 0 33.83 14.09 13.9 14.09 13.9 32.96 0 20.46-13.87 33.82Q674-81.07 654.01-81.07ZM189.07-202.59q-19.38 0-32.82-13.39-13.43-13.4-13.43-32.77 0-19.13 13.46-32.77 13.46-13.65 32.53-13.65t32.75 13.65q13.68 13.64 13.68 32.5 0 19.77-13.68 33.1-13.68 13.33-32.49 13.33Zm291.18-.13q-90.55 0-154.72-60.54-64.18-60.54-64.18-149.44 0-101.3 71.86-190.01 71.86-88.7 146.79-153.24 74.87 64.65 146.68 153.38 71.81 88.74 71.81 189.87 0 88.9-63.85 149.44-63.85 60.54-154.39 60.54Zm290.96 1.47q-20.33 0-34.39-13.79-14.06-13.79-14.06-33.86 0-19.47 14.02-33.2 14.02-13.73 34.28-13.73 19.65 0 33.22 13.73t13.57 33.2q0 20.07-13.7 33.86t-32.94 13.79ZM583.06-314.94q42.85-39.65 42.85-98.24 0-72.27-48.74-135.04-48.74-62.77-97.17-112.01-48.19 49.24-97.13 111.93-48.94 62.68-48.94 135.12 0 58.59 43.08 98.24 43.09 39.64 103.15 39.64t102.9-39.64Zm-102.9-23.54q33.17 0 56.78-23.53 23.62-23.53 23.62-57.57 0-32.87-23.62-57.11-23.61-24.24-56.78-24.24-34.26 0-58.15 24.04-23.9 24.03-23.9 57.3 0 33.8 23.9 57.46 23.89 23.65 58.15 23.65Zm.05-492.22q-19.72 0-32.99-13.11-13.26-13.11-13.26-32.81 0-18.81 13.29-32.66 13.3-13.84 32.7-13.84 18.73 0 32.58 13.81 13.85 13.82 13.85 32.4 0 20.16-13.85 33.19-13.85 13.02-32.32 13.02ZM480-419.46Z"/></svg>