<svg xmlns="http://www.w3.org/2000/svg" height="20" viewBox="0 -960 960 960" width="20"><path d="M479.97-118.5q-8.51 0-14.24-5.71T460-138.5q0-9 5.77-14.25t14.44-5.25q9.29 0 14.29 5.26t5 14.52q0 8.22-5 13.97t-14.53 5.75Zm-152-38q-8.51 0-14.24-5.43-5.73-5.44-5.73-14.18 0-9.16 5.77-14.52 5.77-5.37 14.44-5.37 9.29 0 14.29 5.37 5 5.36 5 14.76 0 8.37-5 13.87t-14.53 5.5Zm304 0q-8.51 0-14.24-5.43-5.73-5.44-5.73-14.18 0-9.16 5.77-14.52 5.77-5.37 14.44-5.37 9.29 0 14.29 5.37 5 5.36 5 14.76 0 8.37-5 13.87t-14.53 5.5ZM228.87-258q-8.37 0-13.87-5.43-5.5-5.44-5.5-14.18 0-9.16 5.43-14.52 5.44-5.37 14.18-5.37 9.16 0 14.52 5.37 5.37 5.36 5.37 14.76 0 8.37-5.37 13.87-5.36 5.5-14.76 5.5Zm251.17-12Q409.5-270 359-313.75T308.5-425.5q0-86 57.5-151.75T480-694q57.79 51.24 114.65 116.87Q651.5-511.5 651.5-425.5q0 68-50.46 111.75-50.47 43.75-121 43.75Zm251.05 12q-8.75 0-14.42-5.43-5.67-5.44-5.67-14.18 0-9.16 5.69-14.52 5.69-5.37 14.24-5.37 9.57 0 14.57 5.37 5 5.36 5 14.76 0 8.37-5.02 13.87-5.03 5.5-14.39 5.5Zm-142.78-69.12Q634-366.75 634-426q0-86-52.25-138.75T480-674q-48 56.5-101 109.25T326-426q0 59.25 45.75 98.88 45.75 39.62 108.31 39.62t108.25-39.62ZM480.23-375q26.27 0 46.02-19.25Q546-413.5 546-440.23q0-26.77-19.75-46.27Q506.5-506 479.98-506q-25.5 0-44.74 19.41Q416-467.17 416-440q0 26.5 19.28 45.75T480.23-375Zm-.36-401q-8.37 0-13.87-5.43-5.5-5.44-5.5-14.18 0-9.16 5.43-14.52 5.44-5.37 14.18-5.37 9.16 0 14.52 5.37 5.37 5.36 5.37 14.76 0 8.37-5.37 13.87-5.36 5.5-14.76 5.5Zm.13 336Z"/></svg>