<svg xmlns="http://www.w3.org/2000/svg" height="24" viewBox="0 -960 960 960" width="24"><path d="M480.21-51q-20.25 0-34.23-13.78Q432-78.55 432-98.5q0-19 13.98-33.25T480.21-146q19.29 0 33.04 14.26T527-98.46q0 19.96-13.75 33.71T480.21-51Zm-166-39.5q-20.25 0-34.23-13.5Q266-117.5 266-137.61q0-19.16 13.98-33.52 13.98-14.37 34.23-14.37 19.29 0 33.04 14.37Q361-156.77 361-137.61q0 20.11-13.75 33.61t-33.04 13.5Zm332 0q-20.25 0-34.23-13.5Q598-117.5 598-137.61q0-19.16 13.98-33.52 13.98-14.37 34.23-14.37 19.29 0 33.04 14.37Q693-156.77 693-137.61q0 20.11-13.75 33.61t-33.04 13.5ZM204.11-208q-20.11 0-33.61-13.5T157-255.11q0-19.16 13.5-33.52Q184-303 204.11-303q19.16 0 33.52 14.37Q252-274.27 252-255.11q0 20.11-14.37 33.61-14.36 13.5-33.52 13.5Zm275.96 0q-88.07 0-150.82-60.75T266.5-417q0-93 70-182.75T480-756q73.58 66.62 143.29 156.56T693-417q0 87.5-62.43 148.25Q568.15-208 480.07-208ZM756-208q-20.16 0-34.08-13.5Q708-235 708-255.11q0-19.16 13.88-33.52Q735.76-303 755.86-303 775-303 789-288.63q14 14.36 14 33.52 0 20.11-14.1 33.61T756-208ZM577.62-321.75Q618-360.5 618-416.5q0-58.5-46.25-123.75T480-652q-46 46.5-92.25 111.5t-46.25 124q0 56 40.75 94.75T480.12-283q57.12 0 97.5-38.75Zm-97.39-21.75q32.27 0 55.02-22.75T558-421.73q0-31.77-22.75-54.77-22.75-23-55.02-23-33.25 0-55.74 22.91Q402-453.67 402-421.5q0 32.5 22.49 55.25t55.74 22.75Zm-.62-474q-20.11 0-33.61-13.5t-13.5-33.61q0-19.16 13.5-33.52 13.5-14.37 33.61-14.37 19.16 0 33.52 14.37 14.37 14.36 14.37 33.52 0 20.11-14.37 33.61-14.36 13.5-33.52 13.5Zm.39 396Z"/></svg>