<svg xmlns="http://www.w3.org/2000/svg" height="40" viewBox="0 -960 960 960" width="40"><path d="M480.22-34.25q-20.39 0-34.24-13.94-13.86-13.94-13.86-33.86 0-19.99 13.95-33.97Q460.01-130 479.93-130q19.98 0 33.96 13.95 13.99 13.95 13.99 33.71 0 20.38-13.95 34.24-13.96 13.85-33.71 13.85ZM302.75-73.9q-20.11 0-34.63-14.2-14.52-14.19-14.52-34.86 0-19.79 14.54-34.15 14.55-14.35 34.6-14.35 20.65 0 34.97 14.38 14.31 14.39 14.31 34.11 0 20.68-14.28 34.87-14.29 14.2-34.99 14.2Zm353.71 0q-20.25 0-34.37-14.2-14.11-14.19-14.11-34.86 0-19.79 14.14-34.15 14.13-14.35 34.33-14.35 20.65 0 35.3 14.38 14.65 14.39 14.65 34.11 0 20.68-14.62 34.87-14.62 14.2-35.32 14.2ZM186.29-197.25q-20.27 0-34.2-14.07-13.94-14.06-13.94-33.98 0-19.98 13.97-33.92 13.96-13.95 33.91-13.95 19.91 0 33.89 13.95 13.99 13.94 13.99 33.64 0 20.33-13.99 34.33-13.98 14-33.63 14Zm293.88-.13q-92.47 0-157.89-62.96-65.43-62.96-65.43-154.36 0-99.97 73.19-191.76Q403.23-698.25 480-765.28q76.62 67.02 149.89 158.82 73.26 91.79 73.26 191.76 0 91.4-65.25 154.36-65.25 62.96-157.73 62.96Zm293.71 1.46q-20.84 0-35.31-14.46-14.48-14.45-14.48-35.07 0-19.99 14.48-34.18 14.47-14.2 35.3-14.2 20.17 0 34.41 14.2 14.23 14.19 14.23 34.18 0 20.62-14.26 35.07-14.27 14.46-34.37 14.46ZM479.93-335.98q33.9 0 57.93-23.78t24.03-58.42q0-34.1-24.03-58.51-24.03-24.4-57.93-24.4-34.68 0-58.92 24.28-24.23 24.29-24.23 58.39 0 34.63 24.23 58.54 24.24 23.9 58.92 23.9Zm.33-496.22q-20.27 0-34.2-13.95-13.94-13.94-13.94-33.86 0-19.98 13.97-33.96 13.96-13.99 33.91-13.99 19.91 0 33.89 13.95 13.99 13.96 13.99 33.71 0 20.39-13.99 34.24-13.98 13.86-33.63 13.86Z"/></svg>