<svg xmlns="http://www.w3.org/2000/svg" height="20" viewBox="0 -960 960 960" width="20"><path d="M480.21-33q-24.33 0-41.77-17.23Q421-67.46 421-91.5q0-24.65 17.44-41.58Q455.88-150 480.21-150q24.94 0 41.37 16.93Q538-116.13 538-91.46q0 24.05-16.42 41.25Q505.15-33 480.21-33ZM307.17-75.63q-24.34 0-41.78-16.96-17.43-16.95-17.43-41.72 0-24.81 17.43-42.13 17.44-17.32 41.78-17.32 24.94 0 41.36 17.32 16.43 17.32 16.43 42.13 0 24.77-16.43 41.72-16.42 16.96-41.36 16.96Zm346.09 0q-24.34 0-41.78-16.96-17.44-16.95-17.44-41.72 0-24.81 17.44-42.13 17.44-17.32 41.78-17.32 24.94 0 41.36 17.32 16.42 17.32 16.42 42.13 0 24.77-16.42 41.72-16.42 16.96-41.36 16.96ZM185.5-191.09q-24.2 0-41.15-17.24-16.96-17.23-16.96-41.43 0-24.81 16.96-41.57 16.95-16.76 41.15-16.76 24.81 0 41.85 16.76 17.04 16.76 17.04 41.57 0 24.2-17.04 41.43-17.04 17.24-41.85 17.24Zm294.57-14.26q-93.42 0-159.69-61.05-66.27-61.06-66.27-152.9 0-108.87 75.43-196.45 75.44-87.58 150.46-156.9 75.54 69.44 150.47 157.21 74.92 87.77 74.92 196.14 0 91.84-65.95 152.9-65.94 61.05-159.37 61.05Zm294.54 14.26q-24.25 0-41.62-17.24-17.38-17.23-17.38-41.43 0-24.81 17.33-41.57 17.34-16.76 41.53-16.76 24.79 0 41.47 16.76 16.67 16.76 16.67 41.57 0 24.2-16.77 41.43-16.78 17.24-41.23 17.24ZM573.34-333.34q39.05-34.99 39.05-86.03 0-76.02-42.73-127.99T480-647.3q-45.87 47.97-89.38 99.69t-43.51 128.24q0 51.04 39.42 86.03 39.43 34.99 93.59 34.99 54.17 0 93.22-34.99Zm-93.11-26.2q29.4 0 50.43-21.32 21.04-21.31 21.04-50.05 0-28.89-21.04-50.46-21.03-21.56-50.43-21.56-29.81 0-50.87 21.47-21.06 21.48-21.06 50.79 0 28.5 21.06 49.81 21.06 21.32 50.87 21.32Zm-.62-461.87q-24.2 0-41.15-16.96-16.96-16.96-16.96-41.16 0-24.8 16.96-41.84 16.95-17.04 41.15-17.04 24.81 0 41.85 17.04 17.04 17.04 17.04 41.84 0 24.2-17.04 41.16-17.04 16.96-41.85 16.96Zm.39 390.74Z"/></svg>