<svg xmlns="http://www.w3.org/2000/svg" height="48" viewBox="0 -960 960 960" width="48"><path d="M480.37-72.23q-14.02 0-23.04-9-9.02-8.99-9.02-22.89 0-12.53 9.15-21.86 9.14-9.33 22.75-9.33 13.21 0 22.19 9.34t8.98 21.57q0 14.38-8.98 23.27-8.98 8.9-22.03 8.9ZM312.1-109.89q-13.21 0-23.04-9.13-9.83-9.14-9.83-23.79 0-12.27 9.83-22.02 9.82-9.75 23.31-9.75 13.82 0 23.3 9.75t9.48 22.11q0 14.51-9.48 23.67-9.48 9.16-23.57 9.16Zm335.25 0q-13.97 0-23.39-9.13-9.42-9.14-9.42-23.79 0-12.27 9.44-22.02 9.43-9.75 23.46-9.75 13.83 0 23.42 9.75 9.6 9.75 9.6 22.11 0 14.51-9.6 23.67-9.59 9.16-23.51 9.16ZM203.84-226.77q-13.19 0-22.51-8.97-9.33-8.97-9.33-22.53 0-13.07 9.4-22.33 9.4-9.25 22.12-9.25 13.06 0 22.31 9.25 9.25 9.26 9.25 22.18 0 13.88-9.25 22.77-9.25 8.88-21.99 8.88Zm276.53.61q-82.29 0-140.85-54.28-58.56-54.29-58.56-134.71 0-92.85 65.27-173.83Q411.5-669.96 480-727.54q68.66 57.75 133.95 138.55 65.28 80.8 65.28 173.84 0 80.42-58.28 134.71-58.29 54.28-140.58 54.28Zm276.14.62q-14.47 0-24.14-9.37-9.68-9.37-9.68-23.5 0-13.43 9.66-22.74 9.66-9.31 24.01-9.31 13.87 0 23.06 9.23t9.19 22.91q0 13.99-9.18 23.39-9.19 9.39-22.92 9.39Zm-166.87-86.24q45.74-41.78 45.74-103.87 0-76.81-52.82-140.08Q529.73-619 480-672q-49.23 53-102.21 116.37-52.98 63.36-52.98 139.98 0 62.09 45.75 103.87T480.1-270q63.79 0 109.54-41.78Zm-109.45-31.8q31.92 0 55.4-22.76 23.49-22.77 23.49-56.61 0-32.23-23.49-55.93-23.48-23.7-55.57-23.7-32.81 0-56.18 23.43-23.38 23.42-23.38 56.03 0 33.58 23.46 56.56 23.47 22.98 56.27 22.98Zm.45-471.15q-13.68 0-22.75-8.9-9.08-8.9-9.08-22.61 0-12.56 9.15-22.06 9.15-9.51 22.36-9.51 12.56 0 22.06 9.51 9.5 9.5 9.5 21.73 0 14.19-9.5 23.01-9.5 8.83-21.74 8.83ZM480-422.88Z"/></svg>