<svg xmlns="http://www.w3.org/2000/svg" height="40" viewBox="0 -960 960 960" width="40"><path d="M479.81-66.13q-14.89 0-24.59-9.79-9.71-9.78-9.71-24.45 0-15.32 9.79-25.36t24.46-10.04q15.83 0 25.61 10.04t9.78 25.08q0 15.08-9.78 24.8t-25.56 9.72Zm-174.8-36.59q-14.09 0-24.87-10.56-10.78-10.56-10.78-25.88 0-15.67 10.76-26.01 10.75-10.34 25.12-10.34 16.99 0 26.1 10.34 9.12 10.34 9.12 26.01 0 15.32-9.12 25.88-9.11 10.56-26.33 10.56Zm348.73-1.33q-14.73 0-24.63-9.99-9.9-9.99-9.9-24.83 0-14.82 9.9-25.23t24.63-10.41q15.77 0 26 10.41t10.23 25.23q0 14.84-10.23 24.83-10.23 9.99-26 9.99Zm-463-117.51q-14.87 0-25.16-10.29-10.3-10.29-10.3-25.2 0-14.67 10.36-24.41 10.37-9.75 24.82-9.75 14.64 0 24.55 9.75 9.91 9.74 9.91 24.36 0 15.13-9.91 25.33-9.91 10.21-24.27 10.21Zm289.72.15q-84.23 0-144.01-54.55-59.78-54.55-59.78-137.25 0-99.07 67.34-178.92Q411.36-671.97 480-730.28q68.64 58.31 135.82 138.15Q683-512.28 683-413.21q0 81.85-59.65 136.83-59.66 54.97-142.89 54.97Zm289.39.15q-14.82 0-25.28-10.4-10.47-10.4-10.47-25.49 0-14.57 10.47-24.39 10.46-9.82 25.28-9.82 15.71 0 25.37 9.72 9.65 9.72 9.65 24.49 0 15.09-9.55 25.49-9.55 10.4-25.47 10.4ZM480.13-341.87q32.66 0 56.59-23.55 23.92-23.55 23.92-55.81 0-33.81-23.85-57.3-23.84-23.5-56.8-23.5-31.4 0-55.07 23.29-23.66 23.28-23.66 57.26 0 32.43 23.88 56.02 23.89 23.59 54.99 23.59Zm.17-469.67q-14.24 0-24.51-10.53-10.28-10.52-10.28-24.98 0-14.64 10.34-24.39 10.35-9.74 24.18-9.74 14.64 0 24.88 9.74 10.24 9.75 10.24 24.11 0 14.87-10.24 25.33-10.24 10.46-24.61 10.46Z"/></svg>