<svg xmlns="http://www.w3.org/2000/svg" height="20" viewBox="0 -960 960 960" width="20"><path d="M480-34q-20.77 0-35.69-14.92-14.92-14.93-14.92-35.7 0-22.15 14.92-36.38 14.92-14.23 35.69-14.23 22.15 0 36.38 14.23 14.23 14.23 14.23 36.38 0 20.77-14.23 35.7Q502.15-34 480-34ZM297.39-75.46q-20.77 0-36.7-15.43-15.92-15.42-15.92-36.19 0-23.15 15.92-37.88 15.93-14.73 36.7-14.73 23.15 0 36.38 14.73Q347-150.23 347-127.08q0 20.77-13.23 36.19-13.23 15.43-36.38 15.43Zm364.22-2q-20.76 0-35.19-14.43Q612-106.31 612-127.08q0-22.15 14.42-36.88 14.43-14.73 35.19-14.73 22.16 0 36.89 14.73t14.73 36.88q0 20.77-14.73 35.19-14.73 14.43-36.89 14.43ZM175.85-194.23q-20.77 0-35.69-15.43-14.93-15.42-14.93-36.19 0-22.15 14.93-35.88 14.92-13.73 35.69-13.73 22.15 0 36.38 13.73 14.23 13.73 14.23 35.88 0 20.77-14.23 36.19-14.23 15.43-36.38 15.43Zm304.15-12q-92.46 0-158.35-58.92-65.88-58.93-65.88-149 0-112.16 75-198.89 75-86.73 149.23-154.19 75.23 67.46 149.23 154.19 74 86.73 74 198.89 0 90.07-65.88 149-65.89 58.92-157.35 58.92Zm304.15 12q-20.77 0-35.69-15.43-14.92-15.42-14.92-36.19 0-22.15 14.92-35.88 14.92-13.73 35.69-13.73 22.16 0 36.39 13.73t14.23 35.88q0 20.77-14.23 36.19-14.23 15.43-36.39 15.43ZM582.38-321.31q42.85-37.07 42.85-93.23 0-86.92-48.73-140.35-48.73-53.42-96.5-110.57-47.38 56.15-96.81 110.07-49.42 53.93-49.42 140.85 0 56.16 43.35 93.23 43.34 37.08 102.88 37.08 59.54 0 102.38-37.08ZM480-354q30.23 0 52.65-22.42 22.43-22.43 22.43-52.27 0-30.62-22.43-52.85-22.42-22.23-52.65-22.23-29.46 0-51.88 22.23-22.43 22.23-22.43 52.85 0 29.84 22.43 52.27Q450.54-354 480-354Zm0-473q-20.77 0-35.69-15.42-14.92-15.42-14.92-36.19 0-22.16 14.92-35.89T480-928.23q22.15 0 36.38 13.73 14.23 13.73 14.23 35.89 0 20.77-14.23 36.19Q502.15-827 480-827Zm0 398.31Z"/></svg>