<svg xmlns="http://www.w3.org/2000/svg" height="24" viewBox="0 -960 960 960" width="24"><path d="M480.21-25q-25.33 0-43.27-17.73Q419-60.46 419-85.5q0-24.65 17.94-42.58Q454.88-146 480.21-146q24.94 0 42.37 17.93Q540-110.13 540-85.46q0 25.05-17.42 42.75Q505.15-25 480.21-25ZM305.17-65.63q-25.34 0-43.28-17.46-17.93-17.45-17.93-43.22 0-24.81 17.93-43.13 17.94-18.32 43.28-18.32 24.94 0 42.36 18.32 17.43 18.32 17.43 43.13 0 25.77-17.43 43.22-17.42 17.46-42.36 17.46Zm350.09 0q-25.34 0-43.28-17.46-17.94-17.45-17.94-43.22 0-24.81 17.94-43.13 17.94-18.32 43.28-18.32 24.94 0 42.36 18.32 17.42 18.32 17.42 43.13 0 25.77-17.42 43.22-17.42 17.46-42.36 17.46ZM181.5-187.09q-25.2 0-42.65-17.74-17.46-17.73-17.46-42.93 0-24.81 17.46-42.57 17.45-17.76 42.65-17.76 24.81 0 42.85 17.76 18.04 17.76 18.04 42.57 0 25.2-18.04 42.93-18.04 17.74-42.85 17.74Zm298.57-2.26q-95.42 0-162.69-65.55-67.27-65.56-67.27-160.4 0-104.87 75.93-197.45 75.94-92.58 153.96-161.9 77.54 69.44 153.47 162.21 75.92 92.77 75.92 197.14 0 94.84-66.95 160.4-66.94 65.55-162.37 65.55Zm298.54 2.26q-25.25 0-43.12-17.74-17.88-17.73-17.88-42.93 0-24.81 17.83-42.57 17.84-17.76 43.03-17.76 24.79 0 42.47 17.76 17.67 17.76 17.67 42.57 0 25.2-17.77 42.93-17.78 17.74-42.23 17.74ZM570.84-326.84q37.55-36.49 37.55-88.53 0-63.02-41.73-121.49Q524.93-595.33 480-637.3q-44.87 41.97-86.88 100.19t-42.01 121.74q0 52.04 37.92 88.53 37.93 36.49 91.09 36.49 53.17 0 90.72-36.49Zm-90.61-12.7q33.4 0 56.43-23.32 23.04-23.31 23.04-56.05 0-32.89-23.04-56.46-23.03-23.56-56.43-23.56-33.81 0-56.87 23.47-23.06 23.48-23.06 56.79 0 32.5 23.06 55.81 23.06 23.32 56.87 23.32Zm-.62-485.87q-25.2 0-42.65-17.46-17.46-17.46-17.46-42.66 0-24.8 17.46-42.84 17.45-18.04 42.65-18.04 24.81 0 42.85 18.04 18.04 18.04 18.04 42.84 0 25.2-18.04 42.66-18.04 17.46-42.85 17.46Zm.39 406.74Z"/></svg>