<svg xmlns="http://www.w3.org/2000/svg" height="24" viewBox="0 -960 960 960" width="24"><path d="M480 4.26q-27.35 0-46.97-19.63Q413.41-35 413.41-62.36q0-27.64 19.62-47.1 19.62-19.45 46.97-19.45 27.43 0 47.01 19.5 19.58 19.49 19.58 47.14 0 27.38-19.58 46.95Q507.43 4.26 480 4.26ZM289.04-36.98q-27.43 0-47.77-20.12-20.34-20.12-20.34-47.7 0-28.53 20.34-48.56t47.77-20.03q28.44 0 47.13 20.03 18.7 20.03 18.7 48.56 0 27.58-18.7 47.7-18.69 20.12-47.13 20.12Zm380.86-1.76q-27.38 0-46.45-19.19-19.08-19.19-19.08-46.87 0-27.53 19.13-47.56t46.49-20.03q27.64 0 47.6 20.03 19.95 20.03 19.95 47.56 0 27.68-20 46.87-19.99 19.19-47.64 19.19ZM158.93-166.46q-27.34 0-46.96-20.07-19.62-20.08-19.62-47.51 0-27.44 19.62-46.51 19.62-19.08 46.96-19.08 27.44 0 47.02 19.08 19.57 19.07 19.57 46.51 0 27.43-19.57 47.51-19.58 20.07-47.02 20.07Zm321.19-.95q-102.79 0-175.13-70.26-72.34-70.27-72.34-172.29 0-113.91 81.84-214.32T480-799.3q83.72 74.71 165.15 175.07 81.44 100.36 81.44 214.27 0 102.02-72.34 172.29-72.34 70.26-174.13 70.26Zm320.88.95q-27.37 0-46.95-20.07-19.57-20.08-19.57-47.51 0-27.44 19.63-46.51 19.63-19.08 46.99-19.08 27.64 0 47.1 19.08 19.45 19.07 19.45 46.51 0 27.43-19.5 47.51-19.49 20.07-47.15 20.07ZM480.04-329q35.2 0 60.08-24.88Q565-378.76 565-413.76t-24.92-60.12Q515.16-499 479.95-499 445-499 420-473.88t-25 60.12q0 35 25.04 59.88 25.05 24.88 60 24.88ZM480-845.52q-27.35 0-46.97-19.96-19.62-19.95-19.62-47.4 0-27.72 19.62-46.77Q452.65-978.7 480-978.7q27.43 0 47.01 19.05t19.58 46.77q0 27.45-19.58 47.4-19.58 19.96-47.01 19.96Z"/></svg>