<svg xmlns="http://www.w3.org/2000/svg" height="20" viewBox="0 -960 960 960" width="20"><path d="M480.12-81.89q-15.12 0-25.62-10.36-10.5-10.37-10.5-25.33 0-15.15 10.52-25.32 10.51-10.18 25.69-10.18 15.44 0 25.21 10.19 9.77 10.18 9.77 25.44 0 14.83-9.77 25.2-9.77 10.36-25.3 10.36Zm-159.38-40.15q-15.12 0-25.62-10.09-10.5-10.09-10.5-25.21 0-15.31 10.51-25.6 10.52-10.29 25.7-10.29 15.44 0 25.21 10.29 9.77 10.29 9.77 25.69 0 14.98-9.77 25.09-9.77 10.12-25.3 10.12Zm318.76 0q-15.11 0-25.61-10.09t-10.5-25.21q0-15.31 10.51-25.6 10.52-10.29 25.7-10.29 15.44 0 25.21 10.29 9.77 10.29 9.77 25.69 0 14.98-9.77 25.09-9.77 10.12-25.31 10.12ZM216.1-229.69q-14.98 0-25.1-10.09-10.11-10.09-10.11-25.22 0-15.31 10.09-25.6 10.09-10.28 25.21-10.28 15.31 0 25.6 10.28 10.29 10.29 10.29 25.7 0 14.98-10.29 25.09-10.29 10.12-25.69 10.12Zm263.96-12q-80.1 0-137.52-51.45-57.42-51.44-57.42-129.59 0-92.77 64.88-170.21 64.89-77.44 130-137.98 66.28 60.71 130.43 138.22 64.15 77.51 64.15 169.97 0 78.15-57.21 129.59-57.21 51.45-137.31 51.45Zm263.9 12q-15.16 0-25.6-10.09-10.44-10.09-10.44-25.22 0-15.31 10.42-25.6 10.43-10.28 25.47-10.28 15.46 0 25.38 10.28 9.92 10.29 9.92 25.7 0 14.98-9.99 25.09-9.99 10.12-25.16 10.12Zm-160.69-98.13q43.35-38.16 43.35-94.8 0-77.07-49.18-133.52-49.17-56.44-97.44-110.48-47.38 54.04-97.15 110.33t-49.77 133.67q0 56.64 43.59 94.8 43.6 38.17 103.43 38.17 59.83 0 103.17-38.17Zm-103.04-40.1q27.5 0 47.87-20.18 20.36-20.17 20.36-48.13 0-27.39-20.36-47.81-20.37-20.42-47.96-20.42-27.81 0-47.82 20.33-20.01 20.34-20.01 48.13 0 27.73 20.02 47.9 20.03 20.18 47.9 20.18Zm-.52-431.16q-14.98 0-25.09-10.09-10.12-10.09-10.12-25.21 0-15.31 10.09-25.6 10.09-10.29 25.21-10.29 15.31 0 25.6 10.29 10.29 10.29 10.29 25.69 0 14.98-10.29 25.1-10.29 10.11-25.69 10.11ZM480-436Z"/></svg>