<svg xmlns="http://www.w3.org/2000/svg" height="24" viewBox="0 -960 960 960" width="24"><path d="M480-51q-17.54 0-29.88-12.35-12.35-12.34-12.35-29.88 0-18.31 12.35-30.27 12.34-11.96 29.88-11.96 18.31 0 30.27 11.96t11.96 30.27q0 17.54-11.96 29.88Q498.31-51 480-51ZM300.77-88.92q-17.54 0-30.89-12.85-13.34-12.85-13.34-30.38 0-19.31 13.34-31.77 13.35-12.46 30.89-12.46 19.31 0 30.27 12.46T342-132.15q0 17.53-10.96 30.38-10.96 12.85-30.27 12.85Zm357.46-2q-17.54 0-29.38-11.85Q617-114.62 617-132.15q0-18.31 11.85-30.77 11.84-12.46 29.38-12.46 18.31 0 30.77 12.46t12.46 30.77q0 17.53-12.46 29.38-12.46 11.85-30.77 11.85ZM180.69-209.46q-17.54 0-29.88-12.85-12.35-12.84-12.35-30.38 0-18.31 12.35-29.77 12.34-11.46 29.88-11.46 18.31 0 30.27 11.46t11.96 29.77q0 17.54-11.96 30.38-11.96 12.85-30.27 12.85Zm299.31 0q-87.92 0-150.19-57.85-62.27-57.84-62.27-144 0-104.31 70.5-187.77 70.5-83.46 141.96-144.38 71.46 60.92 141.46 144.38 70 83.46 70 187.77 0 86.16-62.27 144-62.27 57.85-149.19 57.85Zm299.31 0q-17.54 0-29.89-12.85-12.34-12.84-12.34-30.38 0-18.31 12.34-29.77 12.35-11.46 29.89-11.46 18.31 0 30.27 11.46t11.96 29.77q0 17.54-11.96 30.38-11.96 12.85-30.27 12.85ZM582.77-314.62q42.69-39.15 42.69-97.46 0-80.84-49.46-137.69-49.46-56.85-96-109.15-46.77 51.3-96.62 108.65-49.84 57.35-49.84 138.19 0 58.31 43.19 97.46 43.19 39.16 103.27 39.16t102.77-39.16ZM480-339q33.46 0 57.31-23.85 23.84-23.84 23.84-56.53 0-34.24-23.84-57.7-23.85-23.46-57.31-23.46-31.92 0-55.77 23.46t-23.85 57.7q0 32.69 23.85 56.53Q448.08-339 480-339Zm0-477q-17.54 0-29.88-12.85-12.35-12.84-12.35-30.38 0-18.31 12.35-29.77 12.34-11.46 29.88-11.46 18.31 0 30.27 11.46t11.96 29.77q0 17.54-11.96 30.38Q498.31-816 480-816Zm0 396.62Z"/></svg>