<svg xmlns="http://www.w3.org/2000/svg" height="20" viewBox="0 -960 960 960" width="20"><path d="M480-9q-25 0-43-18t-18-43q0-26 18-43.5t43-17.5q26 0 43.5 17.5T541-70q0 25-17.5 43T480-9ZM292-52q-25 0-44-18.5T229-114q0-27 19-45t44-18q27 0 43.5 18t16.5 45q0 25-16.5 43.5T292-52Zm375-2q-25 0-42.5-17.5T607-114q0-26 17.5-44t42.5-18q26 0 44 18t18 44q0 25-18 42.5T667-54ZM167-175q-25 0-43-18.5T106-237q0-26 18-43t43-17q26 0 43.5 17t17.5 43q0 25-17.5 43.5T167-175Zm313-12q-99 0-169.5-64.5T240-413q0-116 80-211t160-169q81 74 160 169t79 211q0 97-70.5 161.5T480-187Zm313 12q-25 0-43-18.5T732-237q0-26 18-43t43-17q26 0 43.5 17t17.5 43q0 25-17.5 43.5T793-175ZM579.5-321.5Q621-358 621-413q0-80-47-136.5T480-662q-47 55-94.5 112T338-413q0 55 42 91.5T480-285q58 0 99.5-36.5ZM480-349q31 0 54-23t23-54q0-31-23-54t-54-23q-31 0-54 23t-23 54q0 31 23 54t54 23Zm0-493q-25 0-43-18.5T419-904q0-26 18-43t43-17q26 0 43.5 17t17.5 43q0 25-17.5 43.5T480-842Zm0 416Z"/></svg>