<svg xmlns="http://www.w3.org/2000/svg" height="40" viewBox="0 -960 960 960" width="40"><path d="M480.28-43.33q-18.61 0-31.11-12.57t-12.5-30.77q0-18 12.56-30.66Q461.8-130 480-130q18 0 30.67 12.67 12.66 12.66 12.66 30.39 0 18.61-12.66 31.11-12.67 12.5-30.39 12.5ZM306-82.67q-18.33 0-31.5-12.84-13.17-12.84-13.17-31.44 0-17.72 13.17-30.72t31.5-13q18.67 0 31.67 13t13 30.72q0 18.6-13 31.44T306-82.67Zm347.33 0q-18.48 0-31.24-12.84-12.76-12.84-12.76-31.44 0-17.72 12.76-30.72t31.24-13q18.67 0 32 13 13.34 13 13.34 30.72 0 18.6-13.34 31.44-13.33 12.84-32 12.84Zm-459.05-122q-18.61 0-31.11-12.56-12.5-12.57-12.5-30.77 0-18 12.56-30.67 12.57-12.66 30.77-12.66 18 0 30.67 12.66 12.66 12.67 12.66 30.39 0 18.61-12.66 31.11-12.67 12.5-30.39 12.5Zm285.88.67q-89.83 0-153.66-61.17-63.83-61.16-63.83-150.16 0-95.67 71-186.5 71-90.84 146.33-156.84 75.33 66 146.33 156.84 71 90.83 71 186.5 0 89-63.67 150.16Q569.99-204 480.16-204Zm285.74.67q-18.99 0-32.11-12.98-13.12-12.99-13.12-31.79 0-17.9 13.12-30.9t32.11-13q18.1 0 31.1 13t13 30.9q0 18.8-13 31.79-13 12.98-31.1 12.98ZM586.33-312.17q44.34-41.5 44.34-102.83 0-66.67-50.67-134.5T480-669.33q-49.67 52-100.17 119.83T329.33-415q0 61.33 44.34 102.83Q418-270.67 480-270.67t106.33-41.5Zm-106.4-25.16q33.58 0 57.49-23.55 23.91-23.54 23.91-58.34 0-33.78-23.91-57.95-23.91-24.16-57.49-24.16-34.6 0-58.6 24.05t-24 57.82q0 34.79 24 58.46t58.6 23.67Zm.35-492q-18.61 0-31.11-12.57t-12.5-30.77q0-18 12.56-30.66Q461.8-916 480-916q18 0 30.67 12.67 12.66 12.66 12.66 30.39 0 18.61-12.66 31.11-12.67 12.5-30.39 12.5Zm-.28 410Z"/></svg>