<svg xmlns="http://www.w3.org/2000/svg" height="40" viewBox="0 -960 960 960" width="40"><path d="M480.2-108.17q-9.4 0-15.13-5.86-5.74-5.86-5.74-15.14 0-7.66 5.82-13.91t15.06-6.25q8.62 0 14.46 6.26 5.83 6.26 5.83 13.66 0 9.7-5.83 15.47-5.84 5.77-14.47 5.77Zm-156.96-35.66q-8.44 0-14.51-5.87-6.06-5.86-6.06-15.7 0-7.53 6.03-13.9t14.85-6.37q8.62 0 14.78 6.37 6.17 6.37 6.17 13.9 0 9.84-6.17 15.7-6.16 5.87-15.09 5.87Zm313.64 0q-9.52 0-15.53-5.87-6.02-5.86-6.02-15.7 0-7.53 6.02-13.9 6.01-6.37 15.53-6.37 8.62 0 14.45 6.37 5.84 6.37 5.84 13.9 0 9.84-5.84 15.7-5.83 5.87-14.45 5.87ZM222.09-252.67q-8.59 0-14.76-5.75-6.16-5.75-6.16-14.86 0-8.49 6.23-14.52 6.23-6.03 14.41-6.03 8.46 0 14.49 6.03 6.03 6.03 6.03 14.54 0 9.26-6.03 14.93-6.03 5.66-14.21 5.66Zm258.26 0q-73.18 0-125.18-48.58t-52-119.92q0-82.66 58.33-154.08 58.33-71.42 118.5-122.08 60.25 50.78 118.71 121.97 58.46 71.19 58.46 154.19 0 71.34-51.82 119.92t-125 48.58Zm257.89 0q-9.4 0-15.32-5.78T717-273.37q0-8.73 5.88-14.6 5.88-5.86 15.22-5.86 9.4 0 15.07 5.73 5.66 5.73 5.66 14.73 0 9.14-5.63 14.92-5.63 5.78-14.96 5.78ZM480.27-353.33q30.07 0 52.57-21.41 22.49-21.41 22.49-53.05 0-30.99-22.49-53.1Q510.34-503 480.15-503q-30 0-51.74 21.88-21.74 21.89-21.74 53.25 0 31.37 21.86 52.95 21.87 21.59 51.74 21.59Zm.48-430.34q-8.92 0-14.92-5.9t-6-14.74q0-8.12 6.07-14.32 6.07-6.2 14.58-6.2 8.12 0 14.32 6.2 6.2 6.2 6.2 14.04 0 9.26-6.2 15.09t-14.05 5.83Z"/></svg>