<svg xmlns="http://www.w3.org/2000/svg" height="24" viewBox="0 -960 960 960" width="24"><path d="M480 21q-31.64 0-54.82-23.22T402-57.14q0-32.86 23.18-55.36T480-135q32 0 55 22.68 23 22.67 23 55.57Q558-25 535-2t-55 23ZM286-21q-32 0-55-23.68T208-101q0-33.4 23-56.7 23-23.3 55-23.3 33 0 55.5 23.3T364-101q0 32.64-22.5 56.32T286-21Zm386.75-1Q641-22 618.5-44.97T596-101q0-32.4 22.72-55.7 22.72-23.3 54.42-23.3Q706-180 729-156.7t23 55.7q0 33.06-23.18 56.03Q705.65-22 672.75-22ZM146-152q-31.64 0-54.82-23.5T68-231q0-32 23.18-54.5T146-308q32 0 55 22.5t23 54.5q0 32-23 55.5T146-152Zm334.5-4Q372-156 297-230.27 222-304.55 222-413q0-120 86.09-221.72Q394.18-736.43 480-813q86 77 172 178.5T738-413q0 108.45-75 182.73Q588-156 480.5-156Zm333.25 4Q782-152 759-175.5T736-231q0-32 23.22-54.5t54.92-22.5q32.86 0 55.36 22.5T892-231q0 32-22.68 55.5-22.67 23.5-55.57 23.5ZM566.38-327.5Q602-363 602-413q0-66-39-121t-83-96q-45 41-83.5 96T358-413q0 50 35.5 85.5t86.38 35.5q50.88 0 86.5-35.5Zm-86.21-1.5q35.83 0 60.33-24.5T565-413q0-35-24.68-60.5-24.67-25.5-60.51-25.5Q445-499 420-473.5T395-413q0 35 25.19 59.5 25.18 24.5 59.98 24.5ZM480-844q-31.64 0-54.82-23T402-922.04q0-33.19 23.18-55.57Q448.36-1000 480-1000q32 0 55 22.39 23 22.38 23 55.57Q558-890 535-867t-55 23Zm0 431Z"/></svg>