<svg xmlns="http://www.w3.org/2000/svg" height="40" viewBox="0 -960 960 960" width="40"><path d="M479.97-14.32q-23 0-38.63-15.73-15.64-15.73-15.64-38.29 0-23.73 15.73-39.48 15.72-15.76 38.26-15.76 23.52 0 39.4 15.77 15.87 15.77 15.87 39.28 0 23.03-15.84 38.62-15.85 15.59-39.15 15.59ZM292.05-54.07q-22.82 0-39.5-16.47-16.69-16.48-16.69-40.01 0-24.06 16.71-40.37t39.47-16.31q25.18 0 40.51 16.34 15.33 16.34 15.33 40.34 0 23.53-15.3 40.01-15.29 16.47-40.53 16.47Zm374.2-1.09q-22.68 0-38.45-15.97-15.78-15.97-15.78-39.13 0-23.22 15.85-39.6 15.85-16.37 38.46-16.37 24.18 0 40.9 16.41 16.72 16.4 16.72 39.55 0 23.17-16.73 39.14-16.73 15.97-40.97 15.97Zm-498.79-127.4q-23.13 0-39.18-16.18t-16.05-39.05q0-22.35 16.08-38.27 16.07-15.92 38.89-15.92 22.29 0 38.29 15.92t16 38q0 23.28-16 39.39t-38.03 16.11Zm313.05-.13q-98.04 0-167.06-64.93-69.01-64.93-69.01-161.75 0-110.53 77.85-205.03Q400.14-708.91 480-778.7q80 69.88 157.73 164.34 77.74 94.46 77.74 204.99 0 95.97-68.96 161.33-68.97 65.35-166 65.35Zm312.52 1.47q-23.26 0-39.89-16.58-16.63-16.57-16.63-40.14 0-22.36 16.68-38.53 16.69-16.17 39.93-16.17 23.71 0 39.51 16.17 15.8 16.17 15.8 38.53 0 23.57-15.87 40.14-15.88 16.58-39.53 16.58ZM582.94-311.7q43.11-39.58 43.11-97.75 0-75.62-49.06-138.26-49.06-62.65-96.99-113.48-48.43 50.74-97.29 113.43-48.86 62.69-48.86 138.31 0 58.17 43.17 97.75 43.17 39.59 102.99 39.59 59.82 0 102.93-39.59Zm-102.86-18.95q34.84 0 59.8-24.88 24.96-24.88 24.96-59.72t-24.92-60.3Q515-501 479.95-501q-34.79 0-60.12 25.26-25.34 25.25-25.34 60.29t25.5 59.92q25.51 24.88 60.09 24.88Zm.18-515.06q-22.5 0-38.53-16.06t-16.03-38.94q0-22.64 16.06-38.45 16.05-15.81 38.24-15.81 22.29 0 38.63 15.78 16.33 15.78 16.33 38.19 0 23.35-16.33 39.32-16.34 15.97-38.37 15.97ZM480-415.25Z"/></svg>