<svg xmlns="http://www.w3.org/2000/svg" height="40" viewBox="0 -960 960 960" width="40"><path d="M480.27-94.9q-11.43 0-18.65-7.28-7.21-7.28-7.21-18.52 0-9.83 7.3-17.46 7.29-7.63 18.5-7.63 10.62 0 17.86 7.64 7.24 7.65 7.24 17.2 0 11.68-7.24 18.86-7.24 7.19-17.8 7.19Zm-160.34-36.47q-10.63 0-18.26-7.28-7.62-7.28-7.62-19.09 0-9.69 7.6-17.52t18.51-7.83q10.78 0 18.35 7.83 7.57 7.83 7.57 17.52 0 11.81-7.57 19.09-7.57 7.28-18.58 7.28Zm320.18 0q-11.49 0-18.98-7.28t-7.49-19.09q0-9.69 7.49-17.52t18.98-7.83q10.77 0 18.17 7.83 7.39 7.83 7.39 17.52 0 11.81-7.39 19.09-7.4 7.28-18.17 7.28Zm-423.8-111.45q-10.69 0-18.21-7.17-7.51-7.17-7.51-18.25 0-10.49 7.58-17.98 7.58-7.5 17.86-7.5 10.47 0 17.96 7.5 7.5 7.49 7.5 17.93 0 11.29-7.5 18.38-7.49 7.09-17.68 7.09Zm264.01.15q-76.58 0-131.02-50.93-54.44-50.93-54.44-125.76 0-85.97 60.95-161.16T480-709.33q63.33 53.75 124.34 128.76 61.02 75.02 61.02 161.21 0 74.83-54.23 125.76-54.22 50.93-130.81 50.93Zm263.69.16q-11.5 0-18.98-7.29-7.49-7.29-7.49-18.54 0-10.72 7.44-18.13 7.45-7.4 18.88-7.4 11.29 0 18.5 7.3 7.2 7.3 7.2 18.23 0 11.25-7.2 18.54-7.2 7.29-18.35 7.29ZM480.25-350.22q30.71 0 53.43-21.84 22.73-21.85 22.73-54.07 0-31.36-22.73-53.9-22.72-22.55-53.53-22.55-30.96 0-53.15 22.33-22.18 22.32-22.18 54.05 0 31.97 22.28 53.98 22.28 22 53.15 22Zm.38-443.64q-11.03 0-18.37-7.25-7.35-7.24-7.35-18.19 0-10.13 7.41-17.8 7.42-7.66 18.04-7.66 10.13 0 17.79 7.66 7.66 7.67 7.66 17.52 0 11.36-7.66 18.54t-17.52 7.18Z"/></svg>