<svg xmlns="http://www.w3.org/2000/svg" height="48" viewBox="0 -960 960 960" width="48"><path d="M480.46-72.23q-14.11 0-23.13-9.02t-9.02-22.87q0-12.53 9.13-21.86t22.77-9.33q13.21 0 22.19 9.34t8.98 21.47q0 14.48-8.98 23.37-8.98 8.9-21.94 8.9Zm-168.27-37.66q-13.3 0-23.13-9.16-9.83-9.16-9.83-23.76 0-12.27 9.81-22.02t23.33-9.75q13.82 0 23.3 9.75t9.48 22.02q0 14.6-9.48 23.76-9.48 9.16-23.48 9.16Zm335.25 0q-14.06 0-23.48-9.16t-9.42-23.76q0-12.27 9.42-22.02t23.48-9.75q13.83 0 23.42 9.75 9.6 9.75 9.6 22.02 0 14.6-9.6 23.76-9.59 9.16-23.42 9.16ZM203.93-226.77q-13.28 0-22.6-9-9.33-8.99-9.33-22.5 0-13.07 9.43-22.33 9.42-9.25 22.09-9.25 13.06 0 22.31 9.25 9.25 9.26 9.25 22.09 0 13.97-9.25 22.86-9.25 8.88-21.9 8.88Zm276.45.61q-82.3 0-140.86-54.28-58.56-54.29-58.56-134.71 0-92.85 65.27-173.83Q411.5-669.96 480-727.54q68.58 57.7 133.91 138.52 65.32 80.83 65.32 173.87 0 80.42-58.27 134.71-58.27 54.28-140.58 54.28Zm276.09.62q-14.43 0-24.1-9.39-9.68-9.4-9.68-23.48 0-13.43 9.64-22.74 9.63-9.31 24-9.31 13.9 0 23.09 9.23t9.19 22.82q0 14.08-9.21 23.48-9.22 9.39-22.93 9.39ZM480.19-343.58q31.92 0 55.4-22.76 23.49-22.77 23.49-56.61 0-32.23-23.49-55.93-23.48-23.7-55.47-23.7-32.91 0-56.28 23.43-23.38 23.42-23.38 56.03 0 33.58 23.45 56.56 23.45 22.98 56.28 22.98Zm.55-471.15q-13.78 0-22.85-8.93-9.08-8.92-9.08-22.58 0-12.56 9.18-22.06 9.17-9.51 22.33-9.51 12.56 0 22.06 9.51 9.5 9.5 9.5 21.64 0 14.28-9.5 23.1-9.5 8.83-21.64 8.83Z"/></svg>