<svg xmlns="http://www.w3.org/2000/svg" height="24" viewBox="0 -960 960 960" width="24"><path d="M480-29q-23.15 0-39.33-16.17Q424.5-61.35 424.5-84.5q0-22.39 16.17-38.95Q456.85-140 480-140q22.39 0 38.95 16.55 16.55 16.56 16.55 38.95 0 23.15-16.55 39.33Q502.39-29 480-29ZM306.17-69.48q-23.15 0-39.32-16.17-16.18-16.18-16.18-39.57 0-22.39 16.18-39.06 16.17-16.68 39.32-16.68 22.4 0 38.95 16.68 16.55 16.67 16.55 39.06 0 23.39-16.55 39.57-16.55 16.17-38.95 16.17Zm347.66 0q-23.16 0-39.33-16.17-16.17-16.18-16.17-39.57 0-22.39 16.17-39.06 16.17-16.68 39.33-16.68 22.39 0 38.94 16.68 16.56 16.67 16.56 39.06 0 23.39-16.56 39.57-16.55 16.17-38.94 16.17Zm-463.4-121.67q-23.15 0-39.32-16.3-16.18-16.29-16.18-39.44 0-22.39 16.18-38.83 16.17-16.43 39.32-16.43 22.4 0 38.95 16.43 16.55 16.44 16.55 38.83 0 23.15-16.55 39.44-16.55 16.3-38.95 16.3Zm289.57-.96q-94.11 0-160.52-66.53-66.41-66.53-66.41-160.64 0-96.02 74.51-191.72T480-777.89Q557.67-706.7 632.3-611q74.63 95.7 74.63 191.72 0 94.11-66.41 160.64-66.41 66.53-160.52 66.53Zm289.57.96q-23.16 0-39.33-16.3-16.17-16.29-16.17-39.44 0-22.39 16.17-38.83 16.17-16.43 39.33-16.43 22.39 0 38.94 16.43 16.56 16.44 16.56 38.83 0 23.15-16.56 39.44-16.55 16.3-38.94 16.3ZM480-338.33q33.48 0 57.1-23.24 23.62-23.23 23.62-57.23 0-33.48-23.62-57.22-23.62-23.74-57.1-23.74-34.24 0-57.48 23.74-23.24 23.74-23.24 57.22 0 34 23.24 57.23 23.24 23.24 57.48 23.24Zm0-485.02q-23.15 0-39.33-16.17-16.17-16.18-16.17-39.33 0-22.39 16.17-38.94 16.18-16.56 39.33-16.56 22.39 0 38.95 16.56 16.55 16.55 16.55 38.94 0 23.15-16.55 39.33-16.56 16.17-38.95 16.17Z"/></svg>