<svg xmlns="http://www.w3.org/2000/svg" height="48" viewBox="0 -960 960 960" width="48"><path d="M480.63-50.5q-17.17 0-28.4-11.13Q441-72.75 441-89.5q0-16 11.33-27.25T480.21-128q16.29 0 27.29 11.26t11 26.86q0 17.38-11 28.38t-26.87 11Zm-174.42-39q-16.75 0-28.98-11.26Q265-112.03 265-129.54q0-15.73 12.23-27.59Q289.46-169 306.21-169q17.29 0 28.79 11.87 11.5 11.86 11.5 27.59 0 17.51-11.5 28.78-11.5 11.26-28.79 11.26Zm347 0q-16.97 0-28.59-11.26Q613-112.03 613-129.54q0-15.73 11.62-27.59Q636.24-169 653.21-169q17.29 0 29.29 11.87 12 11.86 12 27.59 0 17.51-12 28.78-12 11.26-29.29 11.26ZM193.53-211q-16.53 0-27.78-11.1t-11.25-27.51q0-16.16 11.35-27.52 11.35-11.37 27.26-11.37 16.16 0 27.52 11.37Q232-265.77 232-250.03 232-233 220.63-222q-11.36 11-27.1 11Zm286.79 1Q392.5-210 330-267.75T267.5-411.5q0-99 69.5-185.75T480-746q73.58 62.12 143.04 148.81T692.5-411.5q0 86-62.18 143.75t-150 57.75Zm286.54 1q-17.66 0-29.76-11.72-12.1-11.72-12.1-29.04 0-16.51 12.06-28.12 12.05-11.62 29.65-11.62 16.79 0 28.29 11.62 11.5 11.61 11.5 28.12 0 17.32-11.6 29.04Q783.3-209 766.86-209ZM480.12-338q33.14 0 57.01-23.56Q561-385.13 561-420.06q0-32.94-23.87-57.44T480.12-502q-34.64 0-58.88 24.24Q397-453.53 397-420.19q0 34.69 24.24 58.44T480.12-338Zm.41-495q-17.03 0-28.03-10.85t-11-27.76q0-15.66 11.1-27.27 11.1-11.62 27.51-11.62 15.66 0 27.27 11.62Q519-887.27 519-872.03q0 17.53-11.62 28.28Q495.77-833 480.53-833Z"/></svg>