<svg xmlns="http://www.w3.org/2000/svg" version="1.1" width="3300" height="2000"><g id="Notes"><style>
    text {
      font-family: monospace;
      text-anchor: middle;
    }
    text.emphasis {
      font-weight:bold;
    }
    text.lanchor {
      text-anchor: start;
    }
  </style><rect height="2200" id="artboard" fill="white" width="3300" x="0" y="0"/><line id="" style="fill:none;stroke:black;stroke-width:0.5;" x1="263" x2="3036" y1="292" y2="292"/><text class="lanchor emphasis" transform="matrix(1 0 0 1 263 322)">Weight/Scale Variations</text><text transform="matrix(1 0 0 1 559.711 322)">Ultralight</text><text transform="matrix(1 0 0 1 856.422 322)">Thin</text><text transform="matrix(1 0 0 1 1153.13 322)">Light</text><text transform="matrix(1 0 0 1 1449.84 322)">Regular</text><text transform="matrix(1 0 0 1 1746.56 322)">Medium</text><text transform="matrix(1 0 0 1 2043.27 322)">Semibold</text><text transform="matrix(1 0 0 1 2339.98 322)">Bold</text><text transform="matrix(1 0 0 1 2636.69 322)">Heavy</text><text transform="matrix(1 0 0 1 2933.4 322)">Black</text><text id="template-version" style="text-anchor: end;" transform="matrix(1 0 0 1 3036 1933)">Template v.1.0</text><text class="lanchor" transform="matrix(1 0 0 1 263 726)">Small</text><text class="lanchor" transform="matrix(1 0 0 1 263 1156)">Medium</text><text class="lanchor" transform="matrix(1 0 0 1 263 1586)">Large</text></g><g id="Guides"><g id="H-reference" style="fill:#27AAE1;stroke:none;" transform="matrix(1 0 0 1 339 696)"><path d="M 54.9316 0 L 57.666 0 L 30.5664 -70.459 L 28.0762 -70.459 L 0.976562 0 L 3.66211 0 L 12.9395 -24.4629 L 45.7031 -24.4629 Z M 29.1992 -67.0898 L 29.4434 -67.0898 L 44.8242 -26.709 L 13.8184 -26.709 Z"/></g><line id="Baseline-S" style="fill:none;stroke:#27AAE1;opacity:1;stroke-width:0.577;" x1="263" x2="3036" y1="696" y2="696"/><line id="Capline-S" style="fill:none;stroke:#27AAE1;opacity:1;stroke-width:0.577;" x1="263" x2="3036" y1="625.541" y2="625.541"/><g id="H-reference" style="fill:#27AAE1;stroke:none;" transform="matrix(1 0 0 1 339 1126)"><path d="M 54.9316 0 L 57.666 0 L 30.5664 -70.459 L 28.0762 -70.459 L 0.976562 0 L 3.66211 0 L 12.9395 -24.4629 L 45.7031 -24.4629 Z M 29.1992 -67.0898 L 29.4434 -67.0898 L 44.8242 -26.709 L 13.8184 -26.709 Z"/></g><line id="Baseline-M" style="fill:none;stroke:#27AAE1;opacity:1;stroke-width:0.577;" x1="263" x2="3036" y1="1126" y2="1126"/><line id="Capline-M" style="fill:none;stroke:#27AAE1;opacity:1;stroke-width:0.577;" x1="263" x2="3036" y1="1055.54" y2="1055.54"/><g id="H-reference" style="fill:#27AAE1;stroke:none;" transform="matrix(1 0 0 1 339 1556)"><path d="M 54.9316 0 L 57.666 0 L 30.5664 -70.459 L 28.0762 -70.459 L 0.976562 0 L 3.66211 0 L 12.9395 -24.4629 L 45.7031 -24.4629 Z M 29.1992 -67.0898 L 29.4434 -67.0898 L 44.8242 -26.709 L 13.8184 -26.709 Z"/></g><line id="Baseline-L" style="fill:none;stroke:#27AAE1;opacity:1;stroke-width:0.577;" x1="263" x2="3036" y1="1556" y2="1556"/><line id="Capline-L" style="fill:none;stroke:#27AAE1;opacity:1;stroke-width:0.577;" x1="263" x2="3036" y1="1485.54" y2="1485.54"/><rect height="119.336" id="left-margin" style="fill:darkred;stroke:none;opacity:0.4;" width="12.4512" x="1394.06" y="1030.79"/><rect height="119.336" id="right-margin" style="fill:darkgreen;stroke:none;opacity:0.4;" width="12.4512" x="1502.5112" y="1030.79"/><rect x="1406.5112" y="1045" width="96" height="96" fill="none" stroke="blue" stroke-dasharray="5"/><rect x="1394.06" y="1030.79" width="120.9024" height="119.336" fill="none" stroke="blue"/></g><g id="Symbols"><g id="Bold-L" transform="matrix(1 0 0 1 2266 1556)"><path d="M59.663 12.339  95.299 -35.23  59.663 -82.799 H77.884 L113.359 -35.23 L77.884 12.339 H59.663 Z"/></g><g id="Semibold-L" transform="matrix(1 0 0 1 1970.27 1556)"><path d="M60.433 11.849  95.72 -35.299  60.433 -82.378 H77.042 L112.236 -35.299 L77.042 11.849 H60.433 Z"/></g><g id="Medium-L" transform="matrix(1 0 0 1 1674.31 1556)"><path d="M61.012 11.479  96.036 -35.353  61.012 -82.062 H76.412 L111.396 -35.353 L76.412 11.479 H61.012 Z"/></g><g id="Regular-L" transform="matrix(1 0 0 1 1378.56 1556)"><path d="M61.436 11.21  96.266 -35.391  61.436 -81.831 H75.949 L110.779 -35.391 L75.949 11.21 H61.436 Z"/></g><g id="Light-L" transform="matrix(1 0 0 1 1082.77 1556)"><path d="M65.158 9.598  98.437 -35.391  65.158 -80.219 H76.755 L110.034 -35.391 L76.755 9.598 H65.158 Z"/></g><g id="Thin-L" transform="matrix(1 0 0 1 787.282 1556)"><path d="M68.878 7.985  100.607 -35.391  68.878 -78.606 H77.561 L109.29 -35.391 L77.561 7.985 H68.878 Z"/></g><g id="Ultralight-L" transform="matrix(1 0 0 1 491.205 1556)"><path d="M71.111 7.018  101.91 -35.391  71.111 -77.639 H78.045 L108.844 -35.391 L78.045 7.018 H71.111 Z"/></g><g id="Bold-M" transform="matrix(1 0 0 1 2281.8 1126)"><path d="M41 3.395  68.5 -35.23  41 -73.98 H61.875 L89.375 -35.23 L61.875 3.395 H41 Z"/></g><g id="Semibold-M" transform="matrix(1 0 0 1 1985.97 1126)"><path d="M41.489 2.689  68.554 -35.284  41.489 -73.327 H60.354 L87.419 -35.284 L60.354 2.689 H41.489 Z"/></g><g id="Medium-M" transform="matrix(1 0 0 1 1689.91 1126)"><path d="M41.856 2.159  68.595 -35.325  41.856 -72.839 H59.212 L85.951 -35.325 L59.212 2.159 H41.856 Z"/></g><g id="Regular-M" transform="matrix(1 0 0 1 1394.06 1126)"><path d="M42.125 1.77  68.625 -35.355  42.125 -72.48 H58.375 L84.875 -35.355 L58.375 1.77 H42.125 Z"/></g><g id="Light-M" transform="matrix(1 0 0 1 1098.18 1126)"><path d="M46.932 0.52  72.567 -35.355  46.932 -71.23 H60.106 L85.74 -35.355 L60.106 0.52 H46.932 Z"/></g><g id="Thin-M" transform="matrix(1 0 0 1 802.565 1126)"><path d="M51.74 -0.73  76.51 -35.355  51.74 -69.98 H61.836 L86.606 -35.355 L61.836 -0.73 H51.74 Z"/></g><g id="Ultralight-M" transform="matrix(1 0 0 1 506.415 1126)"><path d="M54.625 -1.48  78.875 -35.355  54.625 -69.23 H62.875 L87.125 -35.355 L62.875 -1.48 H54.625 Z"/></g><g id="Bold-S" transform="matrix(1 0 0 1 2294.23 696)"><path d="M35.801 -8.7  54.737 -35.23  35.801 -61.859 H52.074 L71.01 -35.23 L52.074 -8.7 H35.801 Z"/></g><g id="Semibold-S" transform="matrix(1 0 0 1 1998.1 696)"><path d="M36.186 -9.257  54.779 -35.272  36.186 -61.344 H50.874 L69.467 -35.272 L50.874 -9.257 H36.186 Z"/></g><g id="Medium-S" transform="matrix(1 0 0 1 1701.85 696)"><path d="M36.476 -9.675  54.812 -35.305  36.476 -60.958 H49.973 L68.309 -35.305 L49.973 -9.675 H36.476 Z"/></g><g id="Regular-S" transform="matrix(1 0 0 1 1405.73 696)"><path d="M36.689 -9.982  54.836 -35.329  36.689 -60.675 H49.312 L67.46 -35.329 L49.312 -9.982 H36.689 Z"/></g><g id="Light-S" transform="matrix(1 0 0 1 1109.75 696)"><path d="M40.482 -10.968  57.946 -35.329  40.482 -59.689 H50.678 L68.142 -35.329 L50.678 -10.968 H40.482 Z"/></g><g id="Thin-S" transform="matrix(1 0 0 1 814.015 696)"><path d="M44.275 -11.954  61.057 -35.329  44.275 -58.703 H52.043 L68.825 -35.329 L52.043 -11.954 H44.275 Z"/></g><g id="Ultralight-S" transform="matrix(1 0 0 1 517.792 696)"><path d="M46.551 -12.546  62.923 -35.329  46.551 -58.111 H52.863 L69.235 -35.329 L52.863 -12.546 H46.551 Z"/></g></g></svg>