<svg xmlns="http://www.w3.org/2000/svg" version="1.1" width="3300" height="2000"><g id="Notes"><style>
    text {
      font-family: monospace;
      text-anchor: middle;
    }
    text.emphasis {
      font-weight:bold;
    }
    text.lanchor {
      text-anchor: start;
    }
  </style><rect height="2200" id="artboard" fill="white" width="3300" x="0" y="0"/><line id="" style="fill:none;stroke:black;stroke-width:0.5;" x1="263" x2="3036" y1="292" y2="292"/><text class="lanchor emphasis" transform="matrix(1 0 0 1 263 322)">Weight/Scale Variations</text><text transform="matrix(1 0 0 1 559.711 322)">Ultralight</text><text transform="matrix(1 0 0 1 856.422 322)">Thin</text><text transform="matrix(1 0 0 1 1153.13 322)">Light</text><text transform="matrix(1 0 0 1 1449.84 322)">Regular</text><text transform="matrix(1 0 0 1 1746.56 322)">Medium</text><text transform="matrix(1 0 0 1 2043.27 322)">Semibold</text><text transform="matrix(1 0 0 1 2339.98 322)">Bold</text><text transform="matrix(1 0 0 1 2636.69 322)">Heavy</text><text transform="matrix(1 0 0 1 2933.4 322)">Black</text><text id="template-version" style="text-anchor: end;" transform="matrix(1 0 0 1 3036 1933)">Template v.1.0</text><text class="lanchor" transform="matrix(1 0 0 1 263 726)">Small</text><text class="lanchor" transform="matrix(1 0 0 1 263 1156)">Medium</text><text class="lanchor" transform="matrix(1 0 0 1 263 1586)">Large</text></g><g id="Guides"><g id="H-reference" style="fill:#27AAE1;stroke:none;" transform="matrix(1 0 0 1 339 696)"><path d="M 54.9316 0 L 57.666 0 L 30.5664 -70.459 L 28.0762 -70.459 L 0.976562 0 L 3.66211 0 L 12.9395 -24.4629 L 45.7031 -24.4629 Z M 29.1992 -67.0898 L 29.4434 -67.0898 L 44.8242 -26.709 L 13.8184 -26.709 Z"/></g><line id="Baseline-S" style="fill:none;stroke:#27AAE1;opacity:1;stroke-width:0.577;" x1="263" x2="3036" y1="696" y2="696"/><line id="Capline-S" style="fill:none;stroke:#27AAE1;opacity:1;stroke-width:0.577;" x1="263" x2="3036" y1="625.541" y2="625.541"/><g id="H-reference" style="fill:#27AAE1;stroke:none;" transform="matrix(1 0 0 1 339 1126)"><path d="M 54.9316 0 L 57.666 0 L 30.5664 -70.459 L 28.0762 -70.459 L 0.976562 0 L 3.66211 0 L 12.9395 -24.4629 L 45.7031 -24.4629 Z M 29.1992 -67.0898 L 29.4434 -67.0898 L 44.8242 -26.709 L 13.8184 -26.709 Z"/></g><line id="Baseline-M" style="fill:none;stroke:#27AAE1;opacity:1;stroke-width:0.577;" x1="263" x2="3036" y1="1126" y2="1126"/><line id="Capline-M" style="fill:none;stroke:#27AAE1;opacity:1;stroke-width:0.577;" x1="263" x2="3036" y1="1055.54" y2="1055.54"/><g id="H-reference" style="fill:#27AAE1;stroke:none;" transform="matrix(1 0 0 1 339 1556)"><path d="M 54.9316 0 L 57.666 0 L 30.5664 -70.459 L 28.0762 -70.459 L 0.976562 0 L 3.66211 0 L 12.9395 -24.4629 L 45.7031 -24.4629 Z M 29.1992 -67.0898 L 29.4434 -67.0898 L 44.8242 -26.709 L 13.8184 -26.709 Z"/></g><line id="Baseline-L" style="fill:none;stroke:#27AAE1;opacity:1;stroke-width:0.577;" x1="263" x2="3036" y1="1556" y2="1556"/><line id="Capline-L" style="fill:none;stroke:#27AAE1;opacity:1;stroke-width:0.577;" x1="263" x2="3036" y1="1485.54" y2="1485.54"/><rect height="119.336" id="left-margin" style="fill:darkred;stroke:none;opacity:0.4;" width="12.4512" x="1394.06" y="1030.79"/><rect height="119.336" id="right-margin" style="fill:darkgreen;stroke:none;opacity:0.4;" width="12.4512" x="1502.5112" y="1030.79"/><rect x="1406.5112" y="1045" width="96" height="96" fill="none" stroke="blue" stroke-dasharray="5"/><rect x="1394.06" y="1030.79" width="120.9024" height="119.336" fill="none" stroke="blue"/></g><g id="Symbols"><g id="Bold-L" transform="matrix(1 0 0 1 2266 1556)"><path d="M60.146 12.661  95.944 -35.23  60.146 -83.121 H79.013 L114.649 -35.23 L79.013 12.661 H60.146 Z"/></g><g id="Semibold-L" transform="matrix(1 0 0 1 1970.27 1556)"><path d="M59.796 11.47  94.752 -35.23  59.796 -81.93 H75.647 L110.513 -35.23 L75.647 11.47 H59.796 Z"/></g><g id="Medium-L" transform="matrix(1 0 0 1 1674.31 1556)"><path d="M59.533 10.576  93.859 -35.23  59.533 -81.036 H73.124 L107.41 -35.23 L73.124 10.576 H59.533 Z"/></g><g id="Regular-L" transform="matrix(1 0 0 1 1378.56 1556)"><path d="M59.34 9.92  93.203 -35.23  59.34 -80.38 H71.273 L105.135 -35.23 L71.273 9.92 H59.34 Z"/></g><g id="Light-L" transform="matrix(1 0 0 1 1082.77 1556)"><path d="M63.062 8.308  95.373 -35.23  63.062 -78.767 H72.079 L104.39 -35.23 L72.079 8.308 H63.062 Z"/></g><g id="Thin-L" transform="matrix(1 0 0 1 787.282 1556)"><path d="M66.782 6.695  97.543 -35.23  66.782 -77.155 H72.885 L103.647 -35.23 L72.885 6.695 H66.782 Z"/></g><g id="Ultralight-L" transform="matrix(1 0 0 1 491.205 1556)"><path d="M69.015 5.728  98.846 -35.23  69.015 -76.187 H73.369 L103.2 -35.23 L73.369 5.728 H69.015 Z"/></g><g id="Bold-M" transform="matrix(1 0 0 1 2281.8 1126)"><path d="M39.75 2.645  66.625 -35.23  39.75 -73.105 H59.125 L86 -35.23 L59.125 2.645 H39.75 Z"/></g><g id="Semibold-M" transform="matrix(1 0 0 1 1985.97 1126)"><path d="M39.37 1.395  65.43 -35.23  39.37 -71.855 H55.648 L81.706 -35.23 L55.648 1.395 H39.37 Z"/></g><g id="Medium-M" transform="matrix(1 0 0 1 1689.91 1126)"><path d="M39.084 0.458  64.532 -35.23  39.084 -70.917 H53.038 L78.486 -35.23 L53.038 0.458 H39.084 Z"/></g><g id="Regular-M" transform="matrix(1 0 0 1 1394.06 1126)"><path d="M38.875 -0.23  63.875 -35.23  38.875 -70.23 H51.125 L76.125 -35.23 L51.125 -0.23 H38.875 Z"/></g><g id="Light-M" transform="matrix(1 0 0 1 1098.18 1126)"><path d="M43.682 -1.48  67.817 -35.23  43.682 -68.98 H52.856 L76.99 -35.23 L52.856 -1.48 H43.682 Z"/></g><g id="Thin-M" transform="matrix(1 0 0 1 802.565 1126)"><path d="M48.49 -2.73  71.76 -35.23  48.49 -67.73 H54.586 L77.856 -35.23 L54.586 -2.73 H48.49 Z"/></g><g id="Ultralight-M" transform="matrix(1 0 0 1 506.415 1126)"><path d="M51.375 -3.48  74.125 -35.23  51.375 -66.98 H55.625 L78.375 -35.23 L55.625 -3.48 H51.375 Z"/></g><g id="Bold-S" transform="matrix(1 0 0 1 2294.23 696)"><path d="M34.815 -9.292  53.258 -35.23  34.815 -61.168 H49.904 L68.347 -35.23 L49.904 -9.292 H34.815 Z"/></g><g id="Semibold-S" transform="matrix(1 0 0 1 1998.1 696)"><path d="M34.515 -10.278  52.315 -35.23  34.515 -60.182 H47.161 L64.959 -35.23 L47.161 -10.278 H34.515 Z"/></g><g id="Medium-S" transform="matrix(1 0 0 1 1701.85 696)"><path d="M34.289 -11.018  51.607 -35.23  34.289 -59.442 H45.101 L62.419 -35.23 L45.101 -11.018 H34.289 Z"/></g><g id="Regular-S" transform="matrix(1 0 0 1 1405.73 696)"><path d="M34.124 -11.56  51.088 -35.23  34.124 -58.9 H43.592 L60.556 -35.23 L43.592 -11.56 H34.124 Z"/></g><g id="Light-S" transform="matrix(1 0 0 1 1109.75 696)"><path d="M37.917 -12.546  54.198 -35.23  37.917 -57.914 H44.958 L61.238 -35.23 L44.958 -12.546 H37.917 Z"/></g><g id="Thin-S" transform="matrix(1 0 0 1 814.015 696)"><path d="M41.71 -13.532  57.309 -35.23  41.71 -56.927 H46.323 L61.922 -35.23 L46.323 -13.532 H41.71 Z"/></g><g id="Ultralight-S" transform="matrix(1 0 0 1 517.792 696)"><path d="M43.987 -14.124  59.175 -35.23  43.987 -56.336 H47.143 L62.331 -35.23 L47.143 -14.124 H43.987 Z"/></g></g></svg>