<svg xmlns="http://www.w3.org/2000/svg" height="40" viewBox="0 -960 960 960" width="40"><path d="M480.25-12.67q-25.62 0-43.43-17.76Q419-48.2 419-73.21q0-25.29 17.97-43.04Q454.95-134 479.93-134q25.57 0 42.99 17.63 17.41 17.64 17.41 42.87 0 25.67-17.29 43.25t-42.79 17.58ZM295.3-53.17q-25.34 0-43.82-17.67Q233-88.52 233-115.53q0-25.57 18.57-43.94 18.58-18.36 43.69-18.36 26.24 0 43.99 18.5Q357-140.83 357-115.56q0 27.04-17.62 44.72-17.63 17.67-44.08 17.67Zm368.67 0q-25.49 0-43.56-17.67-18.08-17.68-18.08-44.69 0-25.57 18.17-43.94 18.17-18.36 43.43-18.36 26.24 0 44.32 18.5 18.08 18.5 18.08 43.77 0 27.04-17.95 44.72-17.96 17.67-44.41 17.67ZM163.67-179Q139-179 121-197.16q-18-18.15-18-43 0-25.44 17.91-43.14 17.9-17.7 42.54-17.7 25.15 0 43.02 17.7 17.86 17.7 17.86 42.86 0 25.26-17.86 43.35Q188.6-179 163.67-179Zm316.62-2.67q-98.96 0-168.21-66.25-69.25-66.25-69.25-163.23 0-92.68 55.25-171.27Q353.33-661 421.5-724.5q24.33-23.17 58.58-23.75 34.25-.58 58.75 23.75 67.34 63.5 122.75 142.08Q717-503.83 717-411.15q0 96.98-68.88 163.23-68.88 66.25-167.83 66.25Zm316.28 4q-26.16 0-44.53-18.48t-18.37-44.34q0-26.08 18.33-43.63 18.33-17.55 44.4-17.55 26.27 0 43.77 17.55 17.5 17.55 17.5 43.63 0 25.86-17.74 44.34-17.73 18.48-43.36 18.48ZM575.45-320.86Q615-358.05 615-412.17q0-76.83-43.92-132.25Q527.17-599.83 480-644q-46.67 44.17-90.92 99.5t-44.25 132.33q0 54.12 39.91 91.31 39.92 37.19 95.54 37.19 55.63 0 95.17-37.19Zm-95.3-13.31q34.19 0 58.19-24.29 23.99-24.29 23.99-57.82 0-33.89-23.99-58.89-24-25-58.19-25-34.5 0-59.16 24.8-24.66 24.79-24.66 59.08 0 33.29 24.66 57.71 24.66 24.41 59.16 24.41Zm-.15-82Zm.17-423.66q-25 0-42.84-17.49-17.83-17.49-17.83-42.67 0-25.11 17.74-43.14 17.74-18.04 42.71-18.04 24.82 0 42.85 17.91t18.03 42.95q0 25.81-18.03 43.14-18.03 17.34-42.63 17.34Z"/></svg>