<svg xmlns="http://www.w3.org/2000/svg" height="48" viewBox="0 -960 960 960" width="48"><path d="M480.42-31.28q-20.91 0-34.97-14.03-14.06-14.03-14.06-34.34 0-20.2 14.24-34.27Q459.86-128 479.97-128q20.49 0 34.31 13.98 13.83 13.98 13.83 33.96 0 21.13-13.72 34.95-13.72 13.83-33.97 13.83Zm-181.2-39.57q-20.5 0-35.55-14.09-15.06-14.09-15.06-36.09 0-20.28 15.13-34.97 15.14-14.7 35.45-14.7 21.48 0 35.81 14.81 14.33 14.81 14.33 34.83 0 22.03-14.22 36.12-14.22 14.09-35.89 14.09Zm360.57 0q-20.72 0-35.17-14.09-14.45-14.09-14.45-36.09 0-20.28 14.53-34.97 14.52-14.7 35.06-14.7 21.48 0 36.31 14.81 14.82 14.81 14.82 34.83 0 22.03-14.72 36.12-14.72 14.09-36.38 14.09ZM176.53-195.17q-19.88 0-34.24-14.29-14.36-14.28-14.36-34.26 0-20.35 14.33-34.54 14.32-14.2 33.9-14.2 20.11 0 34.3 14.2 14.19 14.19 14.19 34.13 0 20.59-14.19 34.77-14.19 14.19-33.93 14.19Zm303.83-.7q-93.51 0-159.4-61.71-65.9-61.7-65.9-152.92 0-91.33 56.04-169.64 56.03-78.32 123.66-140.38 19.02-17.52 45.49-18.06 26.47-.53 45.49 18.06 66.63 62.06 122.91 140.38 56.29 78.31 56.29 169.64 0 91.22-65.54 152.92-65.53 61.71-159.04 61.71Zm303.45 2.7q-21.61 0-36.54-14.83-14.92-14.83-14.92-36.06 0-21.05 14.88-35.22 14.88-14.18 36.41-14.18 21.34 0 35.38 14.18 14.05 14.17 14.05 35.22 0 21.23-14.26 36.06-14.26 14.83-35 14.83ZM584.28-312.8q43.37-39.65 43.37-98.63 0-79.83-49.14-140.03-49.14-60.19-98.51-109.8-48.87 49.61-98.26 109.8-49.39 60.2-49.39 140.03 0 58.98 43.62 98.63 43.63 39.65 104.29 39.65 60.66 0 104.02-39.65Zm-104.16-22.37q33.71 0 57.86-24.13t24.15-58.49q0-33.51-24.15-58.58-24.15-25.06-57.86-25.06-34.64 0-59.44 24.8-24.81 24.8-24.81 58.71 0 34.12 24.81 58.43 24.8 24.32 59.44 24.32Zm-.12-82.57Zm.49-421.48q-20.38 0-34.49-13.75-14.11-13.75-14.11-34.23 0-19.85 14.07-34.29 14.08-14.45 34.15-14.45 19.61 0 34.06 14.34 14.44 14.33 14.44 33.95 0 21.28-14.44 34.86-14.45 13.57-33.68 13.57Z"/></svg>