<svg xmlns="http://www.w3.org/2000/svg" height="20" viewBox="0 -960 960 960" width="20"><path d="M480.21-81.89q-15.21 0-25.71-10.39t-10.5-25.3q0-15.15 10.5-25.32 10.5-10.18 25.71-10.18 15.44 0 25.21 10.19 9.77 10.18 9.77 25.35 0 14.92-9.77 25.29-9.77 10.36-25.21 10.36Zm-159.38-40.15q-15.21 0-25.71-10.12-10.5-10.11-10.5-25.18 0-15.31 10.5-25.6 10.5-10.29 25.71-10.29 15.44 0 25.21 10.29 9.77 10.29 9.77 25.6 0 15.07-9.77 25.18-9.77 10.12-25.21 10.12Zm318.77 0q-15.21 0-25.71-10.12-10.5-10.11-10.5-25.18 0-15.31 10.5-25.6 10.5-10.29 25.71-10.29 15.44 0 25.21 10.29 9.77 10.29 9.77 25.6 0 15.07-9.77 25.18-9.77 10.12-25.21 10.12ZM216.19-229.69q-15.07 0-25.19-10.12-10.11-10.11-10.11-25.19 0-15.31 10.11-25.6 10.12-10.28 25.19-10.28 15.31 0 25.6 10.28 10.29 10.29 10.29 25.6 0 15.08-10.29 25.19-10.29 10.12-25.6 10.12Zm263.88-12q-80.11 0-137.53-51.45-57.42-51.44-57.42-129.59 0-82.15 52.48-152.96T451.89-704q11.76-10.69 28.96-11.54 17.19-.84 28.46 10.54 61.11 57.5 113.19 128.81t52.08 153.46q0 78.15-57.2 129.59-57.19 51.45-137.31 51.45Zm263.85 12q-15.12 0-25.56-10.12-10.44-10.11-10.44-25.19 0-15.31 10.4-25.6 10.4-10.28 25.46-10.28 15.49 0 25.41 10.28 9.92 10.29 9.92 25.6 0 15.08-10.02 25.19-10.02 10.12-25.17 10.12ZM480.23-367.92q27.5 0 47.87-20.18 20.36-20.17 20.36-48.13 0-27.39-20.36-47.81-20.37-20.42-47.87-20.42-27.9 0-47.91 20.33-20.01 20.34-20.01 48.13 0 27.73 20.01 47.9 20.01 20.18 47.91 20.18Zm-.43-431.16q-15.07 0-25.18-10.11-10.12-10.12-10.12-25.19 0-15.31 10.12-25.6 10.11-10.29 25.18-10.29 15.31 0 25.6 10.29 10.29 10.29 10.29 25.6 0 15.07-10.29 25.19-10.29 10.11-25.6 10.11Z"/></svg>