<svg xmlns="http://www.w3.org/2000/svg" height="20" viewBox="0 -960 960 960" width="20"><path d="M480.03-104.77q-10.99 0-18.51-7.45-7.52-7.46-7.52-18.43 0-11.31 7.55-18.41 7.55-7.09 18.66-7.09 11.6 0 18.39 7.1 6.78 7.11 6.78 18.62 0 10.7-6.78 18.18-6.79 7.48-18.57 7.48Zm-154.77-38.81q-10.99 0-18.51-7.18-7.52-7.18-7.52-18.31 0-11.47 7.55-18.68 7.55-7.21 18.67-7.21 11.59 0 18.38 7.21 6.79 7.21 6.79 18.86 0 10.85-6.79 18.08-6.79 7.23-18.57 7.23Zm309.54 0q-10.99 0-18.51-7.18-7.52-7.18-7.52-18.31 0-11.47 7.55-18.68 7.55-7.21 18.66-7.21 11.6 0 18.39 7.21 6.78 7.21 6.78 18.86 0 10.85-6.78 18.08-6.79 7.23-18.57 7.23Zm-410.72-103.8q-10.85 0-18.08-7.19-7.23-7.18-7.23-18.31 0-11.46 7.18-18.68 7.18-7.21 18.32-7.21 11.46 0 18.67 7.21 7.21 7.22 7.21 18.87 0 10.84-7.21 18.07-7.21 7.24-18.86 7.24Zm255.97-12q-74.13 0-127.22-46.64-53.1-46.63-53.1-118.44 0-80.81 51.71-147.67Q403.15-639 462.1-691.44q7.71-5.94 18.84-6.89 11.14-.94 18.18 5.83 58.23 52.5 109.63 119.87 51.4 67.36 51.4 148.17 0 71.81-52.99 118.44-52.99 46.64-127.11 46.64Zm255.87 12q-11.16 0-18.62-7.19-7.45-7.18-7.45-18.31 0-11.46 7.46-18.68 7.46-7.21 18.45-7.21 11.78 0 18.62 7.21 6.85 7.22 6.85 18.87 0 10.84-6.89 18.07-6.88 7.24-18.42 7.24Zm-149.5-80q44.81-39.08 44.81-97.35 0-82.65-51.1-136.79Q529.04-615.65 480-671.23q-47.77 55.58-99.56 109.65-51.79 54.08-51.79 136.85 0 58.27 44.95 97.35 44.94 39.07 106.47 39.07 61.54 0 106.35-39.07Zm-106.19-44.97q26.73 0 46.71-19.59 19.98-19.6 19.98-46.79 0-27-19.98-46.85-19.98-19.84-46.9-19.84-26.37 0-45.9 19.76-19.52 19.75-19.52 47.16 0 26.96 19.55 46.56 19.56 19.59 46.06 19.59ZM480-438.5Zm-.19-346.15q-10.85 0-18.08-7.18-7.23-7.19-7.23-18.32 0-11.46 7.18-18.68 7.18-7.21 18.32-7.21 11.46 0 18.67 7.21 7.21 7.22 7.21 18.87 0 10.84-7.21 18.08-7.21 7.23-18.86 7.23Z"/></svg>