<svg xmlns="http://www.w3.org/2000/svg" height="24" viewBox="0 -960 960 960" width="24"><path d="M480 11.44q-29.19 0-50.33-21.17-21.15-21.17-21.15-50.39 0-29.88 21.15-50.64 21.14-20.76 50.33-20.76 29.39 0 50.44 20.86 21.04 20.86 21.04 50.76 0 29.25-21.04 50.29Q509.39 11.44 480 11.44ZM287.74-30.13q-29.39 0-50.87-21.65-21.48-21.64-21.48-51.39 0-30.62 21.48-52.05 21.48-21.43 50.87-21.43 30.39 0 50.72 21.43 20.32 21.43 20.32 52.05 0 29.75-20.32 51.39-20.33 21.65-50.72 21.65Zm383.38-1.43q-29.25 0-49.79-20.81-20.55-20.81-20.55-50.8 0-29.62 20.67-51.05 20.67-21.43 49.89-21.43 29.88 0 51.14 21.43t21.26 51.05q0 29.99-21.36 50.8t-51.26 20.81Zm-517.73-128.7q-29.19 0-50.33-21.54-21.15-21.55-21.15-50.94 0-29.39 21.15-49.93 21.14-20.55 50.33-20.55 29.39 0 50.44 20.55 21.04 20.54 21.04 49.93t-21.04 50.94q-21.05 21.54-50.44 21.54Zm326.89-2.26q-105.24 0-178.72-71.98-73.47-71.98-73.47-176.76 0-92.13 55.71-175.28 55.72-83.16 125.72-152.72 29.12-28.83 70.06-28.61 40.94.22 70.9 28.61 69.56 69.56 125.28 152.72 55.72 83.15 55.72 175.28 0 104.78-73.48 176.76-73.48 71.98-177.72 71.98Zm326.19 2.26q-29.25 0-50.3-21.54-21.04-21.55-21.04-50.94 0-29.39 21.17-49.93 21.17-20.55 50.39-20.55 29.88 0 50.64 20.55 20.76 20.54 20.76 49.93t-20.86 50.94q-20.86 21.54-50.76 21.54ZM571-322.07q37.52-36.58 37.52-89.19 0-66.44-42.04-124.91-42.05-58.48-86.48-103.39-45.43 44.47-87.2 103.17-41.76 58.69-41.76 125.13 0 52.61 37.68 89.19 37.67 36.59 91.21 36.59 53.54 0 91.07-36.59ZM480.1-329q35.47 0 60.18-24.72Q565-378.43 565-413.43t-24.82-60.29Q515.37-499 479.89-499 445-499 420-473.72q-25 25.29-25 60.29t25.11 59.71Q445.21-329 480.1-329Zm-.1-84.43Zm0-431.44q-29.19 0-50.33-21.26-21.15-21.26-21.15-50.68 0-30.06 21.15-50.54 21.14-20.48 50.33-20.48 29.39 0 50.44 20.48 21.04 20.48 21.04 50.54 0 29.42-21.04 50.68-21.05 21.26-50.44 21.26Z"/></svg>