<svg xmlns="http://www.w3.org/2000/svg" height="48" viewBox="0 -960 960 960" width="48"><path d="M480.54-42.37q-18.75 0-31.18-12.35-12.43-12.36-12.43-30.61 0-17.78 12.56-30.22Q462.06-128 480.11-128q18.06 0 30.26 12.41 12.2 12.41 12.2 29.86 0 18.97-12.15 31.16-12.16 12.2-29.88 12.2ZM303.26-81.61q-18.34 0-31.77-12.46-13.42-12.46-13.42-31.87 0-17.65 13.46-30.72 13.46-13.06 31.71-13.06 19.06 0 31.76 13.11 12.7 13.11 12.7 30.66 0 19.42-12.65 31.88-12.65 12.46-31.79 12.46Zm352.74 0q-18.56 0-31.38-12.46t-12.82-31.87q0-17.65 12.85-30.72 12.85-13.06 31.33-13.06 19.06 0 32.26 13.11 13.19 13.11 13.19 30.66 0 19.42-13.15 31.88Q675.13-81.61 656-81.61ZM186.34-204.3q-17.95 0-30.51-12.45-12.57-12.45-12.57-30.37 0-17.93 12.61-30.49 12.61-12.56 30.07-12.56 17.83 0 30.39 12.56 12.56 12.56 12.56 30.08 0 18.53-12.56 30.88-12.56 12.35-29.99 12.35Zm294 .28q-90.23 0-154.17-59.43-63.93-59.42-63.93-147.63 0-89.12 55.87-167.1 55.87-77.99 122.85-139.73 16.41-14.92 39.29-15.29 22.88-.37 39.29 15.29 65.98 61.74 122.1 139.73 56.12 77.98 56.12 167.1 0 88.21-63.6 147.63-63.6 59.43-153.82 59.43Zm293.69 1.72q-19.33 0-32.63-13.04-13.29-13.04-13.29-32.01 0-18.43 13.25-31.13 13.25-12.69 32.52-12.69 18.71 0 31.28 12.69 12.58 12.7 12.58 31.13 0 18.97-12.72 32.01-12.73 13.04-30.99 13.04ZM587.22-310.46q44.67-40.58 44.67-101.3 0-78.2-50.93-141.16Q530.02-615.89 480-667.46q-49.52 51.57-100.71 114.54-51.18 62.96-51.18 141.16 0 60.72 44.85 101.3 44.85 40.57 107.22 40.57t107.04-40.57Zm-107.1-26.34q33.38 0 57.37-23.81 23.99-23.8 23.99-58.49 0-33.18-23.99-57.92-23.99-24.74-57.37-24.74-34.64 0-59.12 24.48-24.48 24.47-24.48 58.05 0 34.45 24.48 58.44 24.48 23.99 59.12 23.99Zm-.12-82.24Zm.51-416.59q-18.44 0-30.76-12.08t-12.32-30.5q0-17.43 12.36-30.24 12.36-12.81 30.32-12.81 17.33 0 30.14 12.77 12.82 12.76 12.82 29.85 0 19.12-12.82 31.06-12.81 11.95-29.74 11.95Z"/></svg>