<svg xmlns="http://www.w3.org/2000/svg" height="40" viewBox="0 -960 960 960" width="40"><path d="M480.16-67.57q-15.03 0-24.97-10.01-9.93-10.01-9.93-24.73 0-14.41 10.01-24.58 10.01-10.16 24.73-10.16 14.67 0 24.7 10.16 10.04 10.17 10.04 24.3 0 15.14-10.04 25.08-10.03 9.94-24.54 9.94Zm-167.87-37.79q-14.49 0-24.97-10.29-10.47-10.28-10.47-25.41 0-14.12 10.46-24.49t25.1-10.37q15.08 0 25.45 10.37t10.37 24.49q0 15.13-10.37 25.41-10.37 10.29-25.57 10.29Zm334.89 0q-15 0-25.21-10.29-10.2-10.28-10.2-25.41 0-14.12 10.2-24.49 10.21-10.37 25.21-10.37 15.08 0 25.52 10.37 10.45 10.37 10.45 24.49 0 15.13-10.45 25.41-10.44 10.29-25.52 10.29ZM204.67-222.62q-14.9 0-24.96-10.01-10.07-10.01-10.07-24.73 0-14.67 10.13-24.7 10.13-10.04 24.63-10.04 14.65 0 24.69 10.04 10.04 10.03 10.04 24.54 0 15.03-10.04 24.97-10.04 9.93-24.42 9.93Zm275.54.41q-83.59 0-143.07-56.48-59.47-56.49-59.47-139.08 0-81.31 54.32-156.35 54.32-75.03 117.65-134.37 12.62-12.02 30.26-11.92 17.64.1 30.46 11.92 63.33 59.34 117.65 134.37 54.32 75.04 54.32 156.35 0 82.59-59.27 139.08-59.26 56.48-142.85 56.48Zm275.31.41q-15.31 0-25.72-10.27-10.42-10.28-10.42-25.38 0-14.58 10.42-24.82 10.41-10.24 25.72-10.24 14.76 0 25 10.19 10.25 10.19 10.25 24.87 0 15.1-10.19 25.38-10.2 10.27-25.06 10.27ZM587.3-314.28q44.78-41.82 44.78-103.28 0-69.75-51.5-134.89-51.5-65.14-100.58-117.27-49.28 52.13-100.68 117.27-51.4 65.14-51.4 134.89 0 61.46 44.78 103.28 44.79 41.82 107.3 41.82t107.3-41.82ZM479.97-343.1q32.51 0 55.85-22.82 23.33-22.82 23.33-56.25 0-33.18-23.33-56.43-23.34-23.25-55.89-23.25-32.8 0-55.97 23.13-23.16 23.12-23.16 56.28 0 33.41 23.21 56.38 23.21 22.96 55.96 22.96Zm.03-79.18Zm.29-389.49q-14.91 0-24.97-10.13-10.06-10.13-10.06-24.62 0-14.66 10.13-24.7 10.13-10.03 24.62-10.03 14.66 0 24.69 10.03 10.04 10.04 10.04 24.42 0 14.9-10.04 24.97-10.03 10.06-24.41 10.06Z"/></svg>