<svg xmlns="http://www.w3.org/2000/svg" height="48" viewBox="0 -960 960 960" width="48"><path d="M480.29-93.96q-11.06 0-17.87-6.92-6.8-6.92-6.8-17.85 0-9.08 6.93-16.48 6.93-7.41 17.66-7.41 10.14 0 17.1 7.42 6.96 7.41 6.96 16.09 0 11.56-6.96 18.36-6.96 6.79-17.02 6.79Zm-162.12-36.31q-9.86 0-17.28-7.06-7.43-7.05-7.43-18.75 0-8.8 7.39-16.44 7.38-7.63 17.67-7.63 10.36 0 17.83 7.63 7.46 7.64 7.46 16.44 0 11.7-7.46 18.75-7.47 7.06-18.18 7.06Zm323.51 0q-11.16 0-18.38-7.06-7.22-7.05-7.22-18.75 0-8.8 7.22-16.44 7.22-7.63 18.38-7.63 10.36 0 17.55 7.63 7.19 7.64 7.19 16.44 0 11.7-7.19 18.75-7.19 7.06-17.55 7.06ZM214.33-242.54q-10.02 0-17.43-6.89-7.4-6.89-7.4-17.49 0-10 7.5-17.14 7.51-7.13 16.92-7.13 9.96 0 17.1 7.13 7.13 7.14 7.13 17.06 0 10.92-7.13 17.69-7.14 6.77-16.69 6.77Zm266.12.23q-76.8 0-131.41-50.82-54.62-50.83-54.62-125.68 0-80.19 53.06-150.44t113.4-124.06q7.58-6.46 19.18-6.52 11.59-.05 19.94 6.52 58.96 53.81 112.46 124.06 53.5 70.25 53.5 150.44 0 74.85-54.36 125.68-54.35 50.82-131.15 50.82Zm265.64.23q-11.2 0-18.45-7.06-7.26-7.07-7.26-17.92 0-10.36 7.22-17.36 7.21-7 18.35-7 11.01 0 17.9 6.84 6.88 6.85 6.88 17.52 0 10.85-6.83 17.92-6.83 7.06-17.81 7.06ZM480.25-349.15q30.71 0 53.8-21.97 23.1-21.97 23.1-54.71 0-31.54-23.1-54.43-23.09-22.89-53.94-22.89-31.17 0-53.68 22.6-22.51 22.61-22.51 54.51 0 32.46 22.66 54.67 22.65 22.22 53.67 22.22Zm.7-447.31q-10.53 0-17.68-7.01-7.15-7-7.15-17.41 0-9.46 7.25-16.85 7.25-7.39 17.16-7.39 9.47 0 16.85 7.39 7.39 7.39 7.39 16.43 0 11.03-7.39 17.93-7.38 6.91-16.43 6.91Z"/></svg>