<svg xmlns="http://www.w3.org/2000/svg" height="40" viewBox="0 -960 960 960" width="40"><path d="M480.14-21.85q-22.81 0-38.51-15.83-15.7-15.82-15.7-38.09 0-22.68 15.82-38.45Q457.57-130 479.84-130q22.68 0 38.46 15.7 15.77 15.71 15.77 38.23 0 22.81-15.7 38.51-15.7 15.71-38.23 15.71ZM298.33-61.94q-22.53 0-38.9-16.05-16.37-16.04-16.37-39.52 0-22.63 16.42-38.84 16.42-16.2 38.82-16.2 23.35 0 39.46 16.28t16.11 38.74q0 23.5-16.04 39.54-16.03 16.05-39.5 16.05Zm362.4 0q-22.67 0-38.64-16.05-15.96-16.04-15.96-39.52 0-22.63 16.01-38.84 16.02-16.2 38.57-16.2 23.35 0 39.79 16.28 16.44 16.28 16.44 38.74 0 23.5-16.37 39.54-16.37 16.05-39.84 16.05Zm-485.32-125.2q-22.54 0-38.43-16.11-15.89-16.1-15.89-38.37 0-22.68 15.86-38.37 15.87-15.68 38.21-15.68 22.52 0 38.3 15.68 15.77 15.69 15.77 38.09 0 22.68-15.77 38.72-15.78 16.04-38.05 16.04Zm304.78-1.22q-96.07 0-163.68-65.41-67.6-65.4-67.6-160.33 0-88.44 55.95-168.33 55.95-79.9 123.94-144.99 21.23-20.71 51.03-20.83 29.81-.11 51.37 20.83 67.99 65.09 123.94 144.99 55.95 79.89 55.95 168.33 0 94.93-67.41 160.33-67.41 65.41-163.49 65.41Zm304.56 2.55q-23.34 0-39.66-16.47-16.32-16.46-16.32-39.57 0-22.82 16.32-38.65 16.32-15.83 39.64-15.83 23.01 0 38.93 15.83 15.92 15.83 15.92 38.65 0 23.11-15.99 39.57-16 16.47-38.84 16.47ZM479.92-334.13q34.34 0 58.54-24.11 24.19-24.11 24.19-58.53 0-34.53-24.19-59.27-24.2-24.73-58.54-24.73-34.78 0-59.34 24.62-24.57 24.61-24.57 59.14 0 34.42 24.57 58.65 24.56 24.23 59.34 24.23Zm.33-501.99q-22.54 0-38.43-15.82t-15.89-38.09q0-22.68 15.86-38.46 15.87-15.77 38.21-15.77 22.52 0 38.3 15.7 15.77 15.71 15.77 38.23 0 22.81-15.77 38.51-15.78 15.7-38.05 15.7Z"/></svg>