<svg xmlns="http://www.w3.org/2000/svg" height="20" viewBox="0 -960 960 960" width="20"><path d="M480-22q-25.09 0-43.04-17.96Q419-57.91 419-83q0-25.65 17.96-43.33Q454.91-144 480-144q25.65 0 43.33 17.67Q541-108.65 541-83q0 25.09-17.67 43.04Q505.65-22 480-22ZM302.96-65.13q-25.09 0-43.05-17.96-17.95-17.95-17.95-43.61 0-25.65 17.95-43.6 17.96-17.96 43.05-17.96 25.65 0 43.32 17.96 17.68 17.95 17.68 43.6 0 25.66-17.68 43.61-17.67 17.96-43.32 17.96Zm354.08 0q-25.08 0-43.04-17.96-17.96-17.95-17.96-43.61 0-25.65 17.96-43.6 17.96-17.96 43.04-17.96 25.66 0 43.33 17.96 17.67 17.95 17.67 43.6 0 25.66-17.67 43.61-17.67 17.96-43.33 17.96ZM181.39-183.09q-25.09 0-43.04-18.24-17.96-18.23-17.96-43.32 0-25.65 17.96-43.05 17.95-17.39 43.04-17.39 25.65 0 43.33 17.39 17.67 17.4 17.67 43.05 0 25.09-17.67 43.32-17.68 18.24-43.33 18.24ZM480-197.35q-96.35 0-164.37-64.8-68.02-64.81-68.02-160.15 0-87.66 54.78-165.72 54.78-78.07 122.48-145.2 22.65-22.08 55.63-22.87 32.98-.78 55.63 21.87 67.7 67.13 121.98 145.7 54.28 78.56 54.28 166.22 0 95.34-68.02 160.15-68.02 64.8-164.37 64.8Zm298.61 14.26q-25.09 0-43.04-18.24-17.96-18.23-17.96-43.32 0-25.65 17.96-43.05 17.95-17.39 43.04-17.39 25.65 0 43.33 17.39 17.67 17.4 17.67 43.05 0 25.09-17.67 43.32-17.68 18.24-43.33 18.24Zm-203.89-149q39.67-36.74 39.67-89.78 0-69.52-43.48-125.74T480-653.3q-46.87 49.47-90.63 105.69t-43.76 125.74q0 53.04 39.67 89.78 39.68 36.74 94.72 36.74t94.72-36.74ZM480-356.04q30.13 0 51.91-21.57 21.79-21.56 21.79-51.56 0-30.13-21.79-52.2-21.78-22.06-51.91-22.06-30.57 0-52.13 22.06-21.57 22.07-21.57 52.2 0 30 21.57 51.56 21.56 21.57 52.13 21.57Zm0-73.13Zm0-394.74q-25.09 0-43.04-17.96Q419-859.83 419-884.91q0-25.66 17.96-43.33 17.95-17.67 43.04-17.67 25.65 0 43.33 17.67Q541-910.57 541-884.91q0 25.08-17.67 43.04-17.68 17.96-43.33 17.96Z"/></svg>