<svg xmlns="http://www.w3.org/2000/svg" height="48" viewBox="0 -960 960 960" width="48"><path d="M480.26-16.5q-23.8 0-40.03-16.26T424-72.07q0-23.43 16.47-39.68T479.79-128q23.71 0 39.71 16.07t16 39.42q0 24.01-15.81 40.01-15.81 16-39.43 16Zm-186.41-40q-23.39 0-40.62-16.26Q236-89.03 236-114.49q0-23.78 17.37-40.64Q270.74-172 293.79-172q24.71 0 41.21 17.07 16.5 17.06 16.5 40.39 0 25.51-16.31 41.78-16.31 16.26-41.34 16.26Zm371 0q-23.61 0-40.23-16.26Q608-89.03 608-114.49q0-23.78 16.76-40.64Q641.52-172 664.79-172q24.71 0 41.71 17.07 17 17.06 17 40.39 0 25.51-16.81 41.78-16.81 16.26-41.84 16.26ZM163.45-183q-22.45 0-39.2-16.74-16.75-16.73-16.75-39.44 0-23.59 16.61-39.95 16.61-16.37 39-16.37 23.16 0 39.52 16.37Q219-262.77 219-239.6q0 23.33-16.37 39.96Q186.27-183 163.45-183Zm316.94-2Q382.5-185 314-249.75q-68.5-64.75-68.5-159.98 0-94.27 56.25-173.02Q358-661.5 426.5-724q22.5-21 53.75-21.75T534-724q67.5 62.5 124 141.25t56.5 173.02q0 95.23-68.11 159.98-68.11 64.75-166 64.75Zm316.47 4q-24.66 0-41.76-17.22-17.1-17.22-17.1-41.47 0-24.54 17.06-40.67 17.05-16.14 41.61-16.14 24.83 0 40.83 16.14 16 16.13 16 40.67 0 24.25-16.3 41.47T796.86-181ZM580.37-315.92Q622-354.33 622-411q0-82-46.75-138.5T480-653q-48 47-95 103.5T338-411q0 56.67 41.99 95.08 41.99 38.42 100.37 38.42t100.01-38.42ZM480.11-333q34.15 0 58.52-24.56Q563-382.13 563-416.05q0-33.95-24.37-59.45T480.11-501q-34.63 0-59.87 25.24Q395-450.53 395-416.18q0 33.68 25.24 58.43T480.11-333Zm-.11-83Zm.45-428q-22.95 0-39.45-15.99-16.5-15.98-16.5-39.19 0-23.09 16.36-39.7 16.36-16.62 39.25-16.62 22.66 0 39.27 16.43Q536-922.65 536-899.66q0 24.16-16.62 39.91Q502.77-844 480.45-844Z"/></svg>