<svg xmlns="http://www.w3.org/2000/svg" height="20" viewBox="0 -960 960 960" width="20"><path d="M480.21-118.5q-8.75 0-14.48-5.78-5.73-5.77-5.73-14.22 0-9 5.73-14.25t14.48-5.25q9.29 0 14.29 5.26t5 14.28q0 8.46-5 14.21t-14.29 5.75Zm-152-38q-8.75 0-14.48-5.5T308-176.11q0-9.16 5.73-14.52 5.73-5.37 14.48-5.37 9.29 0 14.29 5.37 5 5.36 5 14.52 0 8.61-5 14.11t-14.29 5.5Zm304 0q-8.75 0-14.48-5.5T612-176.11q0-9.16 5.73-14.52 5.73-5.37 14.48-5.37 9.29 0 14.29 5.37 5 5.36 5 14.52 0 8.61-5 14.11t-14.29 5.5ZM229.11-258q-8.61 0-14.11-5.5t-5.5-14.11q0-9.16 5.5-14.52 5.5-5.37 14.11-5.37 9.16 0 14.52 5.37 5.37 5.36 5.37 14.52 0 8.61-5.37 14.11-5.36 5.5-14.52 5.5Zm250.96-12Q409.5-270 359-313.75T308.5-425.5q0-80 51.25-144.5T468.5-684q5-3 12.5-4t12 3q56.5 49.5 107.5 114.5t51 145q0 68-50.43 111.75-50.42 43.75-121 43.75ZM731-258q-8.66 0-14.33-5.5T711-277.61q0-9.16 5.63-14.52 5.63-5.37 14.23-5.37 9.64 0 14.64 5.37 5 5.36 5 14.52 0 8.61-5.1 14.11T731-258ZM480.23-375q26.27 0 46.02-19.25Q546-413.5 546-440.23q0-26.77-19.75-46.27Q506.5-506 480.23-506q-25.75 0-44.99 19.41Q416-467.17 416-440q0 26.5 19.24 45.75T480.23-375Zm-.12-401q-8.61 0-14.11-5.5t-5.5-14.11q0-9.16 5.5-14.52 5.5-5.37 14.11-5.37 9.16 0 14.52 5.37 5.37 5.36 5.37 14.52 0 8.61-5.37 14.11-5.36 5.5-14.52 5.5Z"/></svg>