<svg xmlns="http://www.w3.org/2000/svg" height="24" viewBox="0 -960 960 960" width="24"><path d="M479.97-110.5q-9.51 0-15.74-6.21T458-132.5q0-9 6.27-15.25t15.94-6.25q9.29 0 15.29 6.26t6 15.52q0 9.22-6 15.47t-15.53 6.25Zm-154-36q-9.51 0-15.74-5.93-6.23-5.94-6.23-15.68 0-9.16 6.27-15.52 6.27-6.37 15.94-6.37 9.29 0 15.29 6.37 6 6.36 6 15.76 0 9.37-6 15.37t-15.53 6Zm308 0q-9.51 0-15.74-5.93-6.23-5.94-6.23-15.68 0-9.16 6.27-15.52 6.27-6.37 15.94-6.37 9.29 0 15.29 6.37 6 6.36 6 15.76 0 9.37-6 15.37t-15.53 6ZM224.87-254q-9.37 0-15.37-5.93-6-5.94-6-15.68 0-9.16 5.93-15.52 5.94-6.37 15.68-6.37 9.16 0 15.52 6.37 6.37 6.36 6.37 15.76 0 9.37-6.37 15.37-6.36 6-15.76 6Zm255.17 0Q407.5-254 356-302.25T304.5-421.5q0-76 50.75-143t108.03-117.43Q470.5-688 480-688t17 6q56.5 50.5 107.5 117.5t51 143q0 71-51.46 119.25-51.47 48.25-124 48.25Zm255.05 0q-9.75 0-15.92-5.93-6.17-5.94-6.17-15.68 0-9.16 6.19-15.52 6.19-6.37 15.74-6.37 9.57 0 15.57 6.37 6 6.36 6 15.76 0 9.37-6.02 15.37-6.03 6-15.39 6Zm-149.28-66.62Q630-361.75 630-422q0-73-51.25-132.25T480-664q-47 50.5-98.5 109.75T330-422q0 60.25 44.25 101.38 44.25 41.12 105.81 41.12t105.75-41.12ZM480.23-355q30.27 0 52.02-21.25Q554-397.5 554-428.23q0-30.77-21.75-52.27Q510.5-502 479.98-502q-29.5 0-50.74 21.41Q408-459.17 408-428q0 30.5 21.28 51.75T480.23-355Zm-.23-73Zm-.13-352q-9.37 0-15.37-5.93-6-5.94-6-15.68 0-9.16 5.93-15.52 5.94-6.37 15.68-6.37 9.16 0 15.52 6.37 6.37 6.36 6.37 15.76 0 9.37-6.37 15.37-6.36 6-15.76 6Z"/></svg>