<svg xmlns="http://www.w3.org/2000/svg" height="20" viewBox="0 -960 960 960" width="20"><path d="M480-74q-14 0-24-10t-10-24q0-16 10-25t24-9q16 0 25 9t9 25q0 14-9 24t-25 10Zm-174-39q-14 0-25-10.5T270-148q0-17 11-26.5t25-9.5q17 0 25 9.5t8 26.5q0 14-8 24.5T306-113Zm347-2q-14 0-23.5-9.5T620-148q0-16 9.5-25.5T653-183q16 0 25.5 9.5T688-148q0 14-9.5 23.5T653-115ZM190-225q-14 0-24-10.5T156-260q0-16 10-24.5t24-8.5q16 0 25 8.5t9 24.5q0 14-9 24.5T190-225Zm290-12q-82 0-140.5-50T281-416q0-92 54-162t116-123q13-10 30.5-11t28.5 10q61 53 114.5 123.5T678-416q0 79-58.5 129T480-237Zm290 12q-14 0-24-10.5T736-260q0-16 10-24.5t24-8.5q16 0 25 8.5t9 24.5q0 14-9 24.5T770-225ZM480-362q29 0 50.5-21.5T552-433q0-30-21.5-51T480-505q-27 0-48.5 21T410-433q0 28 21.5 49.5T480-362Zm0-441q-14 0-24-10.5T446-838q0-16 10-24.5t24-8.5q16 0 25 8.5t9 24.5q0 14-9 24.5T480-803Z"/></svg>