<svg xmlns="http://www.w3.org/2000/svg" height="24" viewBox="0 -960 960 960" width="24"><path d="M480-65q-16.77 0-28.19-11.42-11.42-11.43-11.42-28.2 0-16.15 11.42-27.88T480-144.23q16.15 0 27.88 11.73t11.73 27.88q0 16.77-11.73 28.2Q496.15-65 480-65Zm-164.61-38.46q-16.77 0-28.2-11.43-11.42-11.42-11.42-28.19 0-16.15 11.42-27.88 11.43-11.73 28.2-11.73 16.15 0 27.88 11.73T355-143.08q0 16.77-11.73 28.19-11.73 11.43-27.88 11.43Zm329.22 0q-16.76 0-28.19-11.43Q605-126.31 605-143.08q0-16.15 11.42-27.88 11.43-11.73 28.19-11.73 16.16 0 27.89 11.73t11.73 27.88q0 16.77-11.73 28.19-11.73 11.43-27.89 11.43ZM208.85-219.23q-16.77 0-28.19-11.43-11.43-11.42-11.43-28.19 0-16.15 11.43-27.88 11.42-11.73 28.19-11.73 16.15 0 27.88 11.73t11.73 27.88q0 16.77-11.73 28.19-11.73 11.43-27.88 11.43Zm271.15 0q-84.46 0-144.35-58.92-59.88-58.93-59.88-143 0-76.85 53.04-152.43 53.04-75.57 115.96-136.8 14.77-15 34.92-14.7 20.16.31 35.54 14.7 62.92 61.23 115.96 136.8 53.04 75.58 53.04 152.43 0 84.07-59.88 143-59.89 58.92-144.35 58.92Zm271.15 0q-16.77 0-28.19-11.43-11.42-11.42-11.42-28.19 0-16.15 11.42-27.88t28.19-11.73q16.16 0 27.89 11.73t11.73 27.88q0 16.77-11.73 28.19-11.73 11.43-27.89 11.43ZM581.88-320.31q42.35-41.07 42.35-100.23 0-58.92-48.73-125.35-48.73-66.42-95.5-115.57-47.38 49.15-95.81 115.57-48.42 66.43-48.42 125.35 0 59.16 42.35 100.23 42.34 41.08 101.88 41.08 59.54 0 101.88-41.08ZM480-345q32.23 0 55.15-22.42 22.93-22.43 22.93-55.27 0-32.62-22.93-55.35-22.92-22.73-55.15-22.73-32.46 0-54.88 22.73-22.43 22.73-22.43 55.35 0 32.84 22.43 55.27Q447.54-345 480-345Zm0-77.69ZM480-805q-16.77 0-28.19-11.42-11.42-11.42-11.42-28.19 0-16.16 11.42-27.89T480-884.23q16.15 0 27.88 11.73t11.73 27.89q0 16.77-11.73 28.19Q496.15-805 480-805Z"/></svg>