<svg xmlns="http://www.w3.org/2000/svg" height="40" viewBox="0 -960 960 960" width="40"><path d="M480.38-72.78q-14.81 0-24.49-9.65-9.68-9.64-9.68-24.17 0-13.41 9.75-23.36 9.76-9.94 24.25-9.94 13.96 0 23.53 9.96 9.58 9.95 9.58 23.1 0 14.95-9.58 24.5-9.57 9.56-23.36 9.56ZM314.4-110.6q-14.27 0-24.49-9.65-10.22-9.64-10.22-24.74 0-13.28 10.21-23.54t24.62-10.26q14.36 0 24.27 10.26t9.91 23.54q0 15.1-9.91 24.74-9.91 9.65-24.39 9.65Zm331.1 0q-14.78 0-24.73-9.65-9.95-9.64-9.95-24.74 0-13.28 9.95-23.54t24.73-10.26q14.36 0 24.35 10.26 9.98 10.26 9.98 23.54 0 15.1-9.98 24.74-9.99 9.65-24.35 9.65ZM206.68-226.41q-14.2 0-23.96-9.54-9.76-9.53-9.76-23.89 0-13.83 9.83-23.76 9.82-9.93 23.62-9.93 13.81 0 23.74 9.93 9.93 9.93 9.93 23.59 0 14.68-9.93 24.14t-23.47 9.46Zm273.6.41q-82.24 0-140.75-54.84-58.52-54.84-58.52-135.51 0-81.94 53.6-155.71 53.6-73.77 116.48-131.71 11.95-11.05 28.96-11.1 17.01-.05 29.39 11.1 61.85 57.94 115.71 131.71 53.86 73.77 53.86 155.71 0 80.67-58.24 135.51Q562.52-226 480.28-226Zm273.34.41q-14.99 0-25.09-9.8-10.09-9.8-10.09-24.55 0-14.06 10.05-24.03 10.06-9.97 24.99-9.97 14.43 0 24.2 9.92t9.77 24.08q0 14.75-9.82 24.55t-24.01 9.8ZM480.2-345.03q31.78 0 54.89-22.56 23.12-22.57 23.12-55.79 0-31.95-23.12-55.22-23.11-23.27-54.93-23.27-32.58 0-55.5 23.06t-22.92 55.4q0 32.96 22.97 55.67t55.49 22.71Zm.23-465.82q-14.55 0-24.13-9.48-9.59-9.49-9.59-23.96 0-13.48 9.65-23.57 9.66-10.1 23.79-10.1 13.48 0 23.57 10.1 10.1 10.09 10.1 23.29 0 14.88-10.1 24.3-10.09 9.42-23.29 9.42Z"/></svg>