<svg xmlns="http://www.w3.org/2000/svg" height="40" viewBox="0 -960 960 960" width="40"><path d="M480.28-72.78q-14.71 0-24.39-9.62t-9.68-24.2q0-13.41 9.77-23.36 9.77-9.94 24.23-9.94 13.96 0 23.53 9.96 9.58 9.95 9.58 23.19 0 14.86-9.58 24.41-9.57 9.56-23.46 9.56ZM314.31-110.6q-14.18 0-24.4-9.62-10.22-9.62-10.22-24.77 0-13.28 10.23-23.54 10.22-10.26 24.6-10.26 14.36 0 24.27 10.26t9.91 23.63q0 15.01-9.91 24.65-9.91 9.65-24.48 9.65Zm331.09 0q-14.68 0-24.63-9.62t-9.95-24.77q0-13.28 9.96-23.54 9.97-10.26 24.72-10.26 14.36 0 24.35 10.26 9.98 10.26 9.98 23.63 0 15.01-9.98 24.65-9.99 9.65-24.45 9.65ZM206.59-226.41q-14.11 0-23.87-9.51-9.76-9.51-9.76-23.92 0-13.83 9.8-23.76 9.8-9.93 23.65-9.93 13.81 0 23.74 9.93 9.93 9.93 9.93 23.69 0 14.58-9.93 24.04-9.93 9.46-23.56 9.46Zm273.68.41q-82.23 0-140.74-54.84-58.52-54.84-58.52-135.51 0-81.94 53.6-155.71 53.6-73.77 116.39-131.68 12.04-11.08 29.05-11.13 17.01-.05 29.39 11.1 61.85 57.94 115.71 131.71 53.86 73.77 53.86 155.71 0 80.67-58.26 135.51Q562.49-226 480.27-226Zm273.39.41q-15.03 0-25.13-9.78-10.09-9.77-10.09-24.57 0-14.06 10.07-24.03 10.08-9.97 25-9.97 14.4 0 24.17 9.92 9.77 9.92 9.77 24.17 0 14.66-9.79 24.46t-24 9.8Zm-166.98-89.37q44.45-41.07 44.45-101.68 0-72.57-51.28-135.73-51.27-63.16-99.85-114.5-48.28 51.34-99.69 114.52-51.41 63.17-51.41 135.71 0 60.61 44.53 101.68 44.53 41.08 106.67 41.08 62.13 0 106.58-41.08ZM480.2-345.03q31.78 0 54.89-22.56 23.12-22.57 23.12-55.79 0-31.95-23.12-55.22-23.11-23.27-55.03-23.27-32.48 0-55.4 23.06t-22.92 55.4q0 32.96 22.99 55.67 22.98 22.71 55.47 22.71Zm-.2-78.23Zm.33-387.59q-14.45 0-24.03-9.46-9.59-9.46-9.59-23.98 0-13.48 9.63-23.57 9.63-10.1 23.81-10.1 13.48 0 23.57 10.1 10.1 10.09 10.1 23.39 0 14.78-10.1 24.2-10.09 9.42-23.39 9.42Z"/></svg>