<svg xmlns="http://www.w3.org/2000/svg" height="48" viewBox="0 -960 960 960" width="48"><path d="M480.05-26Q460-26 447-39.1q-13-13.1-13-32.53 0-20.75 13.1-34.06Q460.2-119 479.63-119q20.75 0 34.06 13.31Q527-92.38 527-72.05 527-52 513.69-39q-13.31 13-33.64 13ZM293.63-65Q274-65 259.5-79.01 245-93.03 245-113.43q0-20.77 14.5-34.67Q274-162 293.63-162q22.75 0 35.56 13.9Q342-134.2 342-113.43q0 20.4-12.81 34.42Q316.38-65 293.63-65Zm370.94-1q-19.52 0-33.04-13.65Q618-93.3 618-113q0-20 13.53-34 13.52-14 33.04-14 21.43 0 35.93 14t14.5 34q0 19.7-14.5 33.35Q686-66 664.57-66ZM173.41-193q-20.41 0-33.91-13.6Q126-220.2 126-240q0-19 13.6-32.5T173-286q19 0 32.5 13.5t13.5 32.09q0 20.41-13.5 33.91Q192-193 173.41-193Zm307.15 1Q386-192 319-253.36T252-408q0-93 57.5-174T436-727q18-17 44.14-17.08 26.15-.07 43.86 17.08 68.86 63.52 126.43 144.76Q708-501 708-408q0 92-66.94 154-66.93 62-160.5 62Zm306.87 1q-20.3 0-34.87-14.22Q738-219.44 738-240.14 738-259 752.56-273q14.57-14 34.87-14 20.57 0 34.07 14t13.5 32.86q0 20.7-13.5 34.92Q808-191 787.43-191ZM480.06-331q34.7 0 59.82-25Q565-381 565-416t-25-60.5Q515-502 480-502t-60.5 25.21Q394-451.59 394-416.3q0 35.3 25.69 60.3 25.68 25 60.37 25Zm.35-516q-19.47 0-32.94-13.6Q434-874.2 434-894q0-19 13.57-32.5T480-940q19 0 33 13.5t14 32.09q0 20.41-14 33.91-14 13.5-32.59 13.5Z"/></svg>