<svg xmlns="http://www.w3.org/2000/svg" height="24" viewBox="0 -960 960 960" width="24"><path d="M480 6q-30 0-51.5-21.5T407-67q0-30 21.5-51.5T480-140q30 0 51.5 21.5T553-67q0 30-21.5 51.5T480 6ZM294-36q-30 0-51.5-21.5T221-110q0-30 21.5-52t51.5-22q30 0 51.5 22t21.5 52q0 31-21.5 52.5T294-36Zm372 0q-30 0-51.5-21.5T593-110q0-30 21.5-52t51.5-22q30 0 51.5 22t21.5 52q0 31-21.5 52.5T666-36ZM160-163q-30 0-51.5-22T87-237q0-30 21.5-51t51.5-21q30 0 51.5 21t21.5 51q0 30-21.5 52T160-163Zm320-4q-104 0-176.5-73T231-417q0-88 54.5-169T409-736q29-29 70.5-29t71.5 29q69 69 123.5 150T729-417q0 104-72.5 177T480-167Zm320 4q-30 0-51.5-22T727-237q0-30 21.5-51t51.5-21q30 0 51.5 21t21.5 51q0 30-21.5 52T800-163ZM480-333q35 0 59-24t24-58q0-35-24-59.5T480-499q-35 0-59 24.5T397-415q0 34 24 58t59 24Zm0-501q-30 0-51.5-21.5T407-907q0-30 21.5-51.5T480-980q30 0 51.5 21.5T553-907q0 30-21.5 51.5T480-834Z"/></svg>