<svg xmlns="http://www.w3.org/2000/svg" height="40" viewBox="0 -960 960 960" width="40"><path d="M479.74-80.67q-12.74 0-20.91-8.25-8.16-8.25-8.16-20.84 0-13.16 8.25-21.7t20.84-8.54q13.83 0 22.03 8.54 8.21 8.54 8.21 21.43 0 12.99-8.21 21.18-8.2 8.18-22.05 8.18Zm-170.96-35.66q-11.78 0-20.95-9.03-9.16-9.03-9.16-22.26 0-13.51 9.13-22.28 9.13-8.77 21.29-8.77 14.83 0 22.37 8.77 7.54 8.77 7.54 22.28 0 13.23-7.54 22.26-7.54 9.03-22.68 9.03Zm341.27-1.34q-12.64 0-21.01-8.45-8.37-8.45-8.37-21.21 0-12.67 8.37-21.5 8.37-8.84 21.01-8.84 13.62 0 22.12 8.84 8.5 8.83 8.5 21.5 0 12.76-8.5 21.21-8.5 8.45-22.12 8.45ZM196.98-232.33q-12.65 0-21.48-8.76-8.83-8.75-8.83-21.58 0-12.66 8.9-20.83 8.9-8.17 21.13-8.17 12.63 0 20.97 8.17 8.33 8.17 8.33 20.85 0 12.98-8.33 21.65-8.34 8.67-20.69 8.67Zm283.51 0q-80.49 0-137.66-51.74-57.16-51.75-57.16-130.6 0-85.33 53.5-156.16 53.5-70.84 114.16-123.5 11-9.67 26.93-9.72 15.93-.05 26.41 9.72 60.24 52.35 113.78 123.34Q674-500 674-414.67q0 78-57.01 130.17-57.01 52.17-136.5 52.17Zm283.13 0q-12.6 0-21.44-8.78-8.85-8.79-8.85-21.65 0-12.57 8.85-20.74 8.84-8.17 21.44-8.17 13.71 0 21.71 8.04 8 8.03 8 20.87 0 12.86-7.86 21.65-7.87 8.78-21.85 8.78Zm-283.47-113q32.03 0 55.6-23.12 23.58-23.12 23.58-54.55 0-33.45-23.5-56.39-23.5-22.94-55.84-22.94-30.32 0-53.49 22.72-23.17 22.73-23.17 56.34 0 31.6 23.42 54.77 23.41 23.17 53.4 23.17Zm.16-455.67q-12.02 0-20.83-9.07-8.81-9.06-8.81-21.3 0-12.63 8.88-20.8 8.88-8.16 20.48-8.16 12.64 0 21.3 8.16Q510-844 510-831.64q0 12.64-8.67 21.64-8.66 9-21.02 9Z"/></svg>