<svg xmlns="http://www.w3.org/2000/svg" height="24" viewBox="0 -960 960 960" width="24"><path d="M480.21-5q-29.25 0-50.23-20.78Q409-46.55 409-75.5q0-29 20.98-49.75T480.21-146q29.29 0 49.54 20.76T550-75.46q0 28.96-20.25 49.71T480.21-5Zm-182-41.5q-29.25 0-50.23-20.5Q227-87.5 227-117.61q0-29.16 20.98-50.52 20.98-21.37 50.23-21.37 29.29 0 49.54 21.37Q368-146.77 368-117.61 368-87.5 347.75-67t-49.54 20.5Zm364 0q-29.25 0-50.23-20.5Q591-87.5 591-117.61q0-29.16 20.98-50.52 20.98-21.37 50.23-21.37 29.29 0 49.54 21.37Q732-146.77 732-117.61 732-87.5 711.75-67t-49.54 20.5ZM164.11-171q-29.11 0-49.61-21T94-242.11q0-29.16 20.5-49.52Q135-312 164.11-312q29.16 0 50.02 20.37Q235-271.27 235-242.11 235-213 214.13-192q-20.86 21-50.02 21Zm315.96-4Q379-175 308.25-244.25T237.5-414q0-89.5 53.25-167.75T411.5-725.5q28-27.5 68.25-27.75t68.75 27.75q67 65.5 120.25 143.75T722-414q0 100.5-70.43 169.75Q581.15-175 480.07-175ZM796-171q-29.16 0-50.08-21Q725-213 725-242.11q0-29.16 20.88-49.52Q766.76-312 795.86-312q29.14 0 49.64 20.37 20.5 20.36 20.5 49.52Q866-213 845.4-192T796-171ZM565.62-330.75Q601-365.5 601-414.5q0-66.5-38.25-119.75T480-626q-44 38.5-82.75 91.5t-38.75 120q0 49 35.75 83.75T480.12-296q50.12 0 85.5-34.75Zm-85.39-5.75q34.27 0 57.52-23.75T561-416.73q0-33.77-23.25-57.77t-57.52-24q-34.25 0-57.74 23.91Q399-450.67 399-416.5q0 32.5 23.49 56.25t57.74 23.75Zm-.23-80Zm-.39-415q-29.11 0-49.61-20.5t-20.5-49.61q0-29.16 20.5-50.02 20.5-20.87 49.61-20.87 29.16 0 50.02 20.87 20.87 20.86 20.87 50.02 0 29.11-20.87 49.61-20.86 20.5-50.02 20.5Z"/></svg>