<svg xmlns="http://www.w3.org/2000/svg" height="48" viewBox="0 -960 960 960" width="48"><path d="M479.61-88Q468-88 461-95.13t-7-18.5q0-11.75 7.13-19.56 7.13-7.81 18.5-7.81 12.75 0 20.06 7.81 7.31 7.81 7.31 19.14 0 11.99-7.31 19.02Q492.38-88 479.61-88Zm-168.44-35Q301-123 293-131.04q-8-8.05-8-20.39 0-11.77 7.95-19.67 7.95-7.9 18.68-7.9 13.75 0 20.56 7.9 6.81 7.9 6.81 19.67 0 12.34-6.81 20.39-6.81 8.04-21.02 8.04Zm336.4-1q-11.46 0-19.01-7.68Q621-139.36 621-151q0-11 7.56-19 7.55-8 19.01-8 12.43 0 19.93 8t7.5 19q0 11.64-7.5 19.32T647.57-124ZM202.46-238Q191-238 183-245.63T175-265q0-11 8.1-18.5t18.95-7.5q10.95 0 18.45 7.5t7.5 18.52q0 11.98-7.5 19.48t-18.04 7.5Zm278.27 0Q402-238 346-288.36 290-338.72 290-416q0-84 53.5-154T457-692q9-8 23.14-8.08 14.15-.07 22.86 8.08 59.86 51.52 113.43 121.76Q670-500 670-416q0 76-55.77 127-55.76 51-133.5 51Zm277.7 0q-11.4 0-19.42-7.67-8.01-7.67-8.01-19.47 0-10.86 8.01-18.36 8.02-7.5 19.42-7.5 12.57 0 19.57 7.3t7 18.56q0 11.8-6.8 19.47-6.8 7.67-19.77 7.67ZM589-314.5Q635-356 635-416q0-84-53.5-142T480-669q-48 53-101.5 111T325-416q0 60 46 101.5T480-273q63 0 109-41.5ZM480.23-347q31.53 0 55.15-22.92Q559-392.85 559-424q0-33.17-23.5-56.09Q512-503 479.99-503 450-503 427-480.41q-23 22.59-23 56.01 0 31.4 23.37 54.4t52.86 23Zm-.23-77Zm.46-374q-10.52 0-18.49-8.1-7.97-8.1-7.97-18.95 0-10.95 8.07-18.45t17.98-7.5q10.95 0 18.95 7.5t8 18.04q0 11.46-8 19.46t-18.54 8Z"/></svg>