<svg xmlns="http://www.w3.org/2000/svg" height="20" viewBox="0 -960 960 960" width="20"><path d="M480-3.74q-26.35 0-45.47-19.13Q415.41-42 415.41-68.36q0-27.64 19.12-46.1 19.12-18.45 45.47-18.45 27.43 0 46.01 18.5 18.58 18.49 18.58 46.14 0 26.38-18.58 45.45Q507.43-3.74 480-3.74ZM291.04-46.98q-26.43 0-46.27-19.62-19.84-19.62-19.84-46.2 0-28.53 19.84-47.56t46.27-19.03q28.44 0 46.13 19.03 17.7 19.03 17.7 47.56 0 26.58-17.7 46.2-17.69 19.62-46.13 19.62Zm376.86-1.76q-26.38 0-44.95-18.69-18.58-18.69-18.58-45.37 0-27.53 18.63-46.56t44.99-19.03q27.64 0 46.6 19.03 18.95 19.03 18.95 46.56 0 26.68-19 45.37-18.99 18.69-46.64 18.69ZM162.93-170.46q-26.34 0-45.46-19.57-19.12-19.58-19.12-46.01 0-27.44 19.12-45.51 19.12-18.08 45.46-18.08 27.44 0 46.02 18.08 18.57 18.07 18.57 45.51 0 26.43-18.57 46.01-18.58 19.57-46.02 19.57Zm317.19-12.95q-100.79 0-172.13-65.76-71.34-65.77-71.34-164.79 0-95.47 56.38-176.62 56.38-81.14 126.38-149.38 25.32-24.19 61.41-24.81 36.09-.62 60.77 23.81 69.24 68.24 125.12 149.88 55.88 81.65 55.88 177.12 0 99.02-71.34 164.79-71.34 65.76-171.13 65.76ZM797-170.46q-26.37 0-45.45-19.57-19.07-19.58-19.07-46.01 0-27.44 19.13-45.51 19.13-18.08 45.49-18.08 27.64 0 46.1 18.08 18.45 18.07 18.45 45.51 0 26.43-18.5 46.01-18.49 19.57-46.15 19.57ZM576.96-324.49q40.45-35.9 40.45-89.47 0-79.76-45.32-134.34-45.33-54.59-92.09-108.44-46.76 53.09-92.47 108.06-45.7 54.96-45.7 134.72 0 53.57 40.8 89.47t97.34 35.9q56.54 0 96.99-35.9ZM480.04-349q31.2 0 54.08-22.88T557-425.76q0-31-22.92-54.12Q511.16-503 479.95-503 449-503 426-479.88q-23 23.12-23 54.12 0 31 23.04 53.88 23.05 22.88 54 22.88Zm-.04-76.76Zm0-415.76q-26.35 0-45.47-19.46-19.12-19.45-19.12-45.9 0-27.72 19.12-45.77Q453.65-970.7 480-970.7q27.43 0 46.01 18.05t18.58 45.77q0 26.45-18.58 45.9-18.58 19.46-46.01 19.46Z"/></svg>