<svg xmlns="http://www.w3.org/2000/svg" height="24" viewBox="0 -960 960 960" width="24"><path d="M480.03-96.77q-11.99 0-20.01-7.95-8.02-7.96-8.02-19.93 0-11.31 8.05-19.41 8.05-8.09 20.16-8.09 11.6 0 19.39 8.1 7.78 8.11 7.78 19.62 0 11.7-7.78 19.68-7.79 7.98-19.57 7.98Zm-156.77-36.81q-11.99 0-20.01-7.68-8.02-7.68-8.02-19.81 0-11.47 8.05-19.68 8.05-8.21 20.17-8.21 11.59 0 19.38 8.21 7.79 8.21 7.79 19.86 0 11.85-7.79 19.58-7.79 7.73-19.57 7.73Zm313.54 0q-11.99 0-20.01-7.68-8.02-7.68-8.02-19.81 0-11.47 8.05-19.68 8.05-8.21 20.16-8.21 11.6 0 19.39 8.21 7.78 8.21 7.78 19.86 0 11.85-7.78 19.58-7.79 7.73-19.57 7.73Zm-416.72-109.8q-11.85 0-19.58-7.69-7.73-7.68-7.73-19.81 0-11.46 7.68-19.68 7.68-8.21 19.82-8.21 11.46 0 19.67 8.21 8.21 8.22 8.21 19.87 0 11.84-8.21 19.57-8.21 7.74-19.86 7.74Zm259.97 0q-76.13 0-130.22-51.14-54.1-51.13-54.1-125.94 0-76.81 51.21-146.17Q398.15-636 457.1-689.44q9.71-8.94 22.84-8.89 13.14.06 23.18 8.83 58.23 53.5 109.63 122.87 51.4 69.36 51.4 146.17 0 74.81-53.99 125.94-53.99 51.14-130.11 51.14Zm259.87 0q-12.16 0-20.12-7.69-7.95-7.68-7.95-19.81 0-11.46 7.96-19.68 7.96-8.21 19.95-8.21 11.78 0 19.62 8.21 7.85 8.22 7.85 19.87 0 11.84-7.89 19.57-7.88 7.74-19.42 7.74Zm-156-77.5q43.31-40.58 43.31-99.85 0-69.65-50.1-130.29-50.09-60.63-97.13-110.21-46.77 49.58-97.06 110.15-50.29 60.58-50.29 130.35 0 59.27 43.45 99.85 43.44 40.57 103.97 40.57 60.54 0 103.85-40.57Zm-103.69-31.47q30.73 0 52.71-21.59 21.98-21.6 21.98-52.79 0-31-21.98-52.85-21.98-21.84-52.9-21.84-30.37 0-51.9 21.76-21.52 21.75-21.52 53.16 0 30.96 21.55 52.56 21.56 21.59 52.06 21.59ZM480-426.5Zm-.19-362.15q-11.85 0-19.58-7.68-7.73-7.69-7.73-19.82 0-11.46 7.68-19.68 7.68-8.21 19.82-8.21 11.46 0 19.67 8.21 8.21 8.22 8.21 19.87 0 11.84-8.21 19.58-8.21 7.73-19.86 7.73Z"/></svg>