<svg xmlns="http://www.w3.org/2000/svg" height="40" viewBox="0 -960 960 960" width="40"><path d="M480.35-29.19q-22.39 0-37.74-15.26-15.35-15.26-15.35-37.15 0-21.68 15.47-37.04T480.05-134q21.97 0 37 15.3 15.02 15.3 15.02 36.84 0 22.43-14.95 37.55-14.95 15.12-36.77 15.12ZM301.21-69.11q-22.12 0-38.13-15.21-16.02-15.21-16.02-38.47 0-21.79 16.07-37.69 16.07-15.9 38.05-15.9 22.64 0 38 15.97 15.36 15.98 15.36 37.6 0 23.28-15.29 38.49t-38.04 15.21Zm357.07 0q-22.26 0-37.87-15.21-15.61-15.21-15.61-38.47 0-21.79 15.66-37.69 15.66-15.9 37.8-15.9 22.63 0 38.32 15.97 15.7 15.98 15.7 37.6 0 23.28-15.62 38.49t-38.38 15.21ZM178.19-192.48q-21.65 0-37.05-15.43-15.39-15.44-15.39-37.16 0-21.84 15.37-37.22 15.37-15.38 36.82-15.38 21.67 0 37.15 15.38 15.47 15.38 15.47 36.95 0 22.12-15.47 37.49-15.48 15.37-36.9 15.37Zm302.07-1.22q-94.14 0-160.5-62.98-66.35-62.99-66.35-155.42 0-89.27 55.04-167.42 55.03-78.15 122.18-141.07 20.57-19.54 49.45-19.91 28.89-.36 49.62 19.91 66.32 62.92 121.52 141.07 55.2 78.15 55.2 167.42 0 92.43-66 155.42-66.01 62.98-160.16 62.98Zm301.82 2.56q-22.83 0-38.74-15.8-15.9-15.8-15.9-38.36 0-22.3 15.86-37.67 15.87-15.36 38.62-15.36 22.49 0 37.74 15.36 15.25 15.37 15.25 37.67 0 22.56-15.42 38.36-15.43 15.8-37.41 15.8ZM579.8-317.48q41.43-38.59 41.43-95.27 0-74.22-46.67-133.84-46.67-59.62-94.56-106.69-47.54 47.07-94.47 106.61-46.93 59.53-46.93 133.92 0 56.68 41.73 95.27 41.72 38.6 99.88 38.6t99.59-38.6Zm-99.65-19.15q33.61 0 57.39-23.86t23.78-57.67q0-33.31-23.78-57.88-23.78-24.56-57.39-24.56-34.36 0-58.58 24.36t-24.22 58.07q0 33.58 24.22 57.56 24.22 23.98 58.58 23.98Zm-.15-81.42Zm.19-416.57q-21.98 0-37.2-14.98-15.23-14.99-15.23-37.04 0-21.51 15.2-37.15 15.2-15.64 36.99-15.64 21.34 0 36.98 15.57 15.64 15.57 15.64 36.92 0 22.58-15.64 37.45-15.64 14.87-36.74 14.87Z"/></svg>