<svg xmlns="http://www.w3.org/2000/svg" height="48" viewBox="0 -960 960 960" width="48"><path d="M479.71-73.69q-13.56 0-21.94-8.51-8.39-8.51-8.39-21.74 0-13.82 8.51-22.9 8.51-9.08 21.74-9.08 14.6 0 23.29 9.08 8.7 9.08 8.7 22.48 0 13.85-8.7 22.26-8.69 8.41-23.21 8.41Zm-172.59-35.93q-12.35 0-21.85-9.42-9.5-9.42-9.5-23.62 0-13.85 9.46-23.13 9.46-9.29 22.25-9.29 15.82 0 24.02 9.29 8.19 9.28 8.19 23.13 0 14.2-8.19 23.62-8.2 9.42-24.38 9.42Zm344.37-1q-13.32 0-22.25-9.05-8.93-9.06-8.93-22.56 0-13.08 8.93-22.46 8.93-9.39 22.25-9.39 14.51 0 23.63 9.39 9.11 9.38 9.11 22.46 0 13.5-9.11 22.56-9.12 9.05-23.63 9.05Zm-455.73-117q-13.53 0-22.8-9-9.27-9.01-9.27-22.61 0-12.85 9.37-21.73 9.37-8.89 22.29-8.89 12.8 0 21.69 8.89 8.88 8.88 8.88 21.65 0 13.93-8.88 22.81-8.89 8.88-21.28 8.88Zm284.93.24q-82.38 0-140.92-52.9-58.54-52.9-58.54-133.87 0-86.08 54.42-158.62 54.43-72.54 116.5-127.31 11.08-10.07 27.99-10.15 16.92-.07 27.71 10.15 61.94 54.3 116.43 127.07 54.49 72.78 54.49 158.86 0 79.69-58.35 133.23-58.34 53.54-139.73 53.54Zm284.43.23q-13.45 0-22.98-9.19-9.52-9.18-9.52-23.03 0-12.71 9.52-21.71 9.53-9 22.98-9 14.42 0 22.92 8.85 8.5 8.85 8.5 21.86 0 13.85-8.35 23.03-8.34 9.19-23.07 9.19ZM480.19-343.31q32.27 0 56.23-23.4 23.96-23.41 23.96-55.44 0-33.6-23.84-57.11-23.85-23.51-56.55-23.51-31.14 0-54.72 23.19t-23.58 57.05q0 32.3 23.91 55.76 23.9 23.46 54.59 23.46Zm.26-466q-12.59 0-21.83-9.37-9.24-9.37-9.24-22.28 0-12.81 9.34-21.69 9.34-8.89 21.32-8.89 12.81 0 22.19 8.89 9.39 8.88 9.39 21.27 0 13.53-9.39 22.8-9.38 9.27-21.78 9.27Z"/></svg>