<svg xmlns="http://www.w3.org/2000/svg" height="20" viewBox="0 -960 960 960" width="20"><path d="M480-98q-11.54 0-19.38-7.85-7.85-7.84-7.85-19.38 0-12.31 7.85-19.77 7.84-7.46 19.38-7.46 12.31 0 19.77 7.46 7.46 7.46 7.46 19.77 0 11.54-7.46 19.38Q492.31-98 480-98Zm-157.23-38.92q-11.54 0-19.39-7.85-7.84-7.85-7.84-19.38 0-12.31 7.84-19.77 7.85-7.46 19.39-7.46 12.31 0 19.77 7.46 7.46 7.46 7.46 19.77 0 11.53-7.46 19.38t-19.77 7.85Zm314.46 0q-11.54 0-19.38-7.85-7.85-7.85-7.85-19.38 0-12.31 7.85-19.77 7.84-7.46 19.38-7.46 12.31 0 19.77 7.46 7.46 7.46 7.46 19.77 0 11.53-7.46 19.38t-19.77 7.85ZM221.69-242.46q-11.54 0-19.38-7.85-7.85-7.84-7.85-19.38 0-12.31 7.85-19.77 7.84-7.46 19.38-7.46 12.31 0 19.77 7.46 7.46 7.46 7.46 19.77 0 11.54-7.46 19.38-7.46 7.85-19.77 7.85Zm258.31-12q-75.92 0-130.19-48.85-54.27-48.84-54.27-123 0-79.69 52.58-148.34 52.57-68.66 112.42-123.12 8.54-7 20.34-7.88 11.81-.89 19.58 6.88 59.85 54.46 111.92 123.62 52.08 69.15 52.08 148.84 0 74.16-54.27 123-54.27 48.85-130.19 48.85Zm258.31 12q-11.54 0-19.39-7.85-7.84-7.84-7.84-19.38 0-12.31 7.84-19.77 7.85-7.46 19.39-7.46 12.31 0 19.77 7.46 7.46 7.46 7.46 19.77 0 11.54-7.46 19.38-7.46 7.85-19.77 7.85Zm-151.04-84.16q45.19-40.15 45.19-99.46 0-78.84-51.46-135.69-51.46-56.85-101-113.15-48.77 56.3-100.62 113.15-51.84 56.85-51.84 135.69 0 59.31 45.19 99.46 45.19 40.16 107.27 40.16t107.27-40.16ZM480-370q27.46 0 47.81-19.85 20.34-19.84 20.34-47.53 0-28.24-20.34-48.2-20.35-19.96-47.81-19.96-26.92 0-46.77 19.96t-19.85 48.2q0 27.69 19.85 47.53Q453.08-370 480-370Zm0-67.38ZM480-786q-11.54 0-19.38-7.85-7.85-7.84-7.85-19.38 0-12.31 7.85-19.77 7.84-7.46 19.38-7.46 12.31 0 19.77 7.46 7.46 7.46 7.46 19.77 0 11.54-7.46 19.38Q492.31-786 480-786Z"/></svg>