<svg xmlns="http://www.w3.org/2000/svg" height="20" viewBox="0 -960 960 960" width="20"><path d="M480-113q-9 0-15-6t-6-15q0-10 6-15.5t15-5.5q10 0 15.5 5.5T501-134q0 9-5.5 15t-15.5 6Zm-154-38q-9 0-15-6t-6-15q0-10 6-15.5t15-5.5q10 0 15.5 5.5T347-172q0 9-5.5 15t-15.5 6Zm308 0q-9 0-15-6t-6-15q0-10 6-15.5t15-5.5q10 0 15.5 5.5T655-172q0 9-5.5 15t-15.5 6ZM227-254q-9 0-15-6t-6-15q0-10 6-15.5t15-5.5q10 0 15.5 5.5T248-275q0 9-5.5 15t-15.5 6Zm253-12q-72 0-123.5-45.5T305-427q0-79 52-145t110-117q6-4 14-5t13 4q58 51 109.5 117.5T655-427q0 70-51.5 115.5T480-266Zm253 12q-9 0-15-6t-6-15q0-10 6-15.5t15-5.5q10 0 15.5 5.5T754-275q0 9-5.5 15t-15.5 6ZM480-373q27 0 47-19.5t20-46.5q0-28-20-47.5T480-506q-26 0-45.5 19.5T415-439q0 27 19.5 46.5T480-373Zm0-404q-9 0-15-6t-6-15q0-10 6-15.5t15-5.5q10 0 15.5 5.5T501-798q0 9-5.5 15t-15.5 6Z"/></svg>