<svg xmlns="http://www.w3.org/2000/svg" height="20" viewBox="0 -960 960 960" width="20"><path d="M480.21-104.77q-11.17 0-18.69-7.5-7.52-7.51-7.52-18.38 0-11.31 7.52-18.41 7.52-7.09 18.69-7.09 11.6 0 18.39 7.1 6.78 7.11 6.78 18.43 0 10.89-6.78 18.37-6.79 7.48-18.39 7.48Zm-154.76-38.81q-11.18 0-18.7-7.23t-7.52-18.26q0-11.47 7.52-18.68 7.52-7.21 18.7-7.21 11.59 0 18.38 7.21 6.79 7.21 6.79 18.68 0 11.03-6.79 18.26-6.79 7.23-18.38 7.23Zm309.53 0q-11.17 0-18.69-7.23-7.52-7.23-7.52-18.26 0-11.47 7.52-18.68 7.52-7.21 18.69-7.21 11.6 0 18.39 7.21 6.78 7.21 6.78 18.68 0 11.03-6.78 18.26-6.79 7.23-18.39 7.23Zm-410.71-103.8q-11.04 0-18.27-7.24-7.23-7.23-7.23-18.26 0-11.46 7.23-18.68 7.23-7.21 18.27-7.21 11.46 0 18.67 7.21 7.21 7.22 7.21 18.68 0 11.03-7.21 18.26-7.21 7.24-18.67 7.24Zm255.8-12q-74.15 0-127.24-46.64-53.1-46.63-53.1-118.44 0-80.81 51.71-147.67Q403.15-639 462.27-691.5q7.54-5.88 18.67-6.83 11.14-.94 18.18 5.83 58.23 52.5 109.63 119.87 51.4 67.36 51.4 148.17 0 71.81-52.96 118.44-52.97 46.64-127.12 46.64Zm255.78 12q-11.09 0-18.55-7.24-7.45-7.23-7.45-18.26 0-11.46 7.41-18.68 7.42-7.21 18.44-7.21 11.84 0 18.68 7.21 6.85 7.22 6.85 18.68 0 11.03-6.95 18.26-6.94 7.24-18.43 7.24ZM480.23-372.35q26.73 0 46.71-19.59 19.98-19.6 19.98-46.79 0-27-19.98-46.85-19.98-19.84-46.71-19.84-26.56 0-46.09 19.76-19.52 19.75-19.52 47.16 0 26.96 19.52 46.56 19.53 19.59 46.09 19.59Zm-.23-412.3q-11.04 0-18.27-7.23-7.23-7.24-7.23-18.27 0-11.46 7.23-18.68 7.23-7.21 18.27-7.21 11.46 0 18.67 7.21 7.21 7.22 7.21 18.68 0 11.03-7.21 18.27-7.21 7.23-18.67 7.23Z"/></svg>