<svg xmlns="http://www.w3.org/2000/svg" height="40" viewBox="0 -960 960 960" width="40"><path d="M479.92-41.9q-18.46 0-30.73-12.34-12.27-12.35-12.27-30.49 0-18.91 12.35-31.45 12.34-12.54 30.49-12.54 19.16 0 31.57 12.54t12.41 31.17q0 18.56-12.41 30.83-12.41 12.28-31.41 12.28ZM298.71-80.03q-17.91 0-31.39-13.12-13.47-13.12-13.47-31.91 0-19.25 13.46-32.23 13.46-12.97 31.52-12.97 20.58 0 32.32 12.97 11.75 12.98 11.75 32.23 0 18.79-11.75 31.91-11.74 13.12-32.44 13.12Zm361.18-1.33q-18.2 0-30.66-12.54-12.46-12.55-12.46-30.87 0-18.41 12.46-31.45t30.66-13.04q19.37 0 32.48 13.04 13.12 13.04 13.12 31.45 0 18.32-13.12 30.87-13.11 12.54-32.48 12.54ZM180.34-203.62q-18.57 0-31.3-12.84t-12.73-31.23q0-18 12.8-30.37 12.79-12.38 30.95-12.38 17.99 0 30.53 12.38 12.54 12.37 12.54 30.2 0 18.71-12.54 31.47-12.54 12.77-30.25 12.77Zm300.08.41q-90.47 0-154.61-59.22-64.14-59.23-64.14-148.34 0-89.64 55.65-167.34 55.66-77.71 121.66-138.38 16.94-16.02 41.18-15.97 24.24.05 40.86 15.97 65.58 60.35 121.28 138.22 55.7 77.86 55.7 167.5 0 88.26-64.06 147.91-64.05 59.65-153.52 59.65Zm299.81.41q-18.5 0-31.67-13.11-13.18-13.1-13.18-31.88 0-17.9 13.18-30.48 13.17-12.58 31.67-12.58 19.05 0 31.46 12.53 12.41 12.52 12.41 30.53 0 18.78-12.36 31.88-12.36 13.11-31.51 13.11ZM585.96-311.12q44.45-40.32 44.45-99.78 0-79.41-51.17-140.72-51.16-61.3-99.24-114.1-48.28 52.46-99.51 113.94-51.23 61.47-51.23 140.88 0 59.46 44.61 99.78 44.62 40.33 106.13 40.33t105.96-40.33ZM480.08-336.1q33.74 0 58.24-24.28 24.5-24.27 24.5-57.9 0-34.41-24.42-58.82-24.43-24.41-58.4-24.41-33.2 0-57.7 24.21t-24.5 58.79q0 33.82 24.67 58.11 24.67 24.3 57.61 24.3Zm-.08-82.18Zm.29-410.82q-17.94 0-30.66-12.97-12.71-12.96-12.71-31.12 0-17.99 12.78-30.36 12.78-12.37 30.31-12.37 17.99 0 30.86 12.37 12.87 12.37 12.87 30.08 0 18.57-12.87 31.47-12.87 12.9-30.58 12.9Z"/></svg>