<svg xmlns="http://www.w3.org/2000/svg" height="40" viewBox="0 -960 960 960" width="40"><path d="M479.95-108.17q-9.15 0-14.88-5.79-5.74-5.8-5.74-15.21 0-7.66 5.86-13.91t15.02-6.25q8.62 0 14.46 6.26 5.83 6.26 5.83 13.91 0 9.45-5.83 15.22-5.84 5.77-14.72 5.77Zm-156.96-35.66q-8.19 0-14.26-5.8-6.06-5.8-6.06-15.77 0-7.53 6.07-13.9t14.81-6.37q8.62 0 14.78 6.37 6.17 6.37 6.17 14.15 0 9.59-6.17 15.45-6.16 5.87-15.34 5.87Zm313.65 0q-9.28 0-15.29-5.8-6.02-5.8-6.02-15.77 0-7.53 6.06-13.9 6.05-6.37 15.49-6.37 8.62 0 14.45 6.37 5.84 6.37 5.84 14.15 0 9.59-5.84 15.45-5.83 5.87-14.69 5.87Zm-414.8-108.84q-8.34 0-14.51-5.68-6.16-5.69-6.16-14.93 0-8.49 6.16-14.52 6.17-6.03 14.48-6.03 8.46 0 14.49 6.03 6.03 6.03 6.03 14.78 0 9.02-6.03 14.69-6.03 5.66-14.46 5.66Zm258.47 0q-73.14 0-125.14-48.58t-52-119.92q0-77.33 51.75-145 51.75-67.66 109.69-118.76Q470.83-690 480-690q9.17 0 16 5 56.83 51.17 109 118.83 52.17 67.67 52.17 145 0 71.34-51.86 119.92-51.85 48.58-125 48.58Zm258.02 0q-9.49 0-15.41-5.71-5.92-5.72-5.92-14.99 0-8.73 5.94-14.6 5.94-5.86 15.23-5.86 9.33 0 15 5.73 5.66 5.73 5.66 14.97 0 8.9-5.55 14.68-5.56 5.78-14.95 5.78Zm-149.69-65.29Q634-360.08 634-421.67q0-75.33-52.92-135.41Q528.17-617.17 480-669.33q-47.67 52.16-100.67 112.41t-53 135.25q0 61.59 45.25 103.71 45.25 42.13 108.48 42.13 63.23 0 108.58-42.13Zm-108.37-35.37q30.07 0 52.57-21.41 22.49-21.41 22.49-53.05 0-30.99-22.49-53.1Q510.34-503 479.9-503q-29.75 0-51.49 21.88-21.74 21.89-21.74 53.25 0 31.37 21.9 52.95 21.9 21.59 51.7 21.59Zm-.27-74.34Zm.51-356q-8.68 0-14.68-5.83-6-5.84-6-14.81 0-8.12 6.01-14.32 6-6.2 14.64-6.2 8.12 0 14.32 6.2 6.2 6.2 6.2 14.29 0 9.01-6.2 14.84t-14.29 5.83Z"/></svg>