<svg xmlns="http://www.w3.org/2000/svg" height="20" viewBox="0 -960 960 960" width="20"><path d="M480-2q-29 0-50-21t-21-50q0-30 21-50.5t50-20.5q30 0 50.5 20.5T551-73q0 29-20.5 50T480-2ZM296-46q-29 0-50-21t-21-51q0-30 21-51t50-21q30 0 50.5 21t20.5 51q0 30-20.5 51T296-46Zm368 0q-29 0-50-21t-21-51q0-30 21-51t50-21q30 0 50.5 21t20.5 51q0 30-20.5 51T664-46ZM164-167q-29 0-50-21.5T93-239q0-30 21-50t50-20q30 0 50.5 20t20.5 50q0 29-20.5 50.5T164-167Zm316-16q-102 0-173.5-68.5T235-421q0-92 55-170.5T414-738q27-26 66.5-27t66.5 26q69 68 123.5 147T725-421q0 101-71.5 169.5T480-183Zm316 16q-29 0-50-21.5T725-239q0-30 21-50t50-20q30 0 50.5 20t20.5 50q0 29-20.5 50.5T796-167ZM480-353q31 0 53-22t22-52q0-31-22-53.5T480-503q-31 0-53 22.5T405-427q0 30 22 52t53 22Zm0-477q-29 0-50-21t-21-50q0-30 21-50.5t50-20.5q30 0 50.5 20.5T551-901q0 29-20.5 50T480-830Z"/></svg>