<svg xmlns="http://www.w3.org/2000/svg" height="24" viewBox="0 -960 960 960" width="24"><path d="M480-105q-10 0-16.5-6.5T457-128q0-10 6.5-16.5T480-151q10 0 16.5 6.5T503-128q0 10-6.5 16.5T480-105Zm-156-36q-10 0-16.5-6.5T301-164q0-10 6.5-16.5T324-187q10 0 16.5 6.5T347-164q0 10-6.5 16.5T324-141Zm312 0q-10 0-16.5-6.5T613-164q0-10 6.5-16.5T636-187q10 0 16.5 6.5T659-164q0 10-6.5 16.5T636-141ZM223-250q-10 0-16.5-6.5T200-273q0-10 6.5-16.5T223-296q10 0 16.5 6.5T246-273q0 10-6.5 16.5T223-250Zm257 0q-74 0-126.5-50T301-423q0-75 51.5-143.5T462-687q8-7 18-7t18 7q58 52 109.5 120.5T659-423q0 73-52.5 123T480-250Zm257 0q-10 0-16.5-6.5T714-273q0-10 6.5-16.5T737-296q10 0 16.5 6.5T760-273q0 10-6.5 16.5T737-250Zm-150.5-70Q631-362 631-423q0-70-51.5-131.5T480-667q-48 51-99.5 112.5T329-423q0 61 44.5 103T480-278q62 0 106.5-42ZM480-353q31 0 53-21.5t22-52.5q0-32-22-53.5T480-502q-30 0-51.5 21.5T407-427q0 31 21.5 52.5T480-353Zm0-74Zm0-354q-10 0-16.5-6.5T457-804q0-10 6.5-16.5T480-827q10 0 16.5 6.5T503-804q0 10-6.5 16.5T480-781Z"/></svg>