<svg xmlns="http://www.w3.org/2000/svg" version="1.1" width="3300" height="2000"><g id="Notes"><style>
    text {
      font-family: monospace;
      text-anchor: middle;
    }
    text.emphasis {
      font-weight:bold;
    }
    text.lanchor {
      text-anchor: start;
    }
  </style><rect height="2200" id="artboard" fill="white" width="3300" x="0" y="0"/><line id="" style="fill:none;stroke:black;stroke-width:0.5;" x1="263" x2="3036" y1="292" y2="292"/><text class="lanchor emphasis" transform="matrix(1 0 0 1 263 322)">Weight/Scale Variations</text><text transform="matrix(1 0 0 1 559.711 322)">Ultralight</text><text transform="matrix(1 0 0 1 856.422 322)">Thin</text><text transform="matrix(1 0 0 1 1153.13 322)">Light</text><text transform="matrix(1 0 0 1 1449.84 322)">Regular</text><text transform="matrix(1 0 0 1 1746.56 322)">Medium</text><text transform="matrix(1 0 0 1 2043.27 322)">Semibold</text><text transform="matrix(1 0 0 1 2339.98 322)">Bold</text><text transform="matrix(1 0 0 1 2636.69 322)">Heavy</text><text transform="matrix(1 0 0 1 2933.4 322)">Black</text><text id="template-version" style="text-anchor: end;" transform="matrix(1 0 0 1 3036 1933)">Template v.1.0</text><text class="lanchor" transform="matrix(1 0 0 1 263 726)">Small</text><text class="lanchor" transform="matrix(1 0 0 1 263 1156)">Medium</text><text class="lanchor" transform="matrix(1 0 0 1 263 1586)">Large</text></g><g id="Guides"><g id="H-reference" style="fill:#27AAE1;stroke:none;" transform="matrix(1 0 0 1 339 696)"><path d="M 54.9316 0 L 57.666 0 L 30.5664 -70.459 L 28.0762 -70.459 L 0.976562 0 L 3.66211 0 L 12.9395 -24.4629 L 45.7031 -24.4629 Z M 29.1992 -67.0898 L 29.4434 -67.0898 L 44.8242 -26.709 L 13.8184 -26.709 Z"/></g><line id="Baseline-S" style="fill:none;stroke:#27AAE1;opacity:1;stroke-width:0.577;" x1="263" x2="3036" y1="696" y2="696"/><line id="Capline-S" style="fill:none;stroke:#27AAE1;opacity:1;stroke-width:0.577;" x1="263" x2="3036" y1="625.541" y2="625.541"/><g id="H-reference" style="fill:#27AAE1;stroke:none;" transform="matrix(1 0 0 1 339 1126)"><path d="M 54.9316 0 L 57.666 0 L 30.5664 -70.459 L 28.0762 -70.459 L 0.976562 0 L 3.66211 0 L 12.9395 -24.4629 L 45.7031 -24.4629 Z M 29.1992 -67.0898 L 29.4434 -67.0898 L 44.8242 -26.709 L 13.8184 -26.709 Z"/></g><line id="Baseline-M" style="fill:none;stroke:#27AAE1;opacity:1;stroke-width:0.577;" x1="263" x2="3036" y1="1126" y2="1126"/><line id="Capline-M" style="fill:none;stroke:#27AAE1;opacity:1;stroke-width:0.577;" x1="263" x2="3036" y1="1055.54" y2="1055.54"/><g id="H-reference" style="fill:#27AAE1;stroke:none;" transform="matrix(1 0 0 1 339 1556)"><path d="M 54.9316 0 L 57.666 0 L 30.5664 -70.459 L 28.0762 -70.459 L 0.976562 0 L 3.66211 0 L 12.9395 -24.4629 L 45.7031 -24.4629 Z M 29.1992 -67.0898 L 29.4434 -67.0898 L 44.8242 -26.709 L 13.8184 -26.709 Z"/></g><line id="Baseline-L" style="fill:none;stroke:#27AAE1;opacity:1;stroke-width:0.577;" x1="263" x2="3036" y1="1556" y2="1556"/><line id="Capline-L" style="fill:none;stroke:#27AAE1;opacity:1;stroke-width:0.577;" x1="263" x2="3036" y1="1485.54" y2="1485.54"/><rect height="119.336" id="left-margin" style="fill:darkred;stroke:none;opacity:0.4;" width="12.4512" x="1394.06" y="1030.79"/><rect height="119.336" id="right-margin" style="fill:darkgreen;stroke:none;opacity:0.4;" width="12.4512" x="1502.5112" y="1030.79"/><rect x="1406.5112" y="1045" width="96" height="96" fill="none" stroke="blue" stroke-dasharray="5"/><rect x="1394.06" y="1030.79" width="120.9024" height="119.336" fill="none" stroke="blue"/></g><g id="Symbols"><g id="Bold-L" transform="matrix(1 0 0 1 2266 1556)"><path d="M50.633 -66.674 Q44.666 -66.674 40.474 -70.866 Q36.281 -75.059 36.281 -81.025 Q36.281 -87.072 40.474 -91.466 Q44.666 -95.86 50.633 -95.86 Q56.679 -95.86 61.073 -91.466 Q65.468 -87.072 65.468 -81.025 Q65.468 -75.059 61.073 -70.866 Q56.679 -66.674 50.633 -66.674 Z M125.13 39.268  106.022 5.808 H57.808 Q53.454 5.808 50.229 3.43 Q47.004 1.051 46.44 -2.819 L39.103 -41.519 Q37.41 -49.662 43.215 -55.547 Q49.02 -61.433 57.889 -61.433 Q61.356 -61.433 64.258 -59.7 Q67.161 -57.966 69.741 -55.951 L89.01 -38.294 L103.361 -49.501 L97.556 -52.322 Q96.105 -53.129 95.662 -54.782 Q95.218 -56.434 96.186 -57.724 L106.103 -73.688 Q106.828 -74.897 108.078 -75.18 Q109.328 -75.462 110.779 -74.897 L119.889 -70.141 Q121.179 -69.173 121.462 -67.601 Q121.744 -66.029 120.938 -64.819 L111.666 -48.614 L115.455 -44.663 L87.801 -22.249 L76.674 -29.667 L80.383 -11.768 H102.152 Q106.264 -11.768 108.723 -9.551 Q111.182 -7.334 113.359 -3.464 L135.127 33.866 L125.13 39.268 Z M88.607 26.045 H44.344 Q37.894 26.045 34.225 22.659 Q30.557 19.273 29.428 13.064 L14.513 -61.433 H27.977 L41.844 13.064 Q41.844 13.064 41.844 13.064 Q41.844 13.064 41.844 13.064 H88.607 V26.045 Z"/></g><g id="Semibold-L" transform="matrix(1 0 0 1 1970.27 1556)"><path d="M47.898 -66.814 Q42.283 -66.814 38.3 -70.797 Q34.319 -74.778 34.319 -80.395 Q34.319 -86.09 38.3 -90.239 Q42.283 -94.388 47.898 -94.388 Q53.595 -94.388 57.744 -90.239 Q61.893 -86.09 61.893 -80.395 Q61.893 -74.778 57.744 -70.797 Q53.595 -66.814 47.898 -66.814 Z M123.938 38.777  104.971 5.668 H55.846 Q51.561 5.668 48.336 3.289 Q45.111 0.911 44.478 -2.959 L37 -42.36 Q35.377 -50.152 40.832 -55.864 Q46.285 -61.573 54.664 -61.573 Q58.131 -61.573 61.104 -59.945 Q64.076 -58.316 66.446 -56.02 L84.593 -36.612 L100.626 -48.659 L94.752 -51.481 Q93.581 -52.147 93.207 -53.485 Q92.835 -54.822 93.522 -55.902 L102.387 -71.795 Q102.973 -72.864 104.047 -73.146 Q105.12 -73.429 106.362 -72.935 L115.332 -68.388 Q116.413 -67.632 116.695 -66.338 Q116.977 -65.047 116.381 -64.049 L108.16 -48.404 L111.669 -44.102 L82.963 -21.688 L73.59 -28.195 L77.089 -11.138 H100.96 Q104.651 -11.138 107.075 -9.061 Q109.5 -6.984 111.396 -3.604 L133.165 33.725 L123.938 38.777 Z M86.644 24.292 H42.101 Q36.631 24.292 33.35 21.256 Q30.067 18.221 29.078 12.924 L14.163 -61.573 H26.014 L39.882 12.924 Q39.882 12.924 39.882 12.924 Q39.882 12.924 39.882 12.924 H86.644 V24.292 Z"/></g><g id="Medium-L" transform="matrix(1 0 0 1 1674.31 1556)"><path d="M45.848 -66.919 Q40.495 -66.919 36.67 -70.744 Q32.847 -74.569 32.847 -79.92 Q32.847 -85.355 36.67 -89.318 Q40.495 -93.283 45.848 -93.283 Q51.281 -93.283 55.246 -89.318 Q59.211 -85.355 59.211 -79.92 Q59.211 -74.569 55.246 -70.744 Q51.281 -66.919 45.848 -66.919 Z M123.045 38.408  104.182 5.563 H54.373 Q50.142 5.563 46.917 3.185 Q43.692 0.806 43.005 -3.064 L35.422 -42.991 Q33.851 -50.521 39.043 -56.099 Q44.236 -61.678 52.245 -61.678 Q55.712 -61.678 58.737 -60.129 Q61.762 -58.579 63.974 -56.073 L81.281 -35.349 L98.577 -48.028 L92.649 -50.85 Q91.688 -51.411 91.367 -52.511 Q91.047 -53.612 91.524 -54.535 L99.599 -70.376 Q100.08 -71.339 101.023 -71.621 Q101.966 -71.903 103.05 -71.463 L111.914 -67.074 Q112.836 -66.474 113.118 -65.392 Q113.401 -64.311 112.962 -63.47 L105.532 -48.246 L108.829 -43.681 L79.335 -21.267 L71.276 -27.09 L74.617 -10.664 H100.067 Q103.442 -10.664 105.84 -8.691 Q108.237 -6.721 109.924 -3.709 L131.693 33.621 L123.045 38.408 Z M85.172 22.978 H40.417 Q35.685 22.978 32.692 20.205 Q29.697 17.433 28.815 12.819 L13.9 -61.678 H24.542 L38.41 12.819 Q38.41 12.819 38.41 12.819 Q38.41 12.819 38.41 12.819 H85.172 V22.978 Z"/></g><g id="Regular-L" transform="matrix(1 0 0 1 1378.56 1556)"><path d="M44.344 -66.996 Q39.184 -66.996 35.475 -70.705 Q31.766 -74.414 31.766 -79.574 Q31.766 -84.814 35.475 -88.644 Q39.184 -92.474 44.344 -92.474 Q49.584 -92.474 53.414 -88.644 Q57.244 -84.814 57.244 -79.574 Q57.244 -74.414 53.414 -70.705 Q49.584 -66.996 44.344 -66.996 Z M122.389 38.139  103.603 5.486 H53.293 Q49.101 5.486 45.876 3.107 Q42.651 0.729 41.925 -3.141 L34.266 -43.454 Q32.734 -50.791 37.733 -56.273 Q42.731 -61.756 50.471 -61.756 Q53.938 -61.756 57.002 -60.264 Q60.066 -58.772 62.162 -56.112 L78.851 -34.424 L97.073 -47.566 L91.106 -50.387 Q90.3 -50.871 90.018 -51.798 Q89.736 -52.726 90.058 -53.532 L97.556 -69.334 Q97.959 -70.221 98.806 -70.503 Q99.653 -70.786 100.62 -70.382 L109.408 -66.109 Q110.214 -65.626 110.497 -64.698 Q110.779 -63.771 110.456 -63.046 L103.603 -48.13 L106.748 -43.373 L76.674 -20.959 L69.579 -26.281 L72.804 -10.317 H99.411 Q102.555 -10.317 104.933 -8.422 Q107.312 -6.527 108.844 -3.786 L130.613 33.543 L122.389 38.139 Z M84.092 22.014 H39.184 Q34.991 22.014 32.21 19.434 Q29.428 16.854 28.622 12.742 L13.706 -61.756 H23.462 L37.329 12.742 Q37.329 12.742 37.329 12.742 Q37.329 12.742 37.329 12.742 H84.092 V22.014 Z"/></g><g id="Light-L" transform="matrix(1 0 0 1 1082.77 1556)"><path d="M44.592 -65.321 Q39.711 -65.321 36.297 -68.767 Q32.882 -72.213 32.882 -77.031 Q32.882 -81.868 36.297 -85.403 Q39.711 -88.939 44.592 -88.939 Q49.43 -88.939 52.964 -85.403 Q56.499 -81.868 56.499 -77.031 Q56.499 -72.213 52.964 -68.767 Q49.43 -65.321 44.592 -65.321 Z M120.155 35.596  102.455 4.958 H52.705 Q48.915 4.958 46.061 2.812 Q43.209 0.667 42.607 -2.769 L34.886 -42.399 Q33.416 -49.115 37.903 -54.149 Q42.389 -59.182 49.447 -59.182 Q52.666 -59.182 55.528 -57.768 Q58.39 -56.354 60.425 -53.879 L78.014 -32.502 L96.608 -46.48 L90.115 -49.643 Q89.276 -50.159 89.057 -51.008 Q88.836 -51.856 89.189 -52.695 L95.726 -66.667 Q96.068 -67.554 96.929 -67.82 Q97.792 -68.088 98.79 -67.685 L106.523 -63.815 Q107.362 -63.3 107.597 -62.418 Q107.833 -61.538 107.48 -60.812 L101.278 -47.075 L103.895 -43.373 L76.426 -21.456 L66.851 -28.886 L71.161 -8.611 H97.58 Q100.291 -8.611 102.499 -6.981 Q104.706 -5.349 106.053 -2.856 L126.394 32.085 L120.155 35.596 Z M83.937 19.098 H41.509 Q37.441 19.098 34.628 16.596 Q31.816 14.093 31.01 10.168 L16.622 -61.601 H23.989 L37.608 10.044 Q37.733 10.788 38.477 11.408 Q39.221 12.029 39.966 12.029 H83.937 V19.098 Z"/></g><g id="Thin-L" transform="matrix(1 0 0 1 787.282 1556)"><path d="M44.84 -63.647 Q40.238 -63.647 37.118 -66.829 Q34 -70.01 34 -74.488 Q34 -78.922 37.118 -82.163 Q40.238 -85.403 44.84 -85.403 Q49.275 -85.403 52.514 -82.163 Q55.755 -78.922 55.755 -74.488 Q55.755 -70.01 52.514 -66.829 Q49.275 -63.647 44.84 -63.647 Z M117.924 33.053  101.309 4.431 H52.114 Q48.728 4.431 46.248 2.519 Q43.766 0.605 43.289 -2.396 L35.506 -41.345 Q34.098 -47.441 38.074 -52.024 Q42.049 -56.609 48.425 -56.609 Q51.395 -56.609 54.056 -55.272 Q56.716 -53.935 58.689 -51.647 L77.177 -30.578 L96.142 -45.395 L89.121 -48.899 Q88.254 -49.444 88.096 -50.217 Q87.938 -50.989 88.321 -51.858 L93.897 -64 Q94.176 -64.887 95.054 -65.139 Q95.931 -65.39 96.961 -64.987 L103.64 -61.52 Q104.509 -60.974 104.698 -60.14 Q104.887 -59.306 104.503 -58.581 L98.951 -46.021 L101.042 -43.373 L76.178 -21.951 L64.121 -31.491 L69.518 -6.906 H95.752 Q98.027 -6.906 100.065 -5.539 Q102.102 -4.17 103.261 -1.925 L122.178 30.628 L117.924 33.053 Z M83.782 16.185 H43.836 Q39.89 16.185 37.047 13.759 Q34.204 11.334 33.398 7.595 L19.535 -61.446 H24.516 L37.887 7.346 Q38.136 8.835 39.624 10.075 Q41.112 11.315 42.601 11.315 H83.782 V16.185 Z"/></g><g id="Ultralight-L" transform="matrix(1 0 0 1 491.205 1556)"><path d="M44.989 -62.642 Q40.554 -62.642 37.612 -65.666 Q34.669 -68.689 34.669 -72.962 Q34.669 -77.155 37.612 -80.219 Q40.554 -83.282 44.989 -83.282 Q49.181 -83.282 52.245 -80.219 Q55.309 -77.155 55.309 -72.962 Q55.309 -68.689 52.245 -65.666 Q49.181 -62.642 44.989 -62.642 Z M116.584 31.528  100.62 4.115 H51.761 Q48.617 4.115 46.359 2.341 Q44.102 0.568 43.699 -2.174 L35.878 -40.712 Q34.508 -46.437 38.176 -50.75 Q41.844 -55.064 47.811 -55.064 Q50.633 -55.064 53.172 -53.774 Q55.712 -52.484 57.647 -50.307 L76.674 -29.425 L95.863 -44.744 L88.526 -48.452 Q87.639 -49.017 87.518 -49.742 Q87.398 -50.468 87.801 -51.355 L92.799 -62.401 Q93.041 -63.287 93.928 -63.529 Q94.815 -63.771 95.863 -63.368 L101.91 -60.143 Q102.797 -59.579 102.958 -58.772 Q103.119 -57.966 102.716 -57.241 L97.556 -45.389 L99.33 -43.373 L76.029 -22.249 L62.484 -33.053 L68.531 -5.882 H94.654 Q96.669 -5.882 98.604 -4.673 Q100.539 -3.464 101.588 -1.367 L119.648 29.754 L116.584 31.528 Z M83.689 14.435 H45.231 Q41.361 14.435 38.498 12.057 Q35.636 9.678 34.83 6.05 L21.285 -61.352 H24.832 L38.055 5.728 Q38.377 7.663 40.312 9.275 Q42.248 10.888 44.183 10.888 H83.689 V14.435 Z"/></g><g id="Bold-M" transform="matrix(1 0 0 1 2281.8 1126)"><path d="M44 -59.105 Q39.188 -59.105 35.781 -62.511 Q32.375 -65.917 32.375 -70.73 Q32.375 -75.542 35.781 -79.011 Q39.188 -82.48 44 -82.48 Q48.812 -82.48 52.281 -79.011 Q55.75 -75.542 55.75 -70.73 Q55.75 -65.917 52.281 -62.511 Q48.812 -59.105 44 -59.105 Z M94.625 19.645  80.125 -5.48 H48 Q44.5 -5.48 41.906 -7.574 Q39.312 -9.667 38.625 -13.105 L33.688 -38.355 Q32.312 -44.917 36.875 -49.824 Q41.438 -54.73 48.438 -54.73 Q51.375 -54.73 53.844 -53.199 Q56.312 -51.667 58.812 -50.042 L73.312 -40.105 L81.812 -46.48 L79.625 -47.48 Q78.188 -48.292 77.719 -49.98 Q77.25 -51.667 78.188 -52.98 L86.812 -66.417 Q87.625 -67.73 89 -68.042 Q90.375 -68.355 91.688 -67.667 L99.125 -63.917 Q100.562 -63.105 100.938 -61.48 Q101.312 -59.855 100.375 -58.542 L92.875 -46.48 L96.625 -42.792 L73.938 -25.917 L64.688 -31.542 L67.125 -21.605 H77.625 Q81.312 -21.605 83.5 -19.886 Q85.688 -18.167 87.625 -14.855 L104.625 14.27 L94.625 19.645 Z M69.5 12.77 H38.438 Q31.938 12.77 27.969 9.301 Q24 5.833 22.75 -0.48 L12 -54.73 H25.5 L36.25 -0.48 Q36.25 -0.48 36.25 -0.48 Q36.25 -0.48 36.25 -0.48 H69.5 V12.77 Z"/></g><g id="Semibold-M" transform="matrix(1 0 0 1 1985.97 1126)"><path d="M41.174 -59.267 Q36.688 -59.267 33.526 -62.43 Q30.364 -65.591 30.364 -70.077 Q30.364 -74.564 33.526 -77.761 Q36.688 -80.959 41.174 -80.959 Q45.66 -80.959 48.858 -77.761 Q52.055 -74.564 52.055 -70.077 Q52.055 -65.591 48.858 -62.43 Q45.66 -59.267 41.174 -59.267 Z M93.375 19.156  79.037 -5.642 H45.989 Q42.489 -5.642 39.895 -7.736 Q37.301 -9.83 36.614 -13.267 L31.514 -39.225 Q30.247 -45.461 34.43 -50.177 Q38.611 -54.892 45.123 -54.892 Q48.06 -54.892 50.61 -53.47 Q53.16 -52.047 55.389 -50.151 L68.748 -38.366 L78.986 -45.61 L76.745 -46.61 Q75.525 -47.26 75.138 -48.594 Q74.75 -49.929 75.47 -51.077 L83.009 -64.461 Q83.657 -65.61 84.815 -65.922 Q85.972 -66.235 87.123 -65.656 L94.451 -62.124 Q95.671 -61.475 96.019 -60.176 Q96.368 -58.876 95.647 -57.727 L89.234 -46.262 L92.713 -42.195 L68.938 -25.374 L61.481 -30.021 L63.756 -20.952 H76.43 Q79.627 -20.952 81.789 -19.397 Q83.949 -17.841 85.614 -15.017 L102.614 14.108 L93.375 19.156 Z M67.489 10.923 H36.155 Q30.688 10.923 27.099 7.806 Q23.511 4.691 22.424 -0.642 L11.674 -54.892 H23.489 L34.239 -0.642 Q34.239 -0.642 34.239 -0.642 Q34.239 -0.642 34.239 -0.642 H67.489 V10.923 Z"/></g><g id="Medium-M" transform="matrix(1 0 0 1 1689.91 1126)"><path d="M39.055 -59.39 Q34.812 -59.39 31.834 -62.369 Q28.856 -65.346 28.856 -69.589 Q28.856 -73.83 31.834 -76.824 Q34.812 -79.817 39.055 -79.817 Q43.296 -79.817 46.29 -76.824 Q49.282 -73.83 49.282 -69.589 Q49.282 -65.346 46.29 -62.369 Q43.296 -59.39 39.055 -59.39 Z M92.438 18.789  78.222 -5.765 H44.481 Q40.981 -5.765 38.388 -7.859 Q35.794 -9.952 35.106 -13.39 L29.884 -39.876 Q28.699 -45.869 32.595 -50.442 Q36.492 -55.015 42.636 -55.015 Q45.574 -55.015 48.185 -53.674 Q50.796 -52.334 52.821 -50.232 L65.324 -37.061 L76.868 -44.959 L74.584 -45.959 Q73.528 -46.485 73.201 -47.555 Q72.875 -48.624 73.433 -49.651 L80.155 -62.994 Q80.683 -64.021 81.676 -64.334 Q82.671 -64.646 83.699 -64.149 L90.946 -60.779 Q92.002 -60.251 92.33 -59.197 Q92.657 -58.142 92.1 -57.116 L86.502 -46.1 L89.778 -41.746 L65.188 -24.966 L59.076 -28.88 L61.229 -20.464 H75.532 Q78.364 -20.464 80.504 -19.03 Q82.644 -17.596 84.106 -15.14 L101.106 13.985 L92.438 18.789 Z M65.981 9.536 H34.443 Q29.75 9.536 26.448 6.686 Q23.144 3.835 22.179 -0.765 L11.429 -55.015 H21.981 L32.731 -0.765 Q32.731 -0.765 32.731 -0.765 Q32.731 -0.765 32.731 -0.765 H65.981 V9.536 Z"/></g><g id="Regular-M" transform="matrix(1 0 0 1 1394.06 1126)"><path d="M37.5 -59.48 Q33.438 -59.48 30.594 -62.324 Q27.75 -65.167 27.75 -69.23 Q27.75 -73.292 30.594 -76.136 Q33.438 -78.98 37.5 -78.98 Q41.562 -78.98 44.406 -76.136 Q47.25 -73.292 47.25 -69.23 Q47.25 -65.167 44.406 -62.324 Q41.562 -59.48 37.5 -59.48 Z M91.75 18.52  77.625 -5.855 H43.375 Q39.875 -5.855 37.281 -7.949 Q34.688 -10.042 34 -13.48 L28.688 -40.355 Q27.562 -46.167 31.25 -50.636 Q34.938 -55.105 40.812 -55.105 Q43.75 -55.105 46.406 -53.824 Q49.062 -52.542 50.938 -50.292 L62.812 -36.105 L75.312 -44.48 L73 -45.48 Q72.062 -45.917 71.781 -46.792 Q71.5 -47.667 71.938 -48.605 L78.062 -61.917 Q78.5 -62.855 79.375 -63.167 Q80.25 -63.48 81.188 -63.042 L88.375 -59.792 Q89.312 -59.355 89.625 -58.48 Q89.938 -57.605 89.5 -56.667 L84.5 -45.98 L87.625 -41.417 L62.438 -24.667 L57.312 -28.042 L59.375 -20.105 H74.875 Q77.438 -20.105 79.562 -18.761 Q81.688 -17.417 83 -15.23 L100 13.895 L91.75 18.52 Z M64.875 8.52 H33.188 Q29.062 8.52 25.969 5.864 Q22.875 3.208 22 -0.855 L11.25 -55.105 H20.875 L31.625 -0.855 Q31.625 -0.855 31.625 -0.855 Q31.625 -0.855 31.625 -0.855 H64.875 V8.52 Z"/></g><g id="Light-M" transform="matrix(1 0 0 1 1098.18 1126)"><path d="M36.826 -58.181 Q33.078 -58.181 30.438 -60.821 Q27.797 -63.461 27.797 -67.21 Q27.797 -70.96 30.438 -73.6 Q33.078 -76.24 36.826 -76.24 Q40.576 -76.24 43.216 -73.6 Q45.856 -70.96 45.856 -67.21 Q45.856 -63.461 43.216 -60.821 Q40.576 -58.181 36.826 -58.181 Z M90.74 17.221  77.409 -5.735 H42.389 Q39.297 -5.735 37.041 -7.576 Q34.784 -9.417 34.193 -12.374 L28.64 -39.922 Q27.562 -45.157 30.901 -49.206 Q34.24 -53.254 39.586 -53.254 Q42.284 -53.254 44.664 -52.056 Q47.042 -50.86 48.822 -48.85 L61.731 -34.181 L75.096 -43.782 L71.654 -45.432 Q70.836 -45.845 70.604 -46.66 Q70.37 -47.475 70.735 -48.292 L76.019 -59.85 Q76.409 -60.691 77.224 -60.967 Q78.039 -61.244 78.904 -60.855 L85.274 -57.869 Q86.091 -57.456 86.344 -56.641 Q86.596 -55.826 86.23 -55.032 L81.591 -44.922 L84.067 -41.465 L61.38 -24.956 L54.188 -30.206 L57.235 -17.629 H73.985 Q76.211 -17.629 78.084 -16.465 Q79.956 -15.302 81.125 -13.306 L96.875 13.775 L90.74 17.221 Z M64.802 6.26 H34.269 Q30.481 6.26 27.651 3.905 Q24.823 1.549 24.044 -2.177 L13.51 -55.129 H20.659 L31.169 -2.274 Q31.265 -1.696 31.841 -1.215 Q32.419 -0.735 32.995 -0.735 H64.802 V6.26 Z"/></g><g id="Thin-M" transform="matrix(1 0 0 1 802.565 1126)"><path d="M36.154 -56.884 Q32.716 -56.884 30.281 -59.319 Q27.846 -61.754 27.846 -65.191 Q27.846 -68.629 30.281 -71.064 Q32.716 -73.499 36.154 -73.499 Q39.591 -73.499 42.026 -71.064 Q44.461 -68.629 44.461 -65.191 Q44.461 -61.754 42.026 -59.319 Q39.591 -56.884 36.154 -56.884 Z M89.731 15.924  77.192 -5.615 H41.404 Q38.721 -5.615 36.8 -7.204 Q34.88 -8.792 34.385 -11.269 L28.591 -39.49 Q27.562 -44.149 30.552 -47.776 Q33.544 -51.402 38.36 -51.402 Q40.818 -51.402 42.921 -50.29 Q45.024 -49.177 46.706 -47.407 L60.649 -32.259 L74.88 -43.086 L70.308 -45.384 Q69.61 -45.774 69.425 -46.527 Q69.24 -47.282 69.534 -47.98 L73.976 -57.782 Q74.317 -58.527 75.073 -58.769 Q75.828 -59.009 76.62 -58.667 L82.172 -55.946 Q82.87 -55.557 83.062 -54.802 Q83.255 -54.047 82.961 -53.399 L78.683 -43.865 L80.51 -41.514 L60.322 -25.245 L51.062 -32.37 L55.096 -15.152 H73.096 Q74.985 -15.152 76.606 -14.17 Q78.226 -13.186 79.25 -11.384 L93.75 13.655 L89.731 15.924 Z M64.731 4.001 H35.351 Q31.899 4.001 29.334 1.945 Q26.769 -0.11 26.086 -3.499 L15.769 -55.152 H20.442 L30.711 -3.691 Q30.904 -2.537 32.057 -1.576 Q33.211 -0.615 34.365 -0.615 H64.731 V4.001 Z"/></g><g id="Ultralight-M" transform="matrix(1 0 0 1 506.415 1126)"><path d="M35.75 -56.105 Q32.5 -56.105 30.188 -58.417 Q27.875 -60.73 27.875 -63.98 Q27.875 -67.23 30.188 -69.542 Q32.5 -71.855 35.75 -71.855 Q39 -71.855 41.312 -69.542 Q43.625 -67.23 43.625 -63.98 Q43.625 -60.73 41.312 -58.417 Q39 -56.105 35.75 -56.105 Z M89.125 15.145  77.062 -5.542 H40.812 Q38.375 -5.542 36.656 -6.98 Q34.938 -8.417 34.5 -10.605 L28.562 -39.23 Q27.562 -43.542 30.344 -46.917 Q33.125 -50.292 37.625 -50.292 Q39.938 -50.292 41.875 -49.23 Q43.812 -48.167 45.438 -46.542 L60 -31.105 L74.75 -42.667 L69.5 -45.355 Q68.875 -45.73 68.719 -46.449 Q68.562 -47.167 68.812 -47.792 L72.75 -56.542 Q73.062 -57.23 73.781 -57.449 Q74.5 -57.667 75.25 -57.355 L80.312 -54.792 Q80.938 -54.417 81.094 -53.699 Q81.25 -52.98 81 -52.417 L76.938 -43.23 L78.375 -41.542 L59.688 -25.417 L49.188 -33.667 L53.812 -13.667 H72.562 Q74.25 -13.667 75.719 -12.792 Q77.188 -11.917 78.125 -10.23 L91.875 13.583 L89.125 15.145 Z M64.688 2.645 H36 Q32.75 2.645 30.344 0.77 Q27.938 -1.105 27.312 -4.292 L17.125 -55.167 H20.312 L30.438 -4.542 Q30.688 -3.042 32.188 -1.792 Q33.688 -0.542 35.188 -0.542 H64.688 V2.645 Z"/></g><g id="Bold-S" transform="matrix(1 0 0 1 2294.23 696)"><path d="M35.801 -50.911 Q31.807 -50.911 29.02 -53.698 Q26.234 -56.484 26.234 -60.478 Q26.234 -64.472 29.02 -67.308 Q31.807 -70.143 35.801 -70.143 Q39.795 -70.143 42.631 -67.308 Q45.466 -64.472 45.466 -60.478 Q45.466 -56.484 42.631 -53.698 Q39.795 -50.911 35.801 -50.911 Z M71.503 2.543  62.035 -14.124 H40.634 Q37.379 -14.124 34.889 -16.121 Q32.398 -18.119 31.659 -21.225 L27.96 -38.09 Q27.073 -41.887 29.588 -45.019 Q32.102 -48.15 36.245 -48.84 Q38.464 -49.333 40.362 -48.125 Q42.261 -46.917 44.332 -45.734 L55.772 -38.978 L63.169 -44.501 L60.95 -45.586 Q59.915 -46.128 59.545 -47.459 Q59.175 -48.791 59.816 -49.728 L66.523 -59.936 Q67.065 -60.872 68.101 -61.02 Q69.136 -61.168 70.073 -60.725 L75.843 -57.766 Q76.878 -57.223 77.125 -55.991 Q77.371 -54.758 76.73 -53.821 L70.615 -43.712 L73.081 -41.394 L53.997 -27.192 L47.882 -33.504 L50.397 -24.48 H63.515 Q66.227 -24.48 67.805 -23.272 Q69.383 -22.064 70.813 -19.549 L80.774 -2.486 L71.503 2.543 Z M55.625 0.275 H29.242 Q24.804 0.275 22.413 -1.722 Q20.021 -3.719 19.232 -8.009 L11.046 -49.037 H20.81 L28.897 -9.39 Q28.897 -9.39 28.897 -9.39 Q28.897 -9.39 28.897 -9.39 H55.625 V0.275 Z"/></g><g id="Semibold-S" transform="matrix(1 0 0 1 1998.1 696)"><path d="M33.571 -51.04 Q29.834 -51.04 27.241 -53.633 Q24.647 -56.226 24.647 -59.963 Q24.647 -63.7 27.241 -66.322 Q29.834 -68.943 33.571 -68.943 Q37.308 -68.943 39.929 -66.322 Q42.551 -63.7 42.551 -59.963 Q42.551 -56.226 39.929 -53.633 Q37.308 -51.04 33.571 -51.04 Z M70.517 2.158  61.177 -14.252 H39.047 Q35.792 -14.252 33.302 -16.25 Q30.811 -18.247 30.072 -21.353 L26.245 -38.777 Q25.443 -42.316 27.658 -45.298 Q29.873 -48.278 33.629 -48.968 Q35.848 -49.462 37.811 -48.339 Q39.773 -47.217 41.631 -45.819 L52.171 -37.606 L60.939 -43.814 L58.678 -44.899 Q57.814 -45.313 57.508 -46.366 Q57.203 -47.419 57.672 -48.227 L63.521 -58.392 Q63.935 -59.2 64.799 -59.348 Q65.663 -59.496 66.471 -59.138 L72.155 -56.351 Q73.019 -55.937 73.244 -54.962 Q73.47 -53.986 73 -53.178 L67.743 -43.54 L69.994 -40.923 L50.052 -26.763 L45.353 -32.304 L47.739 -23.965 H62.572 Q64.897 -23.965 66.455 -22.886 Q68.011 -21.806 69.226 -19.677 L79.187 -2.615 L70.517 2.158 Z M54.038 -1.183 H27.441 Q23.818 -1.183 21.726 -2.902 Q19.635 -4.62 18.974 -8.138 L10.789 -49.166 H19.223 L27.31 -9.518 Q27.31 -9.518 27.31 -9.518 Q27.31 -9.518 27.31 -9.518 H54.038 V-1.183 Z"/></g><g id="Medium-S" transform="matrix(1 0 0 1 1701.85 696)"><path d="M31.899 -51.136 Q28.355 -51.136 25.906 -53.585 Q23.458 -56.033 23.458 -59.578 Q23.458 -63.121 25.906 -65.582 Q28.355 -68.043 31.899 -68.043 Q35.443 -68.043 37.904 -65.582 Q40.363 -63.121 40.363 -59.578 Q40.363 -56.033 37.904 -53.585 Q35.443 -51.136 31.899 -51.136 Z M69.777 1.868  60.534 -14.349 H37.857 Q34.603 -14.349 32.112 -16.346 Q29.622 -18.343 28.882 -21.45 L24.959 -39.29 Q24.221 -42.638 26.211 -45.507 Q28.201 -48.375 31.668 -49.065 Q33.887 -49.558 35.898 -48.5 Q37.908 -47.443 39.605 -45.883 L49.469 -36.576 L59.268 -43.3 L56.973 -44.385 Q56.238 -44.702 55.981 -45.546 Q55.723 -46.389 56.064 -47.101 L61.27 -57.234 Q61.587 -57.946 62.322 -58.094 Q63.058 -58.242 63.77 -57.948 L69.39 -55.289 Q70.124 -54.972 70.333 -54.19 Q70.543 -53.407 70.201 -52.696 L65.588 -43.412 L67.678 -40.569 L47.093 -26.442 L43.455 -31.403 L45.745 -23.579 H61.864 Q63.9 -23.579 65.441 -22.596 Q66.981 -21.613 68.036 -19.773 L77.998 -2.711 L69.777 1.868 Z M52.848 -2.276 H26.09 Q23.078 -2.276 21.212 -3.785 Q19.345 -5.295 18.781 -8.234 L10.595 -49.262 H18.034 L26.121 -9.615 Q26.121 -9.615 26.121 -9.615 Q26.121 -9.615 26.121 -9.615 H52.848 V-2.276 Z"/></g><g id="Regular-S" transform="matrix(1 0 0 1 1405.73 696)"><path d="M30.672 -51.207 Q27.27 -51.207 24.927 -53.55 Q22.585 -55.892 22.585 -59.294 Q22.585 -62.697 24.927 -65.039 Q27.27 -67.382 30.672 -67.382 Q34.075 -67.382 36.417 -65.039 Q38.76 -62.697 38.76 -59.294 Q38.76 -55.892 36.417 -53.55 Q34.075 -51.207 30.672 -51.207 Z M69.235 1.656  60.063 -14.42 H36.984 Q33.73 -14.42 31.239 -16.417 Q28.749 -18.414 28.01 -21.521 L24.015 -39.668 Q23.325 -42.873 25.149 -45.66 Q26.974 -48.446 30.229 -49.136 Q32.448 -49.629 34.494 -48.618 Q36.541 -47.607 38.119 -45.931 L47.488 -35.822 L58.041 -42.923 L55.723 -44.008 Q55.082 -44.254 54.86 -44.945 Q54.638 -45.635 54.885 -46.276 L59.619 -56.385 Q59.865 -57.026 60.506 -57.174 Q61.148 -57.322 61.789 -57.075 L67.361 -54.511 Q68.002 -54.265 68.199 -53.624 Q68.396 -52.982 68.15 -52.341 L64.008 -43.317 L65.98 -40.309 L44.924 -26.206 L42.064 -30.743 L44.283 -23.296 H61.345 Q63.169 -23.296 64.698 -22.384 Q66.227 -21.472 67.164 -19.844 L77.125 -2.782 L69.235 1.656 Z M51.975 -3.078 H25.1 Q22.536 -3.078 20.835 -4.434 Q19.133 -5.79 18.64 -8.305 L10.454 -49.333 H17.161 L25.248 -9.686 Q25.248 -9.686 25.248 -9.686 Q25.248 -9.686 25.248 -9.686 H51.975 V-3.078 Z"/></g><g id="Light-S" transform="matrix(1 0 0 1 1109.75 696)"><path d="M30.141 -50.183 Q26.986 -50.183 24.804 -52.364 Q22.623 -54.546 22.623 -57.701 Q22.623 -60.857 24.804 -63.038 Q26.986 -65.22 30.141 -65.22 Q33.297 -65.22 35.478 -63.038 Q37.66 -60.857 37.66 -57.701 Q37.66 -54.546 35.478 -52.364 Q33.297 -50.183 30.141 -50.183 Z M68.438 0.631  59.892 -14.325 H36.206 Q33.274 -14.325 31.05 -16.123 Q28.825 -17.921 28.161 -20.648 L23.978 -39.327 Q23.325 -42.077 24.874 -44.531 Q26.424 -46.985 29.261 -47.675 Q31.291 -48.169 33.119 -47.224 Q34.947 -46.28 36.45 -44.793 L46.635 -34.304 L57.87 -42.372 L54.661 -43.97 Q54.115 -44.197 53.931 -44.84 Q53.747 -45.483 53.936 -46.029 L58.006 -54.754 Q58.215 -55.319 58.809 -55.438 Q59.403 -55.558 59.987 -55.349 L64.914 -52.993 Q65.46 -52.767 65.61 -52.173 Q65.76 -51.579 65.57 -51.051 L61.713 -42.483 L63.173 -40.347 L44.089 -26.434 L39.598 -32.45 L42.594 -21.343 H60.643 Q62.202 -21.343 63.531 -20.572 Q64.861 -19.803 65.684 -18.327 L74.659 -2.877 L68.438 0.631 Z M51.918 -4.861 H25.953 Q23.655 -4.861 22.162 -5.98 Q20.67 -7.099 20.253 -9.349 L12.237 -49.352 H16.99 L24.888 -10.806 Q24.964 -10.35 25.419 -9.97 Q25.874 -9.591 26.329 -9.591 H51.918 V-4.861 Z"/></g><g id="Thin-S" transform="matrix(1 0 0 1 814.015 696)"><path d="M29.61 -49.159 Q26.701 -49.159 24.681 -51.179 Q22.661 -53.198 22.661 -56.108 Q22.661 -59.017 24.681 -61.037 Q26.701 -63.057 29.61 -63.057 Q32.52 -63.057 34.539 -61.037 Q36.559 -59.017 36.559 -56.108 Q36.559 -53.198 34.539 -51.179 Q32.52 -49.159 29.61 -49.159 Z M67.642 -0.393  59.721 -14.231 H35.429 Q32.819 -14.231 30.86 -15.829 Q28.901 -17.428 28.313 -19.776 L23.939 -38.986 Q23.325 -41.281 24.599 -43.403 Q25.874 -45.524 28.294 -46.215 Q30.134 -46.708 31.744 -45.83 Q33.354 -44.952 34.78 -43.655 L45.781 -32.787 L57.7 -41.823 L53.599 -43.932 Q53.147 -44.141 53.001 -44.735 Q52.855 -45.331 52.988 -45.783 L56.395 -53.123 Q56.565 -53.612 57.112 -53.703 Q57.658 -53.794 58.185 -53.624 L62.467 -51.476 Q62.919 -51.268 63.021 -50.722 Q63.124 -50.176 62.991 -49.762 L59.418 -41.649 L60.366 -40.385 L43.255 -26.661 L37.132 -34.157 L40.907 -19.389 H59.941 Q61.234 -19.389 62.366 -18.762 Q63.496 -18.133 64.205 -16.81 L72.194 -2.972 L67.642 -0.393 Z M51.862 -6.644 H26.807 Q24.774 -6.644 23.49 -7.526 Q22.205 -8.408 21.864 -10.391 L14.02 -49.371 H16.82 L24.527 -11.924 Q24.679 -11.014 25.589 -10.255 Q26.5 -9.497 27.41 -9.497 H51.862 V-6.644 Z"/></g><g id="Ultralight-S" transform="matrix(1 0 0 1 517.792 696)"><path d="M29.292 -48.544 Q26.53 -48.544 24.607 -50.468 Q22.684 -52.391 22.684 -55.152 Q22.684 -57.914 24.607 -59.837 Q26.53 -61.76 29.292 -61.76 Q32.053 -61.76 33.976 -59.837 Q35.9 -57.914 35.9 -55.152 Q35.9 -52.391 33.976 -50.468 Q32.053 -48.544 29.292 -48.544 Z M67.164 -1.007  59.619 -14.174 H34.963 Q32.546 -14.174 30.746 -15.653 Q28.946 -17.132 28.404 -19.253 L23.917 -38.78 Q23.325 -40.802 24.434 -42.725 Q25.544 -44.649 27.714 -45.339 Q29.44 -45.832 30.919 -44.994 Q32.398 -44.156 33.779 -42.972 L45.269 -31.877 L57.597 -41.493 L52.962 -43.909 Q52.567 -44.106 52.444 -44.673 Q52.321 -45.24 52.419 -45.635 L55.427 -52.144 Q55.575 -52.588 56.093 -52.662 Q56.611 -52.736 57.104 -52.588 L61 -50.566 Q61.394 -50.369 61.468 -49.851 Q61.542 -49.333 61.443 -48.988 L58.041 -41.147 L58.682 -40.408 L42.754 -26.798 L35.653 -35.181 L39.894 -18.217 H59.52 Q60.654 -18.217 61.665 -17.675 Q62.676 -17.132 63.317 -15.899 L70.714 -3.029 L67.164 -1.007 Z M51.827 -7.714 H27.319 Q25.445 -7.714 24.286 -8.453 Q23.128 -9.193 22.832 -11.018 L15.09 -49.383 H16.717 L24.311 -12.596 Q24.508 -11.412 25.692 -10.426 Q26.875 -9.44 28.059 -9.44 H51.827 V-7.714 Z"/></g></g></svg>